<?xml version="1.0" encoding="UTF-8"?>
<svg width="153px" height="28px" viewBox="0 0 153 28" version="1.1" xmlns="http://www.w3.org/2000/svg" xmlns:xlink="http://www.w3.org/1999/xlink">
    <!-- Generator: Sketch 52.3 (67297) - http://www.bohemiancoding.com/sketch -->
    <title>Neutrino logo -bw-white Copy</title>
    <desc>Created with Sketch.</desc>
    <g id="Page-1" stroke="none" stroke-width="1" fill="none" fill-rule="evenodd">
        <g id="Neutrino_Waves-account_1" transform="translate(-40.000000, -13.000000)">
            <g id="Neutrino-logo--bw-white-Copy" transform="translate(40.000000, 13.000000)">
                <path d="M152.674703,19.804878 L152.675736,19.804878 C152.675392,19.7685805 152.675047,19.7324195 152.674703,19.6963951 L152.674703,19.804878 Z" id="Path" fill-opacity="0.28" fill="#FFFFFF"></path>
                <path d="M138.955703,19.6325756 L138.955703,20.4557756 C138.984304,21.9212341 139.285824,23.2195122 139.860264,24.3506098 C139.898514,24.4254927 139.938142,24.4992829 139.978804,24.571878 C138.274439,26.4412878 135.696527,27.6585366 133.164791,27.6585366 C132.184074,27.6585366 131.249534,27.4758537 130.390459,27.1433024 L130.390459,23.2032585 C131.1465,23.8555902 132.119291,24.2439024 133.164791,24.2439024 C135.503899,24.2439024 138.954324,22.3002585 138.954324,19.804878 C138.954324,19.7869171 138.954324,19.7689902 138.954324,19.7510634 C138.954669,19.711522 138.955014,19.6720146 138.955703,19.6325756 Z" id="Path" fill-opacity="0.16" fill="#FFFFFF"></path>
                <path d="M144.941655,14.9605024 C145.20148,14.8907756 145.476122,14.8536585 145.763514,14.8536585 C146.27248,14.8536585 146.739405,14.9699268 147.158777,15.1776049 C146.77352,14.954561 146.325892,14.8430049 145.815203,14.8430049 C145.499209,14.8430049 145.208027,14.8821707 144.941655,14.9605024 Z" id="Path" fill-opacity="0.28" fill="#FFFFFF"></path>
                <path d="M0.150760135,15.3685512 L0.150760135,12.1219512 L1.62086959,12.1219512 C1.09905,12.010122 0.556968243,11.9512195 0,11.9512195 L0,15.3658537 C0.0504141892,15.3658537 0.100690541,15.3667415 0.150760135,15.3685512 Z" id="Path" fill-opacity="0.28" fill="#FFFFFF"></path>
                <path d="M13.2453547,27.6143512 C17.1358622,27.1935659 19.8345892,23.8200098 19.8345892,19.804878 C19.8345892,18.030122 20.8336723,16.534478 22.2521959,15.8186341 L22.2521959,12.1219512 L25.7853243,12.1219512 C25.2536149,12.010122 24.7057095,11.9512195 24.1489135,11.9512195 C18.4410486,11.9512195 16.3886432,15.5112146 16.3886432,19.804878 C16.3886432,21.9944439 15.1332507,23.7591951 13.2453547,24.158878 L13.2453547,27.6143512 Z" id="Path" fill-opacity="0.16" fill="#FFFFFF"></path>
                <path d="M30.5117838,15.0137366 C31.5948446,16.3453073 32.2537095,18.0110683 32.2537095,19.804878 C32.2537095,22.3002585 34.2289257,24.2439024 36.5680338,24.2439024 C38.9071419,24.2439024 41.0067568,22.3002927 41.0067568,19.804878 C41.0067568,19.2716488 41.0577568,18.7497561 41.155277,18.2445951 L41.155277,22.3658537 C41.171473,23.6439854 41.4895338,24.7188098 42.1091149,25.5902927 C40.5835946,26.871122 38.6042432,27.6585366 36.5680338,27.6585366 C35.2978581,27.6585366 34.1048716,27.3520049 33.0531689,26.8103756 L33.0531689,24.777439 L30.56175,24.777439 C29.7157703,23.7301707 29.1327162,22.4600293 28.9094189,21.0747122 L31.9763108,21.0747122 L31.9763108,18.2896341 L28.510723,18.2896341 C28.0575811,17.1708293 27.1295878,16.2729512 26.0320541,15.780322 L26.0320541,15.0137366 L30.5117838,15.0137366 Z" id="Path" fill-opacity="0.16" fill="#FFFFFF"></path>
                <path d="M53.5069257,13.6840439 C55.2795203,15.1309268 56.4028986,17.3477756 56.4028986,19.804878 C56.4028986,22.3002585 58.3781149,24.2439024 60.717223,24.2439024 C63.0563311,24.2439024 65.0315473,22.3002585 65.0315473,19.804878 C65.0005338,17.9790732 65.4588446,16.3265951 66.3103378,15.0137366 L66.3151622,15.0137366 L66.3151622,25.2442195 C64.9099054,26.7278098 62.9308986,27.6585366 60.717223,27.6585366 C57.4094595,27.6585366 54.6265135,25.5805268 53.4969324,22.6849854 C53.5034797,22.5557415 53.5069257,22.4244829 53.5069257,22.2911415 L53.5069257,13.6840439 Z" id="Path" fill-opacity="0.16" fill="#FFFFFF"></path>
                <path d="M70.4806216,12.1219512 C70.9933784,12.0099171 71.5350811,11.9512195 72.1026284,11.9512195 C78.4996824,11.9512195 80.5520878,13.8038976 80.5520878,19.804878 C80.5520878,21.601078 81.5755338,23.1114049 83.0214527,23.8167317 L83.0214527,27.4362098 C79.6013514,26.5947756 77.1061419,23.4666293 77.1061419,19.804878 C77.1061419,17.3094634 74.4417365,15.3658537 72.1026284,15.3658537 C71.3093716,15.3658537 70.636723,15.5895122 70.0950203,15.9825366 L70.0950203,15.0137366 L74.8008041,15.0137366 L74.8008041,12.1219512 L70.4806216,12.1219512 Z" id="Path" fill-opacity="0.16" fill="#FFFFFF"></path>
                <path d="M86.8013108,27.4136049 C88.2034662,27.0505268 89.4460743,26.3020049 90.4198986,25.2905902 L88.8471689,22.1737805 L88.5170473,22.1737805 C88.0969865,22.8565366 87.501527,23.4095707 86.8013108,23.7716927 L86.8013108,27.4136049 Z" id="Path" fill-opacity="0.28" fill="#FFFFFF"></path>
                <path d="M93.0501892,13.0063073 C93.2273108,13.111239 93.3947838,13.2254927 93.5529527,13.3491024 C94.3555135,13.9752439 94.8506959,14.7993659 95.0388446,15.8214341 C95.6160405,15.5290049 96.2631892,15.3658537 96.9410068,15.3658537 C99.2801149,15.3658537 101.255331,17.3094634 101.255331,19.804878 C101.255331,22.5344341 102.363547,24.9674634 104.282939,26.3779122 L104.282939,16.5416488 C102.965899,13.8476732 100.100939,11.9512195 96.9410068,11.9512195 C95.5167973,11.9512195 94.1897635,12.3364585 93.0501892,13.0063073 Z" id="Path" fill-opacity="0.16" fill="#FFFFFF"></path>
                <path d="M108.05177,27.653722 C108.142743,27.6569317 108.234405,27.6585366 108.326412,27.6585366 C112.655899,27.6585366 117.120466,24.0985415 117.120466,19.804878 C117.120466,19.3239268 117.181115,18.8634634 117.295865,18.4334585 L117.295865,13.0009122 C115.068061,14.3660488 113.67452,16.9198537 113.67452,19.804878 C113.67452,22.3002927 110.66552,24.2439024 108.326412,24.2439024 C108.232682,24.2439024 108.141365,24.2407951 108.05177,24.2346146 L108.05177,27.653722 Z" id="Path" fill-opacity="0.16" fill="#FFFFFF"></path>
                <path d="M92.5077973,21.1781756 C92.4692027,21.1972634 92.4299189,21.2161463 92.3899459,21.2347561 L92.4688581,21.3853073 C92.4826419,21.3165707 92.4957365,21.2475268 92.5077973,21.1781756 Z" id="Path" fill-opacity="0.28" fill="#FFFFFF"></path>
                <path d="M125.402453,19.6650829 L126.621284,21.7896341 L126.621284,14.2959122 L126.621284,12.1219512 L130.390459,12.1219512 L130.390459,23.2032585 L130.390459,27.1433024 L130.390459,27.6585366 L126.631966,27.6585366 L121.075378,17.9908537 L121.075378,27.6585366 L117.295865,27.6585366 L117.295865,18.4334585 L117.295865,13.0009122 L117.295865,12.1219512 L119.485074,12.1219512 L121.075378,12.1219512 L123.294223,15.9898439 L125.402453,19.6650829 Z" id="Combined-Shape" fill="#FFFFFF"></path>
                <path d="M104.282939,16.5416829 L104.282939,12.1219512 L108.05177,12.1219512 L108.05177,24.2346146 L108.05177,27.653722 L108.05177,27.6585366 L104.282939,27.6585366 L104.282939,26.3779122 L104.282939,16.5416829 Z" id="Combined-Shape" fill="#FFFFFF"></path>
                <path d="M86.8013108,23.7716927 L86.8013108,27.4136049 C86.1841419,27.5734098 85.5359595,27.6585366 84.8664122,27.6585366 C84.2292568,27.6585366 83.6117432,27.5814341 83.0214527,27.4362098 L83.0214527,23.8167317 L83.0214527,12.1219512 L89.1917635,12.1219512 C90.7703514,12.1219512 92.0563784,12.4167366 93.0501892,13.0063073 C93.2273108,13.111239 93.3947838,13.2254927 93.5529527,13.3491024 C94.3555135,13.9752439 94.8506959,14.7993659 95.0388446,15.8214341 C95.0963919,16.1347268 95.1253378,16.4665951 95.1253378,16.8170732 C95.1253378,17.8983854 94.9027297,18.7947268 94.4575135,19.5060976 C94.0381419,20.1874537 93.3882365,20.7447902 92.5077973,21.1781756 C92.4692027,21.1972634 92.4299189,21.2161463 92.3899459,21.2347561 L92.4688581,21.3853073 L95.6635946,27.4984585 L95.6635946,27.6585366 L91.6146081,27.6585366 L90.4198986,25.2905902 L88.8471689,22.1737805 L88.5170473,22.1737805 L86.8013108,22.1737805 L86.8013108,23.7716927 Z M90.2462879,15.2039696 C89.9517039,15.0771476 89.6001499,15.0137366 89.1917635,15.0137366 L86.8013108,15.0137366 L86.8013108,19.2820293 L89.1917635,19.2820293 C89.1938311,19.2820293 89.1958986,19.2819951 89.1979662,19.2819951 C89.9126554,19.2809707 90.4491892,19.0960341 90.807223,18.7271512 C91.1731824,18.3501073 91.3561622,17.8272244 91.3561622,17.1585366 C91.3561622,16.4898488 91.1731824,15.9669659 90.807223,15.589922 C90.7349376,15.5142222 90.3874776,15.2958576 90.2462879,15.2039696 Z" id="Combined-Shape" fill="#FFFFFF"></path>
                <path d="M84.8664122,27.6585366 C85.5359595,27.6585366 86.1841419,27.5734098 86.8013108,27.4136049 L86.8013108,27.6585366 L84.8664122,27.6585366 Z" id="Path" fill="#FFFFFF"></path>
                <path d="M83.0214527,27.4362098 C83.6117432,27.5814341 84.2292568,27.6585366 84.8664122,27.6585366 L83.0214527,27.6585366 L83.0214527,27.4362098 Z" id="Path" fill="#FFFFFF"></path>
                <path d="M70.0950203,15.9825366 L70.0950203,27.6585366 L66.3151622,27.6585366 L66.3151622,25.2442195 L66.3151622,15.0137366 L66.3103378,15.0137366 L61.695527,15.0137366 L61.695527,12.1219512 L70.4806216,12.1219512 L74.8008041,12.1219512 L74.8008041,15.0137366 L70.0950203,15.0137366 L70.0950203,15.9825366 Z" id="Combined-Shape" fill="#FFFFFF"></path>
                <path d="M42.1091149,25.5902927 C41.4895338,24.7188098 41.171473,23.6439854 41.155277,22.3658537 L41.155277,18.2445951 L41.155277,12.1219512 L44.9565,12.1219512 L44.9565,12.9059854 L44.9565,20.2235805 L44.9565,22.4405659 C44.9995743,24.1407463 45.7966216,24.9908537 47.3472973,24.9908537 C48.1298716,24.9908537 48.7222297,24.777439 49.124027,24.3506098 C49.5261689,23.9237805 49.7270676,23.2301659 49.7270676,22.2698341 L49.7270676,15.5084146 L49.7270676,12.1219512 L50.2636014,12.1219512 L53.5069257,12.1219512 L53.5069257,13.6840098 L53.5069257,22.2911415 C53.5069257,22.4244829 53.5034797,22.5557415 53.4969324,22.6849854 C53.446277,23.6728049 53.2019595,24.5410098 52.7639797,25.2896341 C52.2684527,26.1290537 51.5578986,26.7692976 50.6316284,27.2103659 C49.7057027,27.6514341 48.6109257,27.8719512 47.3472973,27.8719512 C45.4375541,27.8719512 43.9337432,27.3810976 42.8351757,26.3993902 C42.5591554,26.1526146 42.3169054,25.8829268 42.1091149,25.5902927 Z" id="Combined-Shape" fill="#FFFFFF"></path>
                <path d="M30.56175,24.777439 L33.0531689,24.777439 L33.0531689,26.8103756 L33.0531689,27.6585366 L22.2521959,27.6585366 L22.2521959,15.8186341 L22.2521959,12.1219512 L25.7853243,12.1219512 L33.0745338,12.1219512 L33.0745338,15.0137366 L30.5117838,15.0137366 L26.0320541,15.0137366 L26.0320541,15.780322 L26.0320541,18.2896341 L28.510723,18.2896341 L31.9763108,18.2896341 L31.9763108,21.0747122 L28.9094189,21.0747122 L26.0320541,21.0747122 L26.0320541,24.777439 L30.56175,24.777439 Z" id="Combined-Shape" fill="#FFFFFF"></path>
                <path d="M12.418948,27.6585366 C12.699827,27.6585366 12.9754682,27.6435463 13.2453547,27.6143512 L13.2453547,27.6585366 L12.418948,27.6585366 Z" id="Path" fill="#FFFFFF"></path>
                <path d="M9.06273446,26.9201561 C10.0964838,27.3932537 11.2370919,27.6585366 12.418948,27.6585366 L9.4871027,27.6585366 L9.06273446,26.9201561 Z" id="Path" fill="#FFFFFF"></path>
                <path d="M1.62086959,12.1219512 L3.93051486,12.1219512 L4.79431014,13.6277366 L7.67656824,18.6522 L9.47635135,21.7896341 L9.47635135,12.1219512 L13.2453547,12.1219512 L13.2453547,24.158878 L13.2453547,27.6143512 C12.9754682,27.6435463 12.699827,27.6585366 12.418948,27.6585366 C11.2370919,27.6585366 10.0964838,27.3932537 9.06273446,26.9201561 L3.96766216,18.0554244 C3.64432905,17.2795512 3.11280912,16.6229683 2.45076968,16.152786 C3.11280912,16.6229683 3.64432905,17.2795512 3.96766216,18.0554244 L3.93051486,17.9908537 L3.93051486,27.6585366 L0.150760135,27.6585366 L0.150760135,15.3685512 C0.996171284,15.398822 1.78873024,15.6826037 2.45076968,16.152786 C1.78873024,15.6826037 0.996171284,15.398822 0.150760135,15.3685512 L0.150760135,12.1219512 L1.62086959,12.1219512 Z" id="Combined-Shape" fill="#FFFFFF"></path>
                <polygon id="Path" fill-opacity="0.76" fill="#003EFF" points="110.004243 3.7949561 106.174419 0 102.344595 3.7949561 106.174419 7.5899122"></polygon>
                <path d="M147.158432,15.1776049 C146.77352,14.9545268 146.325892,14.8430049 145.815203,14.8430049 C145.499209,14.8430049 145.208027,14.8821366 144.941655,14.9605024 C143.086358,15.4580146 141.958845,17.6162341 141.958845,19.804878 C141.958845,21.5878634 141.18902,23.2443366 139.978804,24.571878 C139.938142,24.4992829 139.898514,24.4254927 139.860264,24.3506098 C139.285824,23.2195122 138.984304,21.9212341 138.955703,20.4557756 L138.955703,19.5808098 C138.955703,18.0584293 139.235514,16.7174683 139.79548,15.5579268 C140.362682,14.3912488 141.170412,13.4913561 142.218324,12.8582146 C143.273818,12.2251073 144.472662,11.9085366 145.815203,11.9085366 C147.14327,11.9085366 148.327986,12.2215561 149.368662,12.847561 C150.409682,13.4735659 151.217412,14.3663561 151.791851,15.5259317 C152.373182,16.6783707 152.667466,18.0015415 152.674703,19.4954439 L152.674703,20.2103659 C152.674703,21.7256098 152.391101,23.0665707 151.823899,24.2332488 C151.730514,24.4260049 151.630236,24.6114878 151.523068,24.7896976 C150.30975,23.4276683 149.554054,21.6867512 149.554054,19.804878 C149.554054,17.8524927 148.665689,15.9243171 147.158432,15.1776049 Z" id="Path" fill="#FFFFFF"></path>
                <path d="M147.158432,15.1776049 C147.504405,15.3780098 147.799723,15.6683902 148.044385,16.0487805 C148.568514,16.8455171 148.830405,18.0157463 148.830405,19.5594341 L148.830405,20.2743902 C148.823169,21.7825317 148.561277,22.938522 148.044385,23.742361 C147.527493,24.5462341 146.791439,24.9481707 145.836568,24.9481707 C144.83173,24.9481707 144.074311,24.5391317 143.564655,23.7210537 C143.055,22.9029415 142.8,21.7327122 142.8,20.2103659 L142.810682,19.0686146 C142.900622,16.7212927 143.610831,15.351922 144.941655,14.9605024 C143.086358,15.4580146 141.27002,17.3707902 141.27002,19.5594341 C141.27002,21.3424195 141.18902,23.2443366 139.978804,24.571878 C140.549797,25.595961 141.317899,26.3936537 142.283108,26.9649561 C143.316892,27.5696195 144.501264,27.8719512 145.836568,27.8719512 C147.171872,27.8719512 148.360034,27.5589317 149.401054,26.9329268 C150.27598,26.4044098 150.983432,25.69 151.523068,24.7896976 C150.30975,23.4276683 150.241455,21.4413073 150.241455,19.5594341 C150.241455,17.6070488 148.665689,15.9243171 147.158432,15.1776049 Z" id="Path" fill="#FFFFFF"></path>
            </g>
        </g>
    </g>
</svg>