<svg width="15" height="15" viewBox="0 0 15 15" fill="none" xmlns="http://www.w3.org/2000/svg">
    <path fill-rule="evenodd" clip-rule="evenodd" d="M7.6154 13.75H1.90383C1.55352 13.75 1.26923 13.47 1.26923 13.125V1.87502C1.26923 1.53001 1.55355 1.25003 1.90383 1.25003H7.6154C7.96634 1.25003 8.25 0.970666 8.25 0.625045C8.25 0.279424 7.96634 0 7.6154 0H1.90383C0.854184 0 0 0.841272 0 1.87502V13.125C0 14.1588 0.854184 15 1.90383 15H7.6154C7.96634 15 8.25 14.7206 8.25 14.375C8.25 14.0294 7.96634 13.75 7.6154 13.75Z" fill="white"/>
    <path fill-rule="evenodd" clip-rule="evenodd" d="M14.8054 6.70689L10.8353 3.03338C10.5793 2.79582 10.1653 2.7989 9.91194 3.03951C9.65857 3.28012 9.66118 3.66768 9.91848 3.90523L12.7557 6.53055H5.15297C4.79187 6.53055 4.5 6.80422 4.5 7.14279C4.5 7.48136 4.79187 7.75506 5.15297 7.75506H12.7557L9.91848 10.3804C9.66122 10.6179 9.65925 11.0055 9.91194 11.2461C10.0399 11.3673 10.2084 11.4285 10.3769 11.4285C10.5427 11.4285 10.7086 11.3698 10.8353 11.2522L14.8054 7.57869C14.9295 7.4636 15 7.30684 15 7.14276C15 6.97875 14.9301 6.82262 14.8054 6.70689Z" fill="white"/>
</svg>
