<svg viewBox="0 0 18 21" fill="none" xmlns="http://www.w3.org/2000/svg">
    <path fill-rule="evenodd" clip-rule="evenodd" d="M1.77646 3.65216H12.2235C13.1992 3.65216 13.9954 4.39705 14 5.31418V19.338C14 20.2551 13.2038 21 12.2235 21H1.77646C0.796187 21 0 20.2551 0 19.338V5.31418C0 4.39705 0.796187 3.65216 1.77646 3.65216ZM12.2189 19.8331C12.5135 19.8331 12.7528 19.6092 12.7528 19.3337V5.31418C12.7528 5.03861 12.5135 4.81471 12.2189 4.81471H1.77186C1.47732 4.81471 1.238 5.03861 1.238 5.31418V19.3337C1.238 19.6092 1.47732 19.8331 1.77186 19.8331H12.2189Z" fill="#08A3F8"/>
    <path fill-rule="evenodd" clip-rule="evenodd" d="M16.2235 0H5.77646C4.79619 0 4 0.744893 4 1.66202C4 1.98495 4.27613 2.24329 4.6213 2.24329C4.96647 2.24329 5.2426 1.98495 5.2426 1.66202C5.2426 1.38645 5.48192 1.16255 5.77646 1.16255H16.2235C16.5181 1.16255 16.7574 1.38645 16.7574 1.66202V15.6858C16.7574 15.9614 16.5181 16.1853 16.2235 16.1853C15.8784 16.1853 15.6022 16.4436 15.6022 16.7666C15.6022 17.0895 15.8784 17.3478 16.2235 17.3478C17.2038 17.3478 18 16.6029 18 15.6858V1.66202C18 0.744893 17.2038 0 16.2235 0Z" fill="#08A3F8"/>
</svg>
