<svg viewBox="0 0 20 20" fill="none" xmlns="http://www.w3.org/2000/svg">
    <path d="M0.877686 9.99054C0.877686 9.99054 1.75021 8.65555 4.27432 8.23629C6.79844 7.81703 8.69931 8.65617 10.3889 9.52318C12.0785 10.3902 13.3597 10.8333 15.3545 10.755C17.3494 10.6768 18.3792 10.0553 19.1044 9.44444" stroke="#00F5FF"/>
    <path fill-rule="evenodd" clip-rule="evenodd" d="M20 10L10 0L0 10L10 20L20 10ZM19 10L10 1L1 10L10 19L19 10Z" fill="#00F5FF"/>
    <path fill-rule="evenodd" clip-rule="evenodd" d="M13.3334 11.5898C13.3334 12.2572 13.0818 12.8228 12.5785 13.2866C12.0751 13.7503 11.3373 14.0082 10.3648 14.0602V15.5555H9.72497V14.0732C9.10223 14.0385 8.51576 13.915 7.96553 13.7026C7.41531 13.4903 6.98238 13.2194 6.66675 12.89L7.03783 12.1489C7.3364 12.4436 7.72667 12.6906 8.20865 12.89C8.69064 13.0894 9.19607 13.2064 9.72497 13.2411V9.82143C9.13635 9.67407 8.64585 9.51588 8.25344 9.34685C7.86103 9.17781 7.53474 8.93077 7.27455 8.60571C7.01437 8.28065 6.88428 7.84941 6.88428 7.31198C6.88428 6.64452 7.12313 6.08325 7.60085 5.62817C8.07857 5.17308 8.7866 4.90654 9.72497 4.82852V3.33325H10.3648V4.81552C10.851 4.83286 11.3223 4.91304 11.7787 5.05607C12.2351 5.19909 12.6296 5.38762 12.9623 5.62167L12.6424 6.38881C12.2927 6.16343 11.9216 5.98573 11.5292 5.85571C11.1368 5.72569 10.7486 5.65201 10.3648 5.63467V9.0803C10.996 9.23633 11.5121 9.39452 11.9131 9.55488C12.314 9.71525 12.651 9.96012 12.9239 10.2895C13.1969 10.6189 13.3334 11.0523 13.3334 11.5898ZM7.81838 7.28597C7.81838 7.73672 7.98259 8.07911 8.31102 8.31316C8.63945 8.5472 9.11076 8.74657 9.72497 8.91127V5.66068C9.0937 5.71268 8.61813 5.88822 8.29823 6.18727C7.97833 6.48633 7.81838 6.85256 7.81838 7.28597ZM10.3648 13.2411C11.0387 13.189 11.5463 13.02 11.8875 12.734C12.2287 12.4479 12.3993 12.0838 12.3993 11.6418C12.3993 11.1737 12.2244 10.8226 11.8747 10.5886C11.5249 10.3545 11.0216 10.1552 10.3648 9.99046V13.2411Z" fill="#00F5FF"/>
    <path fill-rule="evenodd" clip-rule="evenodd" d="M10.0556 19.5051L0.625 10.0534C0.625 10.0534 2.65212 8.51261 5.01836 7.93196C7.38461 7.35131 9.16659 8.51346 10.7505 9.71422C12.3345 10.915 13.5249 11.2195 15.395 11.1112C17.265 11.0028 19.4861 10.0534 19.4861 10.0534L10.0556 19.5051Z" fill="#00F5FF"/>
    <path fill-rule="evenodd" clip-rule="evenodd" d="M12.5785 13.2409C13.0818 12.7772 13.3334 12.2116 13.3334 11.5441C13.3334 11.3992 13.3235 11.2618 13.3036 11.1319C12.4459 10.8554 11.6616 10.359 10.7506 9.66845C10.3601 9.3724 9.95752 9.07869 9.53712 8.81287C9.01383 8.65889 8.60514 8.47711 8.31102 8.26752C8.2323 8.21143 8.16302 8.14911 8.10316 8.08056C7.72851 7.93929 7.33827 7.83395 6.92942 7.77783C6.98781 8.08482 7.10286 8.34557 7.27455 8.56008C7.53474 8.88514 7.86103 9.13218 8.25344 9.30121C8.64585 9.47024 9.13635 9.62844 9.72497 9.7758V13.1954C9.19607 13.1607 8.69064 13.0437 8.20865 12.8444C7.72667 12.645 7.3364 12.3979 7.03783 12.1032L6.66675 12.8444C6.98238 13.1738 7.41531 13.4446 7.96553 13.657C8.51576 13.8694 9.10223 13.9929 9.72497 14.0276V15.5098H10.3648V14.0146C11.3373 13.9626 12.0751 13.7047 12.5785 13.2409ZM11.8875 12.6883C11.5463 12.9744 11.0387 13.1434 10.3648 13.1954V9.94483C11.0216 10.1095 11.5249 10.3089 11.8747 10.5429C12.2244 10.777 12.3993 11.128 12.3993 11.5961C12.3993 12.0382 12.2287 12.4023 11.8875 12.6883Z" fill="black"/>
</svg>
