<svg width="11" height="10" viewBox="0 0 11 10" fill="none" xmlns="http://www.w3.org/2000/svg">
    <path fill-rule="evenodd" clip-rule="evenodd" d="M10.8054 4.70689L6.83526 1.03338C6.57928 0.795822 6.1653 0.798903 5.91194 1.03951C5.65857 1.28012 5.66118 1.66768 5.91848 1.90523L8.75569 4.53055H1.15297C0.791875 4.53055 0.5 4.80422 0.5 5.14279C0.5 5.48136 0.791875 5.75506 1.15297 5.75506H8.75569L5.91848 8.38038C5.66122 8.61794 5.65925 9.00549 5.91194 9.2461C6.03991 9.36733 6.20839 9.42854 6.37687 9.42854C6.54274 9.42854 6.70857 9.36977 6.83526 9.2522L10.8054 5.57869C10.9295 5.4636 11 5.30684 11 5.14276C11 4.97875 10.9301 4.82262 10.8054 4.70689Z" fill="white"/>
</svg>
