<svg viewBox="0 0 20 20" fill="none" xmlns="http://www.w3.org/2000/svg">
    <path fill-rule="evenodd" clip-rule="evenodd" d="M20 10L10 0L0 10L10 20L20 10ZM19 10L10 1L1 10L10 19L19 10Z" fill="#00F5FF"/>
    <path d="M1 9.73689C1 9.73689 2.12527 8.50394 4.64939 7.90815C7.17351 7.31235 9.07437 8.50481 10.764 9.73689C12.4536 10.969 13.7348 11.5986 15.7296 11.4874C17.7244 11.3762 18.5573 10.605 19.2825 9.73689" stroke="#00F5FF"/>
    <path fill-rule="evenodd" clip-rule="evenodd" d="M10.8271 12.6617C11.8494 12.6617 12.6918 12.3188 13.3543 11.6329L13.9431 12.2085C13.5587 12.6249 13.0967 12.9393 12.5569 13.1516C12.0171 13.3639 11.4242 13.47 10.7781 13.47C10.0665 13.47 9.40818 13.3332 8.80297 13.0597C8.19777 12.7862 7.68866 12.4045 7.27565 11.9146C6.86264 11.4247 6.57844 10.8614 6.42305 10.2245H5V9.68562H6.32491C6.30037 9.49783 6.2881 9.30596 6.2881 9.11C6.2881 8.90588 6.30037 8.71401 6.32491 8.53438H5V7.99551H6.42305C6.57844 7.35865 6.86264 6.79528 7.27565 6.30539C7.68866 5.8155 8.19777 5.4338 8.80297 5.16028C9.40818 4.88676 10.0665 4.75 10.7781 4.75C11.4242 4.75 12.0171 4.85614 12.5569 5.06843C13.0967 5.28071 13.5587 5.59097 13.9431 5.99921L13.3543 6.57483C12.6836 5.89715 11.8413 5.55831 10.8271 5.55831C9.99293 5.55831 9.26302 5.78284 8.63736 6.23191C8.01171 6.68098 7.58848 7.26884 7.36766 7.99551H11.5755V8.53438H7.23271C7.20818 8.71401 7.19591 8.90588 7.19591 9.11C7.19591 9.30596 7.20818 9.49783 7.23271 9.68562H11.5755V10.2245H7.36766C7.58848 10.9512 8.01171 11.539 8.63736 11.9881C9.26302 12.4372 9.99293 12.6617 10.8271 12.6617Z" fill="#00F5FF"/>
    <path fill-rule="evenodd" clip-rule="evenodd" d="M9.93056 19.2273L0.515869 10C0.515869 10 2.91964 8.23478 5.16043 7.65413C7.40122 7.07348 9.08873 8.23563 10.5887 9.43639C12.0886 10.6371 13.216 10.9417 14.9869 10.8333C16.7578 10.725 19.1473 10 19.1473 10L9.93056 19.2273Z" fill="#00F5FF"/>
    <path fill-rule="evenodd" clip-rule="evenodd" d="M13.3543 12.8829C12.6918 13.5688 11.8494 13.9117 10.8271 13.9117C9.99293 13.9117 9.26302 13.6872 8.63736 13.2381C8.01171 12.789 7.58848 12.2012 7.36766 11.4745H11.5755V11.403C11.3634 11.2652 11.1464 11.1102 10.9213 10.9364C10.921 10.9361 10.9207 10.9359 10.9203 10.9356H7.23271C7.20818 10.7478 7.19591 10.556 7.19591 10.36C7.19591 10.1559 7.20818 9.96401 7.23271 9.78438H9.23957C8.85429 9.56773 8.45298 9.38186 8.03146 9.24551H7.36766C7.38391 9.19202 7.40126 9.13929 7.4197 9.08731C7.12056 9.02949 6.81123 8.99846 6.49043 9.00006C6.46578 9.08062 6.44332 9.16244 6.42305 9.24551H5V9.78438H6.32491C6.30037 9.96401 6.2881 10.1559 6.2881 10.36C6.2881 10.556 6.30037 10.7478 6.32491 10.9356H5V11.4745H6.42305C6.57844 12.1114 6.86264 12.6747 7.27565 13.1646C7.68866 13.6545 8.19777 14.0362 8.80297 14.3097C9.40818 14.5832 10.0665 14.72 10.7781 14.72C11.4242 14.72 12.0171 14.6139 12.5569 14.4016C13.0967 14.1893 13.5587 13.8749 13.9431 13.4585L13.3543 12.8829Z" fill="#11122F"/>
</svg>
