<svg viewBox="0 0 32 32" fill="none" xmlns="http://www.w3.org/2000/svg">
    <path fill-rule="evenodd" clip-rule="evenodd" d="M32 16L16 0L0 16L16 32L32 16ZM30.4 16L16 1.6L1.6 16L16 30.4L30.4 16Z" fill="#00F5FF"/>
    <path d="M1 16.179C1 16.179 2.80044 14.2063 6.83902 13.253C10.8776 12.2998 13.919 14.2077 16.6224 16.179C19.3258 18.1504 21.3757 19.1578 24.5674 18.9799C27.7591 18.802 29.8397 17.081 31 15.692" stroke="#00F5FF"/>
    <path fill-rule="evenodd" clip-rule="evenodd" d="M16.684 21.74C18.434 21.74 19.876 21.152 21.01 19.976L22.018 20.963C21.36 21.677 20.569 22.216 19.645 22.58C18.721 22.944 17.706 23.126 16.6 23.126C15.382 23.126 14.255 22.8915 13.219 22.4225C12.183 21.9535 11.3115 21.299 10.6045 20.459C9.89748 19.619 9.41099 18.653 9.14498 17.561H6.70898V16.637H8.97698C8.93498 16.315 8.91398 15.986 8.91398 15.65C8.91398 15.3 8.93498 14.971 8.97698 14.663H6.70898V13.739H9.14498C9.41099 12.647 9.89748 11.681 10.6045 10.841C11.3115 10.001 12.183 9.34651 13.219 8.87751C14.255 8.40851 15.382 8.17401 16.6 8.17401C17.706 8.17401 18.721 8.35601 19.645 8.72001C20.569 9.08401 21.36 9.61601 22.018 10.316L21.01 11.303C19.862 10.141 18.42 9.56001 16.684 9.56001C15.256 9.56001 14.0065 9.94501 12.9355 10.715C11.8645 11.485 11.14 12.493 10.762 13.739H17.965V14.663H10.531C10.489 14.971 10.468 15.3 10.468 15.65C10.468 15.986 10.489 16.315 10.531 16.637H17.965V17.561H10.762C11.14 18.807 11.8645 19.815 12.9355 20.585C14.0065 21.355 15.256 21.74 16.684 21.74Z" fill="#00F5FF"/>
</svg>
