<svg width="13" height="15" viewBox="0 0 13 15" fill="none" xmlns="http://www.w3.org/2000/svg">
    <path fill-rule="evenodd" clip-rule="evenodd" d="M9.26314 0.347534L8.20553 1.39352L9.91855 3.08035H2.03121C1.20854 3.08035 0.541626 3.73993 0.541626 4.55356V6.76338H2.03121V4.55356H9.91855L8.21298 6.24039L9.26314 7.27901L12.2423 4.33258C12.5311 4.04526 12.5311 3.58129 12.2423 3.29396L9.26314 0.347534Z" fill="white"/>
    <path fill-rule="evenodd" clip-rule="evenodd" d="M10.9687 10.4465H3.08136L4.78693 8.75962L3.73678 7.72101L0.75761 10.6674C0.468817 10.9548 0.468817 11.4187 0.75761 11.7061L3.73678 14.6525L4.78693 13.6139L3.08136 11.9197H10.9687C11.7914 11.9197 12.4583 11.2601 12.4583 10.4465V8.23663H10.9687V10.4465Z" fill="white"/>
</svg>
