<svg width="40" height="40" viewBox="0 0 40 40" fill="none" xmlns="http://www.w3.org/2000/svg">
    <path fill-rule="evenodd" clip-rule="evenodd" d="M29 20C29 24.9706 24.9706 29 20 29C15.0294 29 11 24.9706 11 20C11 15.0294 15.0294 11 20 11C24.9706 11 29 15.0294 29 20ZM28 20C28 24.4183 24.4183 28 20 28C15.5817 28 12 24.4183 12 20C12 15.5817 15.5817 12 20 12C24.4183 12 28 15.5817 28 20Z" fill="black" fill-opacity="0.4"/>
    <path d="M20.015 16.014C19.443 16.014 18.884 16.1613 18.338 16.456L18 15.52C18.2947 15.364 18.624 15.2383 18.988 15.143C19.3607 15.0477 19.755 15 20.171 15C20.665 15 21.068 15.0693 21.38 15.208C21.7007 15.338 21.9563 15.507 22.147 15.715C22.3377 15.923 22.4677 16.157 22.537 16.417C22.615 16.6683 22.654 16.911 22.654 17.145C22.654 17.4397 22.5977 17.704 22.485 17.938C22.3723 18.1633 22.2337 18.3757 22.069 18.575C21.9043 18.7743 21.7223 18.965 21.523 19.147C21.3237 19.329 21.1417 19.5197 20.977 19.719C20.8123 19.9097 20.6737 20.122 20.561 20.356C20.4483 20.5813 20.392 20.837 20.392 21.123C20.392 21.1663 20.392 21.214 20.392 21.266C20.392 21.318 20.3963 21.3657 20.405 21.409H19.391C19.3563 21.2357 19.339 21.0537 19.339 20.863C19.339 20.5857 19.3867 20.3343 19.482 20.109C19.586 19.8837 19.716 19.6757 19.872 19.485C20.028 19.2857 20.1927 19.1037 20.366 18.939C20.5393 18.7657 20.704 18.5923 20.86 18.419C21.016 18.2457 21.1417 18.0637 21.237 17.873C21.341 17.6823 21.393 17.4743 21.393 17.249C21.393 16.885 21.276 16.5903 21.042 16.365C20.808 16.131 20.4657 16.014 20.015 16.014ZM20.834 23.515C20.834 23.749 20.756 23.9527 20.6 24.126C20.444 24.2993 20.2317 24.386 19.963 24.386C19.6943 24.386 19.482 24.2993 19.326 24.126C19.17 23.9527 19.092 23.749 19.092 23.515C19.092 23.281 19.17 23.0773 19.326 22.904C19.482 22.7307 19.6943 22.644 19.963 22.644C20.2317 22.644 20.444 22.7307 20.6 22.904C20.756 23.0773 20.834 23.281 20.834 23.515Z" fill="#6121A1"/>
</svg>