<?xml version="1.0" encoding="UTF-8"?>
<svg width="113px" height="113px" viewBox="0 0 113 113" version="1.1" xmlns="http://www.w3.org/2000/svg" xmlns:xlink="http://www.w3.org/1999/xlink">
    <!-- Generator: Sketch 63.1 (92452) - https://sketch.com -->
    <title>N_ICON_2</title>
    <desc>Created with Sketch.</desc>
    <g id="Page-1" stroke="none" stroke-width="1" fill="none" fill-rule="evenodd">
        <g id="N_ICON_2" transform="translate(2.000000, 3.000000)">
            <polygon id="Path-Copy-3" stroke="#00F5FF" stroke-width="3" points="108.522 53.74011 54.7817 2.13162821e-13 1.04162 53.74011 54.7817 107.48011"></polygon>
            <path d="M55,109.24011 L0,53.6288193 C7.8816,47.5851193 16.4224,43.4245193 25.6226,41.1469193 C39.4228,37.7306193 49.8155,44.5683193 59.0532,51.6332193 C68.2909,58.6982193 75.2336,60.4900193 86.14,59.8525193 C93.4109,59.4274193 101.364,57.3529193 110,53.6288193 L55,109.24011 Z" id="Path-Copy-4" fill="#00F5FF"></path>
            <polygon id="Path-Copy-5" fill="#FFFFFF" points="28 82.5926491 28 25.24011 32.3780303 25.24011 75.5325872 74.4898078 75.5325872 22.24011 80 25.24011 80 84.1688209 77.776914 86.0001698 32.4673786 31.5479443 32.4673786 87.24011"></polygon>
            <path d="M75.5325872,21.24011 L80,24.24011 L80.0001976,59.9197295 C78.4485156,59.8463435 76.9680477,59.6940374 75.5320924,59.4506782 L75.5325872,21.24011 Z M32.3780303,24.24011 L51.9624356,46.5906146 C48.7403122,44.5363537 45.3385666,42.7658877 41.680607,41.6201578 L32.4673786,30.5479443 L32.4674352,40.2429276 C31.0188855,40.2633436 29.5310099,40.3948061 28.0004602,40.6522205 L28,24.24011 L32.3780303,24.24011 Z" id="Combined-Shape-Copy-4" fill="#00F5FF"></path>
        </g>
    </g>
</svg>