<svg width="18" height="18" viewBox="0 0 18 18" fill="none" xmlns="http://www.w3.org/2000/svg">
<path fill-rule="evenodd" clip-rule="evenodd" d="M9 18C13.9706 18 18 13.9706 18 9C18 4.02944 13.9706 0 9 0C4.02944 0 0 4.02944 0 9C0 13.9706 4.02944 18 9 18Z" fill="#40407E"/>
<path fill-rule="evenodd" clip-rule="evenodd" d="M12 6.39521C12 6.65868 11.9671 6.89022 11.9014 7.08982C11.8357 7.28942 11.7433 7.47305 11.6242 7.64072C11.5051 7.80838 11.3614 7.96607 11.193 8.11377C11.0246 8.26148 10.8337 8.41517 10.6201 8.57485C10.4887 8.67864 10.3799 8.77046 10.2936 8.8503C10.2074 8.93014 10.1396 9.01198 10.0903 9.09581C10.0411 9.17964 10.0062 9.26746 9.98563 9.35928C9.96509 9.4511 9.95483 9.56088 9.95483 9.68862V10H8.03285V9.54491C8.03285 9.33732 8.05339 9.1517 8.09446 8.98802C8.13552 8.82435 8.19712 8.67465 8.27926 8.53892C8.3614 8.40319 8.46201 8.27146 8.58111 8.14371C8.70021 8.01597 8.84189 7.88423 9.00616 7.7485L9.41273 7.37725C9.55236 7.25748 9.67146 7.13174 9.77002 7C9.86858 6.86826 9.91786 6.71058 9.91786 6.52695C9.91786 6.27146 9.83778 6.06786 9.67762 5.91617C9.51745 5.76447 9.29774 5.68862 9.01848 5.68862C8.67351 5.68862 8.41479 5.80239 8.2423 6.02994C8.06981 6.25749 7.97536 6.51497 7.95893 6.8024L6 6.5988C6.04928 6.16766 6.16222 5.78842 6.33881 5.46108C6.5154 5.13373 6.74333 4.86228 7.02259 4.64671C7.30185 4.43114 7.61807 4.26946 7.97125 4.16168C8.32444 4.05389 8.69815 4 9.0924 4C9.46201 4 9.82135 4.04591 10.1704 4.13772C10.5195 4.22954 10.8296 4.37325 11.1006 4.56886C11.3717 4.76447 11.5893 5.01397 11.7536 5.31737C11.9179 5.62076 12 5.98004 12 6.39521ZM10.2857 12.2789C10.2857 12.6417 10.1626 12.9478 9.91648 13.1973C9.67033 13.4467 9.36703 13.5714 9.00659 13.5714C8.83077 13.5714 8.66593 13.5397 8.51209 13.4762C8.35824 13.4127 8.22198 13.322 8.1033 13.2041C7.98461 13.0862 7.89011 12.9501 7.81978 12.7959C7.74945 12.6417 7.71429 12.4739 7.71429 12.2925C7.71429 12.1202 7.74725 11.9546 7.81319 11.7959C7.87912 11.6372 7.97143 11.4989 8.09011 11.381C8.20879 11.263 8.34725 11.1701 8.50549 11.102C8.66374 11.034 8.83077 11 9.00659 11C9.18242 11 9.34725 11.034 9.5011 11.102C9.65495 11.1701 9.79121 11.2608 9.90989 11.3741C10.0286 11.4875 10.1209 11.6236 10.1868 11.7823C10.2527 11.941 10.2857 12.1066 10.2857 12.2789Z" fill="white"/>
</svg>
