<svg viewBox="0 0 32 32" fill="none" xmlns="http://www.w3.org/2000/svg">
    <path fill-rule="evenodd" clip-rule="evenodd" d="M32 16L16 0L0 16L16 32L32 16ZM30.4 16L16 1.6L1.6 16L16 30.4L30.4 16Z" fill="#00F5FF"/>
    <path d="M1 16.179C1 16.179 2.80044 14.2063 6.83902 13.253C10.8776 12.2998 13.919 14.2077 16.6224 16.179C19.3258 18.1504 21.3757 19.1578 24.5674 18.9799C27.7591 18.802 29.8397 17.081 31 15.692" stroke="#00F5FF"/>
    <path fill-rule="evenodd" clip-rule="evenodd" d="M20.9705 19.115C20.9705 20.193 20.5575 21.1065 19.7315 21.8555C18.9055 22.6045 17.6945 23.021 16.0985 23.105V25.52H15.0485V23.126C14.0265 23.07 13.064 22.8705 12.161 22.5275C11.258 22.1845 10.5475 21.747 10.0295 21.215L10.6385 20.018C11.1285 20.494 11.769 20.893 12.56 21.215C13.351 21.537 14.1805 21.726 15.0485 21.782V16.259C14.0825 16.021 13.2775 15.7655 12.6335 15.4925C11.9895 15.2195 11.454 14.8205 11.027 14.2955C10.6 13.7705 10.3865 13.074 10.3865 12.206C10.3865 11.128 10.7785 10.2215 11.5625 9.48653C12.3465 8.75153 13.5085 8.32103 15.0485 8.19503V5.78003H16.0985V8.17403C16.8965 8.20203 17.67 8.33153 18.419 8.56253C19.168 8.79353 19.8155 9.09803 20.3615 9.47603L19.8365 10.715C19.2625 10.351 18.6535 10.064 18.0095 9.85403C17.3655 9.64403 16.7285 9.52503 16.0985 9.49703V15.062C17.1345 15.314 17.9815 15.5695 18.6395 15.8285C19.2975 16.0875 19.8505 16.483 20.2985 17.015C20.7465 17.547 20.9705 18.247 20.9705 19.115ZM11.9195 12.164C11.9195 12.892 12.189 13.445 12.728 13.823C13.267 14.201 14.0405 14.523 15.0485 14.789V9.53903C14.0125 9.62303 13.232 9.90653 12.707 10.3895C12.182 10.8725 11.9195 11.464 11.9195 12.164ZM16.0985 21.782C17.2045 21.698 18.0375 21.425 18.5975 20.963C19.1575 20.501 19.4375 19.913 19.4375 19.199C19.4375 18.443 19.1505 17.876 18.5765 17.498C18.0025 17.12 17.1765 16.798 16.0985 16.532V21.782Z" fill="#00F5FF"/>
</svg>
