<svg width="258" height="85" viewBox="0 0 258 85" fill="none" xmlns="http://www.w3.org/2000/svg">
<path d="M42.5023 1.13523L1.13995 42.4976L42.5023 83.86L83.8647 42.4976L42.5023 1.13523Z" stroke="white" stroke-width="0.5"/>
<path d="M64.4977 3.96177L25.9572 42.5022L64.4977 81.0427L103.038 42.5022L64.4977 3.96177Z" stroke="white" stroke-width="0.5"/>
<path d="M85.5293 5.38908L48.4478 42.4706L85.5293 79.5521L122.611 42.4706L85.5293 5.38908Z" stroke="white" stroke-width="0.5"/>
<path d="M106.5 6.79111L70.791 42.5L106.5 78.2089L142.209 42.5L106.5 6.79111Z" stroke="white" stroke-width="0.5"/>
<path d="M128.5 9.61954L95.6194 42.5L128.5 75.3805L161.38 42.5L128.5 9.61954Z" stroke="white" stroke-width="0.5"/>
<path d="M150.5 12.448L120.448 42.5L150.5 72.5521L180.552 42.5L150.5 12.448Z" stroke="white" stroke-width="0.5"/>
<path d="M172.5 15.2764L145.276 42.5L172.5 69.7236L199.723 42.5L172.5 15.2764Z" stroke="white" stroke-width="0.5"/>
<path d="M194.5 18.1048L170.105 42.5L194.5 66.8952L218.895 42.5L194.5 18.1048Z" stroke="white" stroke-width="0.5"/>
<path d="M216.5 20.9332L194.933 42.5L216.5 64.0667L238.067 42.5L216.5 20.9332Z" stroke="white" stroke-width="0.5"/>
<path d="M238.5 23.7616L219.762 42.5L238.5 61.2383L257.238 42.5L238.5 23.7616Z" stroke="white" stroke-width="0.5"/>
</svg>
