<svg viewBox="0 0 446 82" fill="none" xmlns="http://www.w3.org/2000/svg">
    <g opacity="0.0994699">
        <path fill-rule="evenodd" clip-rule="evenodd" d="M445.498 57.6589H445.502C445.501 57.5526 445.499 57.4466 445.498 57.3411V57.6589Z" fill="white" fill-opacity="0.28"/>
        <path fill-rule="evenodd" clip-rule="evenodd" d="M405.012 57V59.4616C405.096 63.8438 405.976 67.726 407.654 71.1083C407.766 71.3322 407.881 71.5529 408 71.77C403.023 77.3601 395.495 81 388.102 81C385.238 81 382.509 80.4537 380 79.4593V67.6774C382.208 69.6281 385.049 70.7892 388.102 70.7892C394.932 70.7892 405.008 64.9772 405.008 57.5152C405.008 57.4615 405.008 57.4079 405.008 57.3543C405.009 57.2361 405.01 57.1179 405.012 57Z" fill="white" fill-opacity="0.28"/>
        <path fill-rule="evenodd" clip-rule="evenodd" d="M423 43.3541C423.703 43.1499 424.446 43.0413 425.224 43.0413C426.601 43.0413 427.865 43.3817 429 43.99C427.957 43.3368 426.746 43.01 425.364 43.01C424.509 43.01 423.721 43.1248 423 43.3541Z" fill="white" fill-opacity="0.28"/>
        <path fill-rule="evenodd" clip-rule="evenodd" d="M26 79L11 53C11.6551 54.566 12.0199 56.2978 12.0199 58.1311C12.0199 67.2865 17.8946 75.3047 26 79Z" fill="white" fill-opacity="0.28"/>
        <path fill-rule="evenodd" clip-rule="evenodd" d="M0.465059 45V35.4996H5C3.39031 35.1724 1.71812 35 0 35V44.9921C0.155516 44.9921 0.310607 44.9947 0.465059 45Z" fill="white" fill-opacity="0.28"/>
        <path fill-rule="evenodd" clip-rule="evenodd" d="M14 40L22 55C21.181 48.9652 18.241 43.637 14 40Z" fill="white" fill-opacity="0.28"/>
        <path fill-rule="evenodd" clip-rule="evenodd" d="M38 81C49.4792 79.7642 57.442 69.8567 57.442 58.0649C57.442 52.8527 60.3898 48.4603 64.5753 46.358V35.5014H75C73.4312 35.173 71.8145 35 70.1717 35C53.3302 35 47.2745 45.4551 47.2745 58.0649C47.2745 64.4953 43.5704 69.6781 38 70.8519V81Z" fill="white" fill-opacity="0.28"/>
        <path fill-rule="evenodd" clip-rule="evenodd" d="M89.0961 44C92.2624 47.8963 94.1885 52.7705 94.1885 58.0194C94.1885 65.3211 99.9629 71.0084 106.801 71.0084C113.639 71.0084 119.777 65.3212 119.777 58.0194C119.777 56.4591 119.926 54.932 120.212 53.4538V65.5131C120.259 69.253 121.189 72.3981 123 74.9481C118.54 78.6959 112.754 81 106.801 81C103.088 81 99.6002 80.1031 96.5257 78.5182V72.5696H89.2422C86.769 69.5052 85.0645 65.7886 84.4117 61.735H93.3776V53.5856H83.2462C81.9215 50.3119 79.2086 47.6846 76 46.2431V44H89.0961Z" fill="white" fill-opacity="0.28"/>
        <path fill-rule="evenodd" clip-rule="evenodd" d="M131 59C131.024 58.5975 131.037 58.1925 131.037 57.7852C131.037 50.5456 134.807 44.9066 141.418 44.9066C142.472 44.9066 143.501 45.05 144.484 45.3202V35.4953H146C144.525 35.1709 142.993 35 141.418 35C137.599 35 134.06 36.0065 131 37.77V59Z" fill="white" fill-opacity="0.28"/>
        <path fill-rule="evenodd" clip-rule="evenodd" d="M156.029 40C161.145 44.245 164.388 50.7491 164.388 57.958C164.388 65.2793 170.09 70.9817 176.841 70.9817C183.593 70.9817 189.295 65.2793 189.295 57.958C189.205 52.6013 190.528 47.753 192.986 43.9012H193V73.9166C188.944 78.2693 183.231 81 176.841 81C167.294 81 159.261 74.9033 156 66.408C156.019 66.0288 156.029 65.6437 156.029 65.2525V40Z" fill="white" fill-opacity="0.28"/>
        <path fill-rule="evenodd" clip-rule="evenodd" d="M205.134 35.4962C206.641 35.1706 208.233 35 209.902 35C228.707 35 234.741 40.384 234.741 57.823C234.741 63.0429 237.749 67.4319 242 69.4817V80C231.946 77.5548 224.611 68.4642 224.611 57.823C224.611 50.5713 216.778 44.9231 209.902 44.9231C207.57 44.9231 205.592 45.573 204 46.7152V43.8998H217.834V35.4962H205.134Z" fill="white" fill-opacity="0.28"/>
        <path fill-rule="evenodd" clip-rule="evenodd" d="M253 80C257.262 78.9606 261.04 76.8178 264 73.9225L259.219 65H258.216C256.939 66.9545 255.129 68.5377 253 69.5743V80Z" fill="white" fill-opacity="0.28"/>
        <path fill-rule="evenodd" clip-rule="evenodd" d="M260 56C261.987 55.9971 263.479 55.4779 264.474 54.4421C265.491 53.3834 266 51.9152 266 50.0377C266 48.1601 265.491 46.6919 264.474 45.6333C264.25 45.3962 264.003 45.185 263.732 45C261.599 48.1798 260.262 51.9513 260 56Z" fill="white" fill-opacity="0.28"/>
        <path fill-rule="evenodd" clip-rule="evenodd" d="M271 38.0716C271.52 38.3771 272.012 38.7098 272.477 39.0696C274.835 40.8925 276.29 43.2917 276.842 46.2672C278.538 45.4159 280.439 44.9409 282.431 44.9409C289.303 44.9409 295.105 50.5993 295.105 57.8641C295.105 65.8106 298.361 72.8938 304 77V48.364C300.131 40.5211 291.714 35 282.431 35C278.246 35 274.348 36.1215 271 38.0716Z" fill="white" fill-opacity="0.28"/>
        <path fill-rule="evenodd" clip-rule="evenodd" d="M315 80.9859C315.266 80.9953 315.533 81 315.802 81C328.448 81 341.488 70.5563 341.488 57.9603C341.488 56.5494 341.665 55.1985 342 53.9371V38C335.493 42.0048 331.423 49.4967 331.423 57.9603C331.423 65.2809 322.634 70.9827 315.802 70.9827C315.528 70.9827 315.262 70.9736 315 70.9555V80.9859Z" fill="white" fill-opacity="0.28"/>
        <path fill-rule="evenodd" clip-rule="evenodd" d="M348 35.5033H352.68L359.209 46.9044C362.793 49.1012 365.275 53.0706 365.413 57.7376L369 64V41.9113C364.878 37.6577 359.135 35 352.723 35C351.085 35 349.506 35.1736 348 35.5033Z" fill="white" fill-opacity="0.28"/>
        <path fill-rule="evenodd" clip-rule="evenodd" d="M269.671 62.1967C269.559 62.2526 269.445 62.3079 269.329 62.3624L269.558 62.8033C269.598 62.602 269.636 62.3998 269.671 62.1967Z" fill="white" fill-opacity="0.28"/>
        <path fill-rule="evenodd" clip-rule="evenodd" d="M429.145 44.639C430.164 45.2288 431.034 46.0834 431.755 47.2029C433.298 49.5478 434.07 52.992 434.07 57.5352V59.6394C434.048 64.0781 433.277 67.4803 431.755 69.8461C430.232 72.212 428.064 73.395 425.252 73.395C422.293 73.395 420.062 72.1911 418.561 69.7834C417.06 67.3756 416.309 63.9315 416.309 59.451L416.34 56.0907C416.605 49.1822 418.697 45.152 422.617 44C417.152 45.4642 413.832 51.8161 413.832 58.2576C413.832 63.5051 411.564 68.3804 408 72.2875C409.682 75.3015 411.944 77.6492 414.787 79.3306C417.831 81.1102 421.319 82 425.252 82C429.185 82 432.684 81.0787 435.75 79.2363C438.327 77.6808 440.411 75.5782 442 72.9285C438.427 68.9199 436.201 63.7962 436.201 58.2576C436.201 52.5115 433.584 46.8366 429.145 44.639Z" fill="white"/>
        <path fill-rule="evenodd" clip-rule="evenodd" d="M365.531 58C365.531 67.7257 371.487 76.1661 380 79.4911V81H369.093L352.968 52.6875V81H342V53.9837C343.392 48.7094 347.532 45 353.011 45C355.328 45 357.522 45.6632 359.407 46.8274L365.525 57.5906C365.527 57.6609 365.529 57.7314 365.53 57.802C365.531 57.8679 365.531 57.9339 365.531 58Z" fill="white"/>
        <path fill-rule="evenodd" clip-rule="evenodd" d="M369 42.2778C373.036 46.391 375.506 52.0272 375.506 58.1863C375.506 62.1715 377.269 65.6693 380 68V36H369V42.2778Z" fill="white"/>
        <path fill-rule="evenodd" clip-rule="evenodd" d="M348 35H342V38C343.811 36.6171 345.825 35.5916 348 35Z" fill="white"/>
        <path fill-rule="evenodd" clip-rule="evenodd" d="M304 77C307.022 79.3767 310.735 80.8238 315 80.985V81H304V77Z" fill="white"/>
        <path fill-rule="evenodd" clip-rule="evenodd" d="M306.227 58.2001C306.227 54.8487 305.423 51.652 304 48.771V36H315V71C308.759 70.5741 306.227 65.1216 306.227 58.2001Z" fill="white"/>
        <path fill-rule="evenodd" clip-rule="evenodd" d="M271 38.5534C268.126 36.8511 264.407 36 259.843 36H242V69.7666C243.627 70.5594 245.44 71 247.335 71C249.332 71 251.236 70.5111 252.93 69.6366V65.0229H257.892C259.103 63.0571 259.811 60.7187 259.811 58.1831C259.811 57.6761 259.828 57.1727 259.861 56.6734C259.855 56.6734 259.849 56.6735 259.843 56.6735H252.93V44.3495H259.843C261.446 44.3495 262.746 44.687 263.743 45.362C265.625 42.589 268.103 40.2536 271 38.5534Z" fill="white"/>
        <path fill-rule="evenodd" clip-rule="evenodd" d="M264 74.2056L267.418 81H279V80.5407L269.861 63C268.994 67.2939 266.92 71.1641 264 74.2056Z" fill="white"/>
        <path fill-rule="evenodd" clip-rule="evenodd" d="M269 62C271.691 60.7055 273.677 59.0408 274.959 57.0057C276.32 54.8809 277 52.2036 277 48.9739C277 47.927 276.912 46.9358 276.736 46C272.409 48.1414 269.363 52.604 269.363 57.8981C269.363 59.2951 269.239 60.666 269 62Z" fill="white"/>
        <path fill-rule="evenodd" clip-rule="evenodd" d="M247 80.8587C249.076 80.8587 251.086 80.6093 253 80.1414V80.8587H247Z" fill="white"/>
        <path fill-rule="evenodd" clip-rule="evenodd" d="M242 80.1744C243.6 80.5997 245.273 80.8256 247 80.8256H242V80.1744Z" fill="white"/>
        <path fill-rule="evenodd" clip-rule="evenodd" d="M199.293 58.1305C199.293 53.3291 200.927 49.2291 204 47V81H193V73.9696C196.909 69.8405 199.293 64.2406 199.293 58.1305Z" fill="white"/>
        <path fill-rule="evenodd" clip-rule="evenodd" d="M206 36C200.707 37.0815 196.462 39.9593 193.658 44H180V36H206Z" fill="white"/>
        <path fill-rule="evenodd" clip-rule="evenodd" d="M156 40V35H147C150.367 35.8321 153.43 37.5795 156 40Z" fill="white"/>
        <path fill-rule="evenodd" clip-rule="evenodd" d="M154.435 58.5104C154.435 61.4608 154.989 64.2923 156 66.8967C155.853 69.773 155.145 72.301 153.876 74.4808C152.44 76.9251 150.381 78.7893 147.697 80.0736C145.014 81.3579 141.841 82 138.179 82C132.645 82 128.287 80.5707 125.104 77.7122C124.304 76.9937 123.602 76.2084 123 75.3563C127.671 71.415 130.874 65.8694 131.251 59.7296V66.185C131.376 71.1355 133.686 73.6109 138.179 73.6109C140.447 73.6109 142.164 72.9894 143.328 71.7466C144.493 70.5038 145.076 68.4841 145.076 65.6878V46C150.391 47.4302 154.435 52.4027 154.435 58.5104Z" fill="white"/>
        <path fill-rule="evenodd" clip-rule="evenodd" d="M131 37.305C125.344 40.5317 121.282 46.2593 120 53V35H131V37.305Z" fill="white"/>
        <path fill-rule="evenodd" clip-rule="evenodd" d="M88.8493 72.5625C90.7958 75.0202 93.2268 77.0588 96 78.5161V81H65V46.326C66.6533 45.4747 68.5049 45 70.4438 45C72.296 45 74.1435 45.4331 75.8486 46.2138V53.5625H82.9627C83.5096 54.9406 83.8152 56.4332 83.8152 58C83.8152 59.2641 83.9151 60.5065 84.107 61.7188H75.8486V72.5625H88.8493Z" fill="white"/>
        <path fill-rule="evenodd" clip-rule="evenodd" d="M88.6168 44C85.2295 40.0005 80.4016 37.0907 75 36H96V44H88.6168Z" fill="white"/>
        <path fill-rule="evenodd" clip-rule="evenodd" d="M36 80.5647C36.6798 80.5647 37.3468 80.5208 38 80.4353V80.5647H36Z" fill="white"/>
        <path fill-rule="evenodd" clip-rule="evenodd" d="M26 79C29.0801 80.2814 32.4786 81 36 81H27.2644L26 79Z" fill="white"/>
        <path fill-rule="evenodd" clip-rule="evenodd" d="M1 45C5.87281 45.1773 10.1364 48.325 12 52.8704L11.8929 52.6813V81H1V45Z" fill="white"/>
        <path fill-rule="evenodd" clip-rule="evenodd" d="M14 40C11.414 38.0687 8.35472 36.6733 5 36H11.5502L14 40Z" fill="white"/>
        <path fill-rule="evenodd" clip-rule="evenodd" d="M22.2398 58.1831C22.2398 57.0541 22.158 55.9426 22 54.8549L27.1711 63.9137V36H38V70.7545C37.2424 70.9157 36.4492 71 35.6256 71C28.9049 71 22.2398 65.3881 22.2398 58.1831Z" fill="white"/>
        <path fill-rule="evenodd" clip-rule="evenodd" d="M321 11L310 0L299 11L310 22L321 11Z" fill="#003EFF" fill-opacity="0.76"/>
        <path fill-rule="evenodd" clip-rule="evenodd" d="M428.916 44.6439C427.794 43.9858 426.489 43.6568 425 43.6568C424.079 43.6568 423.23 43.7723 422.453 44.0034C417.044 45.4711 413.756 51.838 413.756 58.2946C413.756 63.5544 411.512 68.4411 407.983 72.3574C407.864 72.1433 407.749 71.9256 407.637 71.7047C405.963 68.3679 405.083 64.5379 405 60.2147V57.6335C405 53.1425 405.816 49.1866 407.449 45.7659C409.102 42.3241 411.457 39.6694 414.513 37.8016C417.59 35.9339 421.086 35 425 35C428.872 35 432.326 35.9234 435.361 37.7702C438.396 39.6169 440.751 42.2507 442.426 45.6715C444.121 49.0712 444.979 52.9746 445 57.3817V59.4908C445 63.9608 444.173 67.9167 442.519 71.3585C442.247 71.9271 441.955 72.4743 441.642 73C438.105 68.982 435.901 63.8462 435.901 58.2946C435.901 52.5349 433.311 46.8467 428.916 44.6439Z" fill="white" fill-opacity="0.76"/>
        <path fill-rule="evenodd" clip-rule="evenodd" d="M380 80V68.3461C377.185 65.959 375.369 62.3762 375.369 58.2944C375.369 51.9859 372.824 46.2129 368.665 42V64.1649L365 57.8809C365.002 57.9519 365.004 58.0231 365.005 58.0944C365.006 58.161 365.006 58.2277 365.006 58.2944C365.006 68.1172 371.178 76.6418 380 80Z" fill="white" fill-opacity="0.76"/>
        <path fill-rule="evenodd" clip-rule="evenodd" d="M352.712 36L359 47.031C357.159 45.8972 355.016 45.2514 352.754 45.2514C347.403 45.2514 343.359 48.8637 342 54V38.5067C343.873 37.3512 345.955 36.4943 348.204 36H352.712Z" fill="white" fill-opacity="0.76"/>
        <path fill-rule="evenodd" clip-rule="evenodd" d="M315 81V70.8461C308.759 70.4083 306.227 64.8045 306.227 57.6909C306.227 54.2464 305.423 50.961 304 48V77.2112C307.022 79.4709 310.735 80.8468 315 81Z" fill="white" fill-opacity="0.76"/>
        <path fill-rule="evenodd" clip-rule="evenodd" d="M272.671 39.0046C275.009 40.8395 276.452 43.2547 277 46.2499C272.876 48.351 269.973 52.7295 269.973 57.9237C269.973 59.2943 269.854 60.6394 269.626 61.9483C269.514 62.0042 269.399 62.0595 269.283 62.1141L269.513 62.5553C268.629 66.9408 266.517 70.8936 263.544 74L258.962 64.866H258C259.221 62.8707 259.934 60.4973 259.934 57.9237C259.934 57.4092 259.951 56.8982 259.984 56.3914C262.066 56.3884 263.629 55.8464 264.672 54.7654C265.738 53.6604 266.271 52.1281 266.271 50.1684C266.271 48.2088 265.738 46.6764 264.672 45.5715C264.437 45.324 264.178 45.1037 263.895 44.9105C265.791 42.096 268.288 39.7257 271.206 38C271.722 38.3075 272.21 38.6423 272.671 39.0046Z" fill="white" fill-opacity="0.76"/>
        <path fill-rule="evenodd" clip-rule="evenodd" d="M253 80.3068V70C251.295 70.8572 249.379 71.3364 247.369 71.3364C245.462 71.3364 243.638 70.9045 242 70.1275V80.3708C243.718 80.7818 245.515 81 247.369 81C249.318 81 251.204 80.7591 253 80.3068Z" fill="white" fill-opacity="0.76"/>
        <path fill-rule="evenodd" clip-rule="evenodd" d="M204.144 44.3742V47.1796C201.035 49.3964 199.381 53.4737 199.381 58.2485C199.381 64.3249 196.969 69.8937 193.014 74V44.3742H193C195.79 40.1445 200.013 37.1321 205.279 36H218V44.3742H204.144Z" fill="white" fill-opacity="0.76"/>
        <path fill-rule="evenodd" clip-rule="evenodd" d="M155.971 66C155.99 65.6207 156 65.2355 156 64.8442V39.5843C153.304 37.365 150.092 35.7629 146.561 35H145V44.9385C150.338 46.3799 154.399 51.3917 154.399 57.5476C154.399 60.5212 154.956 63.3751 155.971 66Z" fill="white" fill-opacity="0.76"/>
        <path fill-rule="evenodd" clip-rule="evenodd" d="M131 38V59.3454C130.623 65.4961 127.425 71.0517 122.76 75C120.967 72.4579 120.047 69.3226 120 65.5943V53.5727C121.282 46.8845 125.344 41.2016 131 38Z" fill="white" fill-opacity="0.76"/>
        <path fill-rule="evenodd" clip-rule="evenodd" d="M96 79V73H89C90.9054 75.4769 93.2852 77.5313 96 79Z" fill="white" fill-opacity="0.76"/>
        <path fill-rule="evenodd" clip-rule="evenodd" d="M93 62H84.1504C83.9575 60.8109 83.8571 59.5923 83.8571 58.3525C83.8571 56.8157 83.5499 55.3517 83 54H93V62Z" fill="white" fill-opacity="0.76"/>
        <path fill-rule="evenodd" clip-rule="evenodd" d="M75.9832 45.886V43.6049H89C85.5836 39.303 80.7143 36.1732 75.2663 35H65V46C66.6738 45.135 68.5484 44.6527 70.5113 44.6527C72.3865 44.6527 74.257 45.0927 75.9832 45.886Z" fill="white" fill-opacity="0.76"/>
        <path fill-rule="evenodd" clip-rule="evenodd" d="M39 70.6384V80.8692C38.2168 80.9556 37.4169 81 36.6018 81C33.1721 81 29.8621 80.2146 26.8622 78.8138L12.0765 52.5676C10.1999 47.9732 5.9067 44.7916 1 44.6124V35H5.2662C8.6989 35.7505 11.8293 37.3057 14.4754 39.4583L22.8396 54.3345C22.9992 55.4498 23.0818 56.5896 23.0818 57.7473C23.0818 65.1355 29.8137 70.8901 36.6018 70.8901C37.4337 70.8901 38.2348 70.8037 39 70.6384Z" fill="white" fill-opacity="0.76"/>
    </g>
</svg>
