<svg width="153" height="28" viewBox="0 0 153 28" fill="none" xmlns="http://www.w3.org/2000/svg">
<path fill-rule="evenodd" clip-rule="evenodd" d="M152.675 19.8049H152.676C152.675 19.7686 152.675 19.7324 152.675 19.6964V19.8049Z" fill="white" fill-opacity="0.28"/>
<path fill-rule="evenodd" clip-rule="evenodd" d="M138.956 19.6326V20.4558C138.984 21.9212 139.286 23.2195 139.86 24.3506C139.898 24.4255 139.938 24.4993 139.979 24.5719C138.274 26.4413 135.697 27.6585 133.165 27.6585C132.184 27.6585 131.25 27.4758 130.39 27.1433V23.2033C131.146 23.8556 132.119 24.2439 133.165 24.2439C135.504 24.2439 138.954 22.3003 138.954 19.8049C138.954 19.7869 138.954 19.769 138.954 19.7511C138.955 19.7115 138.955 19.672 138.956 19.6326Z" fill="white" fill-opacity="0.28"/>
<path fill-rule="evenodd" clip-rule="evenodd" d="M144.942 14.9605C145.201 14.8908 145.476 14.8537 145.764 14.8537C146.272 14.8537 146.739 14.97 147.159 15.1776C146.774 14.9546 146.326 14.843 145.815 14.843C145.499 14.843 145.208 14.8822 144.942 14.9605Z" fill="white" fill-opacity="0.28"/>
<path fill-rule="evenodd" clip-rule="evenodd" d="M9.06272 26.9202L3.96765 18.0554C4.19016 18.5894 4.31407 19.1798 4.31407 19.8049C4.31407 22.9264 6.30955 25.6602 9.06272 26.9202Z" fill="white" fill-opacity="0.28"/>
<path fill-rule="evenodd" clip-rule="evenodd" d="M0.15076 15.3686V12.122H1.62087C1.09905 12.0101 0.556968 11.9512 0 11.9512V15.3659C0.0504142 15.3659 0.100691 15.3668 0.15076 15.3686Z" fill="white" fill-opacity="0.28"/>
<path fill-rule="evenodd" clip-rule="evenodd" d="M4.79431 13.6277L7.67657 18.6522C7.38149 16.6308 6.32228 14.846 4.79431 13.6277Z" fill="white" fill-opacity="0.28"/>
<path fill-rule="evenodd" clip-rule="evenodd" d="M13.2454 27.6144C17.1359 27.1936 19.8346 23.82 19.8346 19.8049C19.8346 18.0301 20.8337 16.5345 22.2522 15.8186V12.122H25.7853C25.2536 12.0101 24.7057 11.9512 24.1489 11.9512C18.4411 11.9512 16.3886 15.5112 16.3886 19.8049C16.3886 21.9945 15.1333 23.7592 13.2454 24.1589V27.6144Z" fill="white" fill-opacity="0.28"/>
<path fill-rule="evenodd" clip-rule="evenodd" d="M30.5118 15.0137C31.5948 16.3453 32.2537 18.0111 32.2537 19.8049C32.2537 22.3003 34.2289 24.2439 36.568 24.2439C38.9071 24.2439 41.0067 22.3003 41.0067 19.8049C41.0067 19.2716 41.0577 18.7498 41.1553 18.2446V22.3658C41.1715 23.644 41.4895 24.7188 42.1091 25.5903C40.5836 26.8711 38.6042 27.6585 36.568 27.6585C35.2978 27.6585 34.1049 27.352 33.0532 26.8104V24.7774H30.5617C29.7158 23.7302 29.1327 22.46 28.9094 21.0747H31.9763V18.2896H28.5107C28.0576 17.1708 27.1296 16.2729 26.032 15.7803V15.0137H30.5118Z" fill="white" fill-opacity="0.28"/>
<path fill-rule="evenodd" clip-rule="evenodd" d="M44.9565 20.2236C44.9651 20.0849 44.9696 19.9453 44.9696 19.8049C44.9696 17.3095 46.3035 15.3659 48.6426 15.3659C49.0155 15.3659 49.3794 15.4153 49.727 15.5084V12.122H50.2636C49.7419 12.0101 49.1998 11.9512 48.6426 11.9512C47.2911 11.9512 46.0392 12.2982 44.9565 12.906V20.2236Z" fill="white" fill-opacity="0.28"/>
<path fill-rule="evenodd" clip-rule="evenodd" d="M53.5069 13.684C55.2795 15.1309 56.4029 17.3478 56.4029 19.8049C56.4029 22.3002 58.3781 24.2439 60.7172 24.2439C63.0563 24.2439 65.0316 22.3002 65.0316 19.8049C65.0005 17.9791 65.4589 16.3266 66.3104 15.0137H66.3152V25.2442C64.9099 26.7278 62.9309 27.6585 60.7172 27.6585C57.4095 27.6585 54.6265 25.5805 53.4969 22.685C53.5035 22.5557 53.5069 22.4245 53.5069 22.2911V13.684Z" fill="white" fill-opacity="0.28"/>
<path fill-rule="evenodd" clip-rule="evenodd" d="M70.4806 12.122C70.9934 12.0099 71.5351 11.9512 72.1026 11.9512C78.4997 11.9512 80.5521 13.8039 80.5521 19.8049C80.5521 21.6011 81.5755 23.1114 83.0215 23.8167V27.4362C79.6014 26.5948 77.1062 23.4666 77.1062 19.8049C77.1062 17.3095 74.4417 15.3659 72.1026 15.3659C71.3094 15.3659 70.6367 15.5895 70.095 15.9826V15.0138H74.8008V12.122H70.4806Z" fill="white" fill-opacity="0.28"/>
<path fill-rule="evenodd" clip-rule="evenodd" d="M86.8013 27.4136C88.2035 27.0505 89.4461 26.302 90.4199 25.2906L88.8472 22.1738H88.5171C88.097 22.8565 87.5015 23.4096 86.8013 23.7717V27.4136Z" fill="white" fill-opacity="0.28"/>
<path fill-rule="evenodd" clip-rule="evenodd" d="M89.198 19.282C89.9127 19.281 90.4492 19.096 90.8073 18.7271C91.1732 18.3501 91.3562 17.8272 91.3562 17.1585C91.3562 16.4898 91.1732 15.967 90.8073 15.5899C90.7266 15.5055 90.6377 15.4303 90.5405 15.3644C89.7731 16.4968 89.2921 17.8401 89.198 19.282Z" fill="white" fill-opacity="0.28"/>
<path fill-rule="evenodd" clip-rule="evenodd" d="M93.0502 13.0063C93.2273 13.1113 93.3948 13.2255 93.5529 13.3491C94.3555 13.9753 94.8507 14.7994 95.0388 15.8214C95.616 15.529 96.2632 15.3659 96.941 15.3659C99.2801 15.3659 101.255 17.3095 101.255 19.8049C101.255 22.5344 102.364 24.9675 104.283 26.3779V16.5417C102.966 13.8477 100.101 11.9512 96.941 11.9512C95.5168 11.9512 94.1897 12.3365 93.0502 13.0063Z" fill="white" fill-opacity="0.28"/>
<path fill-rule="evenodd" clip-rule="evenodd" d="M108.052 27.6537C108.143 27.6569 108.234 27.6585 108.326 27.6585C112.656 27.6585 117.12 24.0985 117.12 19.8049C117.12 19.3239 117.181 18.8635 117.296 18.4335V13.0009C115.068 14.3661 113.675 16.9199 113.675 19.8049C113.675 22.3003 110.666 24.2439 108.326 24.2439C108.233 24.2439 108.141 24.2408 108.052 24.2346V27.6537Z" fill="white" fill-opacity="0.28"/>
<path fill-rule="evenodd" clip-rule="evenodd" d="M119.485 12.122H121.075L123.294 15.9899C124.512 16.7351 125.356 18.0818 125.402 19.6651L126.621 21.7896V14.2959C125.221 12.8529 123.269 11.9512 121.09 11.9512C120.533 11.9512 119.997 12.0101 119.485 12.122Z" fill="white" fill-opacity="0.28"/>
<path fill-rule="evenodd" clip-rule="evenodd" d="M92.5078 21.1782C92.4692 21.1973 92.4299 21.2162 92.3899 21.2348L92.4688 21.3853C92.4826 21.3166 92.4957 21.2475 92.5078 21.1782Z" fill="white" fill-opacity="0.28"/>
<path fill-rule="evenodd" clip-rule="evenodd" d="M147.158 15.1776C147.504 15.378 147.8 15.6684 148.044 16.0488C148.569 16.8455 148.83 18.0158 148.83 19.5594V20.2744C148.823 21.7825 148.561 22.9385 148.044 23.7424C147.528 24.5462 146.791 24.9482 145.837 24.9482C144.832 24.9482 144.074 24.5391 143.565 23.7211C143.055 22.9029 142.8 21.7327 142.8 20.2104L142.811 19.0686C142.901 16.7213 143.611 15.3519 144.942 14.9605C143.086 15.458 141.959 17.6162 141.959 19.8049C141.959 21.5879 141.189 23.2443 139.979 24.5719C140.55 25.596 141.318 26.3937 142.283 26.965C143.317 27.5696 144.501 27.872 145.837 27.872C147.172 27.872 148.36 27.5589 149.401 26.9329C150.276 26.4044 150.983 25.69 151.523 24.7897C150.31 23.4277 149.554 21.6868 149.554 19.8049C149.554 17.8525 148.666 15.9243 147.158 15.1776Z" fill="white"/>
<path fill-rule="evenodd" clip-rule="evenodd" d="M125.405 19.8049C125.405 23.1258 127.457 26.0079 130.39 27.1433V27.6585H126.632L121.075 17.9908V27.6585H117.296V18.4334C117.776 16.6325 119.202 15.3658 121.09 15.3658C121.889 15.3658 122.645 15.5923 123.294 15.9898L125.402 19.6651C125.403 19.6891 125.404 19.7132 125.404 19.7373C125.405 19.7598 125.405 19.7823 125.405 19.8049Z" fill="white"/>
<path fill-rule="evenodd" clip-rule="evenodd" d="M126.621 14.2959C128.004 15.7203 128.85 17.672 128.85 19.8049C128.85 21.1849 129.455 22.3962 130.39 23.2033V12.1219H126.621V14.2959Z" fill="white"/>
<path fill-rule="evenodd" clip-rule="evenodd" d="M119.485 12.1219H117.296V13.0009C117.957 12.5957 118.692 12.2953 119.485 12.1219Z" fill="white"/>
<path fill-rule="evenodd" clip-rule="evenodd" d="M104.283 26.3779C105.318 27.1388 106.59 27.6021 108.052 27.6537V27.6586H104.283V26.3779Z" fill="white"/>
<path fill-rule="evenodd" clip-rule="evenodd" d="M105.046 19.8049C105.046 18.645 104.771 17.5387 104.283 16.5417V12.1219H108.052V24.2346C105.914 24.0872 105.046 22.2002 105.046 19.8049Z" fill="white"/>
<path fill-rule="evenodd" clip-rule="evenodd" d="M93.0502 13.0063C92.0564 12.4167 90.7704 12.1219 89.1918 12.1219H83.0215V23.8167C83.5842 24.0913 84.211 24.2439 84.8664 24.2439C85.557 24.2439 86.2155 24.0746 86.8013 23.7717V22.1738H88.5171C88.9361 21.4929 89.1808 20.6831 89.1808 19.8049C89.1808 19.6293 89.1866 19.4549 89.198 19.282C89.1959 19.282 89.1939 19.282 89.1918 19.282H86.8013V15.0137H89.1918C89.7462 15.0137 90.1959 15.1306 90.5405 15.3644C91.1915 14.404 92.0485 13.5952 93.0502 13.0063Z" fill="white"/>
<path fill-rule="evenodd" clip-rule="evenodd" d="M90.4199 25.2906L91.6146 27.6585H95.6636V27.4985L92.4689 21.3853C92.1656 22.8818 91.4406 24.2306 90.4199 25.2906Z" fill="white"/>
<path fill-rule="evenodd" clip-rule="evenodd" d="M92.5078 21.1782C93.3883 20.7448 94.0382 20.1874 94.4575 19.5061C94.9027 18.7947 95.1254 17.8984 95.1254 16.8171C95.1254 16.4666 95.0964 16.1347 95.0389 15.8214C93.6233 16.5383 92.6267 18.0324 92.6267 19.8049C92.6267 20.2726 92.586 20.7315 92.5078 21.1782Z" fill="white"/>
<path fill-rule="evenodd" clip-rule="evenodd" d="M84.8664 27.6586C85.5359 27.6586 86.1841 27.5734 86.8013 27.4136V27.6586H84.8664Z" fill="white"/>
<path fill-rule="evenodd" clip-rule="evenodd" d="M83.0215 27.4362C83.6118 27.5814 84.2293 27.6585 84.8664 27.6585H83.0215V27.4362Z" fill="white"/>
<path fill-rule="evenodd" clip-rule="evenodd" d="M68.4775 19.8049C68.4775 18.156 69.0392 16.748 70.095 15.9825V27.6585H66.3152V25.2442C67.6584 23.8262 68.4775 21.9032 68.4775 19.8049Z" fill="white"/>
<path fill-rule="evenodd" clip-rule="evenodd" d="M70.4807 12.1219C68.6922 12.5129 67.258 13.5531 66.3104 15.0137H61.6956V12.1219H70.4807Z" fill="white"/>
<path fill-rule="evenodd" clip-rule="evenodd" d="M53.5069 13.684V12.1219H50.2636C51.4769 12.3819 52.5807 12.9278 53.5069 13.684Z" fill="white"/>
<path fill-rule="evenodd" clip-rule="evenodd" d="M52.957 19.8049C52.957 20.8181 53.1482 21.7906 53.4969 22.685C53.4463 23.6728 53.202 24.541 52.764 25.2896C52.2685 26.1291 51.5579 26.7693 50.6316 27.2104C49.7057 27.6514 48.6109 27.872 47.3473 27.872C45.4376 27.872 43.9338 27.3811 42.8352 26.3994C42.5592 26.1526 42.3169 25.8829 42.1091 25.5903C43.7211 24.2367 44.8263 22.3322 44.9565 20.2236V22.4406C44.9996 24.1408 45.7966 24.9909 47.3473 24.9909C48.1299 24.9909 48.7222 24.7774 49.124 24.3506C49.5262 23.9238 49.7271 23.2302 49.7271 22.2698V15.5084C51.5614 15.9996 52.957 17.7073 52.957 19.8049Z" fill="white"/>
<path fill-rule="evenodd" clip-rule="evenodd" d="M44.9565 12.906C43.002 14.0035 41.5984 15.9518 41.1553 18.2446V12.1219H44.9565V12.906Z" fill="white"/>
<path fill-rule="evenodd" clip-rule="evenodd" d="M30.5618 24.7774C31.2399 25.6166 32.0869 26.3128 33.0532 26.8104V27.6585H22.2522V15.8186C22.8282 15.5279 23.4734 15.3658 24.1489 15.3658C24.7943 15.3658 25.438 15.5137 26.0321 15.7803V18.2896H28.5107C28.7013 18.7602 28.8078 19.2699 28.8078 19.8049C28.8078 20.2365 28.8426 20.6607 28.9094 21.0747H26.0321V24.7774H30.5618Z" fill="white"/>
<path fill-rule="evenodd" clip-rule="evenodd" d="M30.5118 15.0137C29.336 13.568 27.6603 12.5162 25.7853 12.1219H33.0745V15.0137H30.5118Z" fill="white"/>
<path fill-rule="evenodd" clip-rule="evenodd" d="M12.4189 27.6585C12.6998 27.6585 12.9755 27.6435 13.2454 27.6143V27.6585H12.4189Z" fill="white"/>
<path fill-rule="evenodd" clip-rule="evenodd" d="M9.06274 26.9202C10.0965 27.3933 11.2371 27.6585 12.419 27.6585H9.48711L9.06274 26.9202Z" fill="white"/>
<path fill-rule="evenodd" clip-rule="evenodd" d="M0.150757 15.3685C1.84158 15.4291 3.32099 16.5037 3.96766 18.0554L3.93051 17.9908V27.6585H0.150757V15.3685Z" fill="white"/>
<path fill-rule="evenodd" clip-rule="evenodd" d="M4.79429 13.6277C3.88246 12.9007 2.80374 12.3754 1.62085 12.1219H3.93049L4.79429 13.6277Z" fill="white"/>
<path fill-rule="evenodd" clip-rule="evenodd" d="M7.76004 19.8049C7.76004 19.4139 7.73157 19.0289 7.67657 18.6522L9.47636 21.7896V12.1219H13.2454V24.1589C12.9817 24.2147 12.7056 24.2439 12.419 24.2439C10.0798 24.2439 7.76004 22.3003 7.76004 19.8049Z" fill="white"/>
<path fill-rule="evenodd" clip-rule="evenodd" d="M110.004 3.79496L106.174 0L102.345 3.79496L106.174 7.58991L110.004 3.79496Z" fill="#003EFF" fill-opacity="0.76"/>
<path fill-rule="evenodd" clip-rule="evenodd" d="M147.158 15.1776C146.774 14.9545 146.326 14.843 145.815 14.843C145.499 14.843 145.208 14.8821 144.942 14.9605C143.086 15.458 141.959 17.6162 141.959 19.8048C141.959 21.5878 141.189 23.2443 139.979 24.5718C139.938 24.4993 139.898 24.4255 139.86 24.3506C139.286 23.2195 138.984 21.9212 138.956 20.4557V19.5808C138.956 18.0584 139.235 16.7174 139.795 15.5579C140.363 14.3912 141.17 13.4913 142.218 12.8582C143.274 12.2251 144.473 11.9085 145.815 11.9085C147.143 11.9085 148.328 12.2215 149.369 12.8475C150.41 13.4735 151.217 14.3663 151.792 15.5259C152.373 16.6783 152.667 18.0015 152.675 19.4954V20.2103C152.675 21.7256 152.391 23.0665 151.824 24.2332C151.73 24.426 151.63 24.6115 151.523 24.7897C150.31 23.4276 149.554 21.6867 149.554 19.8048C149.554 17.8525 148.666 15.9243 147.158 15.1776Z" fill="white" fill-opacity="0.76"/>
<path fill-rule="evenodd" clip-rule="evenodd" d="M130.39 27.1433V23.2032C129.455 22.3962 128.85 21.1849 128.85 19.8049C128.85 17.672 128.004 15.7202 126.621 14.2959V21.7896L125.402 19.6651C125.403 19.6891 125.404 19.7131 125.404 19.7373C125.405 19.7598 125.405 19.7823 125.405 19.8049C125.405 23.1258 127.457 26.0079 130.39 27.1433Z" fill="white" fill-opacity="0.76"/>
<path fill-rule="evenodd" clip-rule="evenodd" d="M121.075 12.1219L123.294 15.9898C122.645 15.5923 121.889 15.3659 121.09 15.3659C119.202 15.3659 117.776 16.6325 117.296 18.4335V13.0009C117.957 12.5957 118.692 12.2953 119.485 12.1219H121.075Z" fill="white" fill-opacity="0.76"/>
<path fill-rule="evenodd" clip-rule="evenodd" d="M108.052 27.6537V24.2346C105.914 24.0872 105.046 22.2002 105.046 19.8049C105.046 18.645 104.771 17.5387 104.283 16.5417V26.3779C105.318 27.1388 106.59 27.6021 108.052 27.6537Z" fill="white" fill-opacity="0.76"/>
<path fill-rule="evenodd" clip-rule="evenodd" d="M93.5529 13.3491C94.3555 13.9752 94.8507 14.7993 95.0388 15.8214C93.6232 16.5384 92.6267 18.0324 92.6267 19.8049C92.6267 20.2726 92.586 20.7315 92.5078 21.1782C92.4692 21.1972 92.4299 21.2161 92.3899 21.2347L92.4688 21.3853C92.1656 22.8818 91.4406 24.2306 90.4199 25.2906L88.8472 22.1738H88.517C88.9361 21.4929 89.1807 20.683 89.1807 19.8049C89.1807 19.6293 89.1866 19.4549 89.1979 19.282C89.9126 19.281 90.4492 19.096 90.8072 18.7271C91.1732 18.3501 91.3561 17.8272 91.3561 17.1585C91.3561 16.4898 91.1732 15.9669 90.8072 15.5899C90.7266 15.5055 90.6377 15.4303 90.5405 15.3644C91.1914 14.404 92.0484 13.5951 93.0502 13.0063C93.2273 13.1112 93.3948 13.2255 93.5529 13.3491Z" fill="white" fill-opacity="0.76"/>
<path fill-rule="evenodd" clip-rule="evenodd" d="M86.8013 27.4136V23.7717C86.2155 24.0745 85.557 24.2439 84.8664 24.2439C84.211 24.2439 83.5842 24.0913 83.0215 23.8167V27.4362C83.6118 27.5814 84.2293 27.6585 84.8664 27.6585C85.536 27.6585 86.1842 27.5734 86.8013 27.4136Z" fill="white" fill-opacity="0.76"/>
<path fill-rule="evenodd" clip-rule="evenodd" d="M70.095 15.0137V15.9825C69.0392 16.748 68.4775 18.156 68.4775 19.8049C68.4775 21.9032 67.6584 23.8262 66.3152 25.2442V15.0137H66.3104C67.258 13.5531 68.6922 12.5129 70.4806 12.1219H74.8008V15.0137H70.095Z" fill="white" fill-opacity="0.76"/>
<path fill-rule="evenodd" clip-rule="evenodd" d="M53.4969 22.685C53.5035 22.5557 53.5069 22.4245 53.5069 22.2911V13.684C52.5806 12.9278 51.4769 12.3819 50.2636 12.1219H49.7271V15.5084C51.5613 15.9996 52.9569 17.7073 52.9569 19.8049C52.9569 20.8181 53.1482 21.7906 53.4969 22.685Z" fill="white" fill-opacity="0.76"/>
<path fill-rule="evenodd" clip-rule="evenodd" d="M44.9565 12.906V20.2236C44.8262 22.3322 43.7211 24.2368 42.1091 25.5903C41.4895 24.7188 41.1715 23.644 41.1553 22.3659V18.2446C41.5984 15.9518 43.002 14.0036 44.9565 12.906Z" fill="white" fill-opacity="0.76"/>
<path fill-rule="evenodd" clip-rule="evenodd" d="M33.0532 26.8104V24.7775H30.5618C31.2399 25.6167 32.0869 26.3128 33.0532 26.8104Z" fill="white" fill-opacity="0.76"/>
<path fill-rule="evenodd" clip-rule="evenodd" d="M31.9763 21.0747H28.9094C28.8426 20.6607 28.8078 20.2365 28.8078 19.8049C28.8078 19.2699 28.7013 18.7602 28.5107 18.2896H31.9763V21.0747Z" fill="white" fill-opacity="0.76"/>
<path fill-rule="evenodd" clip-rule="evenodd" d="M26.0321 15.7803V15.0137H30.5118C29.336 13.568 27.6603 12.5162 25.7853 12.1219H22.2522V15.8186C22.8282 15.5279 23.4734 15.3659 24.1489 15.3659C24.7943 15.3659 25.438 15.5137 26.0321 15.7803Z" fill="white" fill-opacity="0.76"/>
<path fill-rule="evenodd" clip-rule="evenodd" d="M13.2454 24.1589V27.6143C12.9755 27.6435 12.6998 27.6585 12.4189 27.6585C11.2371 27.6585 10.0965 27.3933 9.06273 26.9202L3.96766 18.0554C3.32099 16.5037 1.84158 15.4291 0.150757 15.3685V12.1219H1.62087C2.80376 12.3754 3.88247 12.9007 4.79431 13.6277L7.67657 18.6522C7.73156 19.0289 7.76003 19.4139 7.76003 19.8049C7.76003 22.3003 10.0798 24.2439 12.4189 24.2439C12.7056 24.2439 12.9817 24.2147 13.2454 24.1589Z" fill="white" fill-opacity="0.76"/>
</svg>
