<svg width="539" height="261" viewBox="0 0 539 261" fill="none" xmlns="http://www.w3.org/2000/svg">
    <path fill-rule="evenodd" clip-rule="evenodd" d="M488.978 153.854C488.978 153.854 495.704 91.1619 458.172 98.0427C420.639 104.924 362.121 97.2782 338.146 87.3392C314.17 77.4003 310.834 59.0514 276.091 52.9351C241.347 46.8188 170.169 20.8246 152.552 35.3508C134.935 49.877 122.125 74.0363 99.8536 87.3392C77.5827 100.642 29.2318 105.67 11.6146 120.97C-6.00262 136.27 1.65704 168.255 1.65704 175.368C1.65704 182.482 48.3808 230.29 60.6363 235.229C72.8917 240.169 165.388 224.287 175.055 235.229C184.722 246.172 251.254 260.955 256.214 260.955C261.175 260.955 420.502 262.197 427.847 251.679C435.193 241.16 488.978 153.854 488.978 153.854Z" fill="url(#paint0_linear)"/>
    <path fill-rule="evenodd" clip-rule="evenodd" d="M50.0222 120.146C50.0222 120.146 43.2961 182.838 80.8283 175.957C118.361 169.076 176.879 176.722 200.854 186.661C224.83 196.6 228.166 214.949 262.909 221.065C297.653 227.181 368.831 253.175 386.448 238.649C404.065 224.123 416.875 199.964 439.146 186.661C461.417 173.358 509.768 168.33 527.385 153.03C545.003 137.73 537.343 105.745 537.343 98.6316C537.343 91.5178 490.619 43.7104 478.364 38.7708C466.108 33.8312 373.612 49.7132 363.945 38.7708C354.278 27.8284 287.746 13.0454 282.786 13.0454C277.825 13.0454 118.498 11.803 111.153 22.3213C103.807 32.8397 50.0222 120.146 50.0222 120.146Z" fill="url(#paint1_linear)"/>
    <path fill-rule="evenodd" clip-rule="evenodd" d="M478.184 142.854C478.184 142.854 483.552 80.1619 453.602 87.0427C423.653 93.9236 376.958 86.2782 357.826 76.3392C338.695 66.4003 336.033 48.0514 308.309 41.9351C280.585 35.8188 223.788 9.8246 209.73 24.3508C195.672 38.877 185.45 63.0363 167.679 76.3392C149.908 89.6422 111.326 94.6702 97.2679 109.97C83.2101 125.27 89.3222 157.255 89.3222 164.368C89.3222 171.482 126.606 219.29 136.385 224.229C146.165 229.169 219.973 213.287 227.687 224.229C235.401 235.172 288.49 249.955 292.449 249.955C296.407 249.955 423.543 251.197 429.405 240.679C435.266 230.16 478.184 142.854 478.184 142.854Z" fill="url(#paint2_linear)"/>
    <path d="M384.619 214.727L384.617 214.73C370.244 230.2 352.08 242.176 331.621 248.963L331.62 248.963C318.946 253.254 305.273 255.55 291.2 255.55C277.027 255.55 263.454 253.254 250.78 248.963L250.78 248.963C230.32 242.077 212.156 230.2 197.784 214.731C195.587 212.334 193.491 209.939 191.496 207.445C174.229 185.687 163.85 158.141 163.85 128.2C163.85 57.838 220.838 0.849976 291.2 0.849976C361.562 0.849976 418.55 57.838 418.55 128.2C418.55 158.141 408.171 185.687 390.904 207.445C388.907 209.942 386.812 212.435 384.619 214.727Z" fill="url(#paint3_linear)" stroke="#00E5FF" stroke-width="0.5"/>
    <path d="M309.031 38.2776L309.031 38.2778C309.474 38.521 309.75 38.9885 309.75 39.4994C309.75 40.0105 309.474 40.4796 309.031 40.7226L309.031 40.7228L291.158 50.5805C290.953 50.6932 290.728 50.75 290.5 50.75C290.271 50.75 290.045 50.6942 289.844 50.5815L289.842 50.5807L271.967 40.7228L271.967 40.7227C271.526 40.4798 271.25 40.0091 271.25 39.4994C271.25 38.99 271.526 38.5209 271.969 38.2778L271.969 38.2776L289.844 28.4197L289.845 28.4194C290.252 28.1935 290.75 28.1935 291.157 28.4194L291.158 28.4197L309.031 38.2776Z" fill="#17183A" stroke="#00E5FF" stroke-width="0.5"/>
    <path d="M341.125 56.0563H341.375C342.136 56.0563 342.75 56.6689 342.75 57.4253V70.3793C342.75 71.1343 342.136 71.7484 341.375 71.7484H315.372C314.611 71.7484 313.997 71.1343 313.997 70.3793V57.4253C313.997 56.6704 314.611 56.0563 315.372 56.0563H341.125Z" fill="#17183A" stroke="#00E5FF" stroke-width="0.5"/>
    <path d="M266.378 56.0563H266.628C267.39 56.0563 268.003 56.6689 268.003 57.4253V70.3793C268.003 71.1343 267.39 71.7484 266.628 71.7484H240.625C239.864 71.7484 239.25 71.1343 239.25 70.3793V57.4253C239.25 56.6704 239.864 56.0563 240.625 56.0563H266.378Z" fill="#17183A" stroke="#00E5FF" stroke-width="0.5"/>
    <path fill-rule="evenodd" clip-rule="evenodd" d="M297.3 40H283.7C282.76 40 282 39.776 282 39.5C282 39.224 282.76 39 283.7 39H297.3C298.24 39 299 39.224 299 39.5C299 39.776 298.24 40 297.3 40Z" fill="#00E5FF"/>
    <path fill-rule="evenodd" clip-rule="evenodd" d="M261.3 64H247.7C246.76 64 246 63.776 246 63.5C246 63.224 246.76 63 247.7 63H261.3C262.24 63 263 63.224 263 63.5C263 63.776 262.24 64 261.3 64Z" fill="#00E5FF"/>
    <path fill-rule="evenodd" clip-rule="evenodd" d="M336.3 64H322.7C321.76 64 321 63.776 321 63.5C321 63.224 321.76 63 322.7 63H336.3C337.24 63 338 63.224 338 63.5C338 63.776 337.24 64 336.3 64Z" fill="#00E5FF"/>
    <path fill-rule="evenodd" clip-rule="evenodd" d="M244.165 135.25L248.727 139.955V132.114C248.727 124.32 242.599 118 235.041 118H222.876V124.273C218.679 124.273 215.273 127.785 215.273 132.114V139.955L219.835 135.25C219.835 135.25 225.476 138.386 232 138.386C238.524 138.386 244.165 135.25 244.165 135.25Z" fill="#00E5FF"/>
    <path d="M231.558 166.337L231.477 166.309L231.396 166.337L226.841 167.894L223.886 164.863V160.227C226.183 161.366 228.759 161.998 231.477 161.998C234.196 161.998 236.772 161.366 239.068 160.227V164.863L236.113 167.894L231.558 166.337Z" fill="#17183A" stroke="#00E5FF" stroke-width="0.5"/>
    <path d="M239.487 160.852L239.486 160.852C237.241 162.042 234.696 162.705 232 162.705C229.304 162.705 226.759 162.041 224.514 160.852L224.513 160.852C219.181 158.042 215.523 152.307 215.523 145.705V139.533L219.883 135.037C219.911 135.051 219.942 135.067 219.976 135.084C220.145 135.172 220.394 135.295 220.713 135.444C221.349 135.741 222.266 136.136 223.388 136.531C225.63 137.321 228.7 138.114 232 138.114C235.3 138.114 238.37 137.321 240.612 136.531C241.734 136.136 242.651 135.741 243.287 135.444C243.606 135.295 243.855 135.172 244.024 135.084C244.058 135.067 244.089 135.051 244.117 135.037L248.477 139.533V145.705C248.477 152.307 244.819 158.04 239.487 160.852Z" fill="#17183A" stroke="#00E5FF" stroke-width="0.5"/>
    <path fill-rule="evenodd" clip-rule="evenodd" d="M227.4 168.182L232 166.614L236.6 168.182L239.667 165.045H245.8C250.891 165.045 255 169.248 255 174.455V174.909V183.864C255 185.589 253.635 187 251.933 187H212.067C210.365 187 209 185.589 209 183.864V174.909V174.455C209 169.248 213.109 165.045 218.2 165.045H224.333L227.4 168.182Z" fill="url(#paint4_linear)"/>
    <path fill-rule="evenodd" clip-rule="evenodd" d="M304.165 166.25L308.727 170.955V163.114C308.727 155.32 302.599 149 295.041 149H282.876V155.273C278.679 155.273 275.273 158.785 275.273 163.114V170.955L279.835 166.25C279.835 166.25 285.476 169.386 292 169.386C298.524 169.386 304.165 166.25 304.165 166.25Z" fill="#00E5FF"/>
    <path d="M291.558 197.337L291.477 197.309L291.396 197.337L286.841 198.894L283.886 195.863V191.227C286.183 192.366 288.759 192.998 291.477 192.998C294.196 192.998 296.772 192.366 299.068 191.227V195.863L296.113 198.894L291.558 197.337Z" fill="#17183A" stroke="#00E5FF" stroke-width="0.5"/>
    <path d="M299.487 191.852L299.486 191.852C297.241 193.042 294.696 193.705 292 193.705C289.304 193.705 286.759 193.041 284.514 191.852L284.513 191.852C279.181 189.042 275.523 183.307 275.523 176.705V170.533L279.883 166.037C279.911 166.051 279.942 166.067 279.976 166.084C280.145 166.172 280.394 166.295 280.713 166.444C281.349 166.741 282.266 167.136 283.388 167.531C285.63 168.321 288.7 169.114 292 169.114C295.3 169.114 298.37 168.321 300.612 167.531C301.734 167.136 302.651 166.741 303.287 166.444C303.606 166.295 303.855 166.172 304.024 166.084C304.058 166.067 304.089 166.051 304.117 166.037L308.477 170.533V176.705C308.477 183.307 304.819 189.04 299.487 191.852Z" fill="#17183A" stroke="#00E5FF" stroke-width="0.5"/>
    <path fill-rule="evenodd" clip-rule="evenodd" d="M287.4 199.182L292 197.614L296.6 199.182L299.667 196.045H305.8C310.891 196.045 315 200.248 315 205.455V205.909V214.864C315 216.589 313.635 218 311.933 218H272.067C270.365 218 269 216.589 269 214.864V205.909V205.455C269 200.248 273.109 196.045 278.2 196.045H284.333L287.4 199.182Z" fill="url(#paint5_linear)"/>
    <path fill-rule="evenodd" clip-rule="evenodd" d="M339.835 135.25L335.273 139.955V132.114C335.273 124.32 341.401 118 348.959 118H361.124V124.273C365.321 124.273 368.727 127.785 368.727 132.114V139.955L364.165 135.25C364.165 135.25 358.524 138.386 352 138.386C345.476 138.386 339.835 135.25 339.835 135.25Z" fill="#00E5FF"/>
    <path d="M351.558 166.337L351.477 166.309L351.396 166.337L346.841 167.894L343.886 164.863V160.227C346.183 161.366 348.759 161.998 351.477 161.998C354.196 161.998 356.772 161.366 359.068 160.227V164.863L356.113 167.894L351.558 166.337Z" fill="#17183A" stroke="#00E5FF" stroke-width="0.5"/>
    <path d="M359.487 160.852L359.486 160.852C357.241 162.042 354.696 162.705 352 162.705C349.304 162.705 346.759 162.041 344.514 160.852L344.513 160.852C339.181 158.042 335.523 152.307 335.523 145.705V139.533L339.883 135.037C339.911 135.051 339.942 135.067 339.976 135.084C340.145 135.172 340.394 135.295 340.713 135.444C341.349 135.741 342.266 136.136 343.388 136.531C345.63 137.321 348.7 138.114 352 138.114C355.3 138.114 358.37 137.321 360.612 136.531C361.734 136.136 362.651 135.741 363.287 135.444C363.606 135.295 363.855 135.172 364.024 135.084C364.058 135.067 364.089 135.051 364.117 135.037L368.477 139.533V145.705C368.477 152.307 364.819 158.04 359.487 160.852Z" fill="#17183A" stroke="#00E5FF" stroke-width="0.5"/>
    <path fill-rule="evenodd" clip-rule="evenodd" d="M347.4 168.182L352 166.614L356.6 168.182L359.667 165.045H365.8C370.891 165.045 375 169.248 375 174.455V174.909V183.864C375 185.589 373.635 187 371.933 187H332.067C330.365 187 329 185.589 329 183.864V174.909V174.455C329 169.248 333.109 165.045 338.2 165.045H344.333L347.4 168.182Z" fill="url(#paint6_linear)"/>
    <path d="M291.5 54.5L290.057 57H292.943L291.5 54.5ZM291.25 167V167.25H291.75V167H291.25ZM291.25 56.75V167H291.75V56.75H291.25Z" fill="#00E5FF"/>
    <path d="M354.5 126.645V100.5L231 100.5V125.649" stroke="#00E5FF" stroke-width="0.5" stroke-linecap="square"/>
    <path d="M333 56V39L250 39V55.3519" stroke="#00E5FF" stroke-width="0.5" stroke-linecap="square"/>
    <defs>
        <linearGradient id="paint0_linear" x1="863.344" y1="-50.1042" x2="842.752" y2="315.419" gradientUnits="userSpaceOnUse">
            <stop stop-color="#2D2F70"/>
            <stop offset="0.534569" stop-color="#212352"/>
            <stop offset="1" stop-color="#171839"/>
        </linearGradient>
        <linearGradient id="paint1_linear" x1="-324.344" y1="324.104" x2="-303.752" y2="-41.4195" gradientUnits="userSpaceOnUse">
            <stop stop-color="#2D2F70"/>
            <stop offset="0.534569" stop-color="#212352"/>
            <stop offset="1" stop-color="#171839"/>
        </linearGradient>
        <linearGradient id="paint2_linear" x1="776.913" y1="-61.1042" x2="751.153" y2="303.761" gradientUnits="userSpaceOnUse">
            <stop stop-color="#2D2F70"/>
            <stop offset="0.534569" stop-color="#212352"/>
            <stop offset="1" stop-color="#171839"/>
        </linearGradient>
        <linearGradient id="paint3_linear" x1="722.628" y1="1261.7" x2="825.229" y2="218.486" gradientUnits="userSpaceOnUse">
            <stop stop-color="#17183A"/>
            <stop offset="1" stop-color="#000516" stop-opacity="0.23"/>
        </linearGradient>
        <linearGradient id="paint4_linear" x1="238.866" y1="192.673" x2="252.075" y2="163.21" gradientUnits="userSpaceOnUse">
            <stop stop-color="#6121A1"/>
            <stop offset="1" stop-color="#00AEFF"/>
        </linearGradient>
        <linearGradient id="paint5_linear" x1="298.866" y1="223.673" x2="312.075" y2="194.21" gradientUnits="userSpaceOnUse">
            <stop stop-color="#6121A1"/>
            <stop offset="1" stop-color="#00AEFF"/>
        </linearGradient>
        <linearGradient id="paint6_linear" x1="358.866" y1="192.673" x2="372.075" y2="163.21" gradientUnits="userSpaceOnUse">
            <stop stop-color="#6121A1"/>
            <stop offset="1" stop-color="#00AEFF"/>
        </linearGradient>
    </defs>
</svg>
