<svg width="539" height="261" viewBox="0 0 539 261" fill="none" xmlns="http://www.w3.org/2000/svg">
<g id="Illustration_A warning">
<path id="Path 6" fill-rule="evenodd" clip-rule="evenodd" d="M488.978 153.854C488.978 153.854 495.704 91.1619 458.172 98.0428C420.639 104.924 362.121 97.2782 338.146 87.3392C314.17 77.4003 310.834 59.0514 276.091 52.9351C241.347 46.8188 170.169 20.8246 152.552 35.3508C134.935 49.877 122.125 74.0363 99.8536 87.3392C77.5827 100.642 29.2318 105.67 11.6146 120.97C-6.00262 136.27 1.65704 168.255 1.65704 175.368C1.65704 182.482 48.3808 230.29 60.6363 235.229C72.8917 240.169 165.388 224.287 175.055 235.229C184.722 246.172 251.254 260.955 256.214 260.955C261.175 260.955 420.502 262.197 427.847 251.679C435.193 241.16 488.978 153.854 488.978 153.854Z" fill="url(#paint0_linear)"/>
<path id="Path 6_2" fill-rule="evenodd" clip-rule="evenodd" d="M50.0222 120.146C50.0222 120.146 43.2961 182.838 80.8283 175.957C118.361 169.076 176.879 176.722 200.854 186.661C224.83 196.6 228.166 214.949 262.909 221.065C297.653 227.181 368.831 253.175 386.448 238.649C404.065 224.123 416.875 199.964 439.146 186.661C461.417 173.358 509.768 168.33 527.385 153.03C545.003 137.73 537.343 105.745 537.343 98.6316C537.343 91.5178 490.619 43.7104 478.364 38.7708C466.108 33.8312 373.612 49.7132 363.945 38.7708C354.278 27.8284 287.746 13.0454 282.786 13.0454C277.825 13.0454 118.498 11.803 111.153 22.3213C103.807 32.8397 50.0222 120.146 50.0222 120.146Z" fill="url(#paint1_linear)"/>
<path id="Path 6_3" fill-rule="evenodd" clip-rule="evenodd" d="M478.184 142.854C478.184 142.854 483.552 80.1619 453.602 87.0428C423.653 93.9236 376.958 86.2782 357.826 76.3392C338.695 66.4003 336.033 48.0514 308.309 41.9351C280.585 35.8188 223.788 9.82461 209.73 24.3508C195.672 38.877 185.45 63.0363 167.679 76.3392C149.908 89.6422 111.326 94.6702 97.2679 109.97C83.2101 125.27 89.3222 157.255 89.3222 164.368C89.3222 171.482 126.606 219.29 136.385 224.229C146.165 229.169 219.973 213.287 227.687 224.229C235.401 235.172 288.49 249.955 292.449 249.955C296.407 249.955 423.543 251.197 429.405 240.679C435.266 230.16 478.184 142.854 478.184 142.854Z" fill="url(#paint2_linear)"/>
<path id="Path" d="M384.619 214.727L384.617 214.73C370.244 230.2 352.08 242.176 331.621 248.963L331.62 248.963C318.946 253.254 305.273 255.55 291.2 255.55C277.027 255.55 263.454 253.254 250.78 248.963L250.78 248.963C230.32 242.077 212.156 230.2 197.784 214.731C195.587 212.334 193.491 209.939 191.496 207.445C174.229 185.687 163.85 158.141 163.85 128.2C163.85 57.8381 220.838 0.850006 291.2 0.850006C361.562 0.850006 418.55 57.8381 418.55 128.2C418.55 158.141 408.171 185.687 390.904 207.445C388.907 209.942 386.812 212.435 384.619 214.727Z" fill="url(#paint3_linear)" stroke="#00E5FF" stroke-width="0.5"/>
<path id="Path_2" d="M365.15 168.9C365.15 170.562 363.862 171.85 362.2 171.85H221.5C219.838 171.85 218.55 170.562 218.55 168.9V87.5C218.55 85.8381 219.838 84.55 221.5 84.55H362.2C363.862 84.55 365.15 85.8381 365.15 87.5V168.9Z" fill="#17183A" stroke="#00E5FF" stroke-width="0.5"/>
<path id="Path_3" d="M222.5 164.75C222.023 164.75 221.65 164.347 221.65 164V89.5C221.65 89.153 222.023 88.75 222.5 88.75H361.2C361.677 88.75 362.05 89.153 362.05 89.5V164C362.05 164.347 361.677 164.75 361.2 164.75H222.5Z" fill="#17183A" stroke="#00E5FF" stroke-width="0.5"/>
<path id="Path_4" d="M267.05 119.2C267.05 119.662 266.662 120.05 266.2 120.05H230.4C229.938 120.05 229.55 119.662 229.55 119.2C229.55 118.738 229.938 118.35 230.4 118.35H266.2C266.487 118.35 266.694 118.451 266.83 118.596C266.969 118.744 267.05 118.955 267.05 119.2Z" fill="#17183A" stroke="#494991" stroke-width="0.5"/>
<path id="Path_5" d="M345.15 119.2C345.15 119.662 344.762 120.05 344.3 120.05H314C313.538 120.05 313.15 119.662 313.15 119.2C313.15 118.738 313.538 118.35 314 118.35H344.3C344.762 118.35 345.15 118.738 345.15 119.2Z" fill="#17183A" stroke="#494991" stroke-width="0.5"/>
<path id="Path_6" d="M257.95 123.6C257.95 123.859 257.881 124.087 257.784 124.242C257.683 124.402 257.578 124.45 257.507 124.45H229.993C229.922 124.45 229.817 124.402 229.716 124.242C229.618 124.087 229.55 123.859 229.55 123.6C229.55 123.341 229.618 123.113 229.716 122.958C229.817 122.798 229.922 122.75 229.993 122.75H257.507C257.578 122.75 257.683 122.798 257.784 122.958C257.881 123.113 257.95 123.341 257.95 123.6Z" fill="#17183A" stroke="#494991" stroke-width="0.5"/>
<path id="Path_7" d="M357.75 123.6C357.75 124.062 357.362 124.45 356.9 124.45H313.2C312.738 124.45 312.35 124.062 312.35 123.6C312.35 123.138 312.738 122.75 313.2 122.75H357C357.432 122.75 357.75 123.106 357.75 123.6Z" fill="#17183A" stroke="#494991" stroke-width="0.5"/>
<path id="Path_8" d="M357.75 127.8C357.75 128.262 357.362 128.65 356.9 128.65H313.2C312.738 128.65 312.35 128.262 312.35 127.8C312.35 127.338 312.738 126.95 313.2 126.95H356.978C357.225 126.995 357.415 127.097 357.542 127.233C357.671 127.371 357.75 127.559 357.75 127.8Z" fill="#17183A" stroke="#494991" stroke-width="0.5"/>
<path id="Path_9" d="M244.05 114.5C244.05 114.962 243.662 115.35 243.2 115.35H230.5C230.038 115.35 229.65 114.962 229.65 114.5C229.65 114.038 230.038 113.65 230.5 113.65H243.179C243.7 113.744 244.05 114.074 244.05 114.5Z" fill="#17183A" stroke="#494991" stroke-width="0.5"/>
<path id="Path_10" d="M256.65 114.5C256.65 114.962 256.262 115.35 255.8 115.35H248.8C248.338 115.35 247.95 114.962 247.95 114.5C247.95 114.038 248.338 113.65 248.8 113.65H255.779C256.3 113.744 256.65 114.074 256.65 114.5Z" fill="#17183A" stroke="#494991" stroke-width="0.5"/>
<path id="Path_11" d="M357.75 114.5C357.75 114.962 357.362 115.35 356.9 115.35H349.9C349.438 115.35 349.05 114.962 349.05 114.5C349.05 114.038 349.438 113.65 349.9 113.65H356.882C357.185 113.696 357.399 113.802 357.536 113.939C357.672 114.075 357.75 114.259 357.75 114.5Z" fill="#17183A" stroke="#494991" stroke-width="0.5"/>
<path id="Path_12" d="M357.75 118.9C357.75 119.362 357.362 119.75 356.9 119.75H349.9C349.438 119.75 349.05 119.362 349.05 118.9C349.05 118.438 349.438 118.05 349.9 118.05H356.9C357.187 118.05 357.394 118.151 357.53 118.296C357.669 118.444 357.75 118.655 357.75 118.9Z" fill="#17183A" stroke="#494991" stroke-width="0.5"/>
<path id="Path_13" d="M357.75 132.4C357.75 132.862 357.362 133.25 356.9 133.25H349.9C349.438 133.25 349.05 132.862 349.05 132.4C349.05 131.938 349.438 131.55 349.9 131.55H356.9C357.187 131.55 357.394 131.651 357.53 131.796C357.669 131.944 357.75 132.155 357.75 132.4Z" fill="#17183A" stroke="#494991" stroke-width="0.5"/>
<path id="Path_14" d="M197.72 214.4C195.818 212.321 193.994 210.243 192.247 208.1H390.056C388.304 210.264 386.481 212.407 384.586 214.4H197.72Z" fill="#17183A" stroke="#494991"/>
<g id="Group">
<path id="Path_15" d="M287.85 50.3V50.1403L287.705 50.0732C283.687 48.2111 280.85 44.1956 280.85 39.5C280.85 33.1381 286.038 27.95 292.4 27.95C298.762 27.95 303.95 33.1381 303.95 39.5C303.95 44.1992 301.21 48.2127 297.195 50.0732L297.05 50.1403V50.3V55.05H292.8H292.1H287.85V50.3Z" fill="#17183A" stroke="#494991" stroke-width="0.5"/>
<path id="Path_16" d="M298.55 57.1C298.55 57.3829 298.342 57.65 298 57.65H287C286.717 57.65 286.45 57.4419 286.45 57.1C286.45 56.8172 286.658 56.55 287 56.55H298C298.342 56.55 298.55 56.8172 298.55 57.1Z" fill="#17183A" stroke="#494991" stroke-width="0.5"/>
<path id="Path_17" d="M298.55 59.6C298.55 59.8829 298.342 60.15 298 60.15H287C286.717 60.15 286.45 59.9419 286.45 59.6C286.45 59.3172 286.658 59.05 287 59.05H298C298.2 59.05 298.33 59.109 298.411 59.1893C298.491 59.2696 298.55 59.4001 298.55 59.6Z" fill="#17183A" stroke="#494991" stroke-width="0.5"/>
<path id="Path_18" d="M298.55 62.2C298.55 62.4829 298.342 62.75 298 62.75H287C286.717 62.75 286.45 62.5419 286.45 62.2C286.45 61.9172 286.658 61.65 287 61.65H298C298.342 61.65 298.55 61.9172 298.55 62.2Z" fill="#17183A" stroke="#494991" stroke-width="0.5"/>
<path id="Path_19" fill-rule="evenodd" clip-rule="evenodd" d="M293.3 23.9C293.3 24.3 292.9 24.7 292.5 24.7C292.1 24.7 291.7 24.3 291.7 23.9V18.7C291.7 18.3 292.1 17.9 292.5 17.9C292.9 17.9 293.3 18.3 293.3 18.7V23.9Z" fill="#00C8FF"/>
<path id="Path_20" fill-rule="evenodd" clip-rule="evenodd" d="M282 27.9C282.3 28.2 282.3 28.7 282 29C281.7 29.3 281.2 29.3 280.9 29L277.2 25.3C276.9 25 276.9 24.5 277.2 24.2C277.5 23.9 278 23.9 278.3 24.2L282 27.9Z" fill="#00C8FF"/>
<path id="Path_21" fill-rule="evenodd" clip-rule="evenodd" d="M276.8 38.8C277.2 38.8 277.6 39.2 277.6 39.6C277.6 40 277.2 40.4 276.8 40.4H271.6C271.2 40.4 270.8 40 270.8 39.6C270.8 39.2 271.2 38.8 271.6 38.8H276.8Z" fill="#00C8FF"/>
<path id="Path_22" fill-rule="evenodd" clip-rule="evenodd" d="M280.8 50.1C281.1 49.8 281.6 49.8 281.9 50.1C282.2 50.4 282.2 50.9 281.9 51.2L278.2 54.9C277.9 55.2 277.4 55.2 277.1 54.9C276.8 54.6 276.8 54.1 277.1 53.8L280.8 50.1Z" fill="#00C8FF"/>
<path id="Path_23" fill-rule="evenodd" clip-rule="evenodd" d="M303 51.3C302.7 51 302.7 50.5 303 50.2C303.3 49.9 303.8 49.9 304.1 50.2L307.8 53.9C308.1 54.2 308.1 54.7 307.8 55C307.5 55.3 307 55.3 306.7 55L303 51.3Z" fill="#00C8FF"/>
<path id="Path_24" fill-rule="evenodd" clip-rule="evenodd" d="M308.2 40.4C307.8 40.4 307.4 40 307.4 39.6C307.4 39.2 307.8 38.8 308.2 38.8H313.4C313.8 38.8 314.2 39.2 314.2 39.6C314.2 40 313.8 40.4 313.4 40.4H308.2Z" fill="#00C8FF"/>
<path id="Path_25" fill-rule="evenodd" clip-rule="evenodd" d="M304.2 29C303.9 29.3 303.4 29.3 303.1 29C302.8 28.7 302.8 28.2 303.1 27.9L306.8 24.2C307.1 23.9 307.6 23.9 307.9 24.2C308.2 24.5 308.2 25 307.9 25.3L304.2 29Z" fill="#00C8FF"/>
<g id="Group_2">
<path id="Path_26" d="M289.3 37.5L292.5 40.8" stroke="#00C8FF" stroke-linecap="round"/>
<path id="Path_27" d="M286.4 39.6L289.3 37.5" stroke="#00C8FF" stroke-linecap="round"/>
<path id="Path_28" d="M295.7 37.5L292.5 40.8" stroke="#00C8FF" stroke-linecap="round"/>
<path id="Path_29" d="M298.6 39.6L295.7 37.5" stroke="#00C8FF" stroke-linecap="round"/>
</g>
<path id="Path_30" d="M292.4 66.85C290.737 66.85 289.403 65.7885 288.93 64.35H295.87C295.397 65.7885 294.063 66.85 292.4 66.85Z" fill="#17183A" stroke="#494991" stroke-width="0.5"/>
</g>
<path id="Path_31" fill-rule="evenodd" clip-rule="evenodd" d="M356.7 200.4C356.5 204.4 353.2 207.6 349.1 207.6H342.2C339.3 202.6 336.1 197.3 333 192.4C326.5 182.2 320.1 173.6 316.3 172.4C306.4 169.2 305.5 137.3 304.7 136.2L304 135C304 135 329.6 139.2 333.5 143C335.8 145.2 346.3 172.5 354.6 194.6C355.3 196.7 356.1 198.6 356.7 200.4Z" fill="url(#paint4_linear)"/>
<path id="Path_32" fill-rule="evenodd" clip-rule="evenodd" d="M301.9 135.8L299.3 125.7L292.1 126.9L284.9 125.7L282.3 135.8C282.3 135.8 286 138.2 291.8 138.5C291.9 138.5 292 138.5 292.1 138.5C292.2 138.5 292.3 138.5 292.4 138.5C298.2 138.2 301.9 135.8 301.9 135.8Z" fill="#C4C5F4"/>
<path id="Path_33" fill-rule="evenodd" clip-rule="evenodd" d="M276.6 102.8C276.6 102.8 274.7 101 273.5 102.4C272.2 103.8 272.9 113 275.8 113.4C278.8 113.8 278.5 111.9 278.5 111.9L276.6 102.8Z" fill="#C4C5F4"/>
<path id="Path_34" fill-rule="evenodd" clip-rule="evenodd" d="M307.5 102.1C307.5 102.1 309.4 100.3 310.6 101.7C311.9 103.1 311.2 112.3 308.3 112.7C305.3 113.1 305.6 111.2 305.6 111.2L307.5 102.1Z" fill="#C4C5F4"/>
<path id="Path_35" fill-rule="evenodd" clip-rule="evenodd" d="M306.5 126.5C307.4 121.2 311.9 96.9 311 90C309.9 82.2 305.8 75.2 295.7 75.2C295.3 75.2 289.7 75.2 289.3 75.2C279.3 75.2 274.1 82.2 273 90C272 96.9 276.6 119.9 277.5 125.2C277.5 125.2 286.19 130.242 290.8 130.449C295.857 130.675 306.5 126.5 306.5 126.5Z" fill="#00E5FF"/>
<g id="Path_36">
<path fill-rule="evenodd" clip-rule="evenodd" d="M306.5 126.5C307.4 121.2 311.9 96.9 311 90C309.9 82.2 305.8 75.2 295.7 75.2C295.3 75.2 289.7 75.2 289.3 75.2C279.3 75.2 274.1 82.2 273 90C272 96.9 283.99 112.549 288.6 112.755C293.21 112.962 286.19 130.242 290.8 130.449C295.857 130.675 306.5 126.5 306.5 126.5Z" fill="#AFE3FF" style="mix-blend-mode:multiply"/>
</g>
<g id="Path_37">
<path fill-rule="evenodd" clip-rule="evenodd" d="M306.5 126.5C307.4 121.2 311.9 96.9 311 90C309.9 82.2 305.8 75.2 295.7 75.2C295.3 75.2 283.99 112.549 288.6 112.755C293.21 112.962 286.19 130.242 290.8 130.449C295.857 130.675 306.5 126.5 306.5 126.5Z" fill="#44BDFF" style="mix-blend-mode:multiply"/>
</g>
<path id="Path_38" fill-rule="evenodd" clip-rule="evenodd" d="M227.5 200.4C227.7 204.4 231 207.6 235.1 207.6H242C244.9 202.6 248.1 197.3 251.2 192.4C257.7 182.2 264.1 173.6 267.9 172.4C277.8 169.2 278.7 137.3 279.5 136.2L280.3 135.1C280.3 135.1 254.7 139.3 250.8 143.1C248.5 145.3 238 172.6 229.7 194.7C228.9 196.7 228.2 198.6 227.5 200.4Z" fill="url(#paint5_linear)"/>
<path id="Path_39" fill-rule="evenodd" clip-rule="evenodd" d="M291.8 134.3C291.8 134.2 291.7 134.3 291.6 134.3C291.5 134.3 291.4 134.3 291.4 134.3V134.4C287.2 135 249.9 131.4 254.1 167.2C258.5 204.9 265 237.8 265 237.8H316C316 237.8 326.1 204.8 330.6 167.2C334.8 131.2 296 134.9 291.8 134.3Z" fill="url(#paint6_linear)"/>
<path id="Path_40" fill-rule="evenodd" clip-rule="evenodd" d="M282.5 134.3L277.9 135.3C277.9 135.3 281.5 139.6 291.8 139.8C302.2 140 305.5 135.3 305.5 135.3L301.5 134.8L282.5 134.3Z" fill="url(#paint7_linear)"/>
<g id="Group_3">
<path id="Path_41" d="M308.332 254.205L308.329 254.205C302.754 255.002 296.978 255.4 291.1 255.4C285.223 255.4 279.546 255.002 273.869 254.205L273.868 254.205C266.019 253.125 258.365 251.37 251 248.939V191.4C251 185.867 252.117 181.613 254.106 178.334C256.092 175.059 258.971 172.72 262.561 171.054C269.772 167.706 279.79 167.1 291 167.1C309.916 167.1 319.935 170.499 325.232 175.175C330.5 179.825 331.2 185.833 331.2 191.4V248.939C323.835 251.37 316.181 253.125 308.332 254.205Z" fill="#17183A" stroke="#494991"/>
<path id="Path_42" d="M302.941 200.948L302.946 200.954L302.952 200.959C306.055 203.965 307.9 208.136 307.9 212.8V254.266C302.458 255.022 296.827 255.4 291.1 255.4C285.372 255.4 279.833 255.021 274.3 254.265V212.8C274.3 203.574 281.778 196 291.1 196C295.764 196 299.935 197.845 302.941 200.948Z" fill="#17183A" stroke="#494991"/>
</g>
</g>
<defs>
<linearGradient id="paint0_linear" x1="863.344" y1="-50.1042" x2="842.752" y2="315.419" gradientUnits="userSpaceOnUse">
<stop stop-color="#2D2F70"/>
<stop offset="0.534569" stop-color="#212352"/>
<stop offset="1" stop-color="#171839"/>
</linearGradient>
<linearGradient id="paint1_linear" x1="-324.344" y1="324.104" x2="-303.752" y2="-41.4195" gradientUnits="userSpaceOnUse">
<stop stop-color="#2D2F70"/>
<stop offset="0.534569" stop-color="#212352"/>
<stop offset="1" stop-color="#171839"/>
</linearGradient>
<linearGradient id="paint2_linear" x1="776.913" y1="-61.1042" x2="751.153" y2="303.761" gradientUnits="userSpaceOnUse">
<stop stop-color="#2D2F70"/>
<stop offset="0.534569" stop-color="#212352"/>
<stop offset="1" stop-color="#171839"/>
</linearGradient>
<linearGradient id="paint3_linear" x1="722.628" y1="1261.7" x2="825.229" y2="218.486" gradientUnits="userSpaceOnUse">
<stop stop-color="#17183A"/>
<stop offset="1" stop-color="#000516" stop-opacity="0.23"/>
</linearGradient>
<linearGradient id="paint4_linear" x1="338.216" y1="226.36" x2="394.831" y2="182.607" gradientUnits="userSpaceOnUse">
<stop stop-color="#6121A1"/>
<stop offset="1" stop-color="#00AEFF"/>
</linearGradient>
<linearGradient id="paint5_linear" x1="261.781" y1="226.334" x2="318.364" y2="182.463" gradientUnits="userSpaceOnUse">
<stop stop-color="#6121A1"/>
<stop offset="1" stop-color="#00AEFF"/>
</linearGradient>
<linearGradient id="paint6_linear" x1="303.86" y1="264.556" x2="385.112" y2="200.106" gradientUnits="userSpaceOnUse">
<stop stop-color="#6121A1"/>
<stop offset="1" stop-color="#00AEFF"/>
</linearGradient>
<linearGradient id="paint7_linear" x1="295.82" y1="141.229" x2="297.426" y2="132.656" gradientUnits="userSpaceOnUse">
<stop stop-color="#6121A1"/>
<stop offset="1" stop-color="#00AEFF"/>
</linearGradient>
</defs>
</svg>
