<svg width="195" height="166" viewBox="0 0 195 166" fill="none" xmlns="http://www.w3.org/2000/svg">
<path d="M110.583 133.463L113.466 78.0653C113.466 76.2768 111.888 75.1397 110.227 74.4764C107.498 73.3748 99.5953 70.8875 99.5953 70.8875L95.4423 76.028L91.2893 70.8875C91.2893 70.8875 84.0157 73.1379 81.69 74.4764C80.1356 75.3647 78.2727 76.5729 78.2727 77.402L81.1679 133.463H110.583Z" fill="white"/>
<path fill-rule="evenodd" clip-rule="evenodd" d="M110.286 146.598L110.702 130.869H80.5746L81.2154 146.598H110.286Z" fill="url(#paint0_linear)"/>
<path d="M110.595 134.718L110.702 130.869H80.5746L80.7408 134.718" fill="#221759"/>
<rect x="91.5504" y="130.892" width="7.66522" height="3.82583" fill="white"/>
<path fill-rule="evenodd" clip-rule="evenodd" d="M110.108 74.1566C108.115 73.3511 103.096 71.835 99.975 70.8875L95.4067 103.662C95.3355 115.601 95.4067 131.651 95.4067 131.651C95.4067 131.651 101.411 132.918 105.03 134.185C106.715 134.778 112.315 134.718 112.315 134.718L113.478 77.8876C113.478 76.028 111.829 74.8554 110.108 74.1566Z" fill="url(#paint1_linear)"/>
<path fill-rule="evenodd" clip-rule="evenodd" d="M81.6544 74.1566C83.6479 73.3511 88.1806 71.835 91.3012 70.8875C91.3012 70.8875 95.4423 104.088 95.4542 104.834C95.5135 115.423 95.4067 126.486 95.4067 131.651C95.4067 131.651 90.3638 132.918 86.7448 134.185C85.0599 134.778 79.4593 134.718 79.4593 134.718L78.2965 77.8876C78.2846 76.028 79.9339 74.8554 81.6544 74.1566Z" fill="url(#paint2_linear)"/>
<path d="M105.22 61.6959C105.22 63.5319 100.497 69.1581 95.6441 69.1581C90.9808 69.1581 86.0803 63.899 86.0803 61.6959V54.6247C86.0803 49.342 90.3638 45.0779 95.6441 45.0779C100.936 45.0779 105.22 49.3538 105.22 54.6247V61.6959Z" fill="white"/>
<path d="M106.928 58.6281C106.572 59.6823 105.647 60.3219 104.876 60.0613C104.092 59.8007 103.748 58.7347 104.104 57.6806C104.46 56.6264 105.374 55.9868 106.157 56.2473C106.94 56.5079 107.284 57.574 106.928 58.6281Z" fill="white"/>
<path d="M84.3717 58.6281C84.7276 59.6823 85.6532 60.3219 86.4363 60.0613C87.2194 59.8007 87.5635 58.7347 87.2076 57.6806C86.8516 56.6264 85.9261 55.9868 85.1548 56.2473C84.3598 56.5079 84.0157 57.574 84.3717 58.6281Z" fill="white"/>
<path fill-rule="evenodd" clip-rule="evenodd" d="M86.0803 58.6637C86.0803 58.6637 86.2464 58.6282 86.7211 57.6925C87.2076 56.7567 87.5042 56.3659 87.5042 54.3641C87.5042 52.8125 89.2841 50.8581 91.0046 50.8581C91.3843 50.8581 92.5115 50.8699 92.8438 50.8699C96.9137 50.8699 97.5426 55.6907 102.206 55.6907C103.238 55.6907 105.232 55.6907 105.232 55.6907V52.54C105.232 52.54 105.101 44.6633 97.5188 44.6633C97.5188 44.6633 94.7304 44.6633 93.8049 44.6633C90.9927 44.6633 86.0922 48.122 86.0922 53.4047V58.6637H86.0803Z" fill="#00E5FF"/>
<path fill-rule="evenodd" clip-rule="evenodd" d="M103.784 49.0459V54.4944C103.796 54.5655 103.796 54.6366 103.796 54.7076C103.796 56.7094 104.092 57.1003 104.567 58.036C105.054 58.9717 105.208 59.0073 105.208 59.0073V53.7364C105.22 51.936 104.638 50.3607 103.784 49.0459Z" fill="#00E5FF"/>
<path fill-rule="evenodd" clip-rule="evenodd" d="M124.371 133.984L64.7814 147.688L65.8137 155.968L126.874 150.247C129.532 149.844 134.136 147.961 133.365 141.766C132.416 134.185 127.029 133.581 124.371 133.984Z" fill="url(#paint3_linear)"/>
<path d="M68.614 155.47C66.8816 156.998 66.585 158.68 65.7188 162.02C65.2916 163.655 63.3575 166.924 60.1657 164.981C56.9619 163.039 58.7536 158.964 59.4063 157.46C60.9251 153.99 61.7675 153.634 62.9304 150.14C63.2507 149.169 63.7728 148.209 64.7814 147.688C65.1967 147.475 66.9054 147.191 67.5698 147.096C67.5698 147.096 67.0834 149.607 67.3088 151.396C67.4393 152.462 68.614 155.47 68.614 155.47Z" fill="#36258D"/>
<path fill-rule="evenodd" clip-rule="evenodd" d="M67.3919 133.984L126.981 147.688L125.949 155.968L64.8882 150.247C62.2303 149.844 57.6264 147.961 58.3977 141.766C59.3469 134.185 64.7221 133.581 67.3919 133.984Z" fill="url(#paint4_linear)"/>
<path d="M123.149 155.47C124.881 156.998 125.178 158.68 126.044 162.02C126.471 163.655 128.393 166.924 131.597 164.981C134.801 163.039 133.009 158.964 132.356 157.46C130.838 153.99 129.983 153.634 128.832 150.14C128.512 149.169 127.99 148.209 126.981 147.688C126.566 147.475 124.857 147.191 124.193 147.096C124.193 147.096 124.679 149.607 124.454 151.396C124.311 152.462 123.149 155.47 123.149 155.47Z" fill="#36258D"/>
<path fill-rule="evenodd" clip-rule="evenodd" d="M159.185 101.186V108.388L130.873 110.626V101.127L159.185 101.186Z" fill="url(#paint5_linear)"/>
<path d="M161.522 107.286C161.522 107.286 164.868 108.222 169.579 108.222C171.406 108.222 174.219 107.179 174.907 104.526C174.978 104.254 174.919 103.508 174.669 103.377C174.361 103.211 174.041 103.211 173.447 103.78C172.273 104.893 171.323 105.675 170.41 105.675C169.698 105.675 169.187 105.699 168.392 105.699C167.645 105.699 165.758 104.893 165.758 104.349C165.758 103.816 167.574 102.892 167.942 102.596C169.069 101.684 168.784 100.191 167.514 100.985C164.382 102.951 161.534 102.406 161.534 102.406V107.286H161.522Z" fill="white"/>
<rect x="159.185" y="101.731" width="2.85963" height="6.15922" fill="white"/>
<path fill-rule="evenodd" clip-rule="evenodd" d="M105.825 74.9974C102.502 78.6219 105.777 82.4714 109.313 88.4056C112.173 93.2145 115.911 101.198 125.142 108.565L131.087 101.15C131.087 101.15 119.458 84.5442 117.145 80.3512C114.594 75.7318 108.684 71.8941 105.825 74.9974Z" fill="url(#paint6_linear)"/>
<path d="M130.873 110.626C130.873 110.626 128.702 111.396 125.142 108.577L130.956 101.044C130.968 101.032 132.143 108.838 130.873 110.626Z" fill="#36258D"/>
<path fill-rule="evenodd" clip-rule="evenodd" d="M32.9933 101.186V108.387L61.3048 110.626V101.127L32.9933 101.186Z" fill="url(#paint7_linear)"/>
<path d="M30.9168 107.203C30.9168 107.203 27.5707 108.151 22.86 108.151C21.0327 108.151 18.2205 107.108 17.5323 104.455C17.4611 104.171 17.5205 103.436 17.7696 103.306C18.09 103.14 18.3985 103.152 18.9918 103.709C20.1665 104.822 21.1158 105.604 22.0294 105.604C22.7414 105.604 23.2516 105.628 24.0466 105.628C24.7941 105.628 26.6808 104.822 26.6808 104.277C26.6808 103.744 24.8653 102.82 24.4975 102.524C23.3702 101.612 23.655 100.12 24.9246 100.914C28.0572 102.88 30.9049 102.335 30.9049 102.335V107.203H30.9168Z" fill="white"/>
<rect x="30.1337" y="101.731" width="2.85963" height="6.15922" fill="white"/>
<path fill-rule="evenodd" clip-rule="evenodd" d="M86.3532 74.9974C89.6756 78.6219 86.4007 82.4714 82.8647 88.4056C79.9932 93.2145 76.2674 101.198 67.0359 108.565L61.0912 101.15C61.0912 101.15 72.7196 84.5442 75.0334 80.3512C77.5845 75.7318 83.5055 71.8941 86.3532 74.9974Z" fill="url(#paint8_linear)"/>
<path d="M61.3048 110.626C61.3048 110.626 63.4762 111.396 67.0359 108.577L61.2217 101.044C61.2217 101.032 60.0352 108.838 61.3048 110.626Z" fill="#36258D"/>
<path d="M111.148 15.392C111.148 23.872 104.268 30.752 95.788 30.752C87.308 30.752 80.428 23.872 80.428 15.392C80.428 6.91198 87.308 0.0319824 95.788 0.0319824C104.268 0.0479824 111.148 6.91198 111.148 15.392Z" fill="#00F5FF"/>
<mask id="path-27-inside-1" fill="white">
<path fill-rule="evenodd" clip-rule="evenodd" d="M108.3 15.2L96.3 3.19995L84.3 15.2L96.3 27.2L108.3 15.2ZM107.1 15.2L96.3 4.39995L85.5 15.2L96.3 26L107.1 15.2Z"/>
</mask>
<path fill-rule="evenodd" clip-rule="evenodd" d="M108.3 15.2L96.3 3.19995L84.3 15.2L96.3 27.2L108.3 15.2ZM107.1 15.2L96.3 4.39995L85.5 15.2L96.3 26L107.1 15.2Z" fill="black"/>
<path d="M96.3 3.19995L97.0071 2.49284L96.3 1.78574L95.5929 2.49284L96.3 3.19995ZM108.3 15.2L109.007 15.9071L109.714 15.2L109.007 14.4928L108.3 15.2ZM84.3 15.2L83.5929 14.4928L82.8858 15.2L83.5929 15.9071L84.3 15.2ZM96.3 27.2L95.5929 27.9071L96.3 28.6142L97.0071 27.9071L96.3 27.2ZM96.3 4.39995L97.0071 3.69284L96.3 2.98574L95.5929 3.69284L96.3 4.39995ZM107.1 15.2L107.807 15.9071L108.514 15.2L107.807 14.4928L107.1 15.2ZM85.5 15.2L84.7929 14.4928L84.0858 15.2L84.7929 15.9071L85.5 15.2ZM96.3 26L95.5929 26.7071L96.3 27.4142L97.0071 26.7071L96.3 26ZM95.5929 3.90706L107.593 15.9071L109.007 14.4928L97.0071 2.49284L95.5929 3.90706ZM85.0071 15.9071L97.0071 3.90706L95.5929 2.49284L83.5929 14.4928L85.0071 15.9071ZM97.0071 26.4928L85.0071 14.4928L83.5929 15.9071L95.5929 27.9071L97.0071 26.4928ZM107.593 14.4928L95.5929 26.4928L97.0071 27.9071L109.007 15.9071L107.593 14.4928ZM95.5929 5.10706L106.393 15.9071L107.807 14.4928L97.0071 3.69284L95.5929 5.10706ZM86.2071 15.9071L97.0071 5.10706L95.5929 3.69284L84.7929 14.4928L86.2071 15.9071ZM97.0071 25.2928L86.2071 14.4928L84.7929 15.9071L95.5929 26.7071L97.0071 25.2928ZM106.393 14.4928L95.5929 25.2928L97.0071 26.7071L107.807 15.9071L106.393 14.4928Z" fill="black" mask="url(#path-27-inside-1)"/>
<path d="M85.05 15.3342C85.05 15.3342 86.4003 13.8547 89.4293 13.1397C92.4582 12.4248 94.7393 13.8557 96.7668 15.3342C98.7943 16.8127 100.332 17.5683 102.726 17.4349C105.119 17.3014 106.68 16.0107 107.55 14.9689" stroke="black"/>
<path fill-rule="evenodd" clip-rule="evenodd" d="M100.028 17.5362C100.028 18.3447 99.7181 19.0298 99.0986 19.5915C98.4791 20.1533 97.5709 20.4657 96.3739 20.5287V22.3399H95.5864V20.5444C94.8199 20.5024 94.098 20.3528 93.4208 20.0955C92.7435 19.8383 92.2106 19.5102 91.8221 19.1112L92.2789 18.2134C92.6464 18.5704 93.1268 18.8697 93.72 19.1112C94.3133 19.3527 94.9354 19.4944 95.5864 19.5364V15.3942C94.8619 15.2157 94.2581 15.024 93.7751 14.8193C93.2921 14.6145 92.8905 14.3153 92.5703 13.9215C92.25 13.5278 92.0899 13.0054 92.0899 12.3544C92.0899 11.5459 92.3839 10.866 92.9719 10.3148C93.5599 9.76353 94.4314 9.44066 95.5864 9.34616V7.53491H96.3739V9.33041C96.9724 9.35141 97.5525 9.44854 98.1143 9.62179C98.676 9.79504 99.1616 10.0234 99.5711 10.3069L99.1774 11.2362C98.7469 10.9632 98.2901 10.7479 97.8071 10.5904C97.3241 10.4329 96.8464 10.3437 96.3739 10.3227V14.4964C97.1509 14.6854 97.7861 14.877 98.2796 15.0713C98.7731 15.2655 99.1879 15.5622 99.5239 15.9612C99.8599 16.3602 100.028 16.8852 100.028 17.5362ZM93.2396 12.3229C93.2396 12.8689 93.4418 13.2837 93.846 13.5672C94.2503 13.8507 94.8304 14.0922 95.5864 14.2917V10.3542C94.8094 10.4172 94.224 10.6298 93.8303 10.992C93.4365 11.3543 93.2396 11.7979 93.2396 12.3229ZM96.3739 19.5364C97.2034 19.4734 97.8281 19.2687 98.2481 18.9222C98.6681 18.5757 98.8781 18.1347 98.8781 17.5992C98.8781 17.0322 98.6629 16.6069 98.2324 16.3234C97.8019 16.0399 97.1824 15.7984 96.3739 15.5989V19.5364Z" fill="black"/>
<path d="M31.148 75.392C31.148 83.872 24.268 90.752 15.788 90.752C7.30801 90.752 0.428009 83.872 0.428009 75.392C0.428009 66.912 7.30801 60.032 15.788 60.032C24.268 60.048 31.148 66.912 31.148 75.392Z" fill="#00F5FF"/>
<mask id="path-32-inside-2" fill="white">
<path fill-rule="evenodd" clip-rule="evenodd" d="M28.3 75.2L16.3 63.2L4.30002 75.2L16.3 87.2L28.3 75.2ZM27.1 75.2L16.3 64.4L5.50002 75.2L16.3 86L27.1 75.2Z"/>
</mask>
<path fill-rule="evenodd" clip-rule="evenodd" d="M28.3 75.2L16.3 63.2L4.30002 75.2L16.3 87.2L28.3 75.2ZM27.1 75.2L16.3 64.4L5.50002 75.2L16.3 86L27.1 75.2Z" fill="black"/>
<path d="M16.3 63.2L17.0071 62.4928L16.3 61.7857L15.5929 62.4928L16.3 63.2ZM28.3 75.2L29.0071 75.9071L29.7142 75.2L29.0071 74.4928L28.3 75.2ZM4.30002 75.2L3.59291 74.4928L2.8858 75.2L3.59291 75.9071L4.30002 75.2ZM16.3 87.2L15.5929 87.9071L16.3 88.6142L17.0071 87.9071L16.3 87.2ZM16.3 64.4L17.0071 63.6928L16.3 62.9857L15.5929 63.6928L16.3 64.4ZM27.1 75.2L27.8071 75.9071L28.5142 75.2L27.8071 74.4928L27.1 75.2ZM5.50002 75.2L4.79291 74.4928L4.0858 75.2L4.79291 75.9071L5.50002 75.2ZM16.3 86L15.5929 86.7071L16.3 87.4142L17.0071 86.7071L16.3 86ZM15.5929 63.9071L27.5929 75.9071L29.0071 74.4928L17.0071 62.4928L15.5929 63.9071ZM5.00713 75.9071L17.0071 63.9071L15.5929 62.4928L3.59291 74.4928L5.00713 75.9071ZM17.0071 86.4928L5.00713 74.4928L3.59291 75.9071L15.5929 87.9071L17.0071 86.4928ZM27.5929 74.4928L15.5929 86.4928L17.0071 87.9071L29.0071 75.9071L27.5929 74.4928ZM15.5929 65.1071L26.3929 75.9071L27.8071 74.4928L17.0071 63.6928L15.5929 65.1071ZM6.20713 75.9071L17.0071 65.1071L15.5929 63.6928L4.79291 74.4928L6.20713 75.9071ZM17.0071 85.2928L6.20713 74.4928L4.79291 75.9071L15.5929 86.7071L17.0071 85.2928ZM26.3929 74.4928L15.5929 85.2928L17.0071 86.7071L27.8071 75.9071L26.3929 74.4928Z" fill="black" mask="url(#path-32-inside-2)"/>
<path d="M5.05002 75.3342C5.05002 75.3342 6.40035 73.8547 9.42929 73.1397C12.4582 72.4248 14.7393 73.8557 16.7668 75.3342C18.7943 76.8127 20.3318 77.5683 22.7255 77.4349C25.1193 77.3014 26.6798 76.0107 27.55 74.9689" stroke="black"/>
<path fill-rule="evenodd" clip-rule="evenodd" d="M20.0279 77.5362C20.0279 78.3447 19.7181 79.0298 19.0986 79.5915C18.4791 80.1533 17.5709 80.4657 16.3739 80.5287V82.3399H15.5864V80.5444C14.8199 80.5024 14.098 80.3528 13.4208 80.0955C12.7435 79.8383 12.2106 79.5102 11.8221 79.1112L12.2789 78.2134C12.6464 78.5704 13.1268 78.8697 13.72 79.1112C14.3133 79.3527 14.9354 79.4944 15.5864 79.5364V75.3942C14.8619 75.2157 14.2581 75.024 13.7751 74.8193C13.2921 74.6145 12.8905 74.3153 12.5703 73.9215C12.25 73.5278 12.0899 73.0054 12.0899 72.3544C12.0899 71.5459 12.3839 70.866 12.9719 70.3148C13.5599 69.7635 14.4314 69.4407 15.5864 69.3462V67.5349H16.3739V69.3304C16.9724 69.3514 17.5525 69.4485 18.1143 69.6218C18.676 69.795 19.1616 70.0234 19.5711 70.3069L19.1774 71.2362C18.7469 70.9632 18.2901 70.7479 17.8071 70.5904C17.3241 70.4329 16.8464 70.3437 16.3739 70.3227V74.4964C17.1509 74.6854 17.7861 74.877 18.2796 75.0713C18.7731 75.2655 19.1879 75.5622 19.5239 75.9612C19.8599 76.3602 20.0279 76.8852 20.0279 77.5362ZM13.2396 72.3229C13.2396 72.8689 13.4418 73.2837 13.846 73.5672C14.2503 73.8507 14.8304 74.0922 15.5864 74.2917V70.3542C14.8094 70.4172 14.224 70.6298 13.8303 70.992C13.4365 71.3543 13.2396 71.7979 13.2396 72.3229ZM16.3739 79.5364C17.2034 79.4734 17.8281 79.2687 18.2481 78.9222C18.6681 78.5757 18.8781 78.1347 18.8781 77.5992C18.8781 77.0322 18.6629 76.6069 18.2324 76.3234C17.8019 76.0399 17.1824 75.7984 16.3739 75.5989V79.5364Z" fill="black"/>
<path d="M66.148 39.392C66.148 47.872 59.268 54.752 50.788 54.752C42.308 54.752 35.428 47.872 35.428 39.392C35.428 30.912 42.308 24.032 50.788 24.032C59.268 24.048 66.148 30.912 66.148 39.392Z" fill="#00F5FF"/>
<mask id="path-37-inside-3" fill="white">
<path fill-rule="evenodd" clip-rule="evenodd" d="M63.3 39.2L51.3 27.2L39.3 39.2L51.3 51.2L63.3 39.2ZM62.1 39.2L51.3 28.4L40.5 39.2L51.3 50L62.1 39.2Z"/>
</mask>
<path fill-rule="evenodd" clip-rule="evenodd" d="M63.3 39.2L51.3 27.2L39.3 39.2L51.3 51.2L63.3 39.2ZM62.1 39.2L51.3 28.4L40.5 39.2L51.3 50L62.1 39.2Z" fill="black"/>
<path d="M51.3 27.2L52.0071 26.4928L51.3 25.7857L50.5929 26.4928L51.3 27.2ZM63.3 39.2L64.0071 39.9071L64.7142 39.2L64.0071 38.4928L63.3 39.2ZM39.3 39.2L38.5929 38.4928L37.8858 39.2L38.5929 39.9071L39.3 39.2ZM51.3 51.2L50.5929 51.9071L51.3 52.6142L52.0071 51.9071L51.3 51.2ZM51.3 28.4L52.0071 27.6928L51.3 26.9857L50.5929 27.6928L51.3 28.4ZM62.1 39.2L62.8071 39.9071L63.5142 39.2L62.8071 38.4928L62.1 39.2ZM40.5 39.2L39.7929 38.4928L39.0858 39.2L39.7929 39.9071L40.5 39.2ZM51.3 50L50.5929 50.7071L51.3 51.4142L52.0071 50.7071L51.3 50ZM50.5929 27.9071L62.5929 39.9071L64.0071 38.4928L52.0071 26.4928L50.5929 27.9071ZM40.0071 39.9071L52.0071 27.9071L50.5929 26.4928L38.5929 38.4928L40.0071 39.9071ZM52.0071 50.4928L40.0071 38.4928L38.5929 39.9071L50.5929 51.9071L52.0071 50.4928ZM62.5929 38.4928L50.5929 50.4928L52.0071 51.9071L64.0071 39.9071L62.5929 38.4928ZM50.5929 29.1071L61.3929 39.9071L62.8071 38.4928L52.0071 27.6928L50.5929 29.1071ZM41.2071 39.9071L52.0071 29.1071L50.5929 27.6928L39.7929 38.4928L41.2071 39.9071ZM52.0071 49.2928L41.2071 38.4928L39.7929 39.9071L50.5929 50.7071L52.0071 49.2928ZM61.3929 38.4928L50.5929 49.2928L52.0071 50.7071L62.8071 39.9071L61.3929 38.4928Z" fill="black" mask="url(#path-37-inside-3)"/>
<path d="M40.05 39.3342C40.05 39.3342 41.4003 37.8547 44.4293 37.1397C47.4582 36.4248 49.7393 37.8557 51.7668 39.3342C53.7943 40.8127 55.3318 41.5683 57.7255 41.4349C60.1193 41.3014 61.6798 40.0107 62.55 38.9689" stroke="black"/>
<path fill-rule="evenodd" clip-rule="evenodd" d="M55.0279 41.5362C55.0279 42.3447 54.7181 43.0298 54.0986 43.5915C53.4791 44.1533 52.5709 44.4657 51.3739 44.5287V46.3399H50.5864V44.5444C49.8199 44.5024 49.098 44.3528 48.4208 44.0955C47.7435 43.8383 47.2106 43.5102 46.8221 43.1112L47.2789 42.2134C47.6464 42.5704 48.1268 42.8697 48.72 43.1112C49.3133 43.3527 49.9354 43.4944 50.5864 43.5364V39.3942C49.8619 39.2157 49.2581 39.024 48.7751 38.8193C48.2921 38.6145 47.8905 38.3153 47.5703 37.9215C47.25 37.5278 47.0899 37.0054 47.0899 36.3544C47.0899 35.5459 47.3839 34.866 47.9719 34.3148C48.5599 33.7635 49.4314 33.4407 50.5864 33.3462V31.5349H51.3739V33.3304C51.9724 33.3514 52.5525 33.4485 53.1143 33.6218C53.676 33.795 54.1616 34.0234 54.5711 34.3069L54.1774 35.2362C53.7469 34.9632 53.2901 34.7479 52.8071 34.5904C52.3241 34.4329 51.8464 34.3437 51.3739 34.3227V38.4964C52.1509 38.6854 52.7861 38.877 53.2796 39.0713C53.7731 39.2655 54.1879 39.5622 54.5239 39.9612C54.8599 40.3602 55.0279 40.8852 55.0279 41.5362ZM48.2396 36.3229C48.2396 36.8689 48.4418 37.2837 48.846 37.5672C49.2503 37.8507 49.8304 38.0922 50.5864 38.2917V34.3542C49.8094 34.4172 49.224 34.6298 48.8303 34.992C48.4365 35.3543 48.2396 35.7979 48.2396 36.3229ZM51.3739 43.5364C52.2034 43.4734 52.8281 43.2687 53.2481 42.9222C53.6681 42.5757 53.8781 42.1347 53.8781 41.5992C53.8781 41.0322 53.6629 40.6069 53.2324 40.3234C52.8019 40.0399 52.1824 39.7984 51.3739 39.5989V43.5364Z" fill="black"/>
<path d="M155.148 39.392C155.148 47.872 148.268 54.752 139.788 54.752C131.308 54.752 124.428 47.872 124.428 39.392C124.428 30.912 131.308 24.032 139.788 24.032C148.268 24.048 155.148 30.912 155.148 39.392Z" fill="#00F5FF"/>
<mask id="path-42-inside-4" fill="white">
<path fill-rule="evenodd" clip-rule="evenodd" d="M152.3 39.2L140.3 27.2L128.3 39.2L140.3 51.2L152.3 39.2ZM151.1 39.2L140.3 28.4L129.5 39.2L140.3 50L151.1 39.2Z"/>
</mask>
<path fill-rule="evenodd" clip-rule="evenodd" d="M152.3 39.2L140.3 27.2L128.3 39.2L140.3 51.2L152.3 39.2ZM151.1 39.2L140.3 28.4L129.5 39.2L140.3 50L151.1 39.2Z" fill="black"/>
<path d="M140.3 27.2L141.007 26.4928L140.3 25.7857L139.593 26.4928L140.3 27.2ZM152.3 39.2L153.007 39.9071L153.714 39.2L153.007 38.4928L152.3 39.2ZM128.3 39.2L127.593 38.4928L126.886 39.2L127.593 39.9071L128.3 39.2ZM140.3 51.2L139.593 51.9071L140.3 52.6142L141.007 51.9071L140.3 51.2ZM140.3 28.4L141.007 27.6928L140.3 26.9857L139.593 27.6928L140.3 28.4ZM151.1 39.2L151.807 39.9071L152.514 39.2L151.807 38.4928L151.1 39.2ZM129.5 39.2L128.793 38.4928L128.086 39.2L128.793 39.9071L129.5 39.2ZM140.3 50L139.593 50.7071L140.3 51.4142L141.007 50.7071L140.3 50ZM139.593 27.9071L151.593 39.9071L153.007 38.4928L141.007 26.4928L139.593 27.9071ZM129.007 39.9071L141.007 27.9071L139.593 26.4928L127.593 38.4928L129.007 39.9071ZM141.007 50.4928L129.007 38.4928L127.593 39.9071L139.593 51.9071L141.007 50.4928ZM151.593 38.4928L139.593 50.4928L141.007 51.9071L153.007 39.9071L151.593 38.4928ZM139.593 29.1071L150.393 39.9071L151.807 38.4928L141.007 27.6928L139.593 29.1071ZM130.207 39.9071L141.007 29.1071L139.593 27.6928L128.793 38.4928L130.207 39.9071ZM141.007 49.2928L130.207 38.4928L128.793 39.9071L139.593 50.7071L141.007 49.2928ZM150.393 38.4928L139.593 49.2928L141.007 50.7071L151.807 39.9071L150.393 38.4928Z" fill="black" mask="url(#path-42-inside-4)"/>
<path d="M129.05 39.3342C129.05 39.3342 130.4 37.8547 133.429 37.1397C136.458 36.4248 138.739 37.8557 140.767 39.3342C142.794 40.8127 144.332 41.5683 146.726 41.4349C149.119 41.3014 150.68 40.0107 151.55 38.9689" stroke="black"/>
<path fill-rule="evenodd" clip-rule="evenodd" d="M144.028 41.5362C144.028 42.3447 143.718 43.0298 143.099 43.5915C142.479 44.1533 141.571 44.4657 140.374 44.5287V46.3399H139.586V44.5444C138.82 44.5024 138.098 44.3528 137.421 44.0955C136.743 43.8383 136.211 43.5102 135.822 43.1112L136.279 42.2134C136.646 42.5704 137.127 42.8697 137.72 43.1112C138.313 43.3527 138.935 43.4944 139.586 43.5364V39.3942C138.862 39.2157 138.258 39.024 137.775 38.8193C137.292 38.6145 136.891 38.3153 136.57 37.9215C136.25 37.5278 136.09 37.0054 136.09 36.3544C136.09 35.5459 136.384 34.866 136.972 34.3148C137.56 33.7635 138.431 33.4407 139.586 33.3462V31.5349H140.374V33.3304C140.972 33.3514 141.553 33.4485 142.114 33.6218C142.676 33.795 143.162 34.0234 143.571 34.3069L143.177 35.2362C142.747 34.9632 142.29 34.7479 141.807 34.5904C141.324 34.4329 140.846 34.3437 140.374 34.3227V38.4964C141.151 38.6854 141.786 38.877 142.28 39.0713C142.773 39.2655 143.188 39.5622 143.524 39.9612C143.86 40.3602 144.028 40.8852 144.028 41.5362ZM137.24 36.3229C137.24 36.8689 137.442 37.2837 137.846 37.5672C138.25 37.8507 138.83 38.0922 139.586 38.2917V34.3542C138.809 34.4172 138.224 34.6298 137.83 34.992C137.437 35.3543 137.24 35.7979 137.24 36.3229ZM140.374 43.5364C141.203 43.4734 141.828 43.2687 142.248 42.9222C142.668 42.5757 142.878 42.1347 142.878 41.5992C142.878 41.0322 142.663 40.6069 142.232 40.3234C141.802 40.0399 141.182 39.7984 140.374 39.5989V43.5364Z" fill="black"/>
<path d="M194.148 75.392C194.148 83.872 187.268 90.752 178.788 90.752C170.308 90.752 163.428 83.872 163.428 75.392C163.428 66.912 170.308 60.032 178.788 60.032C187.268 60.048 194.148 66.912 194.148 75.392Z" fill="#00F5FF"/>
<mask id="path-47-inside-5" fill="white">
<path fill-rule="evenodd" clip-rule="evenodd" d="M191.3 75.2L179.3 63.2L167.3 75.2L179.3 87.2L191.3 75.2ZM190.1 75.2L179.3 64.4L168.5 75.2L179.3 86L190.1 75.2Z"/>
</mask>
<path fill-rule="evenodd" clip-rule="evenodd" d="M191.3 75.2L179.3 63.2L167.3 75.2L179.3 87.2L191.3 75.2ZM190.1 75.2L179.3 64.4L168.5 75.2L179.3 86L190.1 75.2Z" fill="black"/>
<path d="M179.3 63.2L180.007 62.4928L179.3 61.7857L178.593 62.4928L179.3 63.2ZM191.3 75.2L192.007 75.9071L192.714 75.2L192.007 74.4928L191.3 75.2ZM167.3 75.2L166.593 74.4928L165.886 75.2L166.593 75.9071L167.3 75.2ZM179.3 87.2L178.593 87.9071L179.3 88.6142L180.007 87.9071L179.3 87.2ZM179.3 64.4L180.007 63.6928L179.3 62.9857L178.593 63.6928L179.3 64.4ZM190.1 75.2L190.807 75.9071L191.514 75.2L190.807 74.4928L190.1 75.2ZM168.5 75.2L167.793 74.4928L167.086 75.2L167.793 75.9071L168.5 75.2ZM179.3 86L178.593 86.7071L179.3 87.4142L180.007 86.7071L179.3 86ZM178.593 63.9071L190.593 75.9071L192.007 74.4928L180.007 62.4928L178.593 63.9071ZM168.007 75.9071L180.007 63.9071L178.593 62.4928L166.593 74.4928L168.007 75.9071ZM180.007 86.4928L168.007 74.4928L166.593 75.9071L178.593 87.9071L180.007 86.4928ZM190.593 74.4928L178.593 86.4928L180.007 87.9071L192.007 75.9071L190.593 74.4928ZM178.593 65.1071L189.393 75.9071L190.807 74.4928L180.007 63.6928L178.593 65.1071ZM169.207 75.9071L180.007 65.1071L178.593 63.6928L167.793 74.4928L169.207 75.9071ZM180.007 85.2928L169.207 74.4928L167.793 75.9071L178.593 86.7071L180.007 85.2928ZM189.393 74.4928L178.593 85.2928L180.007 86.7071L190.807 75.9071L189.393 74.4928Z" fill="black" mask="url(#path-47-inside-5)"/>
<path d="M168.05 75.3342C168.05 75.3342 169.4 73.8547 172.429 73.1397C175.458 72.4248 177.739 73.8557 179.767 75.3342C181.794 76.8127 183.332 77.5683 185.726 77.4349C188.119 77.3014 189.68 76.0107 190.55 74.9689" stroke="black"/>
<path fill-rule="evenodd" clip-rule="evenodd" d="M183.028 77.5362C183.028 78.3447 182.718 79.0298 182.099 79.5915C181.479 80.1533 180.571 80.4657 179.374 80.5287V82.3399H178.586V80.5444C177.82 80.5024 177.098 80.3528 176.421 80.0955C175.743 79.8383 175.211 79.5102 174.822 79.1112L175.279 78.2134C175.646 78.5704 176.127 78.8697 176.72 79.1112C177.313 79.3527 177.935 79.4944 178.586 79.5364V75.3942C177.862 75.2157 177.258 75.024 176.775 74.8193C176.292 74.6145 175.891 74.3153 175.57 73.9215C175.25 73.5278 175.09 73.0054 175.09 72.3544C175.09 71.5459 175.384 70.866 175.972 70.3148C176.56 69.7635 177.431 69.4407 178.586 69.3462V67.5349H179.374V69.3304C179.972 69.3514 180.553 69.4485 181.114 69.6218C181.676 69.795 182.162 70.0234 182.571 70.3069L182.177 71.2362C181.747 70.9632 181.29 70.7479 180.807 70.5904C180.324 70.4329 179.846 70.3437 179.374 70.3227V74.4964C180.151 74.6854 180.786 74.877 181.28 75.0713C181.773 75.2655 182.188 75.5622 182.524 75.9612C182.86 76.3602 183.028 76.8852 183.028 77.5362ZM176.24 72.3229C176.24 72.8689 176.442 73.2837 176.846 73.5672C177.25 73.8507 177.83 74.0922 178.586 74.2917V70.3542C177.809 70.4172 177.224 70.6298 176.83 70.992C176.437 71.3543 176.24 71.7979 176.24 72.3229ZM179.374 79.5364C180.203 79.4734 180.828 79.2687 181.248 78.9222C181.668 78.5757 181.878 78.1347 181.878 77.5992C181.878 77.0322 181.663 76.6069 181.232 76.3234C180.802 76.0399 180.182 75.7984 179.374 75.5989V79.5364Z" fill="black"/>
<defs>
<linearGradient id="paint0_linear" x1="100.135" y1="150.663" x2="110.158" y2="130.226" gradientUnits="userSpaceOnUse">
<stop stop-color="#6121A1"/>
<stop offset="1" stop-color="#00AEFF"/>
</linearGradient>
<linearGradient id="paint1_linear" x1="107.129" y1="151.215" x2="135.596" y2="142.619" gradientUnits="userSpaceOnUse">
<stop stop-color="#6121A1"/>
<stop offset="1" stop-color="#00AEFF"/>
</linearGradient>
<linearGradient id="paint2_linear" x1="89.4481" y1="151.215" x2="116.685" y2="143.412" gradientUnits="userSpaceOnUse">
<stop stop-color="#6121A1"/>
<stop offset="1" stop-color="#00AEFF"/>
</linearGradient>
<linearGradient id="paint3_linear" x1="109.366" y1="161.672" x2="119.214" y2="129.064" gradientUnits="userSpaceOnUse">
<stop stop-color="#6121A1"/>
<stop offset="1" stop-color="#00AEFF"/>
</linearGradient>
<linearGradient id="paint4_linear" x1="102.897" y1="161.672" x2="112.744" y2="129.064" gradientUnits="userSpaceOnUse">
<stop stop-color="#6121A1"/>
<stop offset="1" stop-color="#00AEFF"/>
</linearGradient>
<linearGradient id="paint5_linear" x1="149.255" y1="113.081" x2="153.644" y2="99.1539" gradientUnits="userSpaceOnUse">
<stop stop-color="#6121A1"/>
<stop offset="1" stop-color="#00AEFF"/>
</linearGradient>
<linearGradient id="paint6_linear" x1="121.742" y1="117.529" x2="149.141" y2="95.1268" gradientUnits="userSpaceOnUse">
<stop stop-color="#6121A1"/>
<stop offset="1" stop-color="#00AEFF"/>
</linearGradient>
<linearGradient id="paint7_linear" x1="51.3751" y1="113.081" x2="55.7643" y2="99.1538" gradientUnits="userSpaceOnUse">
<stop stop-color="#6121A1"/>
<stop offset="1" stop-color="#00AEFF"/>
</linearGradient>
<linearGradient id="paint8_linear" x1="78.3895" y1="117.529" x2="105.788" y2="95.1268" gradientUnits="userSpaceOnUse">
<stop stop-color="#6121A1"/>
<stop offset="1" stop-color="#00AEFF"/>
</linearGradient>
</defs>
</svg>
