<svg width="641" height="371" viewBox="0 0 641 371" fill="none" xmlns="http://www.w3.org/2000/svg">
<g id="illustrations_main">
<path id="Path 6" fill-rule="evenodd" clip-rule="evenodd" d="M2.30962 202.827C2.30962 202.827 -6.47163 119.737 42.5284 128.857C91.5284 137.976 167.927 127.843 199.228 114.671C230.528 101.498 234.884 77.1785 280.243 69.0722C325.603 60.9658 418.528 26.5137 441.528 45.7664C464.528 65.019 481.253 97.0392 510.328 114.671C539.404 132.302 602.528 138.966 625.528 159.244C648.528 179.521 638.528 221.914 638.528 231.342C638.528 240.77 577.528 304.133 561.528 310.68C545.528 317.227 424.771 296.177 412.149 310.68C399.528 325.183 312.669 344.776 306.192 344.776C299.716 344.776 91.7081 346.422 82.1182 332.482C72.5284 318.541 2.30962 202.827 2.30962 202.827Z" fill="url(#paint0_linear)"/>
<g id="Path 6_2">
<path id="Mask" opacity="0.266369" fill-rule="evenodd" clip-rule="evenodd" d="M35.0001 39.9999C35.0001 33.9248 39.925 28.9999 46.0001 28.9999H213C219.075 28.9999 224 33.9248 224 39.9999V354C224 360.075 219.075 365 213 365H46.0001C39.925 365 35.0001 360.075 35.0001 354L35.0001 39.9999Z" fill="#454588"/>
<mask id="mask0" mask-type="alpha" maskUnits="userSpaceOnUse" x="35" y="29" width="190" height="336">
<path id="Mask_2" fill-rule="evenodd" clip-rule="evenodd" d="M35.0001 39.9999C35.0001 33.9248 39.925 28.9999 46.0001 28.9999H213C219.075 28.9999 224 33.9248 224 39.9999V354C224 360.075 219.075 365 213 365H46.0001C39.925 365 35.0001 360.075 35.0001 354L35.0001 39.9999Z" fill="white"/>
</mask>
<g mask="url(#mask0)">
<path id="Path 6_3" opacity="0.107631" fill-rule="evenodd" clip-rule="evenodd" d="M-97.6799 281.088C-97.6799 281.088 -41.2098 242.09 7.25406 251C55.7179 259.91 66.125 207.826 97.0833 194.956C128.042 182.085 143.477 121.92 188.34 114C233.203 106.08 303.752 27.5097 326.5 46.3202C349.248 65.1308 376.022 177.729 404.78 194.956C433.537 212.182 495.971 218.693 518.719 238.505C541.468 258.318 531.577 299.736 531.577 308.948C531.577 318.16 471.245 380.068 455.42 386.464C439.595 392.861 320.158 372.295 307.675 386.464C295.192 400.634 209.283 419.777 202.878 419.777C196.472 419.777 -9.25972 421.386 -18.7446 407.765C-28.2295 394.145 -97.6799 281.088 -97.6799 281.088Z" fill="url(#paint1_linear)"/>
</g>
</g>
<g id="Path 6_4">
<path id="Mask_3" opacity="0.266369" fill-rule="evenodd" clip-rule="evenodd" d="M430 39.9999C430 33.9248 434.925 28.9999 441 28.9999H608C614.075 28.9999 619 33.9248 619 39.9999V354C619 360.075 614.075 365 608 365H441C434.925 365 430 360.075 430 354V39.9999Z" fill="#454588"/>
<mask id="mask1" mask-type="alpha" maskUnits="userSpaceOnUse" x="430" y="29" width="190" height="336">
<path id="Mask_4" fill-rule="evenodd" clip-rule="evenodd" d="M430 39.9999C430 33.9248 434.925 28.9999 441 28.9999H608C614.075 28.9999 619 33.9248 619 39.9999V354C619 360.075 614.075 365 608 365H441C434.925 365 430 360.075 430 354V39.9999Z" fill="white"/>
</mask>
<g mask="url(#mask1)">
<path id="Path 6_5" opacity="0.107631" fill-rule="evenodd" clip-rule="evenodd" d="M297.32 281.088C297.32 281.088 353.79 242.09 402.254 251C450.718 259.91 461.125 207.826 492.083 194.956C523.042 182.085 538.477 121.92 583.34 114C628.203 106.08 698.752 27.5097 721.5 46.3202C744.248 65.1308 771.022 177.729 799.78 194.956C828.537 212.182 890.971 218.693 913.719 238.505C936.468 258.318 926.577 299.736 926.577 308.948C926.577 318.16 866.245 380.068 850.42 386.464C834.595 392.861 715.158 372.295 702.675 386.464C690.192 400.634 604.283 419.777 597.878 419.777C591.472 419.777 385.74 421.386 376.255 407.765C366.77 394.145 297.32 281.088 297.32 281.088Z" fill="url(#paint2_linear)"/>
</g>
</g>
<g id="Path 6_6">
<path id="Mask_5" opacity="0.266369" fill-rule="evenodd" clip-rule="evenodd" d="M430 211H619V354C619 360.075 614.075 365 608 365H441C434.925 365 430 360.075 430 354V211Z" fill="#454588"/>
<mask id="mask2" mask-type="alpha" maskUnits="userSpaceOnUse" x="430" y="211" width="190" height="154">
<path id="Mask_6" fill-rule="evenodd" clip-rule="evenodd" d="M430 211H619V354C619 360.075 614.075 365 608 365H441C434.925 365 430 360.075 430 354V211Z" fill="white"/>
</mask>
<g mask="url(#mask2)">
<path id="Path 6_7" opacity="0.107631" fill-rule="evenodd" clip-rule="evenodd" d="M298 326.232C298 326.232 354.435 308.308 402.868 312.403C451.302 316.498 461.702 292.56 492.641 286.645C523.58 280.73 539.006 253.078 583.84 249.438C628.675 245.798 699.18 209.687 721.914 218.332C744.648 226.978 771.405 278.728 800.144 286.645C828.884 294.563 891.278 297.555 914.012 306.661C936.746 315.766 926.862 334.802 926.862 339.036C926.862 343.27 866.567 371.723 850.752 374.662C834.937 377.602 715.576 368.15 703.101 374.662C690.626 381.175 604.771 389.973 598.369 389.973C591.967 389.973 386.365 390.712 376.886 384.452C367.407 378.192 298 326.232 298 326.232Z" fill="url(#paint3_linear)"/>
</g>
</g>
<g id="Path 6_8">
<path id="Mask_7" opacity="0.266369" fill-rule="evenodd" clip-rule="evenodd" d="M35.0001 39.9999C35.0001 33.9248 39.925 28.9999 46.0001 28.9999H213C219.075 28.9999 224 33.9248 224 39.9999V89.9999H35.0001V39.9999Z" fill="#454588"/>
<mask id="mask3" mask-type="alpha" maskUnits="userSpaceOnUse" x="35" y="29" width="190" height="61">
<path id="Mask_8" fill-rule="evenodd" clip-rule="evenodd" d="M35.0001 39.9999C35.0001 33.9248 39.925 28.9999 46.0001 28.9999H213C219.075 28.9999 224 33.9248 224 39.9999V89.9999H35.0001V39.9999Z" fill="white"/>
</mask>
<g mask="url(#mask3)">
</g>
</g>
<g id="Path 6_9">
<path id="Mask_9" opacity="0.266369" fill-rule="evenodd" clip-rule="evenodd" d="M430 39.9999C430 33.9248 434.925 28.9999 441 28.9999H608C614.075 28.9999 619 33.9248 619 39.9999V89.9999H430V39.9999Z" fill="#454588"/>
<mask id="mask4" mask-type="alpha" maskUnits="userSpaceOnUse" x="430" y="29" width="190" height="61">
<path id="Mask_10" fill-rule="evenodd" clip-rule="evenodd" d="M430 39.9999C430 33.9248 434.925 28.9999 441 28.9999H608C614.075 28.9999 619 33.9248 619 39.9999V89.9999H430V39.9999Z" fill="white"/>
</mask>
<g mask="url(#mask4)">
</g>
</g>
<path id="X" fill-rule="evenodd" clip-rule="evenodd" d="M132.142 124L129.964 120.634L127.84 124H122.998L127.552 117.646L123.16 111.4H127.93L130.072 114.568L132.16 111.4H136.732L132.358 117.484L137.002 124H132.142Z" fill="#00F5FF"/>
<path id="Neutrino cap" fill-rule="evenodd" clip-rule="evenodd" d="M100.912 49.1999V58.9999H100.324L93.6461 50.4879V58.9999H92.9321V49.1999H93.5341L100.198 57.7119V49.1999H100.912ZM112.116 55.5139H105.83C105.848 56.0832 105.993 56.5896 106.264 57.0329C106.534 57.4762 106.901 57.8192 107.363 58.0619C107.825 58.3046 108.345 58.4259 108.924 58.4259C109.4 58.4259 109.841 58.3396 110.247 58.1669C110.653 57.9942 110.991 57.7399 111.262 57.4039L111.668 57.8659C111.35 58.2486 110.951 58.5426 110.471 58.7479C109.99 58.9532 109.47 59.0559 108.91 59.0559C108.182 59.0559 107.533 58.8972 106.964 58.5799C106.394 58.2626 105.949 57.8239 105.627 57.2639C105.305 56.7039 105.144 56.0646 105.144 55.3459C105.144 54.6366 105.295 53.9996 105.599 53.4349C105.902 52.8702 106.32 52.4292 106.852 52.1119C107.384 51.7946 107.981 51.6359 108.644 51.6359C109.306 51.6359 109.901 51.7922 110.429 52.1049C110.956 52.4176 111.371 52.8539 111.675 53.4139C111.978 53.9739 112.13 54.6086 112.13 55.3179L112.116 55.5139ZM108.644 52.2519C108.13 52.2519 107.668 52.3662 107.258 52.5949C106.847 52.8236 106.518 53.1456 106.271 53.5609C106.023 53.9762 105.881 54.4452 105.844 54.9679H111.444C111.416 54.4452 111.276 53.9786 111.024 53.5679C110.772 53.1572 110.44 52.8352 110.03 52.6019C109.619 52.3686 109.157 52.2519 108.644 52.2519ZM122.535 51.6919V58.9999H121.863V57.4319C121.62 57.9452 121.261 58.3442 120.785 58.6289C120.309 58.9136 119.749 59.0559 119.105 59.0559C118.153 59.0559 117.406 58.7899 116.865 58.2579C116.324 57.7259 116.053 56.9606 116.053 55.9619V51.6919H116.753V55.9059C116.753 56.7272 116.963 57.3526 117.383 57.7819C117.803 58.2112 118.396 58.4259 119.161 58.4259C119.982 58.4259 120.633 58.1692 121.114 57.6559C121.595 57.1426 121.835 56.4519 121.835 55.5839V51.6919H122.535ZM130.967 58.5379C130.789 58.7059 130.568 58.8342 130.302 58.9229C130.036 59.0116 129.758 59.0559 129.469 59.0559C128.834 59.0559 128.344 58.8809 127.999 58.5309C127.653 58.1809 127.481 57.6932 127.481 57.0679V52.2939H126.137V51.6919H127.481V50.0959H128.181V51.6919H130.505V52.2939H128.181V56.9979C128.181 57.4739 128.295 57.8356 128.524 58.0829C128.752 58.3302 129.091 58.4539 129.539 58.4539C129.996 58.4539 130.374 58.3186 130.673 58.0479L130.967 58.5379ZM135.422 53.2879C135.646 52.7559 135.996 52.3476 136.472 52.0629C136.948 51.7782 137.527 51.6359 138.208 51.6359V52.3219L138.04 52.3079C137.228 52.3079 136.593 52.5622 136.136 53.0709C135.679 53.5796 135.45 54.2866 135.45 55.1919V58.9999H134.75V51.6919H135.422V53.2879ZM141.978 51.6919H142.678V58.9999H141.978V51.6919ZM142.328 49.9139C142.169 49.9139 142.034 49.8602 141.922 49.7529C141.81 49.6456 141.754 49.5126 141.754 49.3539C141.754 49.1952 141.81 49.0599 141.922 48.9479C142.034 48.8359 142.169 48.7799 142.328 48.7799C142.486 48.7799 142.622 48.8336 142.734 48.9409C142.846 49.0482 142.902 49.1812 142.902 49.3399C142.902 49.4986 142.846 49.6339 142.734 49.7459C142.622 49.8579 142.486 49.9139 142.328 49.9139ZM151.039 51.6359C151.954 51.6359 152.677 51.9019 153.209 52.4339C153.741 52.9659 154.007 53.7312 154.007 54.7299V58.9999H153.307V54.7859C153.307 53.9646 153.099 53.3392 152.684 52.9099C152.269 52.4806 151.688 52.2659 150.941 52.2659C150.082 52.2659 149.406 52.5226 148.911 53.0359C148.416 53.5492 148.169 54.2399 148.169 55.1079V58.9999H147.469V51.6919H148.141V53.2739C148.393 52.7606 148.769 52.3592 149.268 52.0699C149.767 51.7806 150.358 51.6359 151.039 51.6359ZM161.599 59.0559C160.908 59.0559 160.285 58.8972 159.73 58.5799C159.174 58.2626 158.738 57.8216 158.421 57.2569C158.103 56.6922 157.945 56.0552 157.945 55.3459C157.945 54.6366 158.103 53.9996 158.421 53.4349C158.738 52.8702 159.174 52.4292 159.73 52.1119C160.285 51.7946 160.908 51.6359 161.599 51.6359C162.289 51.6359 162.912 51.7946 163.468 52.1119C164.023 52.4292 164.459 52.8702 164.777 53.4349C165.094 53.9996 165.253 54.6366 165.253 55.3459C165.253 56.0552 165.094 56.6922 164.777 57.2569C164.459 57.8216 164.023 58.2626 163.468 58.5799C162.912 58.8972 162.289 59.0559 161.599 59.0559ZM161.599 58.4259C162.159 58.4259 162.66 58.2952 163.104 58.0339C163.547 57.7726 163.897 57.4086 164.154 56.9419C164.41 56.4752 164.539 55.9432 164.539 55.3459C164.539 54.7486 164.41 54.2166 164.154 53.7499C163.897 53.2832 163.547 52.9192 163.104 52.6579C162.66 52.3966 162.159 52.2659 161.599 52.2659C161.039 52.2659 160.537 52.3966 160.094 52.6579C159.65 52.9192 159.3 53.2832 159.044 53.7499C158.787 54.2166 158.659 54.7486 158.659 55.3459C158.659 55.9432 158.787 56.4752 159.044 56.9419C159.3 57.4086 159.65 57.7726 160.094 58.0339C160.537 58.2952 161.039 58.4259 161.599 58.4259ZM118.496 75.0559C117.787 75.0559 117.152 74.8972 116.592 74.5799C116.032 74.2626 115.593 73.8216 115.276 73.2569C114.959 72.6922 114.8 72.0552 114.8 71.3459C114.8 70.6272 114.959 69.9856 115.276 69.4209C115.593 68.8562 116.032 68.4176 116.592 68.1049C117.152 67.7922 117.787 67.6359 118.496 67.6359C119.084 67.6359 119.618 67.7502 120.099 67.9789C120.58 68.2076 120.969 68.5412 121.268 68.9799L120.75 69.3579C120.489 68.9939 120.164 68.7209 119.777 68.5389C119.39 68.3569 118.963 68.2659 118.496 68.2659C117.927 68.2659 117.416 68.3942 116.963 68.6509C116.51 68.9076 116.156 69.2692 115.899 69.7359C115.642 70.2026 115.514 70.7392 115.514 71.3459C115.514 71.9526 115.642 72.4892 115.899 72.9559C116.156 73.4226 116.51 73.7842 116.963 74.0409C117.416 74.2976 117.927 74.4259 118.496 74.4259C118.963 74.4259 119.39 74.3349 119.777 74.1529C120.164 73.9709 120.489 73.6979 120.75 73.3339L121.268 73.7119C120.969 74.1506 120.58 74.4842 120.099 74.7129C119.618 74.9416 119.084 75.0559 118.496 75.0559ZM127.67 67.6359C128.575 67.6359 129.27 67.8669 129.756 68.3289C130.241 68.7909 130.484 69.4699 130.484 70.3659V74.9999H129.812V73.6979C129.578 74.1272 129.238 74.4609 128.79 74.6989C128.342 74.9369 127.805 75.0559 127.18 75.0559C126.368 75.0559 125.726 74.8646 125.255 74.4819C124.783 74.0992 124.548 73.5952 124.548 72.9699C124.548 72.3632 124.765 71.8709 125.199 71.4929C125.633 71.1149 126.326 70.9259 127.278 70.9259H129.784V70.3379C129.784 69.6566 129.599 69.1386 129.231 68.7839C128.862 68.4292 128.323 68.2519 127.614 68.2519C127.128 68.2519 126.664 68.3359 126.221 68.5039C125.777 68.6719 125.402 68.8959 125.094 69.1759L124.744 68.6719C125.108 68.3452 125.546 68.0909 126.06 67.9089C126.573 67.7269 127.11 67.6359 127.67 67.6359ZM127.278 74.4819C127.884 74.4819 128.4 74.3419 128.825 74.0619C129.249 73.7819 129.569 73.3759 129.784 72.8439V71.4719H127.292C126.573 71.4719 126.053 71.6026 125.731 71.8639C125.409 72.1252 125.248 72.4846 125.248 72.9419C125.248 73.4179 125.425 73.7936 125.78 74.0689C126.134 74.3442 126.634 74.4819 127.278 74.4819ZM138.873 67.6359C139.554 67.6359 140.17 67.7946 140.721 68.1119C141.272 68.4292 141.703 68.8679 142.016 69.4279C142.329 69.9879 142.485 70.6272 142.485 71.3459C142.485 72.0646 142.329 72.7062 142.016 73.2709C141.703 73.8356 141.272 74.2742 140.721 74.5869C140.17 74.8996 139.554 75.0559 138.873 75.0559C138.229 75.0559 137.646 74.9042 137.123 74.6009C136.6 74.2976 136.194 73.8752 135.905 73.3339V77.7159H135.205V67.6919H135.877V69.4139C136.166 68.8539 136.575 68.4176 137.102 68.1049C137.629 67.7922 138.22 67.6359 138.873 67.6359ZM138.831 74.4259C139.391 74.4259 139.895 74.2952 140.343 74.0339C140.791 73.7726 141.143 73.4086 141.4 72.9419C141.657 72.4752 141.785 71.9432 141.785 71.3459C141.785 70.7486 141.657 70.2166 141.4 69.7499C141.143 69.2832 140.791 68.9192 140.343 68.6579C139.895 68.3966 139.391 68.2659 138.831 68.2659C138.271 68.2659 137.769 68.3966 137.326 68.6579C136.883 68.9192 136.533 69.2832 136.276 69.7499C136.019 70.2166 135.891 70.7486 135.891 71.3459C135.891 71.9432 136.019 72.4752 136.276 72.9419C136.533 73.4086 136.883 73.7726 137.326 74.0339C137.769 74.2952 138.271 74.4259 138.831 74.4259Z" fill="white"/>
<path id="Supply" fill-rule="evenodd" clip-rule="evenodd" d="M100.972 12.0959C100.14 12.0959 99.3428 11.9626 98.5801 11.6959C97.8174 11.4293 97.2281 11.0773 96.8121 10.6399L97.2761 9.72793C97.6814 10.1333 98.2201 10.4613 98.8921 10.7119C99.5641 10.9626 100.257 11.0879 100.972 11.0879C101.975 11.0879 102.727 10.9039 103.228 10.5359C103.729 10.1679 103.98 9.6906 103.98 9.10393C103.98 8.65593 103.844 8.2986 103.572 8.03193C103.3 7.76526 102.967 7.55993 102.572 7.41593C102.177 7.27193 101.628 7.1146 100.924 6.94393C100.081 6.7306 99.4094 6.52526 98.9081 6.32793C98.4068 6.1306 97.9774 5.82926 97.6201 5.42393C97.2628 5.01859 97.0841 4.46927 97.0841 3.77593C97.0841 3.21059 97.2334 2.69593 97.5321 2.23193C97.8308 1.76793 98.2894 1.39726 98.9081 1.11993C99.5268 0.842595 100.295 0.70393 101.212 0.70393C101.852 0.70393 102.479 0.791929 103.092 0.96793C103.705 1.14393 104.236 1.38659 104.684 1.69593L104.284 2.63993C103.815 2.33059 103.313 2.0986 102.78 1.94393C102.247 1.78926 101.724 1.71193 101.212 1.71193C100.231 1.71193 99.4921 1.90126 98.9961 2.27993C98.5001 2.6586 98.2521 3.14659 98.2521 3.74393C98.2521 4.19193 98.3881 4.55193 98.6601 4.82393C98.9321 5.09593 99.2734 5.30393 99.6841 5.44793C100.095 5.59193 100.647 5.74926 101.34 5.91993C102.161 6.1226 102.825 6.3226 103.332 6.51993C103.839 6.71726 104.268 7.01593 104.62 7.41593C104.972 7.81593 105.148 8.35726 105.148 9.03993C105.148 9.60527 104.996 10.1199 104.692 10.5839C104.388 11.0479 103.921 11.4159 103.292 11.6879C102.663 11.9599 101.889 12.0959 100.972 12.0959ZM117.168 3.58393V11.9999H116.08V10.4639C115.781 10.9759 115.371 11.3733 114.848 11.6559C114.325 11.9386 113.728 12.0799 113.056 12.0799C111.957 12.0799 111.091 11.7733 110.456 11.1599C109.821 10.5466 109.504 9.64794 109.504 8.46393V3.58393H110.64V8.35193C110.64 9.23727 110.859 9.90926 111.296 10.3679C111.733 10.8266 112.357 11.0559 113.168 11.0559C114.053 11.0559 114.752 10.7866 115.264 10.2479C115.776 9.70926 116.032 8.95993 116.032 7.99993V3.58393H117.168ZM126.788 3.51993C127.577 3.51993 128.292 3.69859 128.932 4.05593C129.572 4.41326 130.073 4.91726 130.436 5.56793C130.799 6.2186 130.98 6.95993 130.98 7.79193C130.98 8.6346 130.799 9.38126 130.436 10.0319C130.073 10.6826 129.575 11.1866 128.94 11.5439C128.305 11.9013 127.588 12.0799 126.788 12.0799C126.105 12.0799 125.489 11.9386 124.94 11.6559C124.391 11.3733 123.94 10.9599 123.588 10.4159V15.1039H122.452V3.58393H123.54V5.24793C123.881 4.69326 124.332 4.2666 124.892 3.96793C125.452 3.66926 126.084 3.51993 126.788 3.51993ZM126.708 11.0719C127.295 11.0719 127.828 10.9359 128.308 10.6639C128.788 10.3919 129.164 10.0053 129.436 9.50393C129.708 9.00259 129.844 8.43193 129.844 7.79193C129.844 7.15193 129.708 6.58393 129.436 6.08793C129.164 5.59193 128.788 5.20526 128.308 4.92793C127.828 4.65059 127.295 4.51193 126.708 4.51193C126.111 4.51193 125.575 4.65059 125.1 4.92793C124.625 5.20526 124.252 5.59193 123.98 6.08793C123.708 6.58393 123.572 7.15193 123.572 7.79193C123.572 8.43193 123.708 9.00259 123.98 9.50393C124.252 10.0053 124.625 10.3919 125.1 10.6639C125.575 10.9359 126.111 11.0719 126.708 11.0719ZM139.736 3.51993C140.525 3.51993 141.24 3.69859 141.88 4.05593C142.52 4.41326 143.021 4.91726 143.384 5.56793C143.747 6.2186 143.928 6.95993 143.928 7.79193C143.928 8.6346 143.747 9.38126 143.384 10.0319C143.021 10.6826 142.523 11.1866 141.888 11.5439C141.253 11.9013 140.536 12.0799 139.736 12.0799C139.053 12.0799 138.437 11.9386 137.888 11.6559C137.339 11.3733 136.888 10.9599 136.536 10.4159V15.1039H135.4V3.58393H136.488V5.24793C136.829 4.69326 137.28 4.2666 137.84 3.96793C138.4 3.66926 139.032 3.51993 139.736 3.51993ZM139.656 11.0719C140.243 11.0719 140.776 10.9359 141.256 10.6639C141.736 10.3919 142.112 10.0053 142.384 9.50393C142.656 9.00259 142.792 8.43193 142.792 7.79193C142.792 7.15193 142.656 6.58393 142.384 6.08793C142.112 5.59193 141.736 5.20526 141.256 4.92793C140.776 4.65059 140.243 4.51193 139.656 4.51193C139.059 4.51193 138.523 4.65059 138.048 4.92793C137.573 5.20526 137.2 5.59193 136.928 6.08793C136.656 6.58393 136.52 7.15193 136.52 7.79193C136.52 8.43193 136.656 9.00259 136.928 9.50393C137.2 10.0053 137.573 10.3919 138.048 10.6639C138.523 10.9359 139.059 11.0719 139.656 11.0719ZM148.348 0.12793H149.484V11.9999H148.348V0.12793ZM161.824 3.58393L157.616 13.0079C157.275 13.7973 156.88 14.3573 156.432 14.6879C155.984 15.0186 155.445 15.1839 154.816 15.1839C154.411 15.1839 154.032 15.1199 153.68 14.9919C153.328 14.8639 153.024 14.6719 152.768 14.4159L153.296 13.5679C153.723 13.9946 154.235 14.2079 154.832 14.2079C155.216 14.2079 155.544 14.1013 155.816 13.8879C156.088 13.6746 156.341 13.3119 156.576 12.7999L156.944 11.9839L153.184 3.58393H154.368L157.536 10.7359L160.704 3.58393H161.824Z" fill="#00F5FF"/>
<path id="X=Y-Z" fill-rule="evenodd" clip-rule="evenodd" d="M308.68 256L305.64 251.744L302.632 256H300.264L304.424 250.288L300.488 244.8H302.84L305.704 248.784L308.536 244.8H310.792L306.872 250.208L311.08 256H308.68ZM313.348 247.664H320.724V249.264H313.348V247.664ZM313.348 251.536H320.724V253.136H313.348V251.536ZM329.184 252.048V256H327.104V252.08L322.704 244.8H324.928L328.208 250.256L331.52 244.8H333.568L329.184 252.048ZM333.892 250.72H340.292V252.384H333.892V250.72ZM351.48 254.24V256H341.928V254.608L348.52 246.56H342.04V244.8H351.272V246.192L344.68 254.24H351.48Z" fill="#00F5FF"/>
<path id="Combined Shape Copy" fill-rule="evenodd" clip-rule="evenodd" d="M524 137L549 162L524 187L499 162L524 137Z" fill="#0009FF"/>
<path id="Path" fill-rule="evenodd" clip-rule="evenodd" d="M337.924 248.352L337.924 254.752H336.26V251.779V248.352H337.924Z" fill="#00F5FF"/>
<path id="Wawes cap" fill-rule="evenodd" clip-rule="evenodd" d="M509.952 49.2L506.634 59H505.878L502.84 50.208L499.788 59H499.032L495.7 49.2H496.456L499.438 58.02L502.504 49.2H503.19L506.242 58.034L509.252 49.2H509.952ZM515.528 51.636C516.433 51.636 517.129 51.8669 517.614 52.329C518.099 52.791 518.342 53.4699 518.342 54.366V59H517.67V57.698C517.437 58.1273 517.096 58.4609 516.648 58.699C516.2 58.937 515.663 59.056 515.038 59.056C514.226 59.056 513.584 58.8646 513.113 58.482C512.642 58.0993 512.406 57.5953 512.406 56.97C512.406 56.3633 512.623 55.871 513.057 55.493C513.491 55.1149 514.184 54.926 515.136 54.926H517.642V54.338C517.642 53.6566 517.458 53.1386 517.089 52.784C516.72 52.4293 516.181 52.252 515.472 52.252C514.987 52.252 514.522 52.336 514.079 52.504C513.636 52.672 513.26 52.8959 512.952 53.176L512.602 52.672C512.966 52.3453 513.405 52.091 513.918 51.909C514.431 51.727 514.968 51.636 515.528 51.636ZM515.136 58.482C515.743 58.482 516.258 58.342 516.683 58.062C517.108 57.7819 517.427 57.376 517.642 56.844V55.472H515.15C514.431 55.472 513.911 55.6026 513.589 55.864C513.267 56.1253 513.106 56.4846 513.106 56.942C513.106 57.418 513.283 57.7936 513.638 58.069C513.993 58.3443 514.492 58.482 515.136 58.482ZM533.367 51.692L530.595 59H529.937L527.473 52.658L524.995 59H524.351L521.579 51.692H522.251L524.687 58.216L527.179 51.692H527.781L530.259 58.202L532.723 51.692H533.367ZM542.793 55.514H536.507C536.526 56.0833 536.67 56.5896 536.941 57.033C537.212 57.4763 537.578 57.8193 538.04 58.062C538.502 58.3046 539.022 58.426 539.601 58.426C540.077 58.426 540.518 58.3396 540.924 58.167C541.33 57.9943 541.668 57.74 541.939 57.404L542.345 57.866C542.028 58.2486 541.629 58.5426 541.148 58.748C540.667 58.9533 540.147 59.056 539.587 59.056C538.859 59.056 538.21 58.8973 537.641 58.58C537.072 58.2626 536.626 57.824 536.304 57.264C535.982 56.7039 535.821 56.0646 535.821 55.346C535.821 54.6366 535.973 53.9996 536.276 53.435C536.579 52.8703 536.997 52.4293 537.529 52.112C538.061 51.7946 538.658 51.636 539.321 51.636C539.984 51.636 540.579 51.7923 541.106 52.105C541.633 52.4176 542.049 52.8539 542.352 53.414C542.655 53.974 542.807 54.6086 542.807 55.318L542.793 55.514ZM539.321 52.252C538.808 52.252 538.346 52.3663 537.935 52.595C537.524 52.8236 537.195 53.1456 536.948 53.561C536.701 53.9763 536.558 54.4453 536.521 54.968H542.121C542.093 54.4453 541.953 53.9786 541.701 53.568C541.449 53.1573 541.118 52.8353 540.707 52.602C540.296 52.3686 539.834 52.252 539.321 52.252ZM548.662 59.056C548.074 59.056 547.514 58.9673 546.982 58.79C546.45 58.6126 546.035 58.3886 545.736 58.118L546.058 57.558C546.357 57.81 546.742 58.02 547.213 58.188C547.685 58.356 548.177 58.44 548.69 58.44C549.428 58.44 549.971 58.3186 550.321 58.076C550.671 57.8333 550.846 57.4973 550.846 57.068C550.846 56.7599 550.751 56.5173 550.559 56.34C550.368 56.1626 550.132 56.032 549.852 55.948C549.572 55.864 549.185 55.7753 548.69 55.682C548.112 55.5793 547.645 55.4673 547.29 55.346C546.936 55.2246 546.632 55.0286 546.38 54.758C546.128 54.4873 546.002 54.114 546.002 53.638C546.002 53.0593 546.243 52.581 546.723 52.203C547.204 51.8249 547.888 51.636 548.774 51.636C549.241 51.636 549.703 51.7013 550.16 51.832C550.618 51.9626 550.991 52.1353 551.28 52.35L550.958 52.91C550.66 52.6953 550.319 52.532 549.936 52.42C549.554 52.308 549.162 52.252 548.76 52.252C548.079 52.252 547.566 52.3779 547.22 52.63C546.875 52.882 546.702 53.2133 546.702 53.624C546.702 53.9506 546.8 54.205 546.996 54.387C547.192 54.569 547.433 54.7043 547.717 54.793C548.002 54.8816 548.401 54.9773 548.914 55.08C549.484 55.1826 549.943 55.2923 550.293 55.409C550.643 55.5256 550.94 55.7146 551.182 55.976C551.425 56.2373 551.546 56.5966 551.546 57.054C551.546 57.6606 551.294 58.1459 550.79 58.51C550.286 58.874 549.577 59.056 548.662 59.056ZM513.435 75.056C512.726 75.056 512.091 74.8973 511.531 74.58C510.971 74.2626 510.532 73.8216 510.215 73.257C509.898 72.6923 509.739 72.0553 509.739 71.346C509.739 70.6273 509.898 69.9856 510.215 69.421C510.532 68.8563 510.971 68.4176 511.531 68.105C512.091 67.7923 512.726 67.636 513.435 67.636C514.023 67.636 514.557 67.7503 515.038 67.979C515.519 68.2076 515.908 68.5413 516.207 68.98L515.689 69.358C515.428 68.9939 515.103 68.721 514.716 68.539C514.329 68.357 513.902 68.266 513.435 68.266C512.866 68.266 512.355 68.3943 511.902 68.651C511.449 68.9076 511.095 69.2693 510.838 69.736C510.581 70.2026 510.453 70.7393 510.453 71.346C510.453 71.9526 510.581 72.4893 510.838 72.956C511.095 73.4226 511.449 73.7843 511.902 74.041C512.355 74.2976 512.866 74.426 513.435 74.426C513.902 74.426 514.329 74.335 514.716 74.153C515.103 73.971 515.428 73.698 515.689 73.334L516.207 73.712C515.908 74.1506 515.519 74.4843 515.038 74.713C514.557 74.9416 514.023 75.056 513.435 75.056ZM522.608 67.636C523.514 67.636 524.209 67.8669 524.694 68.329C525.18 68.791 525.422 69.4699 525.422 70.366V75H524.75V73.698C524.517 74.1273 524.176 74.461 523.728 74.699C523.28 74.937 522.744 75.056 522.118 75.056C521.306 75.056 520.665 74.8646 520.193 74.482C519.722 74.0993 519.486 73.5953 519.486 72.97C519.486 72.3633 519.703 71.871 520.137 71.493C520.571 71.115 521.264 70.926 522.216 70.926H524.722V70.338C524.722 69.6566 524.538 69.1386 524.169 68.784C523.801 68.4293 523.262 68.252 522.552 68.252C522.067 68.252 521.603 68.336 521.159 68.504C520.716 68.672 520.34 68.896 520.032 69.176L519.682 68.672C520.046 68.3453 520.485 68.091 520.998 67.909C521.512 67.727 522.048 67.636 522.608 67.636ZM522.216 74.482C522.823 74.482 523.339 74.342 523.763 74.062C524.188 73.7819 524.508 73.376 524.722 72.844V71.472H522.23C521.512 71.472 520.991 71.6026 520.669 71.864C520.347 72.1253 520.186 72.4846 520.186 72.9419C520.186 73.418 520.364 73.7936 520.718 74.069C521.073 74.3443 521.572 74.482 522.216 74.482ZM533.812 67.636C534.493 67.636 535.109 67.7946 535.66 68.112C536.211 68.4293 536.642 68.8679 536.955 69.428C537.268 69.988 537.424 70.6273 537.424 71.346C537.424 72.0646 537.268 72.7063 536.955 73.271C536.642 73.8356 536.211 74.2743 535.66 74.587C535.109 74.8996 534.493 75.056 533.812 75.056C533.168 75.056 532.585 74.9043 532.062 74.601C531.539 74.2976 531.133 73.8753 530.844 73.334V77.716H530.144V67.692H530.816V69.414C531.105 68.8539 531.514 68.4176 532.041 68.105C532.568 67.7923 533.159 67.636 533.812 67.636ZM533.77 74.426C534.33 74.426 534.834 74.2953 535.282 74.034C535.73 73.7726 536.082 73.4086 536.339 72.942C536.596 72.4753 536.724 71.9433 536.724 71.346C536.724 70.7486 536.596 70.2166 536.339 69.75C536.082 69.2833 535.73 68.9193 535.282 68.658C534.834 68.3966 534.33 68.266 533.77 68.266C533.21 68.266 532.708 68.3966 532.265 68.658C531.822 68.9193 531.472 69.2833 531.215 69.75C530.958 70.2166 530.83 70.7486 530.83 71.346C530.83 71.9433 530.958 72.4753 531.215 72.942C531.472 73.4086 531.822 73.7726 532.265 74.034C532.708 74.2953 533.21 74.426 533.77 74.426Z" fill="white"/>
<path id="LPoS profit" fill-rule="evenodd" clip-rule="evenodd" d="M309.218 28.5999H309.83V36.4479H314.666V36.9999H309.218V28.5999ZM320.825 28.5999C321.881 28.5999 322.709 28.8499 323.309 29.3499C323.909 29.8499 324.209 30.5439 324.209 31.4319C324.209 32.3119 323.909 33.0019 323.309 33.5019C322.709 34.0019 321.881 34.2519 320.825 34.2519H318.425V36.9999H317.813V28.5999H320.825ZM320.825 33.6999C321.721 33.6999 322.405 33.5039 322.877 33.1119C323.349 32.7199 323.585 32.1599 323.585 31.4319C323.585 30.7039 323.349 30.1419 322.877 29.7459C322.405 29.3499 321.721 29.1519 320.825 29.1519H318.425V33.6999H320.825ZM330.068 37.0479C329.476 37.0479 328.942 36.9119 328.466 36.6399C327.99 36.3679 327.616 35.9899 327.344 35.5059C327.072 35.0219 326.936 34.4759 326.936 33.8679C326.936 33.2599 327.072 32.7139 327.344 32.2299C327.616 31.7459 327.99 31.3679 328.466 31.0959C328.942 30.8239 329.476 30.6879 330.068 30.6879C330.66 30.6879 331.194 30.8239 331.67 31.0959C332.146 31.3679 332.52 31.7459 332.792 32.2299C333.064 32.7139 333.2 33.2599 333.2 33.8679C333.2 34.4759 333.064 35.0219 332.792 35.5059C332.52 35.9899 332.146 36.3679 331.67 36.6399C331.194 36.9119 330.66 37.0479 330.068 37.0479ZM330.068 36.5079C330.548 36.5079 330.978 36.3959 331.358 36.1719C331.738 35.9479 332.038 35.6359 332.258 35.2359C332.478 34.8359 332.588 34.3799 332.588 33.8679C332.588 33.3559 332.478 32.8999 332.258 32.4999C332.038 32.0999 331.738 31.7879 331.358 31.5639C330.978 31.3399 330.548 31.2279 330.068 31.2279C329.588 31.2279 329.158 31.3399 328.778 31.5639C328.398 31.7879 328.098 32.0999 327.878 32.4999C327.658 32.8999 327.548 33.3559 327.548 33.8679C327.548 34.3799 327.658 34.8359 327.878 35.2359C328.098 35.6359 328.398 35.9479 328.778 36.1719C329.158 36.3959 329.588 36.5079 330.068 36.5079ZM339.035 37.0599C338.419 37.0599 337.833 36.9539 337.277 36.7419C336.721 36.5299 336.287 36.2559 335.975 35.9199L336.251 35.4639C336.547 35.7759 336.945 36.0299 337.445 36.2259C337.945 36.4219 338.471 36.5199 339.023 36.5199C339.823 36.5199 340.427 36.3679 340.835 36.0639C341.243 35.7599 341.447 35.3639 341.447 34.8759C341.447 34.4999 341.339 34.1999 341.123 33.9759C340.907 33.7519 340.639 33.5799 340.319 33.4599C339.999 33.3399 339.567 33.2159 339.023 33.0879C338.407 32.9359 337.913 32.7879 337.541 32.6439C337.169 32.4999 336.853 32.2779 336.593 31.9779C336.333 31.6779 336.203 31.2759 336.203 30.7719C336.203 30.3639 336.311 29.9899 336.527 29.6499C336.743 29.3099 337.073 29.0399 337.517 28.8399C337.961 28.6399 338.515 28.5399 339.179 28.5399C339.643 28.5399 340.099 28.6079 340.547 28.7439C340.995 28.8799 341.383 29.0639 341.711 29.2959L341.483 29.7879C341.147 29.5559 340.777 29.3799 340.373 29.2599C339.969 29.1399 339.571 29.0799 339.179 29.0799C338.403 29.0799 337.815 29.2359 337.415 29.5479C337.015 29.8599 336.815 30.2639 336.815 30.7599C336.815 31.1359 336.923 31.4359 337.139 31.6599C337.355 31.8839 337.623 32.0559 337.943 32.1759C338.263 32.2959 338.699 32.4239 339.251 32.5599C339.867 32.7119 340.359 32.8599 340.727 33.0039C341.095 33.1479 341.409 33.3659 341.669 33.6579C341.929 33.9499 342.059 34.3439 342.059 34.8399C342.059 35.2479 341.949 35.6199 341.729 35.9559C341.509 36.2919 341.171 36.5599 340.715 36.7599C340.259 36.9599 339.699 37.0599 339.035 37.0599ZM310.027 44.6879C310.611 44.6879 311.139 44.8239 311.611 45.0959C312.083 45.3679 312.453 45.7439 312.721 46.2239C312.989 46.7039 313.123 47.2519 313.123 47.8679C313.123 48.4839 312.989 49.0339 312.721 49.5179C312.453 50.0019 312.083 50.3779 311.611 50.6459C311.139 50.9139 310.611 51.0479 310.027 51.0479C309.475 51.0479 308.975 50.9179 308.527 50.6579C308.079 50.3979 307.731 50.0359 307.483 49.5719V53.3279H306.883V44.7359H307.459V46.2119C307.707 45.7319 308.057 45.3579 308.509 45.0899C308.961 44.8219 309.467 44.6879 310.027 44.6879ZM309.991 50.5079C310.471 50.5079 310.903 50.3959 311.287 50.1719C311.671 49.9479 311.973 49.6359 312.193 49.2359C312.413 48.8359 312.523 48.3799 312.523 47.8679C312.523 47.3559 312.413 46.8999 312.193 46.4999C311.973 46.0999 311.671 45.7879 311.287 45.5639C310.903 45.3399 310.471 45.2279 309.991 45.2279C309.511 45.2279 309.081 45.3399 308.701 45.5639C308.321 45.7879 308.021 46.0999 307.801 46.4999C307.581 46.8999 307.471 47.3559 307.471 47.8679C307.471 48.3799 307.581 48.8359 307.801 49.2359C308.021 49.6359 308.321 49.9479 308.701 50.1719C309.081 50.3959 309.511 50.5079 309.991 50.5079ZM317.134 46.1039C317.326 45.6479 317.626 45.2979 318.034 45.0539C318.442 44.8099 318.938 44.6879 319.522 44.6879V45.2759L319.378 45.2639C318.682 45.2639 318.138 45.4819 317.746 45.9179C317.354 46.3539 317.158 46.9599 317.158 47.7359V50.9999H316.558V44.7359H317.134V46.1039ZM325.141 51.0479C324.549 51.0479 324.015 50.9119 323.539 50.6399C323.063 50.3679 322.689 49.9899 322.417 49.5059C322.145 49.0219 322.009 48.4759 322.009 47.8679C322.009 47.2599 322.145 46.7139 322.417 46.2299C322.689 45.7459 323.063 45.3679 323.539 45.0959C324.015 44.8239 324.549 44.6879 325.141 44.6879C325.733 44.6879 326.267 44.8239 326.743 45.0959C327.219 45.3679 327.593 45.7459 327.865 46.2299C328.137 46.7139 328.273 47.2599 328.273 47.8679C328.273 48.4759 328.137 49.0219 327.865 49.5059C327.593 49.9899 327.219 50.3679 326.743 50.6399C326.267 50.9119 325.733 51.0479 325.141 51.0479ZM325.141 50.5079C325.621 50.5079 326.051 50.3959 326.431 50.1719C326.811 49.9479 327.111 49.6359 327.331 49.2359C327.551 48.8359 327.661 48.3799 327.661 47.8679C327.661 47.3559 327.551 46.8999 327.331 46.4999C327.111 46.0999 326.811 45.7879 326.431 45.5639C326.051 45.3399 325.621 45.2279 325.141 45.2279C324.661 45.2279 324.231 45.3399 323.851 45.5639C323.471 45.7879 323.171 46.0999 322.951 46.4999C322.731 46.8999 322.621 47.3559 322.621 47.8679C322.621 48.3799 322.731 48.8359 322.951 49.2359C323.171 49.6359 323.471 49.9479 323.851 50.1719C324.231 50.3959 324.661 50.5079 325.141 50.5079ZM333.592 42.5639C332.808 42.5639 332.416 42.9839 332.416 43.8239V44.7359H334.42V45.2519H332.428V50.9999H331.828V45.2519H330.676V44.7359H331.828V43.7759C331.828 43.2479 331.98 42.8279 332.284 42.5159C332.588 42.2039 333.016 42.0479 333.568 42.0479C333.808 42.0479 334.038 42.0819 334.258 42.1499C334.478 42.2179 334.66 42.3199 334.804 42.4559L334.564 42.9119C334.308 42.6799 333.984 42.5639 333.592 42.5639ZM336.604 44.7359H337.204V50.9999H336.604V44.7359ZM336.904 43.2119C336.768 43.2119 336.652 43.1659 336.556 43.0739C336.46 42.9819 336.412 42.8679 336.412 42.7319C336.412 42.5959 336.46 42.4799 336.556 42.3839C336.652 42.2879 336.768 42.2399 336.904 42.2399C337.04 42.2399 337.156 42.2859 337.252 42.3779C337.348 42.4699 337.396 42.5839 337.396 42.7199C337.396 42.8559 337.348 42.9719 337.252 43.0679C337.156 43.1639 337.04 43.2119 336.904 43.2119ZM344.419 50.6039C344.267 50.7479 344.077 50.8579 343.849 50.9339C343.621 51.0099 343.383 51.0479 343.135 51.0479C342.591 51.0479 342.171 50.8979 341.875 50.5979C341.579 50.2979 341.431 49.8799 341.431 49.3439V45.2519H340.279V44.7359H341.431V43.3679H342.031V44.7359H344.023V45.2519H342.031V49.2839C342.031 49.6919 342.129 50.0019 342.325 50.2139C342.521 50.4259 342.811 50.5319 343.195 50.5319C343.587 50.5319 343.911 50.4159 344.167 50.1839L344.419 50.6039Z" fill="white"/>
<path id="Price oracles" fill-rule="evenodd" clip-rule="evenodd" d="M311.671 348.6C312.727 348.6 313.555 348.85 314.155 349.35C314.755 349.85 315.055 350.544 315.055 351.432C315.055 352.312 314.755 353.002 314.155 353.502C313.555 354.002 312.727 354.252 311.671 354.252H309.271V357H308.659V348.6H311.671ZM311.671 353.7C312.567 353.7 313.251 353.504 313.723 353.112C314.195 352.72 314.431 352.16 314.431 351.432C314.431 350.704 314.195 350.142 313.723 349.746C313.251 349.35 312.567 349.152 311.671 349.152H309.271V353.7H311.671ZM318.886 352.104C319.078 351.648 319.378 351.298 319.786 351.054C320.194 350.81 320.69 350.688 321.274 350.688V351.276L321.13 351.264C320.434 351.264 319.89 351.482 319.498 351.918C319.106 352.354 318.91 352.96 318.91 353.736V357H318.31V350.736H318.886V352.104ZM324.505 350.736H325.105V357H324.505V350.736ZM324.805 349.212C324.669 349.212 324.553 349.166 324.457 349.074C324.361 348.982 324.313 348.868 324.313 348.732C324.313 348.596 324.361 348.48 324.457 348.384C324.553 348.288 324.669 348.24 324.805 348.24C324.941 348.24 325.057 348.286 325.153 348.378C325.249 348.47 325.297 348.584 325.297 348.72C325.297 348.856 325.249 348.972 325.153 349.068C325.057 349.164 324.941 349.212 324.805 349.212ZM331.696 357.048C331.088 357.048 330.544 356.912 330.064 356.64C329.584 356.368 329.208 355.99 328.936 355.506C328.664 355.022 328.528 354.476 328.528 353.868C328.528 353.252 328.664 352.702 328.936 352.218C329.208 351.734 329.584 351.358 330.064 351.09C330.544 350.822 331.088 350.688 331.696 350.688C332.2 350.688 332.658 350.786 333.07 350.982C333.482 351.178 333.816 351.464 334.072 351.84L333.628 352.164C333.404 351.852 333.126 351.618 332.794 351.462C332.462 351.306 332.096 351.228 331.696 351.228C331.208 351.228 330.77 351.338 330.382 351.558C329.994 351.778 329.69 352.088 329.47 352.488C329.25 352.888 329.14 353.348 329.14 353.868C329.14 354.388 329.25 354.848 329.47 355.248C329.69 355.648 329.994 355.958 330.382 356.178C330.77 356.398 331.208 356.508 331.696 356.508C332.096 356.508 332.462 356.43 332.794 356.274C333.126 356.118 333.404 355.884 333.628 355.572L334.072 355.896C333.816 356.272 333.482 356.558 333.07 356.754C332.658 356.95 332.2 357.048 331.696 357.048ZM342.631 354.012H337.243C337.259 354.5 337.383 354.934 337.615 355.314C337.847 355.694 338.161 355.988 338.557 356.196C338.953 356.404 339.399 356.508 339.895 356.508C340.303 356.508 340.681 356.434 341.029 356.286C341.377 356.138 341.667 355.92 341.899 355.632L342.247 356.028C341.975 356.356 341.633 356.608 341.221 356.784C340.809 356.96 340.363 357.048 339.883 357.048C339.259 357.048 338.703 356.912 338.215 356.64C337.727 356.368 337.345 355.992 337.069 355.512C336.793 355.032 336.655 354.484 336.655 353.868C336.655 353.26 336.785 352.714 337.045 352.23C337.305 351.746 337.663 351.368 338.119 351.096C338.575 350.824 339.087 350.688 339.655 350.688C340.223 350.688 340.733 350.822 341.185 351.09C341.637 351.358 341.993 351.732 342.253 352.212C342.513 352.692 342.643 353.236 342.643 353.844L342.631 354.012ZM339.655 351.216C339.215 351.216 338.819 351.314 338.467 351.51C338.115 351.706 337.833 351.982 337.621 352.338C337.409 352.694 337.287 353.096 337.255 353.544H342.055C342.031 353.096 341.911 352.696 341.695 352.344C341.479 351.992 341.195 351.716 340.843 351.516C340.491 351.316 340.095 351.216 339.655 351.216ZM303.382 370.048C302.79 370.048 302.256 369.912 301.78 369.64C301.304 369.368 300.93 368.99 300.658 368.506C300.386 368.022 300.25 367.476 300.25 366.868C300.25 366.26 300.386 365.714 300.658 365.23C300.93 364.746 301.304 364.368 301.78 364.096C302.256 363.824 302.79 363.688 303.382 363.688C303.974 363.688 304.508 363.824 304.984 364.096C305.46 364.368 305.834 364.746 306.106 365.23C306.378 365.714 306.514 366.26 306.514 366.868C306.514 367.476 306.378 368.022 306.106 368.506C305.834 368.99 305.46 369.368 304.984 369.64C304.508 369.912 303.974 370.048 303.382 370.048ZM303.382 369.508C303.862 369.508 304.292 369.396 304.672 369.172C305.052 368.948 305.352 368.636 305.572 368.236C305.792 367.836 305.902 367.38 305.902 366.868C305.902 366.356 305.792 365.9 305.572 365.5C305.352 365.1 305.052 364.788 304.672 364.564C304.292 364.34 303.862 364.228 303.382 364.228C302.902 364.228 302.472 364.34 302.092 364.564C301.712 364.788 301.412 365.1 301.192 365.5C300.972 365.9 300.862 366.356 300.862 366.868C300.862 367.38 300.972 367.836 301.192 368.236C301.412 368.636 301.712 368.948 302.092 369.172C302.472 369.396 302.902 369.508 303.382 369.508ZM310.525 365.104C310.717 364.648 311.017 364.298 311.425 364.054C311.833 363.81 312.329 363.688 312.913 363.688V364.276L312.769 364.264C312.073 364.264 311.529 364.482 311.137 364.918C310.745 365.354 310.549 365.96 310.549 366.736V370H309.949V363.736H310.525V365.104ZM318.256 363.688C319.032 363.688 319.628 363.886 320.044 364.282C320.46 364.678 320.668 365.26 320.668 366.028V370H320.092V368.884C319.892 369.252 319.6 369.538 319.216 369.742C318.832 369.946 318.372 370.048 317.836 370.048C317.14 370.048 316.59 369.884 316.186 369.556C315.782 369.228 315.58 368.796 315.58 368.26C315.58 367.74 315.766 367.318 316.138 366.994C316.51 366.67 317.104 366.508 317.92 366.508H320.068V366.004C320.068 365.42 319.91 364.976 319.594 364.672C319.278 364.368 318.816 364.216 318.208 364.216C317.792 364.216 317.394 364.288 317.014 364.432C316.634 364.576 316.312 364.768 316.048 365.008L315.748 364.576C316.06 364.296 316.436 364.078 316.876 363.922C317.316 363.766 317.776 363.688 318.256 363.688ZM317.92 369.556C318.44 369.556 318.882 369.436 319.246 369.196C319.61 368.956 319.884 368.608 320.068 368.152V366.976H317.932C317.316 366.976 316.87 367.088 316.594 367.312C316.318 367.536 316.18 367.844 316.18 368.236C316.18 368.644 316.332 368.966 316.636 369.202C316.94 369.438 317.368 369.556 317.92 369.556ZM327.211 370.048C326.603 370.048 326.059 369.912 325.579 369.64C325.099 369.368 324.723 368.99 324.451 368.506C324.179 368.022 324.043 367.476 324.043 366.868C324.043 366.252 324.179 365.702 324.451 365.218C324.723 364.734 325.099 364.358 325.579 364.09C326.059 363.822 326.603 363.688 327.211 363.688C327.715 363.688 328.173 363.786 328.585 363.982C328.997 364.178 329.331 364.464 329.587 364.84L329.143 365.164C328.919 364.852 328.641 364.618 328.309 364.462C327.977 364.306 327.611 364.228 327.211 364.228C326.723 364.228 326.285 364.338 325.897 364.558C325.509 364.778 325.205 365.088 324.985 365.488C324.765 365.888 324.655 366.348 324.655 366.868C324.655 367.388 324.765 367.848 324.985 368.248C325.205 368.648 325.509 368.958 325.897 369.178C326.285 369.398 326.723 369.508 327.211 369.508C327.611 369.508 327.977 369.43 328.309 369.274C328.641 369.118 328.919 368.884 329.143 368.572L329.587 368.896C329.331 369.272 328.997 369.558 328.585 369.754C328.173 369.95 327.715 370.048 327.211 370.048ZM332.854 361.096H333.454V370H332.854V361.096ZM342.853 367.012H337.465C337.481 367.5 337.605 367.934 337.837 368.314C338.069 368.694 338.383 368.988 338.779 369.196C339.175 369.404 339.621 369.508 340.117 369.508C340.525 369.508 340.903 369.434 341.251 369.286C341.599 369.138 341.889 368.92 342.121 368.632L342.469 369.028C342.197 369.356 341.855 369.608 341.443 369.784C341.031 369.96 340.585 370.048 340.105 370.048C339.481 370.048 338.925 369.912 338.437 369.64C337.949 369.368 337.567 368.992 337.291 368.512C337.015 368.032 336.877 367.484 336.877 366.868C336.877 366.26 337.007 365.714 337.267 365.23C337.527 364.746 337.885 364.368 338.341 364.096C338.797 363.824 339.309 363.688 339.877 363.688C340.445 363.688 340.955 363.822 341.407 364.09C341.859 364.358 342.215 364.732 342.475 365.212C342.735 365.692 342.865 366.236 342.865 366.844L342.853 367.012ZM339.877 364.216C339.437 364.216 339.041 364.314 338.689 364.51C338.337 364.706 338.055 364.982 337.843 365.338C337.631 365.694 337.509 366.096 337.477 366.544H342.277C342.253 366.096 342.133 365.696 341.917 365.344C341.701 364.992 341.417 364.716 341.065 364.516C340.713 364.316 340.317 364.216 339.877 364.216ZM347.884 370.048C347.38 370.048 346.9 369.972 346.444 369.82C345.988 369.668 345.632 369.476 345.376 369.244L345.652 368.764C345.908 368.98 346.238 369.16 346.642 369.304C347.046 369.448 347.468 369.52 347.908 369.52C348.54 369.52 349.006 369.416 349.306 369.208C349.606 369 349.756 368.712 349.756 368.344C349.756 368.08 349.674 367.872 349.51 367.72C349.346 367.568 349.144 367.456 348.904 367.384C348.664 367.312 348.332 367.236 347.908 367.156C347.412 367.068 347.012 366.972 346.708 366.868C346.404 366.764 346.144 366.596 345.928 366.364C345.712 366.132 345.604 365.812 345.604 365.404C345.604 364.908 345.81 364.498 346.222 364.174C346.634 363.85 347.22 363.688 347.98 363.688C348.38 363.688 348.776 363.744 349.168 363.856C349.56 363.968 349.88 364.116 350.128 364.3L349.852 364.78C349.596 364.596 349.304 364.456 348.976 364.36C348.648 364.264 348.312 364.216 347.968 364.216C347.384 364.216 346.944 364.324 346.648 364.54C346.352 364.756 346.204 365.04 346.204 365.392C346.204 365.672 346.288 365.89 346.456 366.046C346.624 366.202 346.83 366.318 347.074 366.394C347.318 366.47 347.66 366.552 348.1 366.64C348.588 366.728 348.982 366.822 349.282 366.922C349.582 367.022 349.836 367.184 350.044 367.408C350.252 367.632 350.356 367.94 350.356 368.332C350.356 368.852 350.14 369.268 349.708 369.58C349.276 369.892 348.668 370.048 347.884 370.048Z" fill="white"/>
<path id="Bonds cap" fill-rule="evenodd" clip-rule="evenodd" d="M486.88 239.946C487.58 240.077 488.115 240.352 488.483 240.772C488.852 241.192 489.036 241.738 489.036 242.41C489.036 243.241 488.733 243.88 488.126 244.328C487.52 244.776 486.619 245 485.424 245H481.056V235.2H485.144C486.208 235.2 487.037 235.417 487.629 235.851C488.222 236.285 488.518 236.903 488.518 237.706C488.518 238.266 488.371 238.737 488.077 239.12C487.783 239.503 487.384 239.778 486.88 239.946ZM481.77 235.816V239.722H485.116C485.975 239.722 486.635 239.556 487.097 239.225C487.559 238.894 487.79 238.406 487.79 237.762C487.79 237.127 487.559 236.644 487.097 236.313C486.635 235.982 485.975 235.816 485.116 235.816H481.77ZM485.424 244.384C486.376 244.384 487.097 244.218 487.587 243.887C488.077 243.556 488.322 243.045 488.322 242.354C488.322 241.663 488.077 241.155 487.587 240.828C487.097 240.501 486.376 240.338 485.424 240.338H481.77V244.384H485.424ZM496.054 245.056C495.363 245.056 494.74 244.897 494.185 244.58C493.63 244.263 493.193 243.822 492.876 243.257C492.559 242.692 492.4 242.055 492.4 241.346C492.4 240.637 492.559 240 492.876 239.435C493.193 238.87 493.63 238.429 494.185 238.112C494.74 237.795 495.363 237.636 496.054 237.636C496.745 237.636 497.368 237.795 497.923 238.112C498.478 238.429 498.915 238.87 499.232 239.435C499.549 240 499.708 240.637 499.708 241.346C499.708 242.055 499.549 242.692 499.232 243.257C498.915 243.822 498.478 244.263 497.923 244.58C497.368 244.897 496.745 245.056 496.054 245.056ZM496.054 244.426C496.614 244.426 497.116 244.295 497.559 244.034C498.002 243.773 498.352 243.409 498.609 242.942C498.866 242.475 498.994 241.943 498.994 241.346C498.994 240.749 498.866 240.217 498.609 239.75C498.352 239.283 498.002 238.919 497.559 238.658C497.116 238.397 496.614 238.266 496.054 238.266C495.494 238.266 494.992 238.397 494.549 238.658C494.106 238.919 493.756 239.283 493.499 239.75C493.242 240.217 493.114 240.749 493.114 241.346C493.114 241.943 493.242 242.475 493.499 242.942C493.756 243.409 494.106 243.773 494.549 244.034C494.992 244.295 495.494 244.426 496.054 244.426ZM507.285 237.636C508.2 237.636 508.923 237.902 509.455 238.434C509.987 238.966 510.253 239.731 510.253 240.73V245H509.553V240.786C509.553 239.965 509.346 239.339 508.93 238.91C508.515 238.481 507.934 238.266 507.187 238.266C506.329 238.266 505.652 238.523 505.157 239.036C504.663 239.549 504.415 240.24 504.415 241.108V245H503.715V237.692H504.387V239.274C504.639 238.761 505.015 238.359 505.514 238.07C506.014 237.781 506.604 237.636 507.285 237.636ZM521.485 234.612V245H520.799V243.278C520.51 243.847 520.104 244.286 519.581 244.594C519.058 244.902 518.466 245.056 517.803 245.056C517.122 245.056 516.506 244.897 515.955 244.58C515.404 244.263 514.973 243.824 514.66 243.264C514.347 242.704 514.191 242.065 514.191 241.346C514.191 240.627 514.347 239.986 514.66 239.421C514.973 238.856 515.404 238.418 515.955 238.105C516.506 237.792 517.122 237.636 517.803 237.636C518.456 237.636 519.042 237.79 519.56 238.098C520.078 238.406 520.486 238.835 520.785 239.386V234.612H521.485ZM517.845 244.426C518.405 244.426 518.907 244.295 519.35 244.034C519.793 243.773 520.143 243.409 520.4 242.942C520.657 242.475 520.785 241.943 520.785 241.346C520.785 240.749 520.657 240.217 520.4 239.75C520.143 239.283 519.793 238.919 519.35 238.658C518.907 238.397 518.405 238.266 517.845 238.266C517.285 238.266 516.783 238.397 516.34 238.658C515.897 238.919 515.547 239.283 515.29 239.75C515.033 240.217 514.905 240.749 514.905 241.346C514.905 241.943 515.033 242.475 515.29 242.942C515.547 243.409 515.897 243.773 516.34 244.034C516.783 244.295 517.285 244.426 517.845 244.426ZM528.124 245.056C527.536 245.056 526.976 244.967 526.444 244.79C525.912 244.613 525.497 244.389 525.198 244.118L525.52 243.558C525.819 243.81 526.204 244.02 526.675 244.188C527.147 244.356 527.639 244.44 528.152 244.44C528.89 244.44 529.433 244.319 529.783 244.076C530.133 243.833 530.308 243.497 530.308 243.068C530.308 242.76 530.213 242.517 530.021 242.34C529.83 242.163 529.594 242.032 529.314 241.948C529.034 241.864 528.647 241.775 528.152 241.682C527.574 241.579 527.107 241.467 526.752 241.346C526.398 241.225 526.094 241.029 525.842 240.758C525.59 240.487 525.464 240.114 525.464 239.638C525.464 239.059 525.705 238.581 526.185 238.203C526.666 237.825 527.35 237.636 528.236 237.636C528.703 237.636 529.165 237.701 529.622 237.832C530.08 237.963 530.453 238.135 530.742 238.35L530.42 238.91C530.122 238.695 529.781 238.532 529.398 238.42C529.016 238.308 528.624 238.252 528.222 238.252C527.541 238.252 527.028 238.378 526.682 238.63C526.337 238.882 526.164 239.213 526.164 239.624C526.164 239.951 526.262 240.205 526.458 240.387C526.654 240.569 526.895 240.704 527.179 240.793C527.464 240.882 527.863 240.977 528.376 241.08C528.946 241.183 529.405 241.292 529.755 241.409C530.105 241.526 530.402 241.715 530.644 241.976C530.887 242.237 531.008 242.597 531.008 243.054C531.008 243.661 530.756 244.146 530.252 244.51C529.748 244.874 529.039 245.056 528.124 245.056ZM543.139 245.056C542.43 245.056 541.795 244.897 541.235 244.58C540.675 244.263 540.237 243.822 539.919 243.257C539.602 242.692 539.443 242.055 539.443 241.346C539.443 240.627 539.602 239.986 539.919 239.421C540.237 238.856 540.675 238.418 541.235 238.105C541.795 237.792 542.43 237.636 543.139 237.636C543.727 237.636 544.262 237.75 544.742 237.979C545.223 238.208 545.613 238.541 545.911 238.98L545.393 239.358C545.132 238.994 544.808 238.721 544.42 238.539C544.033 238.357 543.606 238.266 543.139 238.266C542.57 238.266 542.059 238.394 541.606 238.651C541.154 238.908 540.799 239.269 540.542 239.736C540.286 240.203 540.157 240.739 540.157 241.346C540.157 241.953 540.286 242.489 540.542 242.956C540.799 243.423 541.154 243.784 541.606 244.041C542.059 244.298 542.57 244.426 543.139 244.426C543.606 244.426 544.033 244.335 544.42 244.153C544.808 243.971 545.132 243.698 545.393 243.334L545.911 243.712C545.613 244.151 545.223 244.484 544.742 244.713C544.262 244.942 543.727 245.056 543.139 245.056ZM552.313 237.636C553.218 237.636 553.914 237.867 554.399 238.329C554.884 238.791 555.127 239.47 555.127 240.366V245H554.455V243.698C554.222 244.127 553.881 244.461 553.433 244.699C552.985 244.937 552.448 245.056 551.823 245.056C551.011 245.056 550.369 244.865 549.898 244.482C549.427 244.099 549.191 243.595 549.191 242.97C549.191 242.363 549.408 241.871 549.842 241.493C550.276 241.115 550.969 240.926 551.921 240.926H554.427V240.338C554.427 239.657 554.243 239.139 553.874 238.784C553.505 238.429 552.966 238.252 552.257 238.252C551.772 238.252 551.307 238.336 550.864 238.504C550.421 238.672 550.045 238.896 549.737 239.176L549.387 238.672C549.751 238.345 550.19 238.091 550.703 237.909C551.216 237.727 551.753 237.636 552.313 237.636ZM551.921 244.482C552.528 244.482 553.043 244.342 553.468 244.062C553.893 243.782 554.212 243.376 554.427 242.844V241.472H551.935C551.216 241.472 550.696 241.603 550.374 241.864C550.052 242.125 549.891 242.485 549.891 242.942C549.891 243.418 550.068 243.794 550.423 244.069C550.778 244.344 551.277 244.482 551.921 244.482ZM563.516 237.636C564.198 237.636 564.814 237.795 565.364 238.112C565.915 238.429 566.347 238.868 566.659 239.428C566.972 239.988 567.128 240.627 567.128 241.346C567.128 242.065 566.972 242.706 566.659 243.271C566.347 243.836 565.915 244.274 565.364 244.587C564.814 244.9 564.198 245.056 563.516 245.056C562.872 245.056 562.289 244.904 561.766 244.601C561.244 244.298 560.838 243.875 560.548 243.334V247.716H559.848V237.692H560.52V239.414C560.81 238.854 561.218 238.418 561.745 238.105C562.273 237.792 562.863 237.636 563.516 237.636ZM563.474 244.426C564.034 244.426 564.538 244.295 564.986 244.034C565.434 243.773 565.787 243.409 566.043 242.942C566.3 242.475 566.428 241.943 566.428 241.346C566.428 240.749 566.3 240.217 566.043 239.75C565.787 239.283 565.434 238.919 564.986 238.658C564.538 238.397 564.034 238.266 563.474 238.266C562.914 238.266 562.413 238.397 561.969 238.658C561.526 238.919 561.176 239.283 560.919 239.75C560.663 240.217 560.534 240.749 560.534 241.346C560.534 241.943 560.663 242.475 560.919 242.942C561.176 243.409 561.526 243.773 561.969 244.034C562.413 244.295 562.914 244.426 563.474 244.426Z" fill="white"/>
<path id="Y" fill-rule="evenodd" clip-rule="evenodd" d="M526.624 119.428V124H522.376V119.374L517.624 111.4H522.106L524.68 115.756L527.272 111.4H531.376L526.624 119.428Z" fill="#00F5FF"/>
<path id="Z" fill-rule="evenodd" clip-rule="evenodd" d="M531.467 332.706V336H519.893V333.39L525.653 326.694H520.073V323.4H531.179V326.01L525.419 332.706H531.467Z" fill="#00F5FF"/>
<g id="bond_neutrino">
<path id="Path 3 Copy 3" fill-rule="evenodd" clip-rule="evenodd" d="M525.011 306.75L501.25 283.01C501.25 283.01 504.096 279.901 510.478 278.399C516.861 276.896 521.667 279.903 525.939 283.01C530.212 286.117 533.451 287.705 538.496 287.425C543.54 287.144 546.793 284.917 548.627 282.728C550.461 280.539 525.011 306.75 525.011 306.75Z" fill="#00F5FF"/>
<path id="Combined Shape Copy_2" fill-rule="evenodd" clip-rule="evenodd" d="M550 283L525 258L500 283L525 308L550 283ZM547.5 283L525 260.5L502.5 283L525 305.5L547.5 283Z" fill="#00F5FF"/>
<path id="N Copy" fill-rule="evenodd" clip-rule="evenodd" d="M515 295.5V269.25H516.789L534.425 292.087V269.25H536.25V295.5L535.342 296.349L516.826 272.175V298L515 295.5Z" fill="#00F5FF"/>
<path id="Combined Shape" fill-rule="evenodd" clip-rule="evenodd" d="M515 279.25V295.48L516.826 298V279.416C516.233 279.32 515.624 279.263 515 279.25ZM530.505 286.924C529.228 286.23 527.941 285.351 526.541 284.298C526.278 284.1 526.014 283.903 525.747 283.708L535.342 296.336L536.25 295.48V288.717C535.618 288.66 535.012 288.565 534.425 288.433V292.04L530.505 286.924Z" fill="black"/>
</g>
<g id="Group 4">
<g id="Group" opacity="0.425563">
<path id="Path_2" fill-rule="evenodd" clip-rule="evenodd" d="M121.04 312.889L82.3668 290.417C77.9354 287.785 77.9354 283.533 82.3668 280.901L121.04 258.429C125.472 255.797 132.924 255.797 137.356 258.429L176.029 280.901C180.461 283.533 180.461 287.785 176.029 290.417L137.356 312.889C132.924 315.521 125.673 315.521 121.04 312.889Z" fill="url(#paint4_linear)"/>
</g>
<g id="Group_2">
<path id="Path_3" fill-rule="evenodd" clip-rule="evenodd" d="M121.04 290.762L82.3668 268.179C77.9354 265.534 77.9354 261.262 82.3668 258.617L121.04 236.034C125.472 233.39 132.924 233.39 137.356 236.034L176.029 258.617C180.461 261.262 180.461 265.534 176.029 268.179L137.557 290.762C132.924 293.407 125.673 293.407 121.04 290.762Z" fill="url(#paint5_linear)"/>
</g>
<g id="Group_3" opacity="0.328911">
<path id="Path_4" fill-rule="evenodd" clip-rule="evenodd" d="M121.04 270.762L82.3668 248.179C77.9354 245.534 77.9354 241.262 82.3668 238.617L121.04 216.034C125.472 213.39 132.924 213.39 137.356 216.034L176.029 238.617C180.461 241.262 180.461 245.534 176.029 248.179L137.557 270.762C132.924 273.407 125.673 273.407 121.04 270.762Z" fill="url(#paint6_linear)"/>
</g>
</g>
<g id="Group 4 Copy">
<g id="Group_4" opacity="0.425563">
<path id="Path_5" fill-rule="evenodd" clip-rule="evenodd" d="M322.812 113.962L303.667 102.917C301.473 101.623 301.473 99.5333 303.667 98.2396L322.812 87.194C325.006 85.9004 328.695 85.9004 330.889 87.194L350.034 98.2396C352.228 99.5333 352.228 101.623 350.034 102.917L330.889 113.962C328.695 115.256 325.106 115.256 322.812 113.962Z" fill="url(#paint7_linear)"/>
</g>
<g id="Group_5">
<path id="Path_6" fill-rule="evenodd" clip-rule="evenodd" d="M322.812 102.9L303.667 91.7999C301.473 90.4999 301.473 88.3999 303.667 87.0999L322.812 75.9999C325.006 74.6999 328.695 74.6999 330.889 75.9999L350.034 87.0999C352.228 88.3999 352.228 90.4999 350.034 91.7999L330.989 102.9C328.695 104.2 325.106 104.2 322.812 102.9Z" fill="url(#paint8_linear)"/>
</g>
<g id="Group_6" opacity="0.43138">
<path id="Path_7" fill-rule="evenodd" clip-rule="evenodd" d="M322.812 92.8999L303.667 81.7999C301.473 80.4999 301.473 78.3999 303.667 77.0999L322.812 65.9999C325.006 64.6999 328.695 64.6999 330.889 65.9999L350.034 77.0999C352.228 78.3999 352.228 80.4999 350.034 81.7999L330.989 92.8999C328.695 94.1999 325.106 94.1999 322.812 92.8999Z" fill="url(#paint9_linear)"/>
</g>
</g>
<g id="Group 4 Copy_2">
<g id="Group_7" opacity="0.425563">
<path id="Path_8" fill-rule="evenodd" clip-rule="evenodd" d="M321.812 337.962L302.667 326.917C300.473 325.623 300.473 323.533 302.667 322.24L321.812 311.194C324.006 309.9 327.695 309.9 329.889 311.194L349.034 322.24C351.228 323.533 351.228 325.623 349.034 326.917L329.889 337.962C327.695 339.256 324.106 339.256 321.812 337.962Z" fill="url(#paint10_linear)"/>
</g>
<g id="Group_8">
<path id="Path_9" fill-rule="evenodd" clip-rule="evenodd" d="M321.812 326.9L302.667 315.8C300.473 314.5 300.473 312.4 302.667 311.1L321.812 300C324.006 298.7 327.695 298.7 329.889 300L349.034 311.1C351.228 312.4 351.228 314.5 349.034 315.8L329.989 326.9C327.695 328.2 324.106 328.2 321.812 326.9Z" fill="url(#paint11_linear)"/>
</g>
<g id="Group_9" opacity="0.43138">
<path id="Path_10" fill-rule="evenodd" clip-rule="evenodd" d="M321.812 316.9L302.667 305.8C300.473 304.5 300.473 302.4 302.667 301.1L321.812 290C324.006 288.7 327.695 288.7 329.889 290L349.034 301.1C351.228 302.4 351.228 304.5 349.034 305.8L329.989 316.9C327.695 318.2 324.106 318.2 321.812 316.9Z" fill="url(#paint12_linear)"/>
</g>
</g>
<path id="Combined Shape Copy_3" fill-rule="evenodd" clip-rule="evenodd" d="M130 140L179 189L130 238L81.0001 189L130 140Z" fill="url(#paint13_linear)"/>
<g id="Group 6">
<path id="N Copy_2" fill-rule="evenodd" clip-rule="evenodd" d="M117 201.217V172H119.189L140.766 197.419V172H143V201.217L141.888 202.163L119.234 175.256V204L117 201.217Z" fill="#00F5FF"/>
<path id="Combined Shape Copy_4" fill-rule="evenodd" clip-rule="evenodd" d="M159 188L130 159L101 188L130 217L159 188ZM156.1 188L130 161.9L103.9 188L130 214.1L156.1 188Z" fill="#00F5FF"/>
<path id="Path 3 Copy" d="M103 187.828C103 187.828 106.301 184.212 113.705 182.464C121.109 180.716 126.685 184.214 131.641 187.828C136.597 191.442 140.355 193.289 146.207 192.963C152.058 192.637 155.873 189.482 158 186.935" stroke="#00F5FF"/>
</g>
<path id="Combined Shape Copy_5" opacity="0.107631" fill-rule="evenodd" clip-rule="evenodd" d="M326 140L375 189L326 238L277 189L326 140Z" fill="url(#paint14_linear)"/>
<g id="Group 6_2">
<path id="N Copy_3" fill-rule="evenodd" clip-rule="evenodd" d="M313 201.217V172H315.189L336.766 197.419V172H339V201.217L337.888 202.163L315.234 175.256V204L313 201.217Z" fill="#00F5FF"/>
<path id="Combined Shape Copy_6" fill-rule="evenodd" clip-rule="evenodd" d="M355 188L326 159L297 188L326 217L355 188ZM352.1 188L326 161.9L299.9 188L326 214.1L352.1 188Z" fill="#00F5FF"/>
<path id="Path 3 Copy_2" d="M299 187.828C299 187.828 302.301 184.212 309.705 182.464C317.109 180.716 322.685 184.214 327.641 187.828C332.597 191.442 336.355 193.289 342.207 192.963C348.058 192.637 351.873 189.482 354 186.935" stroke="#00F5FF"/>
</g>
<path id="Line 2" d="M239.012 188.5L244.012 191.387V185.613L239.012 188.5ZM278.512 189H279.012V188H278.512V189ZM243.512 189H278.512V188H243.512V189Z" fill="#4A4AA3"/>
<path id="Line 2_2" d="M326.5 133.5L329.387 128.5H323.613L326.5 133.5ZM327 114V113.5H326V114H327ZM327 129V114H326V129H327Z" fill="#4A4AA3"/>
<path id="Line 2_3" d="M325.5 269L322.613 274H328.387L325.5 269ZM325 288.5V289H326V288.5H325ZM325 273.5V288.5H326V273.5H325Z" fill="#4A4AA3"/>
<path id="Line 2_4" d="M414.512 188.5L409.512 191.387V185.613L414.512 188.5ZM375.012 189H374.512V188H375.012V189ZM410.012 189H375.012V188H410.012V189Z" fill="#4A4AA3"/>
<path id="Collateral" fill-rule="evenodd" clip-rule="evenodd" d="M483.144 12.0959C482.035 12.0959 481.035 11.8506 480.144 11.3599C479.253 10.8693 478.555 10.1893 478.048 9.31993C477.541 8.45059 477.288 7.47727 477.288 6.39993C477.288 5.32259 477.541 4.34927 478.048 3.47993C478.555 2.61059 479.256 1.9306 480.152 1.43993C481.048 0.949261 482.051 0.70393 483.16 0.70393C483.992 0.70393 484.76 0.842595 485.464 1.11993C486.168 1.39726 486.765 1.80259 487.256 2.33593L486.504 3.08793C485.629 2.20259 484.525 1.75993 483.192 1.75993C482.307 1.75993 481.501 1.96259 480.776 2.36793C480.051 2.77327 479.483 3.32793 479.072 4.03193C478.661 4.73593 478.456 5.52526 478.456 6.39993C478.456 7.2746 478.661 8.06393 479.072 8.76793C479.483 9.47193 480.051 10.0266 480.776 10.4319C481.501 10.8373 482.307 11.0399 483.192 11.0399C484.536 11.0399 485.64 10.5919 486.504 9.69593L487.256 10.4479C486.765 10.9813 486.165 11.3893 485.456 11.6719C484.747 11.9546 483.976 12.0959 483.144 12.0959ZM494.716 12.0799C493.905 12.0799 493.175 11.8959 492.524 11.5279C491.873 11.1599 491.361 10.6506 490.988 9.99993C490.615 9.34926 490.428 8.61327 490.428 7.79193C490.428 6.97059 490.615 6.2346 490.988 5.58393C491.361 4.93326 491.873 4.4266 492.524 4.06393C493.175 3.70126 493.905 3.51993 494.716 3.51993C495.527 3.51993 496.257 3.70126 496.908 4.06393C497.559 4.4266 498.068 4.93326 498.436 5.58393C498.804 6.2346 498.988 6.97059 498.988 7.79193C498.988 8.61327 498.804 9.34926 498.436 9.99993C498.068 10.6506 497.559 11.1599 496.908 11.5279C496.257 11.8959 495.527 12.0799 494.716 12.0799ZM494.716 11.0719C495.313 11.0719 495.849 10.9359 496.324 10.6639C496.799 10.3919 497.169 10.0053 497.436 9.50393C497.703 9.00259 497.836 8.43193 497.836 7.79193C497.836 7.15193 497.703 6.58127 497.436 6.07993C497.169 5.57859 496.799 5.19193 496.324 4.91993C495.849 4.64793 495.313 4.51193 494.716 4.51193C494.119 4.51193 493.583 4.64793 493.108 4.91993C492.633 5.19193 492.26 5.57859 491.988 6.07993C491.716 6.58127 491.58 7.15193 491.58 7.79193C491.58 8.43193 491.716 9.00259 491.988 9.50393C492.26 10.0053 492.633 10.3919 493.108 10.6639C493.583 10.9359 494.119 11.0719 494.716 11.0719ZM503.408 0.12793H504.544V11.9999H503.408V0.12793ZM509.812 0.12793H510.948V11.9999H509.812V0.12793ZM519.16 3.51993C520.259 3.51993 521.101 3.79459 521.688 4.34393C522.275 4.89327 522.568 5.70659 522.568 6.78393V11.9999H521.48V10.6879C521.224 11.1253 520.848 11.4666 520.352 11.7119C519.856 11.9573 519.267 12.0799 518.584 12.0799C517.645 12.0799 516.899 11.8559 516.344 11.4079C515.789 10.9599 515.512 10.3679 515.512 9.63193C515.512 8.91726 515.771 8.34126 516.288 7.90393C516.805 7.46659 517.629 7.24793 518.76 7.24793H521.432V6.73593C521.432 6.01059 521.229 5.4586 520.824 5.07993C520.419 4.70126 519.827 4.51193 519.048 4.51193C518.515 4.51193 518.003 4.59993 517.512 4.77593C517.021 4.95193 516.6 5.19459 516.248 5.50393L515.736 4.65593C516.163 4.29326 516.675 4.01326 517.272 3.81593C517.869 3.6186 518.499 3.51993 519.16 3.51993ZM518.76 11.1839C519.4 11.1839 519.949 11.0373 520.408 10.7439C520.867 10.4506 521.208 10.0266 521.432 9.47193V8.09593H518.792C517.352 8.09593 516.632 8.59726 516.632 9.59993C516.632 10.0906 516.819 10.4773 517.192 10.7599C517.565 11.0426 518.088 11.1839 518.76 11.1839ZM532.188 11.4879C531.975 11.6799 531.711 11.8266 531.396 11.9279C531.081 12.0293 530.753 12.0799 530.412 12.0799C529.623 12.0799 529.015 11.8666 528.588 11.4399C528.161 11.0133 527.948 10.4106 527.948 9.63193V4.54393H526.444V3.58393H527.948V1.74393H529.084V3.58393H531.644V4.54393H529.084V9.56793C529.084 10.0693 529.209 10.4506 529.46 10.7119C529.711 10.9733 530.071 11.1039 530.54 11.1039C530.775 11.1039 531.001 11.0666 531.22 10.9919C531.439 10.9173 531.628 10.8106 531.788 10.6719L532.188 11.4879ZM543.376 8.14393H536.336C536.4 9.0186 536.736 9.72526 537.344 10.2639C537.952 10.8026 538.72 11.0719 539.648 11.0719C540.171 11.0719 540.651 10.9786 541.088 10.7919C541.525 10.6053 541.904 10.3306 542.224 9.96793L542.864 10.7039C542.491 11.1519 542.024 11.4933 541.464 11.7279C540.904 11.9626 540.288 12.0799 539.616 12.0799C538.752 12.0799 537.987 11.8959 537.32 11.5279C536.653 11.1599 536.133 10.6506 535.76 9.99993C535.387 9.34926 535.2 8.61327 535.2 7.79193C535.2 6.97059 535.379 6.2346 535.736 5.58393C536.093 4.93326 536.584 4.4266 537.208 4.06393C537.832 3.70126 538.533 3.51993 539.312 3.51993C540.091 3.51993 540.789 3.70126 541.408 4.06393C542.027 4.4266 542.512 4.93059 542.864 5.57593C543.216 6.22127 543.392 6.95993 543.392 7.79193L543.376 8.14393ZM539.312 4.49593C538.501 4.49593 537.821 4.75459 537.272 5.27193C536.723 5.78927 536.411 6.46393 536.336 7.29593H542.304C542.229 6.46393 541.917 5.78927 541.368 5.27193C540.819 4.75459 540.133 4.49593 539.312 4.49593ZM548.9 5.23193C549.167 4.66659 549.564 4.23993 550.092 3.95193C550.62 3.66393 551.273 3.51993 552.052 3.51993V4.62393L551.78 4.60793C550.895 4.60793 550.201 4.87993 549.7 5.42393C549.199 5.96793 548.948 6.73059 548.948 7.71193V11.9999H547.812V3.58393H548.9V5.23193ZM559.128 3.51993C560.227 3.51993 561.069 3.79459 561.656 4.34393C562.243 4.89327 562.536 5.70659 562.536 6.78393V11.9999H561.448V10.6879C561.192 11.1253 560.816 11.4666 560.32 11.7119C559.824 11.9573 559.235 12.0799 558.552 12.0799C557.613 12.0799 556.867 11.8559 556.312 11.4079C555.757 10.9599 555.48 10.3679 555.48 9.63193C555.48 8.91726 555.739 8.34126 556.256 7.90393C556.773 7.46659 557.597 7.24793 558.728 7.24793H561.4V6.73593C561.4 6.01059 561.197 5.4586 560.792 5.07993C560.387 4.70126 559.795 4.51193 559.016 4.51193C558.483 4.51193 557.971 4.59993 557.48 4.77593C556.989 4.95193 556.568 5.19459 556.216 5.50393L555.704 4.65593C556.131 4.29326 556.643 4.01326 557.24 3.81593C557.837 3.6186 558.467 3.51993 559.128 3.51993ZM558.728 11.1839C559.368 11.1839 559.917 11.0373 560.376 10.7439C560.835 10.4506 561.176 10.0266 561.4 9.47193V8.09593H558.76C557.32 8.09593 556.6 8.59726 556.6 9.59993C556.6 10.0906 556.787 10.4773 557.16 10.7599C557.533 11.0426 558.056 11.1839 558.728 11.1839ZM567.724 0.12793H568.86V11.9999H567.724V0.12793Z" fill="#00F5FF"/>
</g>
<defs>
<linearGradient id="paint0_linear" x1="-198.457" y1="189.929" x2="-116.459" y2="471.97" gradientUnits="userSpaceOnUse">
<stop stop-color="#17183A"/>
<stop offset="1" stop-color="#171839"/>
</linearGradient>
<linearGradient id="paint1_linear" x1="-206.192" y1="217.608" x2="-122.44" y2="511.387" gradientUnits="userSpaceOnUse">
<stop stop-color="#DBDBDB"/>
<stop offset="0.509212" stop-color="#33346A"/>
<stop offset="1" stop-color="#0F4143"/>
</linearGradient>
<linearGradient id="paint2_linear" x1="188.808" y1="217.608" x2="272.559" y2="511.387" gradientUnits="userSpaceOnUse">
<stop stop-color="#DBDBDB"/>
<stop offset="0.509212" stop-color="#33346A"/>
<stop offset="1" stop-color="#0F4143"/>
</linearGradient>
<linearGradient id="paint3_linear" x1="189.556" y1="297.056" x2="208.374" y2="440.583" gradientUnits="userSpaceOnUse">
<stop stop-color="#DBDBDB"/>
<stop offset="0.509212" stop-color="#33346A"/>
<stop offset="1" stop-color="#0F4143"/>
</linearGradient>
<linearGradient id="paint4_linear" x1="144.171" y1="329.955" x2="183.801" y2="257.494" gradientUnits="userSpaceOnUse">
<stop stop-color="#6121A1"/>
<stop offset="1" stop-color="#00AEFF"/>
</linearGradient>
<linearGradient id="paint5_linear" x1="144.171" y1="307.913" x2="184.102" y2="235.26" gradientUnits="userSpaceOnUse">
<stop stop-color="#6121A1"/>
<stop offset="1" stop-color="#00AEFF"/>
</linearGradient>
<linearGradient id="paint6_linear" x1="144.171" y1="287.913" x2="184.102" y2="215.26" gradientUnits="userSpaceOnUse">
<stop stop-color="#6121A1"/>
<stop offset="1" stop-color="#00AEFF"/>
</linearGradient>
<linearGradient id="paint7_linear" x1="334.263" y1="122.351" x2="353.667" y2="86.6177" gradientUnits="userSpaceOnUse">
<stop stop-color="#6121A1"/>
<stop offset="1" stop-color="#00AEFF"/>
</linearGradient>
<linearGradient id="paint8_linear" x1="334.263" y1="111.33" x2="353.815" y2="75.5013" gradientUnits="userSpaceOnUse">
<stop stop-color="#6121A1"/>
<stop offset="1" stop-color="#00AEFF"/>
</linearGradient>
<linearGradient id="paint9_linear" x1="334.263" y1="101.33" x2="353.815" y2="65.5013" gradientUnits="userSpaceOnUse">
<stop stop-color="#6121A1"/>
<stop offset="1" stop-color="#00AEFF"/>
</linearGradient>
<linearGradient id="paint10_linear" x1="333.263" y1="346.351" x2="352.667" y2="310.618" gradientUnits="userSpaceOnUse">
<stop stop-color="#6121A1"/>
<stop offset="1" stop-color="#00AEFF"/>
</linearGradient>
<linearGradient id="paint11_linear" x1="333.263" y1="335.33" x2="352.815" y2="299.501" gradientUnits="userSpaceOnUse">
<stop stop-color="#6121A1"/>
<stop offset="1" stop-color="#00AEFF"/>
</linearGradient>
<linearGradient id="paint12_linear" x1="333.263" y1="325.33" x2="352.815" y2="289.501" gradientUnits="userSpaceOnUse">
<stop stop-color="#6121A1"/>
<stop offset="1" stop-color="#00AEFF"/>
</linearGradient>
<linearGradient id="paint13_linear" x1="144.629" y1="263.323" x2="223.448" y2="179.41" gradientUnits="userSpaceOnUse">
<stop stop-color="#6121A1"/>
<stop offset="1" stop-color="#00AEFF"/>
</linearGradient>
<linearGradient id="paint14_linear" x1="260.158" y1="185.35" x2="292.345" y2="252.66" gradientUnits="userSpaceOnUse">
<stop stop-color="#DBDBDB"/>
<stop offset="0.509212" stop-color="#33346A"/>
<stop offset="1" stop-color="#0F4143"/>
</linearGradient>
</defs>
</svg>
