<svg width="641" height="325" viewBox="0 0 641 325" fill="none" xmlns="http://www.w3.org/2000/svg">
<path fill-rule="evenodd" clip-rule="evenodd" d="M2.30962 184.691C2.30962 184.691 -6.47163 102.691 42.5284 111.691C91.5284 120.691 167.927 110.691 199.228 97.6908C230.528 84.6908 234.884 60.6908 280.243 52.6908C325.603 44.6908 418.528 10.6908 441.528 29.6908C464.528 48.6908 481.253 80.2908 510.328 97.6908C539.404 115.091 602.528 121.667 625.528 141.679C648.528 161.691 638.528 203.527 638.528 212.831C638.528 222.136 577.528 284.667 561.528 291.128C545.528 297.589 424.771 276.816 412.149 291.128C399.528 305.441 312.669 324.777 306.192 324.777C299.716 324.777 91.7081 326.402 82.1182 312.644C72.5284 298.886 2.30962 184.691 2.30962 184.691Z" fill="url(#paint0_linear)"/>
<path fill-rule="evenodd" clip-rule="evenodd" d="M278.641 309C277.205 309 275.768 308.691 274.742 308.074L184.745 255.931C183.616 255.314 183 254.388 183 253.36C183 252.229 183.821 250.994 185.258 250.172L368.33 144.24C370.999 142.697 374.898 142.594 377.258 143.931L467.255 196.074C468.384 196.691 469 197.617 469 198.646C469 199.777 468.179 201.011 466.742 201.834L283.67 307.766C282.233 308.589 280.386 309 278.641 309Z" fill="url(#paint1_linear)"/>
<path fill-rule="evenodd" clip-rule="evenodd" d="M374.368 141C372.828 141 371.186 141.414 369.851 142.139L186.745 248.787C185.616 249.408 185 250.34 185 251.065C185 251.686 185.411 252.307 186.232 252.721L276.245 305.217C278.196 306.356 281.788 306.252 284.149 304.906L467.255 198.258C468.384 197.637 469 196.705 469 195.981C469 195.359 468.589 194.738 467.768 194.324L377.755 141.828C376.831 141.311 375.599 141 374.368 141Z" fill="url(#paint2_linear)"/>
<path fill-rule="evenodd" clip-rule="evenodd" d="M279.641 297C278.205 297 276.768 296.691 275.742 296.074L185.745 243.931C184.616 243.314 184 242.388 184 241.36C184 240.229 184.821 238.994 186.258 238.172L369.33 132.24C371.999 130.697 375.898 130.594 378.258 131.931L468.255 184.074C469.384 184.691 470 185.617 470 186.646C470 187.777 469.179 189.011 467.742 189.834L284.67 295.766C283.233 296.589 281.386 297 279.641 297Z" fill="url(#paint3_linear)"/>
<path fill-rule="evenodd" clip-rule="evenodd" d="M276.245 295.217C278.196 296.356 281.788 296.252 284.149 294.906L467.255 188.229C468.384 187.607 469 186.675 469 185.95C469 185.329 468.589 184.708 467.768 184.293L377.755 131.783C375.702 130.644 372.212 130.748 369.851 132.094L186.745 238.771C185.616 239.393 185 240.325 185 241.05C185 241.671 185.411 242.292 186.232 242.707L276.245 295.217Z" fill="url(#paint4_linear)"/>
<path fill-rule="evenodd" clip-rule="evenodd" d="M189.244 227.618L184.309 225.443V232.175C184.309 232.9 184.823 233.625 185.748 234.143L185.954 234.246C185.646 233.936 185.543 233.521 185.543 233.107V226.375L190.477 228.55L197.468 224.511C197.16 224.096 196.851 223.786 196.44 223.371L189.244 227.618Z" fill="url(#paint5_linear)"/>
<path fill-rule="evenodd" clip-rule="evenodd" d="M465.168 172.829L422.402 147.971C421.991 148.282 421.58 148.489 421.066 148.8L463.935 173.761L468.561 170.964V177.593C468.561 178.214 468.355 178.836 467.738 179.457C469.075 178.629 469.692 177.593 469.692 176.661V170.032L465.168 172.829Z" fill="url(#paint6_linear)"/>
<path fill-rule="evenodd" clip-rule="evenodd" d="M275.907 279.921L185.748 227.411C183.59 226.168 183.898 223.993 186.365 222.543L369.767 115.864C372.234 114.414 376.038 114.311 378.197 115.554L468.355 168.064C470.514 169.307 470.206 171.482 467.738 172.932L284.337 279.611C281.767 280.957 278.066 281.164 275.907 279.921Z" fill="url(#paint7_linear)"/>
<path fill-rule="evenodd" clip-rule="evenodd" d="M275.907 279.921L185.748 227.411C183.59 226.168 183.898 223.993 186.365 222.543L369.767 115.864C372.234 114.414 376.038 114.311 378.197 115.554L468.355 168.064C470.514 169.307 470.206 171.482 467.738 172.932L284.337 279.611C281.767 280.957 278.066 281.164 275.907 279.921Z" fill="url(#paint8_linear)"/>
<path fill-rule="evenodd" clip-rule="evenodd" d="M468.253 167.961L378.094 115.45C376.963 114.829 375.421 114.518 373.879 114.621C375.01 114.725 376.038 114.932 376.86 115.45L467.019 167.961C469.178 169.204 468.869 171.379 466.402 172.829L283.001 279.507C281.767 280.232 280.328 280.646 278.786 280.646C280.636 280.75 282.589 280.336 284.131 279.507L467.533 172.829C470.206 171.379 470.411 169.204 468.253 167.961Z" fill="url(#paint9_linear)"/>
<path fill-rule="evenodd" clip-rule="evenodd" d="M286.187 276.711L191.3 221.404L366.683 119.386L461.673 174.589L286.187 276.711Z" fill="#1D1D45"/>
<path fill-rule="evenodd" clip-rule="evenodd" d="M423.019 147.868L412.739 141.964C412.327 141.757 412.43 141.343 412.841 141.136C413.253 140.825 413.972 140.825 414.383 141.032L424.664 146.936C425.075 147.143 424.972 147.557 424.561 147.764C424.047 147.971 423.327 148.075 423.019 147.868Z" fill="url(#paint10_radial)"/>
<path fill-rule="evenodd" clip-rule="evenodd" d="M235.094 260.761L227.795 256.514C227.384 256.204 226.973 255.582 226.973 254.961C226.973 254.339 227.384 254.029 227.795 254.339L235.094 258.586C235.505 258.896 235.917 259.518 235.917 260.139C235.917 260.761 235.505 261.071 235.094 260.761Z" fill="#58068E"/>
<path fill-rule="evenodd" clip-rule="evenodd" d="M358.553 222.696L347.38 229.27C346.458 229.791 345.023 229.896 344.203 229.374L341.23 227.6C340.41 227.078 340.513 226.243 341.435 225.722L352.608 219.148C353.53 218.626 354.965 218.522 355.785 219.043L358.758 220.817C359.578 221.339 359.475 222.174 358.553 222.696Z" fill="url(#paint11_linear)"/>
<path fill-rule="evenodd" clip-rule="evenodd" d="M380.18 210.07L369.008 216.643C368.085 217.165 366.65 217.27 365.83 216.748L362.858 214.974C362.038 214.452 362.14 213.617 363.063 213.096L374.235 206.522C375.158 206 376.593 205.896 377.413 206.417L380.385 208.191C381.205 208.609 381.103 209.443 380.18 210.07Z" fill="url(#paint12_linear)"/>
<path opacity="0.4" fill-rule="evenodd" clip-rule="evenodd" d="M459 169.224L283.524 271L212 160.673L387.476 59L459 169.224Z" fill="url(#paint13_linear)"/>
<path fill-rule="evenodd" clip-rule="evenodd" d="M253.924 276L253 275.69L266.144 238.161C268.711 230.82 274.153 224.41 279.801 222.136C282.471 220.999 285.038 220.999 287.092 222.033L290.891 223.893C292.637 224.721 294.691 224.721 297.053 223.79C302.187 221.826 307.219 216.139 309.888 209.316C312.969 201.459 319.233 195.152 324.983 193.808L331.658 192.257C337.408 190.913 343.672 184.193 346.445 176.336L358.973 140.668C362.464 130.639 371.09 122.989 377.661 123.816L384.747 124.746C390.805 125.573 399.02 118.026 402.306 108.721L424.076 47L425 47.3102L403.23 109.032C399.739 118.957 391.113 126.711 384.541 125.78L377.456 124.85C371.398 124.023 363.183 131.57 359.897 140.978L347.369 176.646C344.494 184.917 337.922 191.844 331.863 193.291L325.189 194.842C319.644 196.083 313.79 202.182 310.813 209.73C308.04 216.76 302.7 222.653 297.361 224.721C294.793 225.754 292.329 225.754 290.378 224.721L286.579 222.86C284.833 221.929 282.574 222.033 280.212 222.963C274.872 225.134 269.635 231.337 267.171 238.367L253.924 276Z" fill="url(#paint14_linear)"/>
<path opacity="0.4" fill-rule="evenodd" clip-rule="evenodd" d="M373.177 140.392L227 225V215.714C227 212.928 228.955 209.626 231.321 208.285L240.167 203.126C242.533 201.785 244.488 198.483 244.488 195.697V179.498C244.488 176.712 246.442 173.41 248.808 172.069L258.684 166.394C261.05 165.052 263.004 166.084 263.004 168.87V176.815C263.004 179.601 264.959 180.633 267.325 179.291L275.246 174.751C277.612 173.41 279.566 170.108 279.566 167.322V131.828C279.566 129.043 281.521 125.741 283.887 124.399L291.499 119.963C293.865 118.621 295.819 115.32 295.819 112.534V103.248C295.819 100.462 297.774 97.1599 300.14 95.8186L309.192 90.5564C311.558 89.2151 313.513 90.2469 313.513 93.0327V96.3345C313.513 99.1204 315.467 100.152 317.833 98.8108L325.24 94.5804C327.606 93.2391 329.561 94.2709 329.561 97.0568C329.561 99.8426 331.515 100.874 333.881 99.5331L340.568 95.7154C342.934 94.3741 344.888 91.0723 344.888 88.2865V48.5621C344.888 45.7763 346.843 42.4745 349.209 41.1332L355.586 37.4187C357.952 36.0774 359.907 32.7756 359.907 29.9897V11.1078C359.907 8.32192 361.861 5.02016 364.227 3.67882L369.679 0.58342C372.045 -0.75792 374 0.27388 374 3.05974V140.392H373.177Z" fill="#601FA1"/>
<path fill-rule="evenodd" clip-rule="evenodd" d="M307.452 90.7437H303.755C303.447 90.7437 303.139 90.4341 303.139 90.1245C303.139 89.815 303.447 89.5054 303.755 89.5054H307.452C307.76 89.5054 308.068 89.815 308.068 90.1245C308.068 90.5373 307.76 90.7437 307.452 90.7437Z" fill="white"/>
<path fill-rule="evenodd" clip-rule="evenodd" d="M312.174 90.7437H310.429C310.121 90.7437 309.813 90.4341 309.813 90.1245C309.813 89.815 310.121 89.5054 310.429 89.5054H312.174C312.482 89.5054 312.79 89.815 312.79 90.1245C312.893 90.5373 312.585 90.7437 312.174 90.7437Z" fill="white"/>
<path fill-rule="evenodd" clip-rule="evenodd" d="M305.398 93.1172H303.755C303.447 93.1172 303.139 92.8077 303.139 92.4981C303.139 92.1885 303.447 91.8789 303.755 91.8789H305.398C305.706 91.8789 306.014 92.1885 306.014 92.4981C306.014 92.9109 305.706 93.1172 305.398 93.1172Z" fill="white"/>
<path fill-rule="evenodd" clip-rule="evenodd" d="M310.121 93.1172H308.376C308.068 93.1172 307.76 92.8077 307.76 92.4981C307.76 92.1885 308.068 91.8789 308.376 91.8789H310.121C310.429 91.8789 310.737 92.1885 310.737 92.4981C310.737 92.9109 310.532 93.1172 310.121 93.1172Z" fill="white"/>
<path fill-rule="evenodd" clip-rule="evenodd" d="M309.813 95.4907H303.755C303.447 95.4907 303.139 95.1811 303.139 94.8715C303.139 94.5619 303.447 94.2523 303.755 94.2523H309.813C310.121 94.2523 310.429 94.5619 310.429 94.8715C310.429 95.2843 310.224 95.4907 309.813 95.4907Z" fill="white"/>
<path fill-rule="evenodd" clip-rule="evenodd" d="M314.639 95.4907H312.893C312.585 95.4907 312.277 95.1811 312.277 94.8715C312.277 94.5619 312.585 94.2523 312.893 94.2523H314.639C314.947 94.2523 315.255 94.5619 315.255 94.8715C315.255 95.2843 314.947 95.4907 314.639 95.4907Z" fill="white"/>
<path fill-rule="evenodd" clip-rule="evenodd" d="M251.187 179.904H245.129C244.821 179.904 244.513 179.595 244.513 179.285C244.513 178.975 244.821 178.666 245.129 178.666H251.187C251.495 178.666 251.803 178.975 251.803 179.285C251.803 179.595 251.495 179.904 251.187 179.904Z" fill="white"/>
<path fill-rule="evenodd" clip-rule="evenodd" d="M255.91 179.904H254.165C253.857 179.904 253.549 179.595 253.549 179.285C253.549 178.975 253.857 178.666 254.165 178.666H255.91C256.218 178.666 256.526 178.975 256.526 179.285C256.526 179.595 256.321 179.904 255.91 179.904Z" fill="white"/>
<path fill-rule="evenodd" clip-rule="evenodd" d="M249.134 182.278H245.129C244.821 182.278 244.513 181.968 244.513 181.658C244.513 181.349 244.821 181.039 245.129 181.039H249.134C249.442 181.039 249.75 181.349 249.75 181.658C249.75 181.968 249.442 182.278 249.134 182.278Z" fill="white"/>
<path fill-rule="evenodd" clip-rule="evenodd" d="M253.857 182.278H252.111C251.803 182.278 251.495 181.968 251.495 181.658C251.495 181.349 251.803 181.039 252.111 181.039H253.857C254.165 181.039 254.473 181.349 254.473 181.658C254.473 181.968 254.267 182.278 253.857 182.278Z" fill="white"/>
<path fill-rule="evenodd" clip-rule="evenodd" d="M142.935 157.217V128H145.124L166.701 153.419V128H168.935V157.217L167.823 158.163L145.168 131.256V160L142.935 157.217Z" fill="#6400DA"/>
<path fill-rule="evenodd" clip-rule="evenodd" d="M184.935 144L155.935 115L126.935 144L155.935 173L184.935 144ZM182.035 144L155.935 117.9L129.835 144L155.935 170.1L182.035 144Z" fill="#6400DA"/>
<path d="M128.935 143.828C128.935 143.828 132.235 140.212 139.639 138.464C147.044 136.716 152.619 140.214 157.576 143.828C162.532 147.442 166.29 149.289 172.141 148.963C177.993 148.637 181.807 145.482 183.935 142.935" stroke="#6400DA"/>
<path fill-rule="evenodd" clip-rule="evenodd" d="M494 151.435V135H495.263L507.711 149.298V135H509V151.435L508.359 151.967L495.289 136.831V153L494 151.435Z" fill="#6400DA"/>
<path fill-rule="evenodd" clip-rule="evenodd" d="M518 144.5L501.5 128L485 144.5L501.5 161L518 144.5ZM516.35 144.5L501.5 129.65L486.65 144.5L501.5 159.35L516.35 144.5Z" fill="#6400DA"/>
<path d="M486 144.179C486 144.179 487.92 142.206 492.228 141.253C496.536 140.3 499.78 142.208 502.664 144.179C505.547 146.15 507.734 147.158 511.139 146.98C514.543 146.802 516.762 145.081 518 143.692" stroke="#6400DA"/>
<path fill-rule="evenodd" clip-rule="evenodd" d="M273 73L257 57L241 73L257 89L273 73ZM271.4 73L257 58.6L242.6 73L257 87.4L271.4 73Z" fill="#6400DA"/>
<path d="M242 73.179C242 73.179 243.8 71.2063 247.839 70.253C251.878 69.2998 254.919 71.2077 257.622 73.179C260.326 75.1504 262.376 76.1578 265.567 75.9799C268.759 75.802 270.84 74.081 272 72.692" stroke="#6400DA"/>
<path d="M257.825 81V83.2148H256.665V81H253.501V67.3594H256.665V64.7438H257.825V67.3945C258.777 67.3945 259.562 67.5375 260.181 67.8234C260.588 68.0062 260.919 68.3461 261.172 68.843C261.411 69.3117 261.531 69.7992 261.531 70.3055C261.531 71.4211 261.128 72.3352 260.321 73.0477C260.021 73.3148 259.646 73.575 259.196 73.8281C260.185 74.0906 260.959 74.6109 261.517 75.3891C261.854 75.8672 262.023 76.4906 262.023 77.2594C262.023 77.9391 261.866 78.5648 261.552 79.1367C261.238 79.7039 260.806 80.1445 260.258 80.4586C259.653 80.8195 258.842 81 257.825 81ZM257.825 73.1883C258.083 73.1555 258.402 73.0336 258.781 72.8227C259.086 72.6492 259.351 72.3258 259.576 71.8523C259.792 71.4023 259.899 70.9805 259.899 70.5867C259.899 70.0664 259.703 69.6305 259.309 69.2789C259.06 69.007 258.566 68.8336 257.825 68.7586V73.1883ZM256.665 68.7445H255.146V73.2797H256.665V68.7445ZM257.825 74.707V79.6289C258.219 79.6289 258.585 79.5727 258.922 79.4602C259.231 79.3477 259.494 79.1859 259.71 78.975C260.117 78.5484 260.321 78.0234 260.321 77.4C260.321 76.9172 260.199 76.4719 259.956 76.0641C259.726 75.6844 259.363 75.368 258.866 75.1148C258.496 74.9227 258.149 74.7867 257.825 74.707ZM255.146 74.6437V79.6289H256.665V74.6437H255.146Z" fill="#6400DA"/>
<path fill-rule="evenodd" clip-rule="evenodd" d="M392 291L377 276L362 291L377 306L392 291ZM390.5 291L377 277.5L363.5 291L377 304.5L390.5 291Z" fill="#6400DA"/>
<path d="M362.938 291.168C362.938 291.168 364.625 289.318 368.412 288.425C372.198 287.531 375.049 289.32 377.583 291.168C380.118 293.016 382.04 293.96 385.032 293.794C388.024 293.627 389.975 292.013 391.062 290.711" stroke="#6400DA"/>
<path d="M377.794 299.031V301.246H376.634V299.031H373.47V285.391H376.634V282.775H377.794V285.426C378.746 285.426 379.531 285.569 380.149 285.855C380.557 286.037 380.888 286.377 381.141 286.874C381.38 287.343 381.499 287.83 381.499 288.337C381.499 289.452 381.096 290.366 380.29 291.079C379.99 291.346 379.615 291.606 379.165 291.859C380.154 292.122 380.928 292.642 381.485 293.42C381.823 293.898 381.992 294.522 381.992 295.291C381.992 295.97 381.835 296.596 381.521 297.168C381.206 297.735 380.775 298.176 380.227 298.49C379.622 298.851 378.811 299.031 377.794 299.031ZM377.794 291.22C378.052 291.187 378.371 291.065 378.75 290.854C379.055 290.68 379.32 290.357 379.545 289.884C379.76 289.434 379.868 289.012 379.868 288.618C379.868 288.098 379.671 287.662 379.278 287.31C379.029 287.038 378.535 286.865 377.794 286.79V291.22ZM376.634 286.776H375.115V291.311H376.634V286.776ZM377.794 292.738V297.66C378.188 297.66 378.553 297.604 378.891 297.491C379.2 297.379 379.463 297.217 379.678 297.006C380.086 296.58 380.29 296.055 380.29 295.431C380.29 294.948 380.168 294.503 379.924 294.095C379.695 293.716 379.331 293.399 378.835 293.146C378.464 292.954 378.117 292.818 377.794 292.738ZM375.115 292.675V297.66H376.634V292.675H375.115Z" fill="#6400DA"/>
<path fill-rule="evenodd" clip-rule="evenodd" d="M458.119 265.241L443.084 250.179C443.084 250.179 444.884 248.206 448.923 247.253C452.961 246.3 456.003 248.208 458.706 250.179C461.41 252.15 463.459 253.158 466.651 252.98C469.843 252.802 471.901 251.389 473.062 250C474.222 248.611 458.119 265.241 458.119 265.241Z" fill="white"/>
<path fill-rule="evenodd" clip-rule="evenodd" d="M474.084 250L458.084 234L442.084 250L458.084 266L474.084 250ZM472.484 250L458.084 235.6L443.684 250L458.084 264.4L472.484 250Z" fill="#6400DA"/>
<path fill-rule="evenodd" clip-rule="evenodd" d="M451.084 257.435V241H452.262L463.881 255.298V241H465.084V257.435L464.485 257.967L452.286 242.831V259L451.084 257.435Z" fill="#6400DA"/>
<path fill-rule="evenodd" clip-rule="evenodd" d="M354.502 47.3426H350.806C350.498 47.3426 350.19 47.033 350.19 46.7234C350.19 46.4138 350.498 46.1042 350.806 46.1042H354.502C354.81 46.1042 355.118 46.4138 355.118 46.7234C355.118 47.033 354.913 47.3426 354.502 47.3426Z" fill="white"/>
<path fill-rule="evenodd" clip-rule="evenodd" d="M359.328 47.3426H357.582C357.274 47.3426 356.966 47.033 356.966 46.7234C356.966 46.4138 357.274 46.1042 357.582 46.1042H359.328C359.636 46.1042 359.944 46.4138 359.944 46.7234C359.944 47.033 359.636 47.3426 359.328 47.3426Z" fill="white"/>
<path fill-rule="evenodd" clip-rule="evenodd" d="M352.962 49.9224H350.909C350.601 49.9224 350.293 49.6128 350.293 49.3033C350.293 48.9937 350.601 48.6841 350.909 48.6841H352.962C353.27 48.6841 353.578 48.9937 353.578 49.3033C353.578 49.6128 353.27 49.9224 352.962 49.9224Z" fill="white"/>
<path fill-rule="evenodd" clip-rule="evenodd" d="M358.301 49.9224H355.94C355.632 49.9224 355.324 49.6128 355.324 49.3033C355.324 48.9937 355.632 48.6841 355.94 48.6841H358.301C358.609 48.6841 358.917 48.9937 358.917 49.3033C359.02 49.6128 358.712 49.9224 358.301 49.9224Z" fill="white"/>
<path fill-rule="evenodd" clip-rule="evenodd" d="M364.051 47.3426H362.305C361.997 47.3426 361.689 47.033 361.689 46.7234C361.689 46.4138 361.997 46.1042 362.305 46.1042H364.051C364.359 46.1042 364.667 46.4138 364.667 46.7234C364.667 47.033 364.359 47.3426 364.051 47.3426Z" fill="white"/>
<path fill-rule="evenodd" clip-rule="evenodd" d="M2.30962 184.691C2.30962 184.691 -6.47163 102.691 42.5284 111.691C91.5284 120.691 167.927 110.691 199.228 97.6908C230.528 84.6908 234.884 60.6908 280.243 52.6908C325.603 44.6908 418.528 10.6908 441.528 29.6908C464.528 48.6908 481.253 80.2908 510.328 97.6908C539.404 115.091 602.528 121.667 625.528 141.679C648.528 161.691 638.528 203.527 638.528 212.831C638.528 222.136 577.528 284.667 561.528 291.128C545.528 297.589 424.771 276.816 412.149 291.128C399.528 305.441 312.669 324.777 306.192 324.777C299.716 324.777 91.7081 326.402 82.1182 312.644C72.5284 298.886 2.30962 184.691 2.30962 184.691Z" fill="url(#paint15_linear)"/>
<path fill-rule="evenodd" clip-rule="evenodd" d="M278.641 309C277.205 309 275.768 308.691 274.742 308.074L184.745 255.931C183.616 255.314 183 254.388 183 253.36C183 252.229 183.821 250.994 185.258 250.172L368.33 144.24C370.999 142.697 374.898 142.594 377.258 143.931L467.255 196.074C468.384 196.691 469 197.617 469 198.646C469 199.777 468.179 201.011 466.742 201.834L283.67 307.766C282.233 308.589 280.386 309 278.641 309Z" fill="url(#paint16_linear)"/>
<path fill-rule="evenodd" clip-rule="evenodd" d="M374.368 141C372.828 141 371.186 141.414 369.851 142.139L186.745 248.787C185.616 249.408 185 250.34 185 251.065C185 251.686 185.411 252.307 186.232 252.721L276.245 305.217C278.196 306.356 281.788 306.252 284.149 304.906L467.255 198.258C468.384 197.637 469 196.705 469 195.981C469 195.359 468.589 194.738 467.768 194.324L377.755 141.828C376.831 141.311 375.599 141 374.368 141Z" fill="url(#paint17_linear)"/>
<path fill-rule="evenodd" clip-rule="evenodd" d="M279.641 297C278.205 297 276.768 296.691 275.742 296.074L185.745 243.931C184.616 243.314 184 242.388 184 241.36C184 240.229 184.821 238.994 186.258 238.172L369.33 132.24C371.999 130.697 375.898 130.594 378.258 131.931L468.255 184.074C469.384 184.691 470 185.617 470 186.646C470 187.777 469.179 189.011 467.742 189.834L284.67 295.766C283.233 296.589 281.386 297 279.641 297Z" fill="url(#paint18_linear)"/>
<path fill-rule="evenodd" clip-rule="evenodd" d="M276.245 295.217C278.196 296.356 281.788 296.252 284.149 294.906L467.255 188.229C468.384 187.607 469 186.675 469 185.95C469 185.329 468.589 184.708 467.768 184.293L377.755 131.783C375.702 130.644 372.212 130.748 369.851 132.094L186.745 238.771C185.616 239.393 185 240.325 185 241.05C185 241.671 185.411 242.292 186.232 242.707L276.245 295.217Z" fill="url(#paint19_linear)"/>
<path fill-rule="evenodd" clip-rule="evenodd" d="M189.244 227.618L184.309 225.443V232.175C184.309 232.9 184.823 233.625 185.748 234.143L185.954 234.246C185.646 233.936 185.543 233.521 185.543 233.107V226.375L190.477 228.55L197.468 224.511C197.16 224.096 196.851 223.786 196.44 223.371L189.244 227.618Z" fill="url(#paint20_linear)"/>
<path fill-rule="evenodd" clip-rule="evenodd" d="M465.168 172.829L422.402 147.971C421.991 148.282 421.58 148.489 421.066 148.8L463.935 173.761L468.561 170.964V177.593C468.561 178.214 468.355 178.836 467.738 179.457C469.075 178.629 469.692 177.593 469.692 176.661V170.032L465.168 172.829Z" fill="url(#paint21_linear)"/>
<path fill-rule="evenodd" clip-rule="evenodd" d="M275.907 279.921L185.748 227.411C183.59 226.168 183.898 223.993 186.365 222.543L369.767 115.864C372.234 114.414 376.038 114.311 378.197 115.554L468.355 168.064C470.514 169.307 470.206 171.482 467.738 172.932L284.337 279.611C281.767 280.957 278.066 281.164 275.907 279.921Z" fill="url(#paint22_linear)"/>
<path fill-rule="evenodd" clip-rule="evenodd" d="M275.907 279.921L185.748 227.411C183.59 226.168 183.898 223.993 186.365 222.543L369.767 115.864C372.234 114.414 376.038 114.311 378.197 115.554L468.355 168.064C470.514 169.307 470.206 171.482 467.738 172.932L284.337 279.611C281.767 280.957 278.066 281.164 275.907 279.921Z" fill="url(#paint23_linear)"/>
<path fill-rule="evenodd" clip-rule="evenodd" d="M468.253 167.961L378.094 115.45C376.963 114.829 375.421 114.518 373.879 114.621C375.01 114.725 376.038 114.932 376.86 115.45L467.019 167.961C469.178 169.204 468.869 171.379 466.402 172.829L283.001 279.507C281.767 280.232 280.328 280.646 278.786 280.646C280.636 280.75 282.589 280.336 284.131 279.507L467.533 172.829C470.206 171.379 470.411 169.204 468.253 167.961Z" fill="url(#paint24_linear)"/>
<path fill-rule="evenodd" clip-rule="evenodd" d="M286.187 276.711L191.3 221.404L366.683 119.386L461.673 174.589L286.187 276.711Z" fill="#1D1D45"/>
<path fill-rule="evenodd" clip-rule="evenodd" d="M423.019 147.868L412.739 141.964C412.327 141.757 412.43 141.343 412.841 141.136C413.253 140.825 413.972 140.825 414.383 141.032L424.664 146.936C425.075 147.143 424.972 147.557 424.561 147.764C424.047 147.971 423.327 148.075 423.019 147.868Z" fill="url(#paint25_radial)"/>
<path fill-rule="evenodd" clip-rule="evenodd" d="M235.094 260.761L227.795 256.514C227.384 256.204 226.973 255.582 226.973 254.961C226.973 254.339 227.384 254.029 227.795 254.339L235.094 258.586C235.505 258.896 235.917 259.518 235.917 260.139C235.917 260.761 235.505 261.071 235.094 260.761Z" fill="#58068E"/>
<path fill-rule="evenodd" clip-rule="evenodd" d="M358.553 222.696L347.38 229.27C346.458 229.791 345.023 229.896 344.203 229.374L341.23 227.6C340.41 227.078 340.513 226.243 341.435 225.722L352.608 219.148C353.53 218.626 354.965 218.522 355.785 219.043L358.758 220.817C359.578 221.339 359.475 222.174 358.553 222.696Z" fill="url(#paint26_linear)"/>
<path fill-rule="evenodd" clip-rule="evenodd" d="M380.18 210.07L369.008 216.643C368.085 217.165 366.65 217.27 365.83 216.748L362.858 214.974C362.038 214.452 362.14 213.617 363.063 213.096L374.235 206.522C375.158 206 376.593 205.896 377.413 206.417L380.385 208.191C381.205 208.609 381.103 209.443 380.18 210.07Z" fill="url(#paint27_linear)"/>
<path opacity="0.233282" fill-rule="evenodd" clip-rule="evenodd" d="M455 178.224L279.524 280L208 169.673L383.476 68L455 178.224Z" fill="url(#paint28_linear)"/>
<path fill-rule="evenodd" clip-rule="evenodd" d="M253.924 276L253 275.69L266.144 238.161C268.711 230.82 274.153 224.41 279.801 222.136C282.471 220.999 285.038 220.999 287.092 222.033L290.891 223.893C292.637 224.721 294.691 224.721 297.053 223.79C302.187 221.826 307.219 216.139 309.888 209.316C312.969 201.459 319.233 195.152 324.983 193.808L331.658 192.257C337.408 190.913 343.672 184.193 346.445 176.336L358.973 140.668C362.464 130.639 371.09 122.989 377.661 123.816L384.747 124.746C390.805 125.573 399.02 118.026 402.306 108.721L424.076 47L425 47.3102L403.23 109.032C399.739 118.957 391.113 126.711 384.541 125.78L377.456 124.85C371.398 124.023 363.183 131.57 359.897 140.978L347.369 176.646C344.494 184.917 337.922 191.844 331.863 193.291L325.189 194.842C319.644 196.083 313.79 202.182 310.813 209.73C308.04 216.76 302.7 222.653 297.361 224.721C294.793 225.754 292.329 225.754 290.378 224.721L286.579 222.86C284.833 221.929 282.574 222.033 280.212 222.963C274.872 225.134 269.635 231.337 267.171 238.367L253.924 276Z" fill="url(#paint29_linear)"/>
<path fill-rule="evenodd" clip-rule="evenodd" d="M373.177 140.392L227 225V215.714C227 212.928 228.955 209.626 231.321 208.285L240.167 203.126C242.533 201.785 244.488 198.483 244.488 195.697V179.498C244.488 176.712 246.442 173.41 248.808 172.069L258.684 166.394C261.05 165.052 263.004 166.084 263.004 168.87V176.815C263.004 179.601 264.959 180.633 267.325 179.291L275.246 174.751C277.612 173.41 279.566 170.108 279.566 167.322V131.828C279.566 129.043 281.521 125.741 283.887 124.399L291.499 119.963C293.865 118.621 295.819 115.32 295.819 112.534V103.248C295.819 100.462 297.774 97.1599 300.14 95.8186L309.192 90.5564C311.558 89.2151 313.513 90.2469 313.513 93.0327V96.3345C313.513 99.1204 315.467 100.152 317.833 98.8108L325.24 94.5804C327.606 93.2391 329.561 94.2709 329.561 97.0568C329.561 99.8426 331.515 100.874 333.881 99.5331L340.568 95.7154C342.934 94.3741 344.888 91.0723 344.888 88.2865V48.5621C344.888 45.7763 346.843 42.4745 349.209 41.1332L355.586 37.4187C357.952 36.0774 359.907 32.7756 359.907 29.9897V11.1078C359.907 8.32192 361.861 5.02016 364.227 3.67882L369.679 0.58342C372.045 -0.75792 374 0.27388 374 3.05974V140.392H373.177Z" fill="url(#paint30_linear)"/>
<path fill-rule="evenodd" clip-rule="evenodd" d="M142.935 157.217V128H145.124L166.701 153.419V128H168.935V157.217L167.823 158.163L145.168 131.256V160L142.935 157.217Z" fill="#00F5FF"/>
<path fill-rule="evenodd" clip-rule="evenodd" d="M184.935 144L155.935 115L126.935 144L155.935 173L184.935 144ZM182.035 144L155.935 117.9L129.835 144L155.935 170.1L182.035 144Z" fill="#00F5FF"/>
<path d="M128.935 145.709C128.935 145.709 132.235 143.407 139.639 142.295C147.044 141.183 152.619 143.409 157.576 145.709C162.532 148.009 166.29 149.184 172.141 148.977C177.993 148.769 181.807 146.761 183.935 145.141" stroke="#00F5FF"/>
<path fill-rule="evenodd" clip-rule="evenodd" d="M273 73L257 57L241 73L257 89L273 73ZM271.4 73L257 58.6L242.6 73L257 87.4L271.4 73Z" fill="#00F5FF"/>
<path d="M242 73.179C242 73.179 243.8 71.2063 247.839 70.253C251.878 69.2998 254.919 71.2077 257.622 73.179C260.326 75.1504 262.376 76.1578 265.567 75.9799C268.759 75.802 270.84 74.081 272 72.692" stroke="#00F5FF"/>
<path d="M257.825 81V83.2148H256.665V81H253.501V67.3594H256.665V64.7438H257.825V67.3945C258.777 67.3945 259.562 67.5375 260.181 67.8234C260.588 68.0062 260.919 68.3461 261.172 68.843C261.411 69.3117 261.531 69.7992 261.531 70.3055C261.531 71.4211 261.128 72.3352 260.321 73.0477C260.021 73.3148 259.646 73.575 259.196 73.8281C260.185 74.0906 260.959 74.6109 261.517 75.3891C261.854 75.8672 262.023 76.4906 262.023 77.2594C262.023 77.9391 261.866 78.5648 261.552 79.1367C261.238 79.7039 260.806 80.1445 260.258 80.4586C259.653 80.8195 258.842 81 257.825 81ZM257.825 73.1883C258.083 73.1555 258.402 73.0336 258.781 72.8227C259.086 72.6492 259.351 72.3258 259.576 71.8523C259.792 71.4023 259.899 70.9805 259.899 70.5867C259.899 70.0664 259.703 69.6305 259.309 69.2789C259.06 69.007 258.566 68.8336 257.825 68.7586V73.1883ZM256.665 68.7445H255.146V73.2797H256.665V68.7445ZM257.825 74.707V79.6289C258.219 79.6289 258.585 79.5727 258.922 79.4602C259.231 79.3477 259.494 79.1859 259.71 78.975C260.117 78.5484 260.321 78.0234 260.321 77.4C260.321 76.9172 260.199 76.4719 259.956 76.0641C259.726 75.6844 259.363 75.368 258.866 75.1148C258.496 74.9227 258.149 74.7867 257.825 74.707ZM255.146 74.6437V79.6289H256.665V74.6437H255.146Z" fill="#00F5FF"/>
<path fill-rule="evenodd" clip-rule="evenodd" d="M392 291L377 276L362 291L377 306L392 291ZM390.5 291L377 277.5L363.5 291L377 304.5L390.5 291Z" fill="#00F5FF"/>
<path d="M362.938 291.168C362.938 291.168 364.625 289.318 368.412 288.425C372.198 287.531 375.049 289.32 377.583 291.168C380.118 293.016 382.04 293.96 385.032 293.794C388.024 293.627 389.975 292.013 391.062 290.711" stroke="#00F5FF"/>
<path d="M377.794 299.031V301.246H376.634V299.031H373.47V285.391H376.634V282.775H377.794V285.426C378.746 285.426 379.531 285.569 380.149 285.855C380.557 286.037 380.888 286.377 381.141 286.874C381.38 287.343 381.499 287.83 381.499 288.337C381.499 289.452 381.096 290.366 380.29 291.079C379.99 291.346 379.615 291.606 379.165 291.859C380.154 292.122 380.928 292.642 381.485 293.42C381.823 293.898 381.992 294.522 381.992 295.291C381.992 295.97 381.835 296.596 381.521 297.168C381.206 297.735 380.775 298.176 380.227 298.49C379.622 298.851 378.811 299.031 377.794 299.031ZM377.794 291.22C378.052 291.187 378.371 291.065 378.75 290.854C379.055 290.68 379.32 290.357 379.545 289.884C379.76 289.434 379.868 289.012 379.868 288.618C379.868 288.098 379.671 287.662 379.278 287.31C379.029 287.038 378.535 286.865 377.794 286.79V291.22ZM376.634 286.776H375.115V291.311H376.634V286.776ZM377.794 292.738V297.66C378.188 297.66 378.553 297.604 378.891 297.491C379.2 297.379 379.463 297.217 379.678 297.006C380.086 296.58 380.29 296.055 380.29 295.431C380.29 294.948 380.168 294.503 379.924 294.095C379.695 293.716 379.331 293.399 378.835 293.146C378.464 292.954 378.117 292.818 377.794 292.738ZM375.115 292.675V297.66H376.634V292.675H375.115Z" fill="#00F5FF"/>
<path fill-rule="evenodd" clip-rule="evenodd" d="M504 130L489 115L474 130L489 145L504 130ZM502.5 130L489 116.5L475.5 130L489 143.5L502.5 130Z" fill="#00F5FF"/>
<path d="M474.938 130.168C474.938 130.168 476.625 128.318 480.412 127.425C484.198 126.531 487.049 128.32 489.583 130.168C492.118 132.016 494.04 132.96 497.032 132.794C500.024 132.627 501.975 131.013 503.062 129.711" stroke="#00F5FF"/>
<path d="M489.358 138.395H487.994V137.031C486.372 136.938 485.268 136.553 484.682 135.878C484.096 135.203 483.804 134.455 483.804 133.635V133.551H485.575V133.635C485.575 134.165 485.725 134.598 486.025 134.936C486.33 135.273 486.986 135.503 487.994 135.625V130.893L487.453 130.682C486.192 130.176 485.346 129.644 484.914 129.086C484.488 128.523 484.275 127.848 484.275 127.061C484.275 126.442 484.408 125.877 484.675 125.366C484.943 124.851 485.334 124.427 485.85 124.094C486.37 123.761 487.085 123.538 487.994 123.426V122.027H489.358V123.426C490.657 123.52 491.531 123.831 491.981 124.361C492.436 124.886 492.663 125.444 492.663 126.034V126.126H490.898V126.034C490.898 125.711 490.767 125.446 490.504 125.24C490.242 125.034 489.86 124.888 489.358 124.804V129.613L490.104 129.873C490.694 130.103 491.231 130.384 491.714 130.717C492.201 131.045 492.539 131.423 492.726 131.849C492.914 132.276 493.007 132.719 493.007 133.178C493.007 133.755 492.871 134.322 492.6 134.88C492.332 135.433 491.948 135.897 491.446 136.272C490.95 136.647 490.254 136.9 489.358 137.031V138.395ZM487.994 129.114V124.79C487.282 124.912 486.768 125.184 486.454 125.605C486.14 126.023 485.983 126.494 485.983 127.019C485.983 127.445 486.1 127.809 486.335 128.109C486.574 128.404 487.012 128.695 487.65 128.98L487.994 129.114ZM489.358 131.385V135.583C489.883 135.517 490.27 135.384 490.518 135.182C490.771 134.98 490.964 134.723 491.095 134.409C491.231 134.09 491.299 133.759 491.299 133.417C491.299 132.991 491.182 132.632 490.947 132.341C490.718 132.046 490.329 131.781 489.78 131.547L489.358 131.385Z" fill="#00F5FF"/>
<path fill-rule="evenodd" clip-rule="evenodd" d="M458.119 265.241L443.084 250.179C443.084 250.179 444.884 248.206 448.923 247.253C452.961 246.3 456.003 248.208 458.706 250.179C461.41 252.15 463.459 253.158 466.651 252.98C469.843 252.802 471.901 251.389 473.062 250C474.222 248.611 458.119 265.241 458.119 265.241Z" fill="#03767B"/>
<path fill-rule="evenodd" clip-rule="evenodd" d="M474.084 250L458.084 234L442.084 250L458.084 266L474.084 250ZM472.484 250L458.084 235.6L443.684 250L458.084 264.4L472.484 250Z" fill="#00F5FF"/>
<path fill-rule="evenodd" clip-rule="evenodd" d="M451.084 257.435V241H452.262L463.881 255.298V241H465.084V257.435L464.485 257.967L452.286 242.831V259L451.084 257.435Z" fill="#00F5FF"/>
<path fill-rule="evenodd" clip-rule="evenodd" d="M174 278L158 262L142 278L158 294L174 278ZM172.4 278L158 263.6L143.6 278L158 292.4L172.4 278Z" fill="#00F5FF"/>
<path d="M143 278.179C143 278.179 144.8 276.206 148.839 275.253C152.878 274.3 155.919 276.208 158.622 278.179C161.326 280.15 163.376 281.158 166.567 280.98C169.759 280.802 171.84 279.081 173 277.692" stroke="#00F5FF"/>
<path d="M158.687 284.74C160.437 284.74 161.879 284.152 163.013 282.976L164.021 283.963C163.363 284.677 162.572 285.216 161.648 285.58C160.724 285.944 159.709 286.126 158.603 286.126C157.385 286.126 156.258 285.895 155.222 285.433C154.186 284.957 153.311 284.299 152.597 283.459C151.897 282.619 151.414 281.653 151.148 280.561H148.712V279.637H150.98C150.938 279.315 150.917 278.986 150.917 278.65C150.917 278.3 150.938 277.971 150.98 277.663H148.712V276.739H151.148C151.414 275.647 151.897 274.681 152.597 273.841C153.311 273.001 154.186 272.35 155.222 271.888C156.258 271.412 157.385 271.174 158.603 271.174C159.709 271.174 160.724 271.356 161.648 271.72C162.572 272.084 163.363 272.616 164.021 273.316L163.013 274.303C161.865 273.141 160.423 272.56 158.687 272.56C157.259 272.56 156.006 272.945 154.928 273.715C153.864 274.485 153.143 275.493 152.765 276.739H159.968V277.663H152.534C152.492 277.971 152.471 278.3 152.471 278.65C152.471 278.986 152.492 279.315 152.534 279.637H159.968V280.561H152.765C153.143 281.807 153.864 282.815 154.928 283.585C156.006 284.355 157.259 284.74 158.687 284.74Z" fill="#00F5FF"/>
<path fill-rule="evenodd" clip-rule="evenodd" d="M166.546 264.71C165.94 265.097 165.005 265.097 164.454 264.71C163.849 264.323 163.849 263.677 164.454 263.29C165.06 262.903 165.995 262.903 166.546 263.29C167.151 263.677 167.151 264.323 166.546 264.71Z" fill="#3365CF"/>
<path fill-rule="evenodd" clip-rule="evenodd" d="M224.581 261.71C223.967 262.097 223.019 262.097 222.46 261.71C221.847 261.323 221.847 260.677 222.46 260.29C223.074 259.903 224.023 259.903 224.581 260.29C225.14 260.677 225.14 261.323 224.581 261.71Z" fill="#3365CF"/>
<path fill-rule="evenodd" clip-rule="evenodd" d="M249.581 275.71C248.967 276.097 248.019 276.097 247.46 275.71C246.847 275.323 246.847 274.677 247.46 274.29C248.074 273.903 249.023 273.903 249.581 274.29C250.14 274.677 250.14 275.323 249.581 275.71Z" fill="#3365CF"/>
<path fill-rule="evenodd" clip-rule="evenodd" d="M134.546 216.71C133.94 217.097 133.005 217.097 132.454 216.71C131.849 216.323 131.849 215.677 132.454 215.29C133.06 214.903 133.995 214.903 134.546 215.29C135.151 215.677 135.151 216.323 134.546 216.71Z" fill="#3365CF"/>
<path fill-rule="evenodd" clip-rule="evenodd" d="M305.777 146L306 145.63L269.246 124.525V89.8696H269.171L163.223 29L163 29.3703L268.799 90.1658V124.747L268.948 124.822L305.777 146Z" fill="#3365CF"/>
<path fill-rule="evenodd" clip-rule="evenodd" d="M257.559 85H258V53.0741L257.853 53L213.221 27L213 27.4444L257.559 53.2963V85Z" fill="#3365CF"/>
<path fill-rule="evenodd" clip-rule="evenodd" d="M298.776 151L299 150.633L262.984 130.171H200.349L145.468 99H135.849L97 121.076L97.2237 121.443L135.998 99.4401H145.394L200.274 130.611H262.835L298.776 151Z" fill="#3365CF"/>
<path fill-rule="evenodd" clip-rule="evenodd" d="M351.224 150L423.582 108.276H466.698L466.773 108.202L494 92.5557V67H493.552V92.2576L466.549 107.829H423.432H423.358L351 149.627L351.224 150Z" fill="#3365CF"/>
<path fill-rule="evenodd" clip-rule="evenodd" d="M343.224 146L416.751 103.644V78.4834L443 63.3722L442.776 63L416.304 78.2601V103.421L343 145.628L343.224 146Z" fill="#3365CF"/>
<path fill-rule="evenodd" clip-rule="evenodd" d="M333.931 140L377 115.225V93.9147L376.926 93.8409L302.223 51L302 51.3687L376.554 94.1359V115.003L333.708 139.558L333.931 140Z" fill="#3365CF"/>
<path fill-rule="evenodd" clip-rule="evenodd" d="M566.604 236H566.679L596 218.954L595.776 218.578L566.53 235.549H500.203L452.305 207.69H412.688L358.224 176L358 176.451L412.613 208.14H452.23L500.129 236H566.604Z" fill="#3365CF"/>
<path fill-rule="evenodd" clip-rule="evenodd" d="M485.776 217L486 216.634L462.217 203.179H416.815L365.224 174L365 174.366L416.665 203.617H462.143L485.776 217Z" fill="#3365CF"/>
<path fill-rule="evenodd" clip-rule="evenodd" d="M388.222 188L425.75 165.462H452.418L469.778 175.846L470 175.462L452.566 165H425.602H425.528L388 187.615L388.222 188Z" fill="#3365CF"/>
<path fill-rule="evenodd" clip-rule="evenodd" d="M490.772 241L491 240.627L469.533 228.455V218H469V228.679L469.152 228.753L490.772 241Z" fill="#3365CF"/>
<path fill-rule="evenodd" clip-rule="evenodd" d="M340.783 83H358V82.5556H340.932L310.224 65L310 65.3704L340.783 83Z" fill="#3365CF"/>
<path fill-rule="evenodd" clip-rule="evenodd" d="M342 135H342.454V124.021L364 111.863V100H363.546V111.642L342 123.8V135Z" fill="#3365CF"/>
<path fill-rule="evenodd" clip-rule="evenodd" d="M222.225 262L259.575 240.776V206.361L300 183.442L299.775 183L259.125 206.14V240.555L222 261.632L222.225 262Z" fill="#3365CF"/>
<path fill-rule="evenodd" clip-rule="evenodd" d="M248.223 276L262.973 267.549V252.277L277.202 244.122V203.496L307 186.371L306.777 186L276.755 203.199V243.825L262.527 252.054V267.326L248 275.629L248.223 276Z" fill="#3365CF"/>
<path fill-rule="evenodd" clip-rule="evenodd" d="M133.222 216L144.71 209.286H169.315H169.389L213.634 183.548H252.617L252.691 183.473L277 169.373L276.778 169L252.469 183.1H213.486L169.167 208.838H144.636H144.562L133 215.627L133.222 216Z" fill="#3365CF"/>
<path fill-rule="evenodd" clip-rule="evenodd" d="M158.225 198L173.834 189.429H204V189H173.684L158 197.643L158.225 198Z" fill="#3365CF"/>
<path fill-rule="evenodd" clip-rule="evenodd" d="M166.223 265L223.396 231.996V214.789L290 176.371L289.777 176L222.951 214.493V231.773L166 264.629L166.223 265Z" fill="#3365CF"/>
<path fill-rule="evenodd" clip-rule="evenodd" d="M291.776 154L292 153.632L266.125 138.828H193.57L141.224 109L141 109.368L193.421 139.27H265.976L291.776 154Z" fill="#3365CF"/>
<path fill-rule="evenodd" clip-rule="evenodd" d="M233.727 149H233.803H233.879L249 140.375L248.772 140L233.651 148.55H193V149H233.727Z" fill="#3365CF"/>
<path fill-rule="evenodd" clip-rule="evenodd" d="M340 301H340.446V276.937L398 243.869V217.297L397.851 217.223L343.416 186L343.193 186.369L397.554 217.592V243.648L340 276.642V301Z" fill="#3365CF"/>
<path fill-rule="evenodd" clip-rule="evenodd" d="M328.226 271L348.308 259.45H372V259H348.157L328 270.625L328.226 271Z" fill="#3365CF"/>
<path fill-rule="evenodd" clip-rule="evenodd" d="M375.434 213.415L335.29 190.381L335.289 190.381L375.433 213.416L375.434 213.415Z" fill="#3365CF"/>
<path fill-rule="evenodd" clip-rule="evenodd" d="M291 272H291.462V203.642L315 190.45L314.769 190L291 203.417V272Z" fill="#3365CF"/>
<path fill-rule="evenodd" clip-rule="evenodd" d="M303.524 261H304V237.772L303.841 237.699L291.317 231L291 231.364L303.524 237.99V261Z" fill="#3365CF"/>
<path fill-rule="evenodd" clip-rule="evenodd" d="M143.224 177L179.246 156.091H234.882L253.304 145.45H262.179L284.776 158.564L285 158.19L262.253 145H253.154L234.733 155.642H179.097V155.717L143 176.625L143.224 177Z" fill="#3365CF"/>
<path fill-rule="evenodd" clip-rule="evenodd" d="M373.437 222H388V221.557H373.512L327.223 195L327 195.369L373.437 222Z" fill="#3365CF"/>
<path fill-rule="evenodd" clip-rule="evenodd" d="M349.698 232L350 231.627L311.453 209.722V200.855L322.791 194.373L322.564 194L311 200.557V209.945L311.151 210.02L349.698 232Z" fill="#3365CF"/>
<path fill-rule="evenodd" clip-rule="evenodd" d="M351.772 225L352 224.635L334.67 215H320V215.438H334.518L351.772 225Z" fill="#3365CF"/>
<path fill-rule="evenodd" clip-rule="evenodd" d="M351.776 248L352 247.624L334.496 237.485V229.298L334.346 229.223L314.524 217.732V213H314V217.957L314.15 218.032L334.047 229.524V237.71L334.122 237.785L351.776 248Z" fill="#3365CF"/>
<path fill-rule="evenodd" clip-rule="evenodd" d="M352.581 226.71C351.967 227.097 351.019 227.097 350.46 226.71C349.847 226.323 349.847 225.677 350.46 225.29C351.074 224.903 352.023 224.903 352.581 225.29C353.14 225.677 353.14 226.323 352.581 226.71Z" fill="#3365CF"/>
<path fill-rule="evenodd" clip-rule="evenodd" d="M349.581 232.71C348.967 233.097 348.019 233.097 347.46 232.71C346.847 232.323 346.847 231.677 347.46 231.29C348.074 230.903 349.023 230.903 349.581 231.29C350.14 231.677 350.14 232.323 349.581 232.71Z" fill="#3365CF"/>
<path fill-rule="evenodd" clip-rule="evenodd" d="M310.581 228.71C309.967 229.097 309.019 229.097 308.46 228.71C307.847 228.323 307.847 227.677 308.46 227.29C309.074 226.903 310.023 226.903 310.581 227.29C311.14 227.677 311.14 228.323 310.581 228.71Z" fill="#3365CF"/>
<path fill-rule="evenodd" clip-rule="evenodd" d="M224.546 167.71C223.94 168.097 223.005 168.097 222.454 167.71C221.849 167.323 221.849 166.677 222.454 166.29C223.06 165.903 223.995 165.903 224.546 166.29C225.151 166.677 225.151 167.323 224.546 167.71Z" fill="#3365CF"/>
<path fill-rule="evenodd" clip-rule="evenodd" d="M169.581 180.71C168.967 181.097 168.019 181.097 167.46 180.71C166.847 180.323 166.847 179.677 167.46 179.29C168.074 178.903 169.023 178.903 169.581 179.29C170.14 179.677 170.14 180.323 169.581 180.71Z" fill="#3365CF"/>
<path fill-rule="evenodd" clip-rule="evenodd" d="M242.581 159.71C241.967 160.097 241.019 160.097 240.46 159.71C239.847 159.323 239.847 158.677 240.46 158.29C241.074 157.903 242.023 157.903 242.581 158.29C243.14 158.677 243.14 159.323 242.581 159.71Z" fill="#3365CF"/>
<path fill-rule="evenodd" clip-rule="evenodd" d="M248.546 173.71C247.94 174.097 247.005 174.097 246.454 173.71C245.849 173.323 245.849 172.677 246.454 172.29C247.06 171.903 247.995 171.903 248.546 172.29C249.151 172.677 249.151 173.323 248.546 173.71Z" fill="#3365CF"/>
<path fill-rule="evenodd" clip-rule="evenodd" d="M328.546 269.71C327.94 270.097 327.005 270.097 326.454 269.71C325.849 269.323 325.849 268.677 326.454 268.29C327.06 267.903 327.995 267.903 328.546 268.29C329.151 268.677 329.151 269.323 328.546 269.71Z" fill="#3365CF"/>
<path fill-rule="evenodd" clip-rule="evenodd" d="M428.546 253.71C427.94 254.097 427.005 254.097 426.454 253.71C425.849 253.323 425.849 252.677 426.454 252.29C427.06 251.903 427.995 251.903 428.546 252.29C429.151 252.677 429.151 253.323 428.546 253.71Z" fill="#3365CF"/>
<path fill-rule="evenodd" clip-rule="evenodd" d="M193.581 148.71C192.967 149.097 192.019 149.097 191.46 148.71C190.847 148.323 190.847 147.677 191.46 147.29C192.074 146.903 193.023 146.903 193.581 147.29C194.14 147.677 194.14 148.323 193.581 148.71Z" fill="#3365CF"/>
<path fill-rule="evenodd" clip-rule="evenodd" d="M141.546 110.71C140.94 111.097 140.005 111.097 139.454 110.71C138.849 110.323 138.849 109.677 139.454 109.29C140.06 108.903 140.995 108.903 141.546 109.29C142.151 109.677 142.151 110.258 141.546 110.71Z" fill="#3365CF"/>
<path fill-rule="evenodd" clip-rule="evenodd" d="M352.581 247.71C351.967 248.097 351.019 248.097 350.46 247.71C349.847 247.323 349.847 246.677 350.46 246.29C351.074 245.903 352.023 245.903 352.581 246.29C353.14 246.677 353.14 247.323 352.581 247.71Z" fill="#3365CF"/>
<path fill-rule="evenodd" clip-rule="evenodd" d="M304.581 262.71C303.967 263.097 303.019 263.097 302.46 262.71C301.847 262.323 301.847 261.677 302.46 261.29C303.074 260.903 304.023 260.903 304.581 261.29C305.14 261.677 305.14 262.323 304.581 262.71Z" fill="#3365CF"/>
<path fill-rule="evenodd" clip-rule="evenodd" d="M292.546 272.71C291.94 273.097 291.005 273.097 290.454 272.71C289.849 272.323 289.849 271.677 290.454 271.29C291.06 270.903 291.995 270.903 292.546 271.29C293.151 271.677 293.151 272.323 292.546 272.71Z" fill="#3365CF"/>
<path fill-rule="evenodd" clip-rule="evenodd" d="M159.546 198.71C158.94 199.097 158.005 199.097 157.454 198.71C156.849 198.323 156.849 197.677 157.454 197.29C158.06 196.903 158.995 196.903 159.546 197.29C160.151 197.677 160.151 198.323 159.546 198.71Z" fill="#3365CF"/>
<path fill-rule="evenodd" clip-rule="evenodd" d="M195.546 213.71C194.94 214.097 194.005 214.097 193.454 213.71C192.849 213.323 192.849 212.677 193.454 212.29C194.06 211.903 194.995 211.903 195.546 212.29C196.151 212.677 196.151 213.323 195.546 213.71Z" fill="#3365CF"/>
<path fill-rule="evenodd" clip-rule="evenodd" d="M144.546 176.71C143.94 177.097 143.005 177.097 142.454 176.71C141.849 176.323 141.849 175.677 142.454 175.29C143.06 174.903 143.995 174.903 144.546 175.29C145.151 175.677 145.151 176.323 144.546 176.71Z" fill="#3365CF"/>
<path fill-rule="evenodd" clip-rule="evenodd" d="M390.581 222.71C389.967 223.097 389.019 223.097 388.46 222.71C387.847 222.323 387.847 221.677 388.46 221.29C389.074 220.903 390.023 220.903 390.581 221.29C391.14 221.677 391.14 222.258 390.581 222.71Z" fill="#3365CF"/>
<path fill-rule="evenodd" clip-rule="evenodd" d="M470.546 175.71C469.94 176.097 469.005 176.097 468.454 175.71C467.849 175.323 467.849 174.677 468.454 174.29C469.06 173.903 469.995 173.903 470.546 174.29C471.151 174.677 471.151 175.323 470.546 175.71Z" fill="#3365CF"/>
<path fill-rule="evenodd" clip-rule="evenodd" d="M435.546 147.71C434.94 148.097 434.005 148.097 433.454 147.71C432.849 147.323 432.849 146.677 433.454 146.29C434.06 145.903 434.995 145.903 435.546 146.29C436.151 146.677 436.151 147.258 435.546 147.71Z" fill="#3365CF"/>
<path fill-rule="evenodd" clip-rule="evenodd" d="M417.546 156.71C416.94 157.097 416.005 157.097 415.454 156.71C414.849 156.323 414.849 155.677 415.454 155.29C416.06 154.903 416.995 154.903 417.546 155.29C418.151 155.677 418.151 156.323 417.546 156.71Z" fill="#3365CF"/>
<path fill-rule="evenodd" clip-rule="evenodd" d="M397.546 140.71C396.94 141.097 396.005 141.097 395.454 140.71C394.849 140.323 394.849 139.677 395.454 139.29C396.06 138.903 396.995 138.903 397.546 139.29C398.151 139.742 398.151 140.323 397.546 140.71Z" fill="#3365CF"/>
<path fill-rule="evenodd" clip-rule="evenodd" d="M364.546 101.71C363.94 102.097 363.005 102.097 362.454 101.71C361.849 101.323 361.849 100.677 362.454 100.29C363.06 99.9032 363.995 99.9032 364.546 100.29C365.151 100.677 365.151 101.323 364.546 101.71Z" fill="#3365CF"/>
<path fill-rule="evenodd" clip-rule="evenodd" d="M495.546 68.7097C494.94 69.0968 494.005 69.0968 493.454 68.7097C492.849 68.3226 492.849 67.6774 493.454 67.2903C494.06 66.9032 494.995 66.9032 495.546 67.2903C496.151 67.6774 496.151 68.3226 495.546 68.7097Z" fill="#3365CF"/>
<path fill-rule="evenodd" clip-rule="evenodd" d="M443.581 64.7097C442.967 65.0968 442.019 65.0968 441.46 64.7097C440.847 64.3226 440.847 63.6774 441.46 63.2903C442.074 62.9032 443.023 62.9032 443.581 63.2903C444.14 63.6774 444.14 64.3226 443.581 64.7097Z" fill="#3365CF"/>
<path fill-rule="evenodd" clip-rule="evenodd" d="M339.581 103.71C338.967 104.097 338.019 104.097 337.46 103.71C336.847 103.323 336.847 102.677 337.46 102.29C338.074 101.903 339.023 101.903 339.581 102.29C340.14 102.677 340.14 103.323 339.581 103.71Z" fill="#3365CF"/>
<path fill-rule="evenodd" clip-rule="evenodd" d="M337.581 89.7097C336.967 90.0968 336.019 90.0968 335.46 89.7097C334.847 89.3226 334.847 88.6774 335.46 88.2903C336.074 87.9032 337.023 87.9032 337.581 88.2903C338.14 88.6774 338.14 89.3226 337.581 89.7097Z" fill="#3365CF"/>
<path fill-rule="evenodd" clip-rule="evenodd" d="M297.581 72.7097C296.967 73.0968 296.019 73.0968 295.46 72.7097C294.847 72.3226 294.847 71.6774 295.46 71.2903C296.074 70.9032 297.023 70.9032 297.581 71.2903C298.14 71.6774 298.14 72.3226 297.581 72.7097Z" fill="#3365CF"/>
<path fill-rule="evenodd" clip-rule="evenodd" d="M311.581 66.7097C310.967 67.0968 310.019 67.0968 309.46 66.7097C308.847 66.3226 308.847 65.6774 309.46 65.2903C310.074 64.9032 311.023 64.9032 311.581 65.2903C312.14 65.6774 312.14 66.3226 311.581 66.7097Z" fill="#3365CF"/>
<path fill-rule="evenodd" clip-rule="evenodd" d="M302.581 51.7097C301.967 52.0968 301.019 52.0968 300.46 51.7097C299.847 51.3226 299.847 50.6774 300.46 50.2903C301.074 49.9032 302.023 49.9032 302.581 50.2903C303.14 50.6774 303.14 51.3226 302.581 51.7097Z" fill="#3365CF"/>
<path fill-rule="evenodd" clip-rule="evenodd" d="M390.581 173.71C389.967 174.097 389.019 174.097 388.46 173.71C387.847 173.323 387.847 172.677 388.46 172.29C389.074 171.903 390.023 171.903 390.581 172.29C391.14 172.742 391.14 173.323 390.581 173.71Z" fill="#3365CF"/>
<path fill-rule="evenodd" clip-rule="evenodd" d="M293.546 124.71C292.94 125.097 292.005 125.097 291.454 124.71C290.849 124.323 290.849 123.677 291.454 123.29C292.06 122.903 292.995 122.903 293.546 123.29C294.151 123.677 294.151 124.258 293.546 124.71Z" fill="#3365CF"/>
<path fill-rule="evenodd" clip-rule="evenodd" d="M212.581 95.7097C211.967 96.0968 211.019 96.0968 210.46 95.7097C209.847 95.3226 209.847 94.6774 210.46 94.2903C211.074 93.9032 212.023 93.9032 212.581 94.2903C213.14 94.6774 213.14 95.3226 212.581 95.7097Z" fill="#3365CF"/>
<path fill-rule="evenodd" clip-rule="evenodd" d="M150.546 65.7097C149.94 66.0968 149.005 66.0968 148.454 65.7097C147.849 65.3226 147.849 64.6774 148.454 64.2903C149.06 63.9032 149.995 63.9032 150.546 64.2903C151.151 64.6774 151.151 65.3226 150.546 65.7097Z" fill="#3365CF"/>
<path fill-rule="evenodd" clip-rule="evenodd" d="M170.546 60.7097C169.94 61.0968 169.005 61.0968 168.454 60.7097C167.849 60.3226 167.849 59.6774 168.454 59.2903C169.06 58.9032 169.995 58.9032 170.546 59.2903C171.151 59.6774 171.151 60.3226 170.546 60.7097Z" fill="#3365CF"/>
<path fill-rule="evenodd" clip-rule="evenodd" d="M423.546 175.71C422.94 176.097 422.005 176.097 421.454 175.71C420.849 175.323 420.849 174.677 421.454 174.29C422.06 173.903 422.995 173.903 423.546 174.29C424.151 174.677 424.151 175.323 423.546 175.71Z" fill="#3365CF"/>
<path fill-rule="evenodd" clip-rule="evenodd" d="M491.581 241.71C490.967 242.097 490.019 242.097 489.46 241.71C488.847 241.323 488.847 240.677 489.46 240.29C490.074 239.903 491.023 239.903 491.581 240.29C492.14 240.742 492.14 241.323 491.581 241.71Z" fill="#3365CF"/>
<path fill-rule="evenodd" clip-rule="evenodd" d="M518.581 169.71C517.967 170.097 517.019 170.097 516.46 169.71C515.847 169.323 515.847 168.677 516.46 168.29C517.074 167.903 518.023 167.903 518.581 168.29C519.14 168.677 519.14 169.258 518.581 169.71Z" fill="#3365CF"/>
<path fill-rule="evenodd" clip-rule="evenodd" d="M486.546 216.71C485.94 217.097 485.005 217.097 484.454 216.71C483.849 216.323 483.849 215.677 484.454 215.29C485.06 214.903 485.995 214.903 486.546 215.29C487.151 215.677 487.151 216.323 486.546 216.71Z" fill="#3365CF"/>
<path fill-rule="evenodd" clip-rule="evenodd" d="M375.546 213.71C374.94 214.097 374.005 214.097 373.454 213.71C372.849 213.323 372.849 212.677 373.454 212.29C374.06 211.903 374.995 211.903 375.546 212.29C376.151 212.742 376.151 213.323 375.546 213.71Z" fill="#3365CF"/>
<path fill-rule="evenodd" clip-rule="evenodd" d="M308.933 228.513L292.09 218.843L292.089 218.844L308.932 228.514L308.933 228.513Z" fill="#3365CF"/>
<path fill-rule="evenodd" clip-rule="evenodd" d="M371 177H381.041H381.118L390 172.347L389.768 172L380.886 176.583H371V177Z" fill="#3365CF"/>
<path fill-rule="evenodd" clip-rule="evenodd" d="M434.778 145L435 144.654L411.554 132H395.652L395.579 132.069L374.943 143.202H362V143.617H375.091L375.165 143.548L395.8 132.415H411.48L434.778 145Z" fill="#3365CF"/>
<path fill-rule="evenodd" clip-rule="evenodd" d="M373.228 163L397.278 150.415H405.193L415.772 155.947L416 155.601L405.345 150H397.202H397.126L373 162.654L373.228 163Z" fill="#3365CF"/>
<path fill-rule="evenodd" clip-rule="evenodd" d="M380 160H380.432V150.534L397 140.382L396.784 140L380 150.229V160Z" fill="#3365CF"/>
<path fill-rule="evenodd" clip-rule="evenodd" d="M243.645 179H261V178.547H243.792L224.222 167L224 167.377L243.645 179Z" fill="#3365CF"/>
<path fill-rule="evenodd" clip-rule="evenodd" d="M516.777 300L517 299.626L456.88 264.652V242.41H456.805L351.223 181L351 181.374L456.433 242.709V264.877L456.582 264.952L516.777 300Z" fill="#3365CF"/>
<path fill-rule="evenodd" clip-rule="evenodd" d="M241.222 160L256.082 151.443H261.996L269.907 155.943H279V155.5H269.981L262.07 151H255.934H255.86L241 159.557L241.222 160Z" fill="#3365CF"/>
<path fill-rule="evenodd" clip-rule="evenodd" d="M311.932 143L312.158 142.629L283.452 126.299V107.816L316 89.2598V82.2825L315.925 82.2082L296.11 71L295.884 71.3711L315.548 82.5794V88.9629L283 107.52V126.596L283.075 126.67L311.932 143Z" fill="#3365CF"/>
<path fill-rule="evenodd" clip-rule="evenodd" d="M305.532 140H306V131.429H305.922L294.234 125L294 125.369L305.532 131.724V140Z" fill="#3365CF"/>
<path fill-rule="evenodd" clip-rule="evenodd" d="M246.776 131L247 130.551L179.389 91.4898V81.3129L179.24 81.2381L151.224 65L151 65.3741L178.941 81.5374V91.7143L179.016 91.7891L246.776 131Z" fill="#3365CF"/>
<path fill-rule="evenodd" clip-rule="evenodd" d="M220.556 102H221V89.7898L220.926 89.7163L169.222 60L169 60.4413L220.556 90.0105V102Z" fill="#3365CF"/>
<path fill-rule="evenodd" clip-rule="evenodd" d="M261.78 130L262 129.622L228.586 109.665V105.356L228.44 105.281L211.22 95L211 95.4536L228.147 105.583V109.968L228.22 110.043L261.78 130Z" fill="#3365CF"/>
<path fill-rule="evenodd" clip-rule="evenodd" d="M427.784 253L428 252.633L408.643 241.264V228.501L399.216 223L399 223.367L408.211 228.795V241.484L408.355 241.557L427.784 253Z" fill="#3365CF"/>
<path fill-rule="evenodd" clip-rule="evenodd" d="M396 183H409.279L409.352 182.929L423 175.425L422.779 175L409.205 182.575H396V183Z" fill="#3365CF"/>
<path fill-rule="evenodd" clip-rule="evenodd" d="M469.276 200H469.35H469.425L518 171.379L517.777 171L469.202 199.546H408V200H469.276Z" fill="#3365CF"/>
<path fill-rule="evenodd" clip-rule="evenodd" d="M320 139H320.446V115.593L340 104.367L339.777 104L320 115.3V139Z" fill="#3365CF"/>
<path fill-rule="evenodd" clip-rule="evenodd" d="M318.896 124L319.125 123.632L304.458 115.46V106.479L337 88.4417L336.771 88L304 106.258V115.681L304.153 115.755L318.896 124Z" fill="#3365CF"/>
<path fill-rule="evenodd" clip-rule="evenodd" d="M195.225 214L231.314 193.445H262V193H231.163H231.088L195 213.629L195.225 214Z" fill="#3365CF"/>
<path fill-rule="evenodd" clip-rule="evenodd" d="M190.58 181V180.915L200.294 174.512H235V174H200.22H200.146L190.431 180.488H169V181H190.58Z" fill="#3365CF"/>
<path fill-rule="evenodd" clip-rule="evenodd" d="M248.218 173L264.104 163.455H276V163H263.959H263.886L248 172.621L248.218 173Z" fill="#3365CF"/>
<path fill-rule="evenodd" clip-rule="evenodd" d="M447.778 300L448 299.631L424.211 285.975V265.454L424.137 265.38L392.222 247L392 247.369L423.768 265.675V286.196L423.916 286.27L447.778 300Z" fill="#3365CF"/>
<defs>
<linearGradient id="paint0_linear" x1="-198.457" y1="171.962" x2="-118.434" y2="450.869" gradientUnits="userSpaceOnUse">
<stop stop-color="#17183A"/>
<stop offset="1" stop-color="#171839"/>
</linearGradient>
<linearGradient id="paint1_linear" x1="253.962" y1="312.465" x2="258.035" y2="262.044" gradientUnits="userSpaceOnUse">
<stop stop-color="#EDD749"/>
<stop offset="0.584338" stop-color="#7A4598"/>
<stop offset="1" stop-color="#510AA6"/>
</linearGradient>
<linearGradient id="paint2_linear" x1="354.878" y1="356.375" x2="426.254" y2="155.177" gradientUnits="userSpaceOnUse">
<stop stop-color="#EDD749"/>
<stop offset="0.584338" stop-color="#7A4598"/>
<stop offset="1" stop-color="#510AA6"/>
</linearGradient>
<linearGradient id="paint3_linear" x1="355.074" y1="347.68" x2="426.828" y2="145.219" gradientUnits="userSpaceOnUse">
<stop stop-color="#EDD749"/>
<stop offset="0.584338" stop-color="#7A4598"/>
<stop offset="1" stop-color="#510AA6"/>
</linearGradient>
<linearGradient id="paint4_linear" x1="322.098" y1="-4.92543" x2="159.527" y2="308.347" gradientUnits="userSpaceOnUse">
<stop stop-color="#EDD749"/>
<stop offset="0.584338" stop-color="#7A4598"/>
<stop offset="1" stop-color="#510AA6"/>
</linearGradient>
<linearGradient id="paint5_linear" x1="192.18" y1="237.567" x2="198.185" y2="225.667" gradientUnits="userSpaceOnUse">
<stop stop-color="#EDD749"/>
<stop offset="0.584338" stop-color="#7A4598"/>
<stop offset="1" stop-color="#510AA6"/>
</linearGradient>
<linearGradient id="paint6_linear" x1="450.152" y1="189.07" x2="464.931" y2="151.688" gradientUnits="userSpaceOnUse">
<stop stop-color="#EDD749"/>
<stop offset="0.584338" stop-color="#7A4598"/>
<stop offset="1" stop-color="#510AA6"/>
</linearGradient>
<linearGradient id="paint7_linear" x1="229.006" y1="197.701" x2="278.542" y2="282.875" gradientUnits="userSpaceOnUse">
<stop stop-color="#8D139B"/>
<stop offset="0.1651" stop-color="#851BA1"/>
<stop offset="0.4284" stop-color="#6E33B2"/>
<stop offset="0.7551" stop-color="#4958CD"/>
<stop offset="1" stop-color="#2979E4"/>
</linearGradient>
<linearGradient id="paint8_linear" x1="355.077" y1="331.443" x2="426.97" y2="129.011" gradientUnits="userSpaceOnUse">
<stop stop-color="#EDD749"/>
<stop offset="0.584338" stop-color="#7A4598"/>
<stop offset="1" stop-color="#510AA6"/>
</linearGradient>
<linearGradient id="paint9_linear" x1="392.996" y1="331.361" x2="487.43" y2="153.537" gradientUnits="userSpaceOnUse">
<stop stop-color="#EDD749"/>
<stop offset="0.584338" stop-color="#7A4598"/>
<stop offset="1" stop-color="#510AA6"/>
</linearGradient>
<radialGradient id="paint10_radial" cx="0" cy="0" r="1" gradientUnits="userSpaceOnUse" gradientTransform="translate(407.201 139.234) rotate(30.1857) scale(33.5265 29.1491)">
<stop offset="0.0107527" stop-color="#2C35A2"/>
<stop offset="0.1635" stop-color="#252C88"/>
<stop offset="0.3975" stop-color="#1B2167"/>
<stop offset="0.621" stop-color="#15194F"/>
<stop offset="0.8273" stop-color="#101540"/>
<stop offset="1" stop-color="#0F133B"/>
</radialGradient>
<linearGradient id="paint11_linear" x1="351.824" y1="233.08" x2="356.653" y2="219.699" gradientUnits="userSpaceOnUse">
<stop stop-color="#EDD749"/>
<stop offset="0.584338" stop-color="#7A4598"/>
<stop offset="1" stop-color="#510AA6"/>
</linearGradient>
<linearGradient id="paint12_linear" x1="373.451" y1="220.454" x2="378.28" y2="207.073" gradientUnits="userSpaceOnUse">
<stop stop-color="#EDD749"/>
<stop offset="0.584338" stop-color="#7A4598"/>
<stop offset="1" stop-color="#510AA6"/>
</linearGradient>
<linearGradient id="paint13_linear" x1="426.683" y1="186.639" x2="377.324" y2="73.7278" gradientUnits="userSpaceOnUse">
<stop stop-color="#1E1E46"/>
<stop offset="1" stop-color="#3E3E86"/>
</linearGradient>
<linearGradient id="paint14_linear" x1="355.884" y1="345.914" x2="509.763" y2="156.631" gradientUnits="userSpaceOnUse">
<stop stop-color="#EDD749"/>
<stop offset="0.584338" stop-color="#7A4598"/>
<stop offset="1" stop-color="#510AA6"/>
</linearGradient>
<linearGradient id="paint15_linear" x1="-198.457" y1="171.962" x2="-118.434" y2="450.869" gradientUnits="userSpaceOnUse">
<stop stop-color="#17183A"/>
<stop offset="1" stop-color="#171839"/>
</linearGradient>
<linearGradient id="paint16_linear" x1="368.691" y1="351.895" x2="481.131" y2="145.651" gradientUnits="userSpaceOnUse">
<stop stop-color="#6121A1"/>
<stop offset="1" stop-color="#00AEFF"/>
</linearGradient>
<linearGradient id="paint17_linear" x1="263.086" y1="132.912" x2="199.301" y2="296.118" gradientUnits="userSpaceOnUse">
<stop stop-color="#6121A1"/>
<stop offset="1" stop-color="#00AEFF"/>
</linearGradient>
<linearGradient id="paint18_linear" x1="240.056" y1="197.47" x2="218.516" y2="281.062" gradientUnits="userSpaceOnUse">
<stop stop-color="#6121A1"/>
<stop offset="1" stop-color="#00AEFF"/>
</linearGradient>
<linearGradient id="paint19_linear" x1="369.393" y1="338.637" x2="481.214" y2="133.727" gradientUnits="userSpaceOnUse">
<stop stop-color="#6121A1"/>
<stop offset="1" stop-color="#00AEFF"/>
</linearGradient>
<linearGradient id="paint20_linear" x1="192.853" y1="237.057" x2="201.343" y2="226.12" gradientUnits="userSpaceOnUse">
<stop stop-color="#6121A1"/>
<stop offset="1" stop-color="#00AEFF"/>
</linearGradient>
<linearGradient id="paint21_linear" x1="452.637" y1="187.593" x2="475.167" y2="150.55" gradientUnits="userSpaceOnUse">
<stop stop-color="#6121A1"/>
<stop offset="1" stop-color="#00AEFF"/>
</linearGradient>
<linearGradient id="paint22_linear" x1="229.006" y1="197.701" x2="278.542" y2="282.875" gradientUnits="userSpaceOnUse">
<stop stop-color="#8D139B"/>
<stop offset="0.1651" stop-color="#851BA1"/>
<stop offset="0.4284" stop-color="#6E33B2"/>
<stop offset="0.7551" stop-color="#4958CD"/>
<stop offset="1" stop-color="#2979E4"/>
</linearGradient>
<linearGradient id="paint23_linear" x1="369.667" y1="323.655" x2="482.271" y2="117.543" gradientUnits="userSpaceOnUse">
<stop stop-color="#6121A1"/>
<stop offset="1" stop-color="#00AEFF"/>
</linearGradient>
<linearGradient id="paint24_linear" x1="284.059" y1="241.346" x2="284.059" y2="290.281" gradientUnits="userSpaceOnUse">
<stop stop-color="#6121A1"/>
<stop offset="1" stop-color="#00AEFF"/>
</linearGradient>
<radialGradient id="paint25_radial" cx="0" cy="0" r="1" gradientUnits="userSpaceOnUse" gradientTransform="translate(407.201 139.234) rotate(30.1857) scale(33.5265 29.1491)">
<stop offset="0.0107527" stop-color="#2C35A2"/>
<stop offset="0.1635" stop-color="#252C88"/>
<stop offset="0.3975" stop-color="#1B2167"/>
<stop offset="0.621" stop-color="#15194F"/>
<stop offset="0.8273" stop-color="#101540"/>
<stop offset="1" stop-color="#0F133B"/>
</radialGradient>
<linearGradient id="paint26_linear" x1="352.776" y1="232.564" x2="360.311" y2="218.991" gradientUnits="userSpaceOnUse">
<stop stop-color="#6121A1"/>
<stop offset="1" stop-color="#00AEFF"/>
</linearGradient>
<linearGradient id="paint27_linear" x1="374.404" y1="219.938" x2="381.938" y2="206.365" gradientUnits="userSpaceOnUse">
<stop stop-color="#6121A1"/>
<stop offset="1" stop-color="#00AEFF"/>
</linearGradient>
<linearGradient id="paint28_linear" x1="368.37" y1="334.781" x2="535.322" y2="127.694" gradientUnits="userSpaceOnUse">
<stop stop-color="#6121A1"/>
<stop offset="1" stop-color="#00AEFF"/>
</linearGradient>
<linearGradient id="paint29_linear" x1="364.674" y1="335.174" x2="544.697" y2="191.221" gradientUnits="userSpaceOnUse">
<stop stop-color="#6121A1"/>
<stop offset="1" stop-color="#00AEFF"/>
</linearGradient>
<linearGradient id="paint30_linear" x1="322.443" y1="283.141" x2="492.435" y2="164.9" gradientUnits="userSpaceOnUse">
<stop stop-color="#6121A1"/>
<stop offset="1" stop-color="#00AEFF"/>
</linearGradient>
</defs>
</svg>
