<svg width="641" height="374" viewBox="0 0 641 374" fill="none" xmlns="http://www.w3.org/2000/svg">
<path fill-rule="evenodd" clip-rule="evenodd" d="M2.3095 202.691C2.3095 202.691 -6.47175 120.691 42.5282 129.691C91.5282 138.691 167.927 128.691 199.227 115.691C230.528 102.691 234.884 78.6908 280.243 70.6908C325.602 62.6908 418.528 28.6908 441.528 47.6908C464.528 66.6908 481.253 98.2908 510.328 115.691C539.404 133.091 602.528 139.667 625.528 159.679C648.528 179.691 638.528 221.527 638.528 230.831C638.528 240.136 577.528 302.667 561.528 309.128C545.528 315.589 424.77 294.816 412.149 309.128C399.528 323.441 312.669 342.777 306.192 342.777C299.716 342.777 91.7079 344.402 82.1181 330.644C72.5282 316.886 2.3095 202.691 2.3095 202.691Z" fill="url(#paint0_linear)"/>
<path opacity="0.266369" fill-rule="evenodd" clip-rule="evenodd" d="M35 42C35 35.9249 39.9249 31 46 31H213C219.075 31 224 35.9249 224 42V356C224 362.075 219.075 367 213 367H46C39.9249 367 35 362.075 35 356L35 42Z" fill="#454588"/>
<mask id="mask0" mask-type="alpha" maskUnits="userSpaceOnUse" x="35" y="31" width="189" height="336">
<path fill-rule="evenodd" clip-rule="evenodd" d="M35 42C35 35.9249 39.9249 31 46 31H213C219.075 31 224 35.9249 224 42V356C224 362.075 219.075 367 213 367H46C39.9249 367 35 362.075 35 356L35 42Z" fill="white"/>
</mask>
<g mask="url(#mask0)">
<path opacity="0.107631" fill-rule="evenodd" clip-rule="evenodd" d="M-97.6801 283.088C-97.6801 283.088 -41.2099 244.09 7.25391 253C55.7177 261.91 66.1249 209.826 97.0831 196.956C128.041 184.086 143.477 123.92 188.34 116C233.203 108.08 303.752 29.5098 326.5 48.3203C349.248 67.1308 376.022 179.729 404.78 196.956C433.537 214.182 495.971 220.693 518.719 240.505C541.468 260.318 531.577 301.736 531.577 310.948C531.577 320.16 471.244 382.068 455.42 388.464C439.595 394.861 320.158 374.295 307.675 388.464C295.192 402.634 209.283 421.777 202.878 421.777C196.472 421.777 -9.25987 423.386 -18.7448 409.765C-28.2297 396.145 -97.6801 283.088 -97.6801 283.088Z" fill="url(#paint1_linear)"/>
</g>
<path opacity="0.266369" fill-rule="evenodd" clip-rule="evenodd" d="M430 42C430 35.9249 434.925 31 441 31H608C614.075 31 619 35.9249 619 42V356C619 362.075 614.075 367 608 367H441C434.925 367 430 362.075 430 356V42Z" fill="#454588"/>
<mask id="mask1" mask-type="alpha" maskUnits="userSpaceOnUse" x="430" y="31" width="189" height="336">
<path fill-rule="evenodd" clip-rule="evenodd" d="M430 42C430 35.9249 434.925 31 441 31H608C614.075 31 619 35.9249 619 42V356C619 362.075 614.075 367 608 367H441C434.925 367 430 362.075 430 356V42Z" fill="white"/>
</mask>
<g mask="url(#mask1)">
<path opacity="0.107631" fill-rule="evenodd" clip-rule="evenodd" d="M297.32 283.088C297.32 283.088 353.79 244.09 402.254 253C450.718 261.91 461.125 209.826 492.083 196.956C523.041 184.086 538.477 123.92 583.34 116C628.203 108.08 698.752 29.5098 721.5 48.3203C744.248 67.1308 771.022 179.729 799.78 196.956C828.537 214.182 890.971 220.693 913.719 240.505C936.468 260.318 926.577 301.736 926.577 310.948C926.577 320.16 866.244 382.068 850.42 388.464C834.595 394.861 715.158 374.295 702.675 388.464C690.192 402.634 604.283 421.777 597.878 421.777C591.472 421.777 385.74 423.386 376.255 409.765C366.77 396.145 297.32 283.088 297.32 283.088Z" fill="url(#paint2_linear)"/>
</g>
<path opacity="0.266369" fill-rule="evenodd" clip-rule="evenodd" d="M430 213H619V356C619 362.075 614.075 367 608 367H441C434.925 367 430 362.075 430 356V213Z" fill="#454588"/>
<mask id="mask2" mask-type="alpha" maskUnits="userSpaceOnUse" x="430" y="213" width="189" height="154">
<path fill-rule="evenodd" clip-rule="evenodd" d="M430 213H619V356C619 362.075 614.075 367 608 367H441C434.925 367 430 362.075 430 356V213Z" fill="white"/>
</mask>
<g mask="url(#mask2)">
<path opacity="0.107631" fill-rule="evenodd" clip-rule="evenodd" d="M298 328.232C298 328.232 354.435 310.308 402.868 314.403C451.301 318.498 461.702 294.561 492.641 288.645C523.58 282.73 539.005 255.078 583.84 251.438C628.675 247.798 699.18 211.687 721.914 220.333C744.648 228.978 771.405 280.728 800.144 288.645C828.884 296.563 891.278 299.555 914.012 308.661C936.746 317.766 926.862 336.802 926.862 341.036C926.862 345.27 866.567 373.723 850.752 376.662C834.937 379.602 715.576 370.15 703.101 376.662C690.625 383.175 604.77 391.973 598.369 391.973C591.967 391.973 386.365 392.712 376.886 386.452C367.407 380.192 298 328.232 298 328.232Z" fill="url(#paint3_linear)"/>
</g>
<path opacity="0.266369" fill-rule="evenodd" clip-rule="evenodd" d="M35 42C35 35.9249 39.9249 31 46 31H213C219.075 31 224 35.9249 224 42V92H35V42Z" fill="#454588"/>
<mask id="mask3" mask-type="alpha" maskUnits="userSpaceOnUse" x="35" y="31" width="189" height="61">
<path fill-rule="evenodd" clip-rule="evenodd" d="M35 42C35 35.9249 39.9249 31 46 31H213C219.075 31 224 35.9249 224 42V92H35V42Z" fill="white"/>
</mask>
<g mask="url(#mask3)">
</g>
<path opacity="0.266369" fill-rule="evenodd" clip-rule="evenodd" d="M430 42C430 35.9249 434.925 31 441 31H608C614.075 31 619 35.9249 619 42V92H430V42Z" fill="#454588"/>
<mask id="mask4" mask-type="alpha" maskUnits="userSpaceOnUse" x="430" y="31" width="189" height="61">
<path fill-rule="evenodd" clip-rule="evenodd" d="M430 42C430 35.9249 434.925 31 441 31H608C614.075 31 619 35.9249 619 42V92H430V42Z" fill="white"/>
</mask>
<g mask="url(#mask4)">
</g>
<path d="M132.145 126L129.967 122.634L127.843 126H123.001L127.555 119.646L123.163 113.4H127.933L130.075 116.568L132.163 113.4H136.735L132.361 119.484L137.005 126H132.145Z" fill="#00F5FF"/>
<path d="M101.831 51.2V61H101.243L94.565 52.488V61H93.851V51.2H94.453L101.117 59.712V51.2H101.831ZM113.041 57.514H106.755C106.773 58.0833 106.918 58.592 107.189 59.04C107.459 59.4787 107.823 59.8193 108.281 60.062C108.747 60.3047 109.27 60.426 109.849 60.426C110.325 60.426 110.763 60.342 111.165 60.174C111.575 59.9967 111.916 59.74 112.187 59.404L112.593 59.866C112.275 60.2487 111.874 60.5427 111.389 60.748C110.913 60.9533 110.395 61.056 109.835 61.056C109.107 61.056 108.458 60.8973 107.889 60.58C107.319 60.2627 106.871 59.824 106.545 59.264C106.227 58.704 106.069 58.0647 106.069 57.346C106.069 56.6367 106.218 56.002 106.517 55.442C106.825 54.8727 107.245 54.4293 107.777 54.112C108.309 53.7947 108.906 53.636 109.569 53.636C110.231 53.636 110.824 53.7947 111.347 54.112C111.879 54.42 112.294 54.854 112.593 55.414C112.901 55.974 113.055 56.6087 113.055 57.318L113.041 57.514ZM109.569 54.252C109.055 54.252 108.593 54.3687 108.183 54.602C107.772 54.826 107.441 55.148 107.189 55.568C106.946 55.9787 106.806 56.4453 106.769 56.968H112.369C112.341 56.4453 112.201 55.9787 111.949 55.568C111.697 55.1573 111.365 54.8353 110.955 54.602C110.544 54.3687 110.082 54.252 109.569 54.252ZM123.456 53.692V61H122.784V59.432C122.541 59.9453 122.182 60.3467 121.706 60.636C121.23 60.916 120.67 61.056 120.026 61.056C119.074 61.056 118.327 60.79 117.786 60.258C117.244 59.726 116.974 58.9607 116.974 57.962V53.692H117.674V57.906C117.674 58.7273 117.884 59.3527 118.304 59.782C118.724 60.2113 119.316 60.426 120.082 60.426C120.903 60.426 121.552 60.1693 122.028 59.656C122.513 59.1427 122.756 58.452 122.756 57.584V53.692H123.456ZM131.887 60.538C131.709 60.706 131.485 60.8367 131.215 60.93C130.953 61.014 130.678 61.056 130.389 61.056C129.754 61.056 129.264 60.8833 128.919 60.538C128.573 60.1833 128.401 59.6933 128.401 59.068V54.294H127.057V53.692H128.401V52.096H129.101V53.692H131.425V54.294H129.101V58.998C129.101 59.474 129.213 59.838 129.437 60.09C129.67 60.3327 130.011 60.454 130.459 60.454C130.916 60.454 131.294 60.3187 131.593 60.048L131.887 60.538ZM136.348 55.288C136.572 54.756 136.922 54.35 137.398 54.07C137.874 53.7807 138.453 53.636 139.134 53.636V54.322L138.966 54.308C138.154 54.308 137.52 54.5647 137.062 55.078C136.605 55.582 136.376 56.2867 136.376 57.192V61H135.676V53.692H136.348V55.288ZM142.9 53.692H143.6V61H142.9V53.692ZM143.25 51.914C143.092 51.914 142.956 51.8627 142.844 51.76C142.732 51.648 142.676 51.5127 142.676 51.354C142.676 51.1953 142.732 51.06 142.844 50.948C142.956 50.836 143.092 50.78 143.25 50.78C143.409 50.78 143.544 50.836 143.656 50.948C143.768 51.0507 143.824 51.1813 143.824 51.34C143.824 51.4987 143.768 51.634 143.656 51.746C143.544 51.858 143.409 51.914 143.25 51.914ZM151.958 53.636C152.873 53.636 153.596 53.902 154.128 54.434C154.66 54.966 154.926 55.7313 154.926 56.73V61H154.226V56.786C154.226 55.9647 154.016 55.3393 153.596 54.91C153.186 54.4807 152.607 54.266 151.86 54.266C151.002 54.266 150.325 54.5227 149.83 55.036C149.336 55.5493 149.088 56.24 149.088 57.108V61H148.388V53.692H149.06V55.274C149.312 54.7607 149.686 54.3593 150.18 54.07C150.684 53.7807 151.277 53.636 151.958 53.636ZM162.515 61.056C161.825 61.056 161.199 60.8973 160.639 60.58C160.089 60.2627 159.655 59.824 159.337 59.264C159.02 58.6947 158.861 58.0553 158.861 57.346C158.861 56.6367 159.02 56.002 159.337 55.442C159.655 54.8727 160.089 54.4293 160.639 54.112C161.199 53.7947 161.825 53.636 162.515 53.636C163.206 53.636 163.827 53.7947 164.377 54.112C164.937 54.4293 165.376 54.8727 165.693 55.442C166.011 56.002 166.169 56.6367 166.169 57.346C166.169 58.0553 166.011 58.6947 165.693 59.264C165.376 59.824 164.937 60.2627 164.377 60.58C163.827 60.8973 163.206 61.056 162.515 61.056ZM162.515 60.426C163.075 60.426 163.575 60.2953 164.013 60.034C164.461 59.7727 164.811 59.4087 165.063 58.942C165.325 58.4753 165.455 57.9433 165.455 57.346C165.455 56.7487 165.325 56.2167 165.063 55.75C164.811 55.2833 164.461 54.9193 164.013 54.658C163.575 54.3967 163.075 54.266 162.515 54.266C161.955 54.266 161.451 54.3967 161.003 54.658C160.565 54.9193 160.215 55.2833 159.953 55.75C159.701 56.2167 159.575 56.7487 159.575 57.346C159.575 57.9433 159.701 58.4753 159.953 58.942C160.215 59.4087 160.565 59.7727 161.003 60.034C161.451 60.2953 161.955 60.426 162.515 60.426ZM119.357 77.056C118.648 77.056 118.013 76.8973 117.453 76.58C116.893 76.2627 116.454 75.824 116.137 75.264C115.82 74.6947 115.661 74.0553 115.661 73.346C115.661 72.6273 115.82 71.988 116.137 71.428C116.454 70.8587 116.893 70.42 117.453 70.112C118.013 69.7947 118.648 69.636 119.357 69.636C119.945 69.636 120.477 69.7527 120.953 69.986C121.438 70.21 121.83 70.5413 122.129 70.98L121.611 71.358C121.35 70.994 121.023 70.7233 120.631 70.546C120.248 70.3593 119.824 70.266 119.357 70.266C118.788 70.266 118.274 70.3967 117.817 70.658C117.369 70.91 117.014 71.2693 116.753 71.736C116.501 72.2027 116.375 72.7393 116.375 73.346C116.375 73.9527 116.501 74.4893 116.753 74.956C117.014 75.4227 117.369 75.7867 117.817 76.048C118.274 76.3 118.788 76.426 119.357 76.426C119.824 76.426 120.248 76.3373 120.631 76.16C121.023 75.9733 121.35 75.698 121.611 75.334L122.129 75.712C121.83 76.1507 121.438 76.4867 120.953 76.72C120.477 76.944 119.945 77.056 119.357 77.056ZM128.526 69.636C129.431 69.636 130.127 69.8693 130.612 70.336C131.097 70.7933 131.34 71.47 131.34 72.366V77H130.668V75.698C130.435 76.1273 130.094 76.4633 129.646 76.706C129.198 76.9393 128.661 77.056 128.036 77.056C127.224 77.056 126.58 76.8647 126.104 76.482C125.637 76.0993 125.404 75.5953 125.404 74.97C125.404 74.3633 125.619 73.8733 126.048 73.5C126.487 73.1173 127.182 72.926 128.134 72.926H130.64V72.338C130.64 71.6567 130.453 71.1387 130.08 70.784C129.716 70.4293 129.179 70.252 128.47 70.252C127.985 70.252 127.518 70.336 127.07 70.504C126.631 70.672 126.258 70.896 125.95 71.176L125.6 70.672C125.964 70.3453 126.403 70.0933 126.916 69.916C127.429 69.7293 127.966 69.636 128.526 69.636ZM128.134 76.482C128.741 76.482 129.254 76.342 129.674 76.062C130.103 75.782 130.425 75.376 130.64 74.844V73.472H128.148C127.429 73.472 126.907 73.6027 126.58 73.864C126.263 74.1253 126.104 74.4847 126.104 74.942C126.104 75.418 126.281 75.796 126.636 76.076C126.991 76.3467 127.49 76.482 128.134 76.482ZM139.73 69.636C140.411 69.636 141.027 69.7947 141.578 70.112C142.128 70.4293 142.558 70.868 142.866 71.428C143.183 71.988 143.342 72.6273 143.342 73.346C143.342 74.0647 143.183 74.7087 142.866 75.278C142.558 75.838 142.128 76.2767 141.578 76.594C141.027 76.902 140.411 77.056 139.73 77.056C139.086 77.056 138.502 76.9067 137.98 76.608C137.457 76.3 137.051 75.8753 136.762 75.334V79.716H136.062V69.692H136.734V71.414C137.023 70.854 137.429 70.42 137.952 70.112C138.484 69.7947 139.076 69.636 139.73 69.636ZM139.688 76.426C140.248 76.426 140.752 76.2953 141.2 76.034C141.648 75.7727 141.998 75.4087 142.25 74.942C142.511 74.4753 142.642 73.9433 142.642 73.346C142.642 72.7487 142.511 72.2167 142.25 71.75C141.998 71.2833 141.648 70.9193 141.2 70.658C140.752 70.3967 140.248 70.266 139.688 70.266C139.128 70.266 138.624 70.3967 138.176 70.658C137.737 70.9193 137.387 71.2833 137.126 71.75C136.874 72.2167 136.748 72.7487 136.748 73.346C136.748 73.9433 136.874 74.4753 137.126 74.942C137.387 75.4087 137.737 75.7727 138.176 76.034C138.624 76.2953 139.128 76.426 139.688 76.426Z" fill="white"/>
<path d="M102.029 14.096C101.197 14.096 100.397 13.9627 99.6292 13.696C98.8719 13.4293 98.2852 13.0773 97.8692 12.64L98.3332 11.728C98.7385 12.1333 99.2772 12.464 99.9492 12.72C100.621 12.9653 101.315 13.088 102.029 13.088C103.032 13.088 103.784 12.9067 104.285 12.544C104.787 12.1707 105.037 11.6907 105.037 11.104C105.037 10.656 104.899 10.2987 104.621 10.032C104.355 9.76533 104.024 9.56267 103.629 9.424C103.235 9.27467 102.685 9.11467 101.981 8.944C101.139 8.73067 100.467 8.528 99.9652 8.336C99.4639 8.13333 99.0319 7.82933 98.6692 7.424C98.3172 7.01867 98.1412 6.46933 98.1412 5.776C98.1412 5.21067 98.2905 4.69867 98.5892 4.24C98.8879 3.77067 99.3465 3.39733 99.9652 3.12C100.584 2.84267 101.352 2.704 102.269 2.704C102.909 2.704 103.533 2.79467 104.141 2.976C104.76 3.14667 105.293 3.38667 105.741 3.696L105.341 4.64C104.872 4.33067 104.371 4.10133 103.837 3.952C103.304 3.792 102.781 3.712 102.269 3.712C101.288 3.712 100.547 3.904 100.045 4.288C99.5545 4.66133 99.3092 5.14667 99.3092 5.744C99.3092 6.192 99.4425 6.55467 99.7092 6.832C99.9865 7.09867 100.328 7.30667 100.733 7.456C101.149 7.59467 101.704 7.74933 102.397 7.92C103.219 8.12267 103.88 8.32533 104.381 8.528C104.893 8.72 105.325 9.01867 105.677 9.424C106.029 9.81867 106.205 10.3573 106.205 11.04C106.205 11.6053 106.051 12.1227 105.741 12.592C105.443 13.0507 104.979 13.4187 104.349 13.696C103.72 13.9627 102.947 14.096 102.029 14.096ZM118.229 5.584V14H117.141V12.464C116.842 12.976 116.432 13.376 115.909 13.664C115.386 13.9413 114.789 14.08 114.117 14.08C113.018 14.08 112.149 13.776 111.509 13.168C110.88 12.5493 110.565 11.648 110.565 10.464V5.584H111.701V10.352C111.701 11.2373 111.92 11.9093 112.357 12.368C112.794 12.8267 113.418 13.056 114.229 13.056C115.114 13.056 115.813 12.7893 116.325 12.256C116.837 11.712 117.093 10.96 117.093 10V5.584H118.229ZM127.847 5.52C128.636 5.52 129.351 5.70133 129.991 6.064C130.631 6.416 131.132 6.91733 131.495 7.568C131.857 8.21867 132.039 8.96 132.039 9.792C132.039 10.6347 131.857 11.3813 131.495 12.032C131.132 12.6827 130.631 13.1893 129.991 13.552C129.361 13.904 128.647 14.08 127.847 14.08C127.164 14.08 126.545 13.9413 125.991 13.664C125.447 13.376 124.999 12.96 124.647 12.416V17.104H123.511V5.584H124.599V7.248C124.94 6.69333 125.388 6.26667 125.943 5.968C126.508 5.66933 127.143 5.52 127.847 5.52ZM127.767 13.072C128.353 13.072 128.887 12.9387 129.367 12.672C129.847 12.3947 130.22 12.0053 130.487 11.504C130.764 11.0027 130.903 10.432 130.903 9.792C130.903 9.152 130.764 8.58667 130.487 8.096C130.22 7.59467 129.847 7.20533 129.367 6.928C128.887 6.65067 128.353 6.512 127.767 6.512C127.169 6.512 126.631 6.65067 126.151 6.928C125.681 7.20533 125.308 7.59467 125.031 8.096C124.764 8.58667 124.631 9.152 124.631 9.792C124.631 10.432 124.764 11.0027 125.031 11.504C125.308 12.0053 125.681 12.3947 126.151 12.672C126.631 12.9387 127.169 13.072 127.767 13.072ZM140.79 5.52C141.58 5.52 142.294 5.70133 142.934 6.064C143.574 6.416 144.076 6.91733 144.438 7.568C144.801 8.21867 144.982 8.96 144.982 9.792C144.982 10.6347 144.801 11.3813 144.438 12.032C144.076 12.6827 143.574 13.1893 142.934 13.552C142.305 13.904 141.59 14.08 140.79 14.08C140.108 14.08 139.489 13.9413 138.934 13.664C138.39 13.376 137.942 12.96 137.59 12.416V17.104H136.454V5.584H137.542V7.248C137.884 6.69333 138.332 6.26667 138.886 5.968C139.452 5.66933 140.086 5.52 140.79 5.52ZM140.71 13.072C141.297 13.072 141.83 12.9387 142.31 12.672C142.79 12.3947 143.164 12.0053 143.43 11.504C143.708 11.0027 143.846 10.432 143.846 9.792C143.846 9.152 143.708 8.58667 143.43 8.096C143.164 7.59467 142.79 7.20533 142.31 6.928C141.83 6.65067 141.297 6.512 140.71 6.512C140.113 6.512 139.574 6.65067 139.094 6.928C138.625 7.20533 138.252 7.59467 137.974 8.096C137.708 8.58667 137.574 9.152 137.574 9.792C137.574 10.432 137.708 11.0027 137.974 11.504C138.252 12.0053 138.625 12.3947 139.094 12.672C139.574 12.9387 140.113 13.072 140.71 13.072ZM149.398 2.128H150.534V14H149.398V2.128ZM162.867 5.584L158.659 15.008C158.318 15.7973 157.923 16.3573 157.475 16.688C157.027 17.0187 156.488 17.184 155.859 17.184C155.454 17.184 155.075 17.12 154.723 16.992C154.371 16.864 154.067 16.672 153.811 16.416L154.339 15.568C154.766 15.9947 155.278 16.208 155.875 16.208C156.259 16.208 156.584 16.1013 156.851 15.888C157.128 15.6747 157.384 15.312 157.619 14.8L157.987 13.984L154.227 5.584H155.411L158.579 12.736L161.747 5.584H162.867Z" fill="#00F5FF"/>
<path d="M306.782 258L303.742 253.744L300.734 258H298.366L302.526 252.288L298.59 246.8H300.942L303.806 250.784L306.638 246.8H308.894L304.974 252.208L309.182 258H306.782ZM311.456 249.664H318.832V251.264H311.456V249.664ZM311.456 253.536H318.832V255.136H311.456V253.536ZM327.289 254.048V258H325.209V254.08L320.809 246.8H323.033L326.313 252.256L329.625 246.8H331.673L327.289 254.048ZM341.047 253.2H338.215V256H336.503V253.2H333.671V251.6H336.503V248.8H338.215V251.6H341.047V253.2ZM353.377 256.24V258H343.825V256.608L350.417 248.56H343.937V246.8H353.169V248.192L346.577 256.24H353.377Z" fill="#00F5FF"/>
<path fill-rule="evenodd" clip-rule="evenodd" d="M524 139L549 164L524 189L499 164L524 139Z" fill="#0009FF"/>
<path fill-rule="evenodd" clip-rule="evenodd" d="M508.951 51.2L505.633 61H504.877L501.839 52.208L498.787 61H498.031L494.699 51.2H495.455L498.437 60.02L501.503 51.2H502.189L505.241 60.034L508.251 51.2H508.951ZM518.615 58.242H512.931L511.685 61H510.915L515.423 51.2H516.137L520.645 61H519.875L518.615 58.242ZM518.349 57.64L515.773 51.984L513.211 57.64H518.349ZM531.582 51.2L527.214 61H526.5L522.132 51.2H522.916L526.878 60.076L530.84 51.2H531.582ZM541.764 60.356V61H535.002V51.2H541.554V51.844H535.716V55.708H540.938V56.338H535.716V60.356H541.764ZM548.781 61.07C548.063 61.07 547.379 60.9463 546.73 60.699C546.082 60.4517 545.575 60.132 545.211 59.74L545.533 59.208C545.879 59.572 546.343 59.8683 546.926 60.097C547.51 60.3257 548.123 60.44 548.767 60.44C549.701 60.44 550.405 60.2627 550.881 59.908C551.357 59.5533 551.595 59.0913 551.595 58.522C551.595 58.0833 551.469 57.7333 551.217 57.472C550.965 57.2107 550.653 57.01 550.279 56.87C549.906 56.73 549.402 56.5853 548.767 56.436C548.049 56.2587 547.472 56.086 547.038 55.918C546.604 55.75 546.236 55.491 545.932 55.141C545.629 54.791 545.477 54.322 545.477 53.734C545.477 53.258 545.603 52.8217 545.855 52.425C546.107 52.0283 546.492 51.7133 547.01 51.48C547.528 51.2467 548.175 51.13 548.949 51.13C549.491 51.13 550.023 51.2093 550.545 51.368C551.068 51.5267 551.521 51.7413 551.903 52.012L551.637 52.586C551.245 52.3153 550.814 52.11 550.342 51.97C549.871 51.83 549.407 51.76 548.949 51.76C548.044 51.76 547.358 51.942 546.891 52.306C546.425 52.67 546.191 53.1413 546.191 53.72C546.191 54.1587 546.317 54.5087 546.569 54.77C546.821 55.0313 547.134 55.232 547.507 55.372C547.881 55.512 548.389 55.6613 549.033 55.82C549.752 55.9973 550.326 56.17 550.755 56.338C551.185 56.506 551.551 56.7603 551.854 57.101C552.158 57.4417 552.309 57.9013 552.309 58.48C552.309 58.956 552.181 59.39 551.924 59.782C551.668 60.174 551.273 60.4867 550.741 60.72C550.209 60.9533 549.556 61.07 548.781 61.07ZM513.435 77.056C512.725 77.056 512.091 76.8973 511.531 76.58C510.971 76.2627 510.532 75.8217 510.215 75.257C509.897 74.6923 509.739 74.0553 509.739 73.346C509.739 72.6273 509.897 71.9857 510.215 71.421C510.532 70.8563 510.971 70.4177 511.531 70.105C512.091 69.7923 512.725 69.636 513.435 69.636C514.023 69.636 514.557 69.7503 515.038 69.979C515.518 70.2077 515.908 70.5413 516.207 70.98L515.689 71.358C515.427 70.994 515.103 70.721 514.716 70.539C514.328 70.357 513.901 70.266 513.435 70.266C512.865 70.266 512.354 70.3943 511.902 70.651C511.449 70.9077 511.094 71.2693 510.838 71.736C510.581 72.2027 510.453 72.7393 510.453 73.346C510.453 73.9527 510.581 74.4893 510.838 74.956C511.094 75.4227 511.449 75.7843 511.902 76.041C512.354 76.2977 512.865 76.426 513.435 76.426C513.901 76.426 514.328 76.335 514.716 76.153C515.103 75.971 515.427 75.698 515.689 75.334L516.207 75.712C515.908 76.1507 515.518 76.4843 515.038 76.713C514.557 76.9417 514.023 77.056 513.435 77.056ZM522.608 69.636C523.514 69.636 524.209 69.867 524.694 70.329C525.18 70.791 525.422 71.47 525.422 72.366V77H524.75V75.698C524.517 76.1273 524.176 76.461 523.728 76.699C523.28 76.937 522.744 77.056 522.118 77.056C521.306 77.056 520.665 76.8647 520.193 76.482C519.722 76.0993 519.486 75.5953 519.486 74.97C519.486 74.3633 519.703 73.871 520.137 73.493C520.571 73.115 521.264 72.926 522.216 72.926H524.722V72.338C524.722 71.6567 524.538 71.1387 524.169 70.784C523.801 70.4293 523.262 70.252 522.552 70.252C522.067 70.252 521.603 70.336 521.159 70.504C520.716 70.672 520.34 70.896 520.032 71.176L519.682 70.672C520.046 70.3453 520.485 70.091 520.998 69.909C521.512 69.727 522.048 69.636 522.608 69.636ZM522.216 76.482C522.823 76.482 523.339 76.342 523.763 76.062C524.188 75.782 524.508 75.376 524.722 74.844V73.472H522.23C521.512 73.472 520.991 73.6027 520.669 73.864C520.347 74.1253 520.186 74.4847 520.186 74.942C520.186 75.418 520.364 75.7937 520.718 76.069C521.073 76.3443 521.572 76.482 522.216 76.482ZM533.812 69.636C534.493 69.636 535.109 69.7947 535.66 70.112C536.21 70.4293 536.642 70.868 536.955 71.428C537.267 71.988 537.424 72.6273 537.424 73.346C537.424 74.0647 537.267 74.7063 536.955 75.271C536.642 75.8357 536.21 76.2743 535.66 76.587C535.109 76.8997 534.493 77.056 533.812 77.056C533.168 77.056 532.584 76.9043 532.062 76.601C531.539 76.2977 531.133 75.8753 530.844 75.334V79.716H530.144V69.692H530.816V71.414C531.105 70.854 531.513 70.4177 532.041 70.105C532.568 69.7923 533.158 69.636 533.812 69.636ZM533.77 76.426C534.33 76.426 534.834 76.2953 535.282 76.034C535.73 75.7727 536.082 75.4087 536.339 74.942C536.595 74.4753 536.724 73.9433 536.724 73.346C536.724 72.7487 536.595 72.2167 536.339 71.75C536.082 71.2833 535.73 70.9193 535.282 70.658C534.834 70.3967 534.33 70.266 533.77 70.266C533.21 70.266 532.708 70.3967 532.265 70.658C531.821 70.9193 531.471 71.2833 531.215 71.75C530.958 72.2167 530.83 72.7487 530.83 73.346C530.83 73.9433 530.958 74.4753 531.215 74.942C531.471 75.4087 531.821 75.7727 532.265 76.034C532.708 76.2953 533.21 76.426 533.77 76.426Z" fill="white"/>
<path d="M309.502 30.6H310.114V38.448H314.95V39H309.502V30.6ZM321.108 30.6C322.164 30.6 322.992 30.852 323.592 31.356C324.192 31.852 324.492 32.544 324.492 33.432C324.492 34.312 324.192 35.004 323.592 35.508C322.992 36.004 322.164 36.252 321.108 36.252H318.708V39H318.096V30.6H321.108ZM321.108 35.7C322.004 35.7 322.688 35.504 323.16 35.112C323.632 34.72 323.868 34.16 323.868 33.432C323.868 32.704 323.632 32.144 323.16 31.752C322.688 31.352 322.004 31.152 321.108 31.152H318.708V35.7H321.108ZM330.353 39.048C329.761 39.048 329.225 38.912 328.745 38.64C328.273 38.368 327.901 37.992 327.629 37.512C327.357 37.024 327.221 36.476 327.221 35.868C327.221 35.26 327.357 34.716 327.629 34.236C327.901 33.748 328.273 33.368 328.745 33.096C329.225 32.824 329.761 32.688 330.353 32.688C330.945 32.688 331.477 32.824 331.949 33.096C332.429 33.368 332.805 33.748 333.077 34.236C333.349 34.716 333.485 35.26 333.485 35.868C333.485 36.476 333.349 37.024 333.077 37.512C332.805 37.992 332.429 38.368 331.949 38.64C331.477 38.912 330.945 39.048 330.353 39.048ZM330.353 38.508C330.833 38.508 331.261 38.396 331.637 38.172C332.021 37.948 332.321 37.636 332.537 37.236C332.761 36.836 332.873 36.38 332.873 35.868C332.873 35.356 332.761 34.9 332.537 34.5C332.321 34.1 332.021 33.788 331.637 33.564C331.261 33.34 330.833 33.228 330.353 33.228C329.873 33.228 329.441 33.34 329.057 33.564C328.681 33.788 328.381 34.1 328.157 34.5C327.941 34.9 327.833 35.356 327.833 35.868C327.833 36.38 327.941 36.836 328.157 37.236C328.381 37.636 328.681 37.948 329.057 38.172C329.441 38.396 329.873 38.508 330.353 38.508ZM339.322 39.06C338.706 39.06 338.118 38.956 337.558 38.748C337.006 38.532 336.574 38.256 336.262 37.92L336.538 37.464C336.834 37.776 337.23 38.032 337.726 38.232C338.23 38.424 338.758 38.52 339.31 38.52C340.11 38.52 340.714 38.368 341.122 38.064C341.53 37.76 341.734 37.364 341.734 36.876C341.734 36.5 341.626 36.2 341.41 35.976C341.194 35.752 340.926 35.58 340.606 35.46C340.286 35.34 339.854 35.216 339.31 35.088C338.694 34.936 338.198 34.788 337.822 34.644C337.454 34.5 337.138 34.28 336.874 33.984C336.618 33.68 336.49 33.276 336.49 32.772C336.49 32.364 336.598 31.992 336.814 31.656C337.03 31.312 337.358 31.04 337.798 30.84C338.246 30.64 338.802 30.54 339.466 30.54C339.93 30.54 340.386 30.608 340.834 30.744C341.282 30.88 341.67 31.064 341.998 31.296L341.77 31.788C341.434 31.556 341.062 31.38 340.654 31.26C340.254 31.14 339.858 31.08 339.466 31.08C338.69 31.08 338.102 31.236 337.702 31.548C337.302 31.86 337.102 32.264 337.102 32.76C337.102 33.136 337.21 33.436 337.426 33.66C337.642 33.884 337.91 34.056 338.23 34.176C338.55 34.296 338.986 34.424 339.538 34.56C340.154 34.712 340.646 34.86 341.014 35.004C341.382 35.148 341.694 35.368 341.95 35.664C342.214 35.952 342.346 36.344 342.346 36.84C342.346 37.248 342.234 37.62 342.01 37.956C341.794 38.292 341.458 38.56 341.002 38.76C340.546 38.96 339.986 39.06 339.322 39.06ZM310.313 46.688C310.897 46.688 311.425 46.824 311.897 47.096C312.369 47.368 312.737 47.744 313.001 48.224C313.273 48.704 313.409 49.252 313.409 49.868C313.409 50.484 313.273 51.036 313.001 51.524C312.737 52.004 312.369 52.38 311.897 52.652C311.425 52.916 310.897 53.048 310.313 53.048C309.761 53.048 309.261 52.92 308.813 52.664C308.365 52.4 308.017 52.036 307.769 51.572V55.328H307.169V46.736H307.745V48.212C307.993 47.732 308.341 47.36 308.789 47.096C309.245 46.824 309.753 46.688 310.313 46.688ZM310.277 52.508C310.757 52.508 311.189 52.396 311.573 52.172C311.957 51.948 312.257 51.636 312.473 51.236C312.697 50.836 312.809 50.38 312.809 49.868C312.809 49.356 312.697 48.9 312.473 48.5C312.257 48.1 311.957 47.788 311.573 47.564C311.189 47.34 310.757 47.228 310.277 47.228C309.797 47.228 309.365 47.34 308.981 47.564C308.605 47.788 308.305 48.1 308.081 48.5C307.865 48.9 307.757 49.356 307.757 49.868C307.757 50.38 307.865 50.836 308.081 51.236C308.305 51.636 308.605 51.948 308.981 52.172C309.365 52.396 309.797 52.508 310.277 52.508ZM317.418 48.104C317.61 47.648 317.91 47.3 318.318 47.06C318.726 46.812 319.222 46.688 319.806 46.688V47.276L319.662 47.264C318.966 47.264 318.422 47.484 318.03 47.924C317.638 48.356 317.442 48.96 317.442 49.736V53H316.842V46.736H317.418V48.104ZM325.423 53.048C324.831 53.048 324.295 52.912 323.815 52.64C323.343 52.368 322.971 51.992 322.699 51.512C322.427 51.024 322.291 50.476 322.291 49.868C322.291 49.26 322.427 48.716 322.699 48.236C322.971 47.748 323.343 47.368 323.815 47.096C324.295 46.824 324.831 46.688 325.423 46.688C326.015 46.688 326.547 46.824 327.019 47.096C327.499 47.368 327.875 47.748 328.147 48.236C328.419 48.716 328.555 49.26 328.555 49.868C328.555 50.476 328.419 51.024 328.147 51.512C327.875 51.992 327.499 52.368 327.019 52.64C326.547 52.912 326.015 53.048 325.423 53.048ZM325.423 52.508C325.903 52.508 326.331 52.396 326.707 52.172C327.091 51.948 327.391 51.636 327.607 51.236C327.831 50.836 327.943 50.38 327.943 49.868C327.943 49.356 327.831 48.9 327.607 48.5C327.391 48.1 327.091 47.788 326.707 47.564C326.331 47.34 325.903 47.228 325.423 47.228C324.943 47.228 324.511 47.34 324.127 47.564C323.751 47.788 323.451 48.1 323.227 48.5C323.011 48.9 322.903 49.356 322.903 49.868C322.903 50.38 323.011 50.836 323.227 51.236C323.451 51.636 323.751 51.948 324.127 52.172C324.511 52.396 324.943 52.508 325.423 52.508ZM333.876 44.564C333.092 44.564 332.7 44.984 332.7 45.824V46.736H334.704V47.252H332.712V53H332.112V47.252H330.96V46.736H332.112V45.776C332.112 45.248 332.264 44.828 332.568 44.516C332.872 44.204 333.3 44.048 333.852 44.048C334.092 44.048 334.32 44.084 334.536 44.156C334.76 44.22 334.944 44.32 335.088 44.456L334.848 44.912C334.592 44.68 334.268 44.564 333.876 44.564ZM336.888 46.736H337.488V53H336.888V46.736ZM337.188 45.212C337.052 45.212 336.936 45.168 336.84 45.08C336.744 44.984 336.696 44.868 336.696 44.732C336.696 44.596 336.744 44.48 336.84 44.384C336.936 44.288 337.052 44.24 337.188 44.24C337.324 44.24 337.44 44.288 337.536 44.384C337.632 44.472 337.68 44.584 337.68 44.72C337.68 44.856 337.632 44.972 337.536 45.068C337.44 45.164 337.324 45.212 337.188 45.212ZM344.702 52.604C344.55 52.748 344.358 52.86 344.126 52.94C343.902 53.012 343.666 53.048 343.418 53.048C342.874 53.048 342.454 52.9 342.158 52.604C341.862 52.3 341.714 51.88 341.714 51.344V47.252H340.562V46.736H341.714V45.368H342.314V46.736H344.306V47.252H342.314V51.284C342.314 51.692 342.41 52.004 342.602 52.22C342.802 52.428 343.094 52.532 343.478 52.532C343.87 52.532 344.194 52.416 344.45 52.184L344.702 52.604Z" fill="white"/>
<path d="M311.967 350.6C313.023 350.6 313.851 350.852 314.451 351.356C315.051 351.852 315.351 352.544 315.351 353.432C315.351 354.312 315.051 355.004 314.451 355.508C313.851 356.004 313.023 356.252 311.967 356.252H309.567V359H308.955V350.6H311.967ZM311.967 355.7C312.863 355.7 313.547 355.504 314.019 355.112C314.491 354.72 314.727 354.16 314.727 353.432C314.727 352.704 314.491 352.144 314.019 351.752C313.547 351.352 312.863 351.152 311.967 351.152H309.567V355.7H311.967ZM319.175 354.104C319.367 353.648 319.667 353.3 320.075 353.06C320.483 352.812 320.979 352.688 321.563 352.688V353.276L321.419 353.264C320.723 353.264 320.179 353.484 319.787 353.924C319.395 354.356 319.199 354.96 319.199 355.736V359H318.599V352.736H319.175V354.104ZM324.792 352.736H325.392V359H324.792V352.736ZM325.092 351.212C324.956 351.212 324.84 351.168 324.744 351.08C324.648 350.984 324.6 350.868 324.6 350.732C324.6 350.596 324.648 350.48 324.744 350.384C324.84 350.288 324.956 350.24 325.092 350.24C325.228 350.24 325.344 350.288 325.44 350.384C325.536 350.472 325.584 350.584 325.584 350.72C325.584 350.856 325.536 350.972 325.44 351.068C325.344 351.164 325.228 351.212 325.092 351.212ZM331.979 359.048C331.371 359.048 330.827 358.912 330.347 358.64C329.867 358.368 329.491 357.992 329.219 357.512C328.947 357.024 328.811 356.476 328.811 355.868C328.811 355.252 328.947 354.704 329.219 354.224C329.491 353.736 329.867 353.36 330.347 353.096C330.827 352.824 331.371 352.688 331.979 352.688C332.483 352.688 332.939 352.788 333.347 352.988C333.763 353.18 334.099 353.464 334.355 353.84L333.911 354.164C333.687 353.852 333.407 353.62 333.071 353.468C332.743 353.308 332.379 353.228 331.979 353.228C331.491 353.228 331.051 353.34 330.659 353.564C330.275 353.78 329.971 354.088 329.747 354.488C329.531 354.888 329.423 355.348 329.423 355.868C329.423 356.388 329.531 356.848 329.747 357.248C329.971 357.648 330.275 357.96 330.659 358.184C331.051 358.4 331.491 358.508 331.979 358.508C332.379 358.508 332.743 358.432 333.071 358.28C333.407 358.12 333.687 357.884 333.911 357.572L334.355 357.896C334.099 358.272 333.763 358.56 333.347 358.76C332.939 358.952 332.483 359.048 331.979 359.048ZM342.913 356.012H337.525C337.541 356.5 337.665 356.936 337.897 357.32C338.129 357.696 338.441 357.988 338.833 358.196C339.233 358.404 339.681 358.508 340.177 358.508C340.585 358.508 340.961 358.436 341.305 358.292C341.657 358.14 341.949 357.92 342.181 357.632L342.529 358.028C342.257 358.356 341.913 358.608 341.497 358.784C341.089 358.96 340.645 359.048 340.165 359.048C339.541 359.048 338.985 358.912 338.497 358.64C338.009 358.368 337.625 357.992 337.345 357.512C337.073 357.032 336.937 356.484 336.937 355.868C336.937 355.26 337.065 354.716 337.321 354.236C337.585 353.748 337.945 353.368 338.401 353.096C338.857 352.824 339.369 352.688 339.937 352.688C340.505 352.688 341.013 352.824 341.461 353.096C341.917 353.36 342.273 353.732 342.529 354.212C342.793 354.692 342.925 355.236 342.925 355.844L342.913 356.012ZM339.937 353.216C339.497 353.216 339.101 353.316 338.749 353.516C338.397 353.708 338.113 353.984 337.897 354.344C337.689 354.696 337.569 355.096 337.537 355.544H342.337C342.313 355.096 342.193 354.696 341.977 354.344C341.761 353.992 341.477 353.716 341.125 353.516C340.773 353.316 340.377 353.216 339.937 353.216ZM303.677 372.048C303.085 372.048 302.549 371.912 302.069 371.64C301.597 371.368 301.225 370.992 300.953 370.512C300.681 370.024 300.545 369.476 300.545 368.868C300.545 368.26 300.681 367.716 300.953 367.236C301.225 366.748 301.597 366.368 302.069 366.096C302.549 365.824 303.085 365.688 303.677 365.688C304.269 365.688 304.801 365.824 305.273 366.096C305.753 366.368 306.129 366.748 306.401 367.236C306.673 367.716 306.809 368.26 306.809 368.868C306.809 369.476 306.673 370.024 306.401 370.512C306.129 370.992 305.753 371.368 305.273 371.64C304.801 371.912 304.269 372.048 303.677 372.048ZM303.677 371.508C304.157 371.508 304.585 371.396 304.961 371.172C305.345 370.948 305.645 370.636 305.861 370.236C306.085 369.836 306.197 369.38 306.197 368.868C306.197 368.356 306.085 367.9 305.861 367.5C305.645 367.1 305.345 366.788 304.961 366.564C304.585 366.34 304.157 366.228 303.677 366.228C303.197 366.228 302.765 366.34 302.381 366.564C302.005 366.788 301.705 367.1 301.481 367.5C301.265 367.9 301.157 368.356 301.157 368.868C301.157 369.38 301.265 369.836 301.481 370.236C301.705 370.636 302.005 370.948 302.381 371.172C302.765 371.396 303.197 371.508 303.677 371.508ZM310.821 367.104C311.013 366.648 311.313 366.3 311.721 366.06C312.129 365.812 312.625 365.688 313.209 365.688V366.276L313.065 366.264C312.369 366.264 311.825 366.484 311.433 366.924C311.041 367.356 310.845 367.96 310.845 368.736V372H310.245V365.736H310.821V367.104ZM318.549 365.688C319.325 365.688 319.921 365.888 320.337 366.288C320.753 366.68 320.961 367.26 320.961 368.028V372H320.385V370.884C320.185 371.252 319.893 371.54 319.509 371.748C319.125 371.948 318.665 372.048 318.129 372.048C317.433 372.048 316.881 371.884 316.473 371.556C316.073 371.228 315.873 370.796 315.873 370.26C315.873 369.74 316.057 369.32 316.425 369C316.801 368.672 317.397 368.508 318.213 368.508H320.361V368.004C320.361 367.42 320.201 366.976 319.881 366.672C319.569 366.368 319.109 366.216 318.501 366.216C318.085 366.216 317.685 366.288 317.301 366.432C316.925 366.576 316.605 366.768 316.341 367.008L316.041 366.576C316.353 366.296 316.729 366.08 317.169 365.928C317.609 365.768 318.069 365.688 318.549 365.688ZM318.213 371.556C318.733 371.556 319.173 371.436 319.533 371.196C319.901 370.956 320.177 370.608 320.361 370.152V368.976H318.225C317.609 368.976 317.161 369.088 316.881 369.312C316.609 369.536 316.473 369.844 316.473 370.236C316.473 370.644 316.625 370.968 316.929 371.208C317.233 371.44 317.661 371.556 318.213 371.556ZM327.504 372.048C326.896 372.048 326.352 371.912 325.872 371.64C325.392 371.368 325.016 370.992 324.744 370.512C324.472 370.024 324.336 369.476 324.336 368.868C324.336 368.252 324.472 367.704 324.744 367.224C325.016 366.736 325.392 366.36 325.872 366.096C326.352 365.824 326.896 365.688 327.504 365.688C328.008 365.688 328.464 365.788 328.872 365.988C329.288 366.18 329.624 366.464 329.88 366.84L329.436 367.164C329.212 366.852 328.932 366.62 328.596 366.468C328.268 366.308 327.904 366.228 327.504 366.228C327.016 366.228 326.576 366.34 326.184 366.564C325.8 366.78 325.496 367.088 325.272 367.488C325.056 367.888 324.948 368.348 324.948 368.868C324.948 369.388 325.056 369.848 325.272 370.248C325.496 370.648 325.8 370.96 326.184 371.184C326.576 371.4 327.016 371.508 327.504 371.508C327.904 371.508 328.268 371.432 328.596 371.28C328.932 371.12 329.212 370.884 329.436 370.572L329.88 370.896C329.624 371.272 329.288 371.56 328.872 371.76C328.464 371.952 328.008 372.048 327.504 372.048ZM333.146 363.096H333.746V372H333.146V363.096ZM343.142 369.012H337.754C337.77 369.5 337.894 369.936 338.126 370.32C338.358 370.696 338.67 370.988 339.062 371.196C339.462 371.404 339.91 371.508 340.406 371.508C340.814 371.508 341.19 371.436 341.534 371.292C341.886 371.14 342.178 370.92 342.41 370.632L342.758 371.028C342.486 371.356 342.142 371.608 341.726 371.784C341.318 371.96 340.874 372.048 340.394 372.048C339.77 372.048 339.214 371.912 338.726 371.64C338.238 371.368 337.854 370.992 337.574 370.512C337.302 370.032 337.166 369.484 337.166 368.868C337.166 368.26 337.294 367.716 337.55 367.236C337.814 366.748 338.174 366.368 338.63 366.096C339.086 365.824 339.598 365.688 340.166 365.688C340.734 365.688 341.242 365.824 341.69 366.096C342.146 366.36 342.502 366.732 342.758 367.212C343.022 367.692 343.154 368.236 343.154 368.844L343.142 369.012ZM340.166 366.216C339.726 366.216 339.33 366.316 338.978 366.516C338.626 366.708 338.342 366.984 338.126 367.344C337.918 367.696 337.798 368.096 337.766 368.544H342.566C342.542 368.096 342.422 367.696 342.206 367.344C341.99 366.992 341.706 366.716 341.354 366.516C341.002 366.316 340.606 366.216 340.166 366.216ZM348.169 372.048C347.665 372.048 347.185 371.972 346.729 371.82C346.273 371.668 345.917 371.476 345.661 371.244L345.937 370.764C346.193 370.98 346.521 371.16 346.921 371.304C347.329 371.448 347.753 371.52 348.193 371.52C348.825 371.52 349.289 371.416 349.585 371.208C349.889 371 350.041 370.712 350.041 370.344C350.041 370.08 349.957 369.872 349.789 369.72C349.629 369.568 349.429 369.456 349.189 369.384C348.949 369.312 348.617 369.236 348.193 369.156C347.697 369.068 347.297 368.972 346.993 368.868C346.689 368.764 346.429 368.596 346.213 368.364C345.997 368.132 345.889 367.812 345.889 367.404C345.889 366.908 346.093 366.5 346.501 366.18C346.917 365.852 347.505 365.688 348.265 365.688C348.665 365.688 349.061 365.744 349.453 365.856C349.845 365.968 350.165 366.116 350.413 366.3L350.137 366.78C349.881 366.596 349.589 366.456 349.261 366.36C348.933 366.264 348.597 366.216 348.253 366.216C347.669 366.216 347.229 366.324 346.933 366.54C346.637 366.756 346.489 367.04 346.489 367.392C346.489 367.672 346.573 367.892 346.741 368.052C346.909 368.204 347.113 368.32 347.353 368.4C347.601 368.472 347.945 368.552 348.385 368.64C348.873 368.728 349.265 368.824 349.561 368.928C349.865 369.024 350.121 369.184 350.329 369.408C350.537 369.632 350.641 369.94 350.641 370.332C350.641 370.852 350.425 371.268 349.993 371.58C349.561 371.892 348.953 372.048 348.169 372.048Z" fill="white"/>
<path d="M487.809 241.946C488.509 242.077 489.041 242.352 489.405 242.772C489.778 243.192 489.965 243.738 489.965 244.41C489.965 245.241 489.662 245.88 489.055 246.328C488.448 246.776 487.548 247 486.353 247H481.985V237.2H486.073C487.137 237.2 487.963 237.419 488.551 237.858C489.148 238.287 489.447 238.903 489.447 239.706C489.447 240.266 489.298 240.737 488.999 241.12C488.71 241.503 488.313 241.778 487.809 241.946ZM482.699 237.816V241.722H486.045C486.904 241.722 487.562 241.559 488.019 241.232C488.486 240.896 488.719 240.406 488.719 239.762C488.719 239.127 488.486 238.647 488.019 238.32C487.562 237.984 486.904 237.816 486.045 237.816H482.699ZM486.353 246.384C487.305 246.384 488.024 246.221 488.509 245.894C489.004 245.558 489.251 245.045 489.251 244.354C489.251 243.663 489.004 243.155 488.509 242.828C488.024 242.501 487.305 242.338 486.353 242.338H482.699V246.384H486.353ZM496.982 247.056C496.291 247.056 495.666 246.897 495.106 246.58C494.555 246.263 494.121 245.824 493.804 245.264C493.486 244.695 493.328 244.055 493.328 243.346C493.328 242.637 493.486 242.002 493.804 241.442C494.121 240.873 494.555 240.429 495.106 240.112C495.666 239.795 496.291 239.636 496.982 239.636C497.672 239.636 498.293 239.795 498.844 240.112C499.404 240.429 499.842 240.873 500.16 241.442C500.477 242.002 500.636 242.637 500.636 243.346C500.636 244.055 500.477 244.695 500.16 245.264C499.842 245.824 499.404 246.263 498.844 246.58C498.293 246.897 497.672 247.056 496.982 247.056ZM496.982 246.426C497.542 246.426 498.041 246.295 498.48 246.034C498.928 245.773 499.278 245.409 499.53 244.942C499.791 244.475 499.922 243.943 499.922 243.346C499.922 242.749 499.791 242.217 499.53 241.75C499.278 241.283 498.928 240.919 498.48 240.658C498.041 240.397 497.542 240.266 496.982 240.266C496.422 240.266 495.918 240.397 495.47 240.658C495.031 240.919 494.681 241.283 494.42 241.75C494.168 242.217 494.042 242.749 494.042 243.346C494.042 243.943 494.168 244.475 494.42 244.942C494.681 245.409 495.031 245.773 495.47 246.034C495.918 246.295 496.422 246.426 496.982 246.426ZM508.215 239.636C509.13 239.636 509.853 239.902 510.385 240.434C510.917 240.966 511.183 241.731 511.183 242.73V247H510.483V242.786C510.483 241.965 510.273 241.339 509.853 240.91C509.442 240.481 508.864 240.266 508.117 240.266C507.258 240.266 506.582 240.523 506.087 241.036C505.592 241.549 505.345 242.24 505.345 243.108V247H504.645V239.692H505.317V241.274C505.569 240.761 505.942 240.359 506.437 240.07C506.941 239.781 507.534 239.636 508.215 239.636ZM522.412 236.612V247H521.726V245.278C521.437 245.847 521.031 246.286 520.508 246.594C519.985 246.902 519.393 247.056 518.73 247.056C518.049 247.056 517.433 246.897 516.882 246.58C516.331 246.263 515.897 245.824 515.58 245.264C515.272 244.704 515.118 244.065 515.118 243.346C515.118 242.627 515.272 241.988 515.58 241.428C515.897 240.859 516.331 240.42 516.882 240.112C517.433 239.795 518.049 239.636 518.73 239.636C519.383 239.636 519.967 239.79 520.48 240.098C521.003 240.406 521.413 240.835 521.712 241.386V236.612H522.412ZM518.772 246.426C519.332 246.426 519.831 246.295 520.27 246.034C520.718 245.773 521.068 245.409 521.32 244.942C521.581 244.475 521.712 243.943 521.712 243.346C521.712 242.749 521.581 242.217 521.32 241.75C521.068 241.283 520.718 240.919 520.27 240.658C519.831 240.397 519.332 240.266 518.772 240.266C518.212 240.266 517.708 240.397 517.26 240.658C516.821 240.919 516.471 241.283 516.21 241.75C515.958 242.217 515.832 242.749 515.832 243.346C515.832 243.943 515.958 244.475 516.21 244.942C516.471 245.409 516.821 245.773 517.26 246.034C517.708 246.295 518.212 246.426 518.772 246.426ZM529.049 247.056C528.461 247.056 527.901 246.967 527.369 246.79C526.837 246.613 526.421 246.389 526.123 246.118L526.445 245.558C526.743 245.81 527.126 246.02 527.593 246.188C528.069 246.356 528.563 246.44 529.077 246.44C529.814 246.44 530.355 246.319 530.701 246.076C531.055 245.833 531.233 245.497 531.233 245.068C531.233 244.76 531.135 244.517 530.939 244.34C530.752 244.163 530.519 244.032 530.239 243.948C529.959 243.864 529.571 243.775 529.077 243.682C528.498 243.579 528.031 243.467 527.677 243.346C527.322 243.225 527.019 243.029 526.767 242.758C526.515 242.487 526.389 242.114 526.389 241.638C526.389 241.059 526.627 240.583 527.103 240.21C527.588 239.827 528.274 239.636 529.161 239.636C529.627 239.636 530.089 239.701 530.547 239.832C531.004 239.963 531.377 240.135 531.667 240.35L531.345 240.91C531.046 240.695 530.705 240.532 530.323 240.42C529.94 240.308 529.548 240.252 529.147 240.252C528.465 240.252 527.952 240.378 527.607 240.63C527.261 240.882 527.089 241.213 527.089 241.624C527.089 241.951 527.187 242.207 527.383 242.394C527.579 242.571 527.817 242.707 528.097 242.8C528.386 242.884 528.787 242.977 529.301 243.08C529.87 243.183 530.327 243.295 530.673 243.416C531.027 243.528 531.326 243.715 531.569 243.976C531.811 244.237 531.933 244.597 531.933 245.054C531.933 245.661 531.681 246.146 531.177 246.51C530.673 246.874 529.963 247.056 529.049 247.056ZM544.055 247.056C543.346 247.056 542.711 246.897 542.151 246.58C541.591 246.263 541.152 245.824 540.835 245.264C540.518 244.695 540.359 244.055 540.359 243.346C540.359 242.627 540.518 241.988 540.835 241.428C541.152 240.859 541.591 240.42 542.151 240.112C542.711 239.795 543.346 239.636 544.055 239.636C544.643 239.636 545.175 239.753 545.651 239.986C546.136 240.21 546.528 240.541 546.827 240.98L546.309 241.358C546.048 240.994 545.721 240.723 545.329 240.546C544.946 240.359 544.522 240.266 544.055 240.266C543.486 240.266 542.972 240.397 542.515 240.658C542.067 240.91 541.712 241.269 541.451 241.736C541.199 242.203 541.073 242.739 541.073 243.346C541.073 243.953 541.199 244.489 541.451 244.956C541.712 245.423 542.067 245.787 542.515 246.048C542.972 246.3 543.486 246.426 544.055 246.426C544.522 246.426 544.946 246.337 545.329 246.16C545.721 245.973 546.048 245.698 546.309 245.334L546.827 245.712C546.528 246.151 546.136 246.487 545.651 246.72C545.175 246.944 544.643 247.056 544.055 247.056ZM553.224 239.636C554.13 239.636 554.825 239.869 555.31 240.336C555.796 240.793 556.038 241.47 556.038 242.366V247H555.366V245.698C555.133 246.127 554.792 246.463 554.344 246.706C553.896 246.939 553.36 247.056 552.734 247.056C551.922 247.056 551.278 246.865 550.802 246.482C550.336 246.099 550.102 245.595 550.102 244.97C550.102 244.363 550.317 243.873 550.746 243.5C551.185 243.117 551.88 242.926 552.832 242.926H555.338V242.338C555.338 241.657 555.152 241.139 554.778 240.784C554.414 240.429 553.878 240.252 553.168 240.252C552.683 240.252 552.216 240.336 551.768 240.504C551.33 240.672 550.956 240.896 550.648 241.176L550.298 240.672C550.662 240.345 551.101 240.093 551.614 239.916C552.128 239.729 552.664 239.636 553.224 239.636ZM552.832 246.482C553.439 246.482 553.952 246.342 554.372 246.062C554.802 245.782 555.124 245.376 555.338 244.844V243.472H552.846C552.128 243.472 551.605 243.603 551.278 243.864C550.961 244.125 550.802 244.485 550.802 244.942C550.802 245.418 550.98 245.796 551.334 246.076C551.689 246.347 552.188 246.482 552.832 246.482ZM564.428 239.636C565.109 239.636 565.725 239.795 566.276 240.112C566.826 240.429 567.256 240.868 567.564 241.428C567.881 241.988 568.04 242.627 568.04 243.346C568.04 244.065 567.881 244.709 567.564 245.278C567.256 245.838 566.826 246.277 566.276 246.594C565.725 246.902 565.109 247.056 564.428 247.056C563.784 247.056 563.2 246.907 562.678 246.608C562.155 246.3 561.749 245.875 561.46 245.334V249.716H560.76V239.692H561.432V241.414C561.721 240.854 562.127 240.42 562.65 240.112C563.182 239.795 563.774 239.636 564.428 239.636ZM564.386 246.426C564.946 246.426 565.45 246.295 565.898 246.034C566.346 245.773 566.696 245.409 566.948 244.942C567.209 244.475 567.34 243.943 567.34 243.346C567.34 242.749 567.209 242.217 566.948 241.75C566.696 241.283 566.346 240.919 565.898 240.658C565.45 240.397 564.946 240.266 564.386 240.266C563.826 240.266 563.322 240.397 562.874 240.658C562.435 240.919 562.085 241.283 561.824 241.75C561.572 242.217 561.446 242.749 561.446 243.346C561.446 243.943 561.572 244.475 561.824 244.942C562.085 245.409 562.435 245.773 562.874 246.034C563.322 246.295 563.826 246.426 564.386 246.426Z" fill="white"/>
<path d="M526.624 121.428V126H522.376V121.374L517.624 113.4H522.106L524.68 117.756L527.272 113.4H531.376L526.624 121.428Z" fill="#00F5FF"/>
<path d="M531.471 334.706V338H519.897V335.39L525.657 328.694H520.077V325.4H531.183V328.01L525.423 334.706H531.471Z" fill="#00F5FF"/>
<path fill-rule="evenodd" clip-rule="evenodd" d="M525.011 308.75L501.25 285.01C501.25 285.01 504.095 281.901 510.478 280.399C516.86 278.896 521.667 281.903 525.939 285.01C530.212 288.117 533.451 289.705 538.495 289.425C543.54 289.144 546.793 286.917 548.627 284.728C550.461 282.539 525.011 308.75 525.011 308.75Z" fill="#00F5FF"/>
<path fill-rule="evenodd" clip-rule="evenodd" d="M550 285L525 260L500 285L525 310L550 285ZM547.5 285L525 262.5L502.5 285L525 307.5L547.5 285Z" fill="#00F5FF"/>
<path fill-rule="evenodd" clip-rule="evenodd" d="M515 297.5V271.25H516.789L534.424 294.087V271.25H536.25V297.5L535.341 298.349L516.826 274.175V300L515 297.5Z" fill="#00F5FF"/>
<path fill-rule="evenodd" clip-rule="evenodd" d="M515 281.25V297.48L516.826 300V281.417C516.232 281.32 515.624 281.263 515 281.25ZM530.505 288.924C529.228 288.23 527.941 287.351 526.541 286.298C526.278 286.101 526.013 285.903 525.746 285.708L535.341 298.336L536.25 297.48V290.717C535.618 290.66 535.012 290.565 534.424 290.433V294.04L530.505 288.924Z" fill="black"/>
<g opacity="0.425563">
<path fill-rule="evenodd" clip-rule="evenodd" d="M121.04 314.889L82.3667 292.417C77.9353 289.785 77.9353 285.533 82.3667 282.901L121.04 260.429C125.472 257.797 132.924 257.797 137.356 260.429L176.029 282.901C180.46 285.533 180.46 289.785 176.029 292.417L137.356 314.889C132.924 317.521 125.673 317.521 121.04 314.889Z" fill="url(#paint4_linear)"/>
</g>
<path fill-rule="evenodd" clip-rule="evenodd" d="M121.04 292.762L82.3667 270.179C77.9353 267.534 77.9353 263.262 82.3667 260.617L121.04 238.034C125.472 235.39 132.924 235.39 137.356 238.034L176.029 260.617C180.46 263.262 180.46 267.534 176.029 270.179L137.557 292.762C132.924 295.407 125.673 295.407 121.04 292.762Z" fill="url(#paint5_linear)"/>
<g opacity="0.328911">
<path fill-rule="evenodd" clip-rule="evenodd" d="M121.04 272.762L82.3667 250.179C77.9353 247.534 77.9353 243.262 82.3667 240.617L121.04 218.034C125.472 215.39 132.924 215.39 137.356 218.034L176.029 240.617C180.46 243.262 180.46 247.534 176.029 250.179L137.557 272.762C132.924 275.407 125.673 275.407 121.04 272.762Z" fill="url(#paint6_linear)"/>
</g>
<g opacity="0.425563">
<path fill-rule="evenodd" clip-rule="evenodd" d="M322.812 115.962L303.667 104.917C301.473 103.623 301.473 101.533 303.667 100.24L322.812 89.1941C325.006 87.9005 328.695 87.9005 330.889 89.1941L350.034 100.24C352.228 101.533 352.228 103.623 350.034 104.917L330.889 115.962C328.695 117.256 325.105 117.256 322.812 115.962Z" fill="url(#paint7_linear)"/>
</g>
<path fill-rule="evenodd" clip-rule="evenodd" d="M322.812 104.9L303.667 93.8C301.473 92.5 301.473 90.4 303.667 89.1L322.812 78C325.006 76.7 328.695 76.7 330.889 78L350.034 89.1C352.228 90.4 352.228 92.5 350.034 93.8L330.989 104.9C328.695 106.2 325.105 106.2 322.812 104.9Z" fill="url(#paint8_linear)"/>
<g opacity="0.43138">
<path fill-rule="evenodd" clip-rule="evenodd" d="M322.812 94.9L303.667 83.8C301.473 82.5 301.473 80.4 303.667 79.1L322.812 68C325.006 66.7 328.695 66.7 330.889 68L350.034 79.1C352.228 80.4 352.228 82.5 350.034 83.8L330.989 94.9C328.695 96.2 325.105 96.2 322.812 94.9Z" fill="url(#paint9_linear)"/>
</g>
<g opacity="0.425563">
<path fill-rule="evenodd" clip-rule="evenodd" d="M321.812 339.962L302.667 328.917C300.473 327.623 300.473 325.533 302.667 324.24L321.812 313.194C324.006 311.9 327.695 311.9 329.889 313.194L349.034 324.24C351.228 325.533 351.228 327.623 349.034 328.917L329.889 339.962C327.695 341.256 324.105 341.256 321.812 339.962Z" fill="url(#paint10_linear)"/>
</g>
<path fill-rule="evenodd" clip-rule="evenodd" d="M321.812 328.9L302.667 317.8C300.473 316.5 300.473 314.4 302.667 313.1L321.812 302C324.006 300.7 327.695 300.7 329.889 302L349.034 313.1C351.228 314.4 351.228 316.5 349.034 317.8L329.989 328.9C327.695 330.2 324.105 330.2 321.812 328.9Z" fill="url(#paint11_linear)"/>
<g opacity="0.43138">
<path fill-rule="evenodd" clip-rule="evenodd" d="M321.812 318.9L302.667 307.8C300.473 306.5 300.473 304.4 302.667 303.1L321.812 292C324.006 290.7 327.695 290.7 329.889 292L349.034 303.1C351.228 304.4 351.228 306.5 349.034 307.8L329.989 318.9C327.695 320.2 324.105 320.2 321.812 318.9Z" fill="url(#paint12_linear)"/>
</g>
<path fill-rule="evenodd" clip-rule="evenodd" d="M130 142L179 191L130 240L81 191L130 142Z" fill="url(#paint13_linear)"/>
<path fill-rule="evenodd" clip-rule="evenodd" d="M117 203.217V174H119.189L140.766 199.419V174H143V203.217L141.888 204.163L119.234 177.256V206L117 203.217Z" fill="#00F5FF"/>
<path fill-rule="evenodd" clip-rule="evenodd" d="M159 190L130 161L101 190L130 219L159 190ZM156.1 190L130 163.9L103.9 190L130 216.1L156.1 190Z" fill="#00F5FF"/>
<path d="M103 189.828C103 189.828 106.301 186.212 113.705 184.464C121.109 182.716 126.685 186.214 131.641 189.828C136.597 193.442 140.355 195.289 146.207 194.963C152.058 194.637 155.873 191.482 158 188.935" stroke="#00F5FF"/>
<path opacity="0.107631" fill-rule="evenodd" clip-rule="evenodd" d="M326 142L375 191L326 240L277 191L326 142Z" fill="url(#paint14_linear)"/>
<path fill-rule="evenodd" clip-rule="evenodd" d="M313 203.217V174H315.189L336.766 199.419V174H339V203.217L337.888 204.163L315.234 177.256V206L313 203.217Z" fill="#00F5FF"/>
<path fill-rule="evenodd" clip-rule="evenodd" d="M355 190L326 161L297 190L326 219L355 190ZM352.1 190L326 163.9L299.9 190L326 216.1L352.1 190Z" fill="#00F5FF"/>
<path d="M299 189.828C299 189.828 302.301 186.212 309.705 184.464C317.109 182.716 322.685 186.214 327.641 189.828C332.597 193.442 336.355 195.289 342.207 194.963C348.058 194.637 351.873 191.482 354 188.935" stroke="#00F5FF"/>
<path d="M239.012 190.5L244.012 193.387V187.613L239.012 190.5ZM278.512 191H279.012V190H278.512V191ZM243.512 191H278.512V190H243.512V191Z" fill="#4A4AA3"/>
<path d="M326.5 135.5L329.387 130.5H323.613L326.5 135.5ZM327 116V115.5H326V116H327ZM327 131V116H326V131H327Z" fill="#4A4AA3"/>
<path d="M325.5 271L322.613 276H328.387L325.5 271ZM325 290.5V291H326V290.5H325ZM325 275.5V290.5H326V275.5H325Z" fill="#4A4AA3"/>
<path d="M414.512 190.5L409.512 193.387V187.613L414.512 190.5ZM375.012 191H374.512V190H375.012V191ZM410.012 191H375.012V190H410.012V191Z" fill="#4A4AA3"/>
<path d="M483.707 14.096C482.597 14.096 481.595 13.8507 480.699 13.36C479.813 12.8693 479.115 12.192 478.603 11.328C478.101 10.4533 477.851 9.47733 477.851 8.4C477.851 7.32267 478.101 6.352 478.603 5.488C479.115 4.61333 479.819 3.93067 480.715 3.44C481.611 2.94933 482.613 2.704 483.723 2.704C484.555 2.704 485.323 2.84267 486.027 3.12C486.731 3.39733 487.328 3.80267 487.819 4.336L487.067 5.088C486.192 4.20267 485.088 3.76 483.755 3.76C482.869 3.76 482.064 3.96267 481.339 4.368C480.613 4.77333 480.043 5.328 479.627 6.032C479.221 6.736 479.019 7.52533 479.019 8.4C479.019 9.27467 479.221 10.064 479.627 10.768C480.043 11.472 480.613 12.0267 481.339 12.432C482.064 12.8373 482.869 13.04 483.755 13.04C485.099 13.04 486.203 12.592 487.067 11.696L487.819 12.448C487.328 12.9813 486.725 13.392 486.011 13.68C485.307 13.9573 484.539 14.096 483.707 14.096ZM495.268 14.08C494.457 14.08 493.726 13.8987 493.076 13.536C492.425 13.1627 491.913 12.6507 491.54 12C491.166 11.3493 490.98 10.6133 490.98 9.792C490.98 8.97067 491.166 8.23467 491.54 7.584C491.913 6.93333 492.425 6.42667 493.076 6.064C493.726 5.70133 494.457 5.52 495.268 5.52C496.078 5.52 496.809 5.70133 497.46 6.064C498.11 6.42667 498.617 6.93333 498.98 7.584C499.353 8.23467 499.54 8.97067 499.54 9.792C499.54 10.6133 499.353 11.3493 498.98 12C498.617 12.6507 498.11 13.1627 497.46 13.536C496.809 13.8987 496.078 14.08 495.268 14.08ZM495.268 13.072C495.865 13.072 496.398 12.9387 496.868 12.672C497.348 12.3947 497.721 12.0053 497.988 11.504C498.254 11.0027 498.388 10.432 498.388 9.792C498.388 9.152 498.254 8.58133 497.988 8.08C497.721 7.57867 497.348 7.19467 496.868 6.928C496.398 6.65067 495.865 6.512 495.268 6.512C494.67 6.512 494.132 6.65067 493.652 6.928C493.182 7.19467 492.809 7.57867 492.532 8.08C492.265 8.58133 492.132 9.152 492.132 9.792C492.132 10.432 492.265 11.0027 492.532 11.504C492.809 12.0053 493.182 12.3947 493.652 12.672C494.132 12.9387 494.67 13.072 495.268 13.072ZM503.959 2.128H505.095V14H503.959V2.128ZM510.356 2.128H511.492V14H510.356V2.128ZM519.697 5.52C520.795 5.52 521.638 5.79733 522.225 6.352C522.811 6.896 523.105 7.70667 523.105 8.784V14H522.017V12.688C521.761 13.1253 521.382 13.4667 520.881 13.712C520.39 13.9573 519.803 14.08 519.121 14.08C518.182 14.08 517.435 13.856 516.881 13.408C516.326 12.96 516.049 12.368 516.049 11.632C516.049 10.9173 516.305 10.3413 516.817 9.904C517.339 9.46667 518.166 9.248 519.297 9.248H521.969V8.736C521.969 8.01067 521.766 7.46133 521.361 7.088C520.955 6.704 520.363 6.512 519.585 6.512C519.051 6.512 518.539 6.60267 518.049 6.784C517.558 6.95467 517.137 7.19467 516.785 7.504L516.273 6.656C516.699 6.29333 517.211 6.016 517.809 5.824C518.406 5.62133 519.035 5.52 519.697 5.52ZM519.297 13.184C519.937 13.184 520.486 13.04 520.945 12.752C521.403 12.4533 521.745 12.0267 521.969 11.472V10.096H519.329C517.889 10.096 517.169 10.5973 517.169 11.6C517.169 12.0907 517.355 12.48 517.729 12.768C518.102 13.0453 518.625 13.184 519.297 13.184ZM532.722 13.488C532.509 13.68 532.242 13.8293 531.922 13.936C531.613 14.032 531.288 14.08 530.946 14.08C530.157 14.08 529.549 13.8667 529.122 13.44C528.696 13.0133 528.482 12.4107 528.482 11.632V6.544H526.978V5.584H528.482V3.744H529.618V5.584H532.178V6.544H529.618V11.568C529.618 12.0693 529.741 12.4533 529.986 12.72C530.242 12.976 530.605 13.104 531.074 13.104C531.309 13.104 531.533 13.0667 531.746 12.992C531.97 12.9173 532.162 12.8107 532.322 12.672L532.722 13.488ZM543.921 10.144H536.881C536.945 11.0187 537.281 11.728 537.889 12.272C538.497 12.8053 539.265 13.072 540.193 13.072C540.716 13.072 541.196 12.9813 541.633 12.8C542.071 12.608 542.449 12.3307 542.769 11.968L543.409 12.704C543.036 13.152 542.567 13.4933 542.001 13.728C541.447 13.9627 540.833 14.08 540.161 14.08C539.297 14.08 538.529 13.8987 537.857 13.536C537.196 13.1627 536.679 12.6507 536.305 12C535.932 11.3493 535.745 10.6133 535.745 9.792C535.745 8.97067 535.921 8.23467 536.273 7.584C536.636 6.93333 537.127 6.42667 537.745 6.064C538.375 5.70133 539.079 5.52 539.857 5.52C540.636 5.52 541.335 5.70133 541.953 6.064C542.572 6.42667 543.057 6.93333 543.409 7.584C543.761 8.224 543.937 8.96 543.937 9.792L543.921 10.144ZM539.857 6.496C539.047 6.496 538.364 6.75733 537.809 7.28C537.265 7.792 536.956 8.464 536.881 9.296H542.849C542.775 8.464 542.46 7.792 541.905 7.28C541.361 6.75733 540.679 6.496 539.857 6.496ZM549.438 7.232C549.704 6.66667 550.099 6.24 550.622 5.952C551.155 5.664 551.811 5.52 552.59 5.52V6.624L552.318 6.608C551.432 6.608 550.739 6.88 550.238 7.424C549.736 7.968 549.486 8.73067 549.486 9.712V14H548.35V5.584H549.438V7.232ZM559.675 5.52C560.774 5.52 561.616 5.79733 562.203 6.352C562.79 6.896 563.083 7.70667 563.083 8.784V14H561.995V12.688C561.739 13.1253 561.36 13.4667 560.859 13.712C560.368 13.9573 559.782 14.08 559.099 14.08C558.16 14.08 557.414 13.856 556.859 13.408C556.304 12.96 556.027 12.368 556.027 11.632C556.027 10.9173 556.283 10.3413 556.795 9.904C557.318 9.46667 558.144 9.248 559.275 9.248H561.947V8.736C561.947 8.01067 561.744 7.46133 561.339 7.088C560.934 6.704 560.342 6.512 559.563 6.512C559.03 6.512 558.518 6.60267 558.027 6.784C557.536 6.95467 557.115 7.19467 556.763 7.504L556.251 6.656C556.678 6.29333 557.19 6.016 557.787 5.824C558.384 5.62133 559.014 5.52 559.675 5.52ZM559.275 13.184C559.915 13.184 560.464 13.04 560.923 12.752C561.382 12.4533 561.723 12.0267 561.947 11.472V10.096H559.307C557.867 10.096 557.147 10.5973 557.147 11.6C557.147 12.0907 557.334 12.48 557.707 12.768C558.08 13.0453 558.603 13.184 559.275 13.184ZM568.268 2.128H569.404V14H568.268V2.128Z" fill="#00F5FF"/>
<defs>
<linearGradient id="paint0_linear" x1="-198.457" y1="189.962" x2="-118.434" y2="468.869" gradientUnits="userSpaceOnUse">
<stop stop-color="#17183A"/>
<stop offset="1" stop-color="#171839"/>
</linearGradient>
<linearGradient id="paint1_linear" x1="-206.192" y1="219.608" x2="-122.441" y2="513.387" gradientUnits="userSpaceOnUse">
<stop stop-color="#DBDBDB"/>
<stop offset="0.509212" stop-color="#33346A"/>
<stop offset="1" stop-color="#0F4143"/>
</linearGradient>
<linearGradient id="paint2_linear" x1="188.808" y1="219.608" x2="272.559" y2="513.387" gradientUnits="userSpaceOnUse">
<stop stop-color="#DBDBDB"/>
<stop offset="0.509212" stop-color="#33346A"/>
<stop offset="1" stop-color="#0F4143"/>
</linearGradient>
<linearGradient id="paint3_linear" x1="189.556" y1="299.056" x2="208.373" y2="442.583" gradientUnits="userSpaceOnUse">
<stop stop-color="#DBDBDB"/>
<stop offset="0.509212" stop-color="#33346A"/>
<stop offset="1" stop-color="#0F4143"/>
</linearGradient>
<linearGradient id="paint4_linear" x1="144.171" y1="331.955" x2="183.801" y2="259.494" gradientUnits="userSpaceOnUse">
<stop stop-color="#6121A1"/>
<stop offset="1" stop-color="#00AEFF"/>
</linearGradient>
<linearGradient id="paint5_linear" x1="144.171" y1="309.913" x2="184.102" y2="237.26" gradientUnits="userSpaceOnUse">
<stop stop-color="#6121A1"/>
<stop offset="1" stop-color="#00AEFF"/>
</linearGradient>
<linearGradient id="paint6_linear" x1="144.171" y1="289.913" x2="184.102" y2="217.26" gradientUnits="userSpaceOnUse">
<stop stop-color="#6121A1"/>
<stop offset="1" stop-color="#00AEFF"/>
</linearGradient>
<linearGradient id="paint7_linear" x1="334.263" y1="124.351" x2="353.667" y2="88.6177" gradientUnits="userSpaceOnUse">
<stop stop-color="#6121A1"/>
<stop offset="1" stop-color="#00AEFF"/>
</linearGradient>
<linearGradient id="paint8_linear" x1="334.263" y1="113.33" x2="353.814" y2="77.5014" gradientUnits="userSpaceOnUse">
<stop stop-color="#6121A1"/>
<stop offset="1" stop-color="#00AEFF"/>
</linearGradient>
<linearGradient id="paint9_linear" x1="334.263" y1="103.33" x2="353.814" y2="67.5014" gradientUnits="userSpaceOnUse">
<stop stop-color="#6121A1"/>
<stop offset="1" stop-color="#00AEFF"/>
</linearGradient>
<linearGradient id="paint10_linear" x1="333.263" y1="348.351" x2="352.667" y2="312.618" gradientUnits="userSpaceOnUse">
<stop stop-color="#6121A1"/>
<stop offset="1" stop-color="#00AEFF"/>
</linearGradient>
<linearGradient id="paint11_linear" x1="333.263" y1="337.33" x2="352.814" y2="301.501" gradientUnits="userSpaceOnUse">
<stop stop-color="#6121A1"/>
<stop offset="1" stop-color="#00AEFF"/>
</linearGradient>
<linearGradient id="paint12_linear" x1="333.263" y1="327.33" x2="352.814" y2="291.501" gradientUnits="userSpaceOnUse">
<stop stop-color="#6121A1"/>
<stop offset="1" stop-color="#00AEFF"/>
</linearGradient>
<linearGradient id="paint13_linear" x1="144.628" y1="265.324" x2="223.448" y2="181.41" gradientUnits="userSpaceOnUse">
<stop stop-color="#6121A1"/>
<stop offset="1" stop-color="#00AEFF"/>
</linearGradient>
<linearGradient id="paint14_linear" x1="260.158" y1="187.35" x2="292.345" y2="254.66" gradientUnits="userSpaceOnUse">
<stop stop-color="#DBDBDB"/>
<stop offset="0.509212" stop-color="#33346A"/>
<stop offset="1" stop-color="#0F4143"/>
</linearGradient>
</defs>
</svg>
