<svg width="641" height="371" viewBox="0 0 490 283" fill="none" xmlns="http://www.w3.org/2000/svg">
    <path fill-rule="evenodd" clip-rule="evenodd" d="M1.0222 152.854C1.0222 152.854 -5.70393 90.1619 31.8283 97.0427C69.3606 103.924 127.879 96.2782 151.854 86.3392C175.83 76.4003 179.166 58.0514 213.909 51.9351C248.653 45.8188 319.831 19.8246 337.448 34.3508C355.065 48.877 367.875 73.0363 390.146 86.3392C412.417 99.6422 460.768 104.67 478.385 119.97C496.003 135.27 488.343 167.255 488.343 174.368C488.343 181.482 441.619 229.29 429.364 234.229C417.108 239.169 324.612 223.287 314.945 234.229C305.278 245.172 238.746 259.955 233.786 259.955C228.825 259.955 69.4982 261.197 62.1527 250.679C54.8072 240.16 1.0222 152.854 1.0222 152.854Z" fill="url(#paint0_linear)"/>
    <path opacity="0.266369" fill-rule="evenodd" clip-rule="evenodd" d="M26 34C26 27.9249 30.9249 23 37 23H160C166.075 23 171 27.9249 171 34V269C171 275.075 166.075 280 160 280H37C30.9249 280 26 275.075 26 269L26 34Z" fill="#454588"/>
    <mask id="mask0" mask-type="alpha" maskUnits="userSpaceOnUse" x="26" y="23" width="145" height="257">
        <path fill-rule="evenodd" clip-rule="evenodd" d="M26 34C26 27.9249 30.9249 23 37 23H160C166.075 23 171 27.9249 171 34V269C171 275.075 166.075 280 160 280H37C30.9249 280 26 275.075 26 269L26 34Z" fill="white"/>
    </mask>
    <g mask="url(#mask0)">
        <path opacity="0.107631" fill-rule="evenodd" clip-rule="evenodd" d="M-75.7916 215.818C-75.7916 215.818 -32.468 185.988 4.71329 192.804C41.8945 199.619 49.8788 159.781 73.6299 149.936C97.381 140.092 109.223 94.0729 143.642 88.0149C178.06 81.9568 232.185 21.8602 249.638 36.248C267.09 50.6358 287.631 136.76 309.693 149.936C331.756 163.113 379.655 168.093 397.107 183.247C414.56 198.401 406.972 230.081 406.972 237.127C406.972 244.173 360.685 291.525 348.544 296.418C336.403 301.31 244.772 285.58 235.195 296.418C225.618 307.256 159.709 321.898 154.795 321.898C149.88 321.898 -7.95601 323.129 -15.2328 312.71C-22.5096 302.292 -75.7916 215.818 -75.7916 215.818Z" fill="url(#paint1_linear)"/>
    </g>
    <path opacity="0.266369" fill-rule="evenodd" clip-rule="evenodd" d="M329 34C329 27.9249 333.925 23 340 23H463C469.075 23 474 27.9249 474 34V269C474 275.075 469.075 280 463 280H340C333.925 280 329 275.075 329 269V34Z" fill="#454588"/>
    <mask id="mask1" mask-type="alpha" maskUnits="userSpaceOnUse" x="329" y="23" width="145" height="257">
        <path fill-rule="evenodd" clip-rule="evenodd" d="M329 34C329 27.9249 333.925 23 340 23H463C469.075 23 474 27.9249 474 34V269C474 275.075 469.075 280 463 280H340C333.925 280 329 275.075 329 269V34Z" fill="white"/>
    </mask>
    <g mask="url(#mask1)">
        <path opacity="0.107631" fill-rule="evenodd" clip-rule="evenodd" d="M227.208 215.818C227.208 215.818 270.532 185.988 307.713 192.804C344.895 199.619 352.879 159.781 376.63 149.936C400.381 140.092 412.223 94.0729 446.642 88.0149C481.06 81.9568 535.185 21.8602 552.638 36.248C570.09 50.6358 590.631 136.76 612.693 149.936C634.756 163.113 682.655 168.093 700.107 183.247C717.56 198.401 709.972 230.081 709.972 237.127C709.972 244.173 663.685 291.525 651.544 296.418C639.403 301.31 547.772 285.58 538.195 296.418C528.618 307.256 462.709 321.898 457.795 321.898C452.881 321.898 295.044 323.129 287.767 312.71C280.49 302.292 227.208 215.818 227.208 215.818Z" fill="url(#paint2_linear)"/>
    </g>
    <path opacity="0.266369" fill-rule="evenodd" clip-rule="evenodd" d="M329 162H474V269C474 275.075 469.075 280 463 280H340C333.925 280 329 275.075 329 269V162Z" fill="#454588"/>
    <mask id="mask2" mask-type="alpha" maskUnits="userSpaceOnUse" x="329" y="162" width="145" height="118">
        <path fill-rule="evenodd" clip-rule="evenodd" d="M329 162H474V269C474 275.075 469.075 280 463 280H340C333.925 280 329 275.075 329 269V162Z" fill="white"/>
    </mask>
    <g mask="url(#mask2)">
        <path opacity="0.107631" fill-rule="evenodd" clip-rule="evenodd" d="M227.73 250.294C227.73 250.294 271.027 236.561 308.184 239.699C345.342 242.836 353.322 224.494 377.058 219.962C400.794 215.43 412.628 194.242 447.026 191.453C481.423 188.663 535.513 160.994 552.955 167.618C570.396 174.243 590.924 213.896 612.973 219.962C635.022 226.028 682.891 228.321 700.332 235.298C717.773 242.276 710.19 256.862 710.19 260.106C710.19 263.35 663.932 285.151 651.799 287.404C639.666 289.656 548.092 282.414 538.522 287.404C528.951 292.394 463.083 299.135 458.172 299.135C453.26 299.135 295.523 299.702 288.251 294.905C280.979 290.108 227.73 250.294 227.73 250.294Z" fill="url(#paint3_linear)"/>
    </g>
    <path opacity="0.266369" fill-rule="evenodd" clip-rule="evenodd" d="M26 33C26 26.9249 30.9249 22 37 22H160C166.075 22 171 26.9249 171 33V69H26V33Z" fill="#454588"/>
    <mask id="mask3" mask-type="alpha" maskUnits="userSpaceOnUse" x="26" y="22" width="145" height="47">
        <path fill-rule="evenodd" clip-rule="evenodd" d="M26 33C26 26.9249 30.9249 22 37 22H160C166.075 22 171 26.9249 171 33V69H26V33Z" fill="white"/>
    </mask>
    <g mask="url(#mask3)">
    </g>
    <path opacity="0.266369" fill-rule="evenodd" clip-rule="evenodd" d="M329 33C329 26.9249 333.925 22 340 22H463C469.075 22 474 26.9249 474 33V69H329V33Z" fill="#454588"/>
    <mask id="mask4" mask-type="alpha" maskUnits="userSpaceOnUse" x="329" y="22" width="145" height="47">
        <path fill-rule="evenodd" clip-rule="evenodd" d="M329 33C329 26.9249 333.925 22 340 22H463C469.075 22 474 26.9249 474 33V69H329V33Z" fill="white"/>
    </mask>
    <g mask="url(#mask4)">
    </g>
    <path fill-rule="evenodd" clip-rule="evenodd" d="M100.53 95L98.9743 92.3286L97.4576 95H94L97.2519 89.9571L94.1157 85H97.5219L99.0514 87.5143L100.542 85H103.807L100.684 89.8286L104 95H100.53Z" fill="#00F5FF"/>
    <path fill-rule="evenodd" clip-rule="evenodd" d="M76.1792 37.3338V45.1234H75.7239L70.5529 38.3576V45.1234H70V37.3338H70.4661L75.6263 44.0997V37.3338H76.1792ZM84.8544 42.3526H79.9869C80.0014 42.8051 80.1134 43.2076 80.323 43.56C80.5326 43.9123 80.8162 44.185 81.174 44.3779C81.5317 44.5708 81.9346 44.6672 82.3827 44.6672C82.7513 44.6672 83.0928 44.5986 83.4072 44.4613C83.7215 44.3241 83.9835 44.1219 84.1931 43.8549L84.5075 44.2221C84.2618 44.5262 83.9528 44.7599 83.5806 44.9231C83.2084 45.0864 82.8055 45.168 82.3719 45.168C81.8082 45.168 81.3059 45.0418 80.865 44.7896C80.4242 44.5374 80.0791 44.1887 79.8297 43.7436C79.5804 43.2984 79.4557 42.7903 79.4557 42.219C79.4557 41.6552 79.5732 41.1489 79.8081 40.7001C80.0429 40.2512 80.3664 39.9007 80.7783 39.6485C81.1902 39.3962 81.6528 39.2701 82.1659 39.2701C82.679 39.2701 83.1397 39.3944 83.5481 39.6429C83.9564 39.8914 84.278 40.2382 84.5129 40.6834C84.7478 41.1285 84.8652 41.633 84.8652 42.1968L84.8544 42.3526ZM82.1659 39.7597C81.7684 39.7597 81.4107 39.8506 81.0927 40.0324C80.7747 40.2141 80.5199 40.4701 80.3284 40.8002C80.1369 41.1303 80.0267 41.5031 79.9978 41.9186H84.334C84.3123 41.5031 84.2039 41.1322 84.0088 40.8058C83.8137 40.4794 83.5571 40.2234 83.2391 40.0379C82.9211 39.8525 82.5634 39.7597 82.1659 39.7597ZM92.9225 39.3146V45.1234H92.4022V43.8771C92.2143 44.2851 91.936 44.6023 91.5674 44.8286C91.1989 45.0548 90.7652 45.168 90.2666 45.168C89.5294 45.168 88.9512 44.9565 88.5321 44.5337C88.1129 44.1108 87.9033 43.5025 87.9033 42.7087V39.3146H88.4453V42.6642C88.4453 43.317 88.6079 43.814 88.9332 44.1553C89.2584 44.4966 89.7173 44.6672 90.3099 44.6672C90.9459 44.6672 91.45 44.4632 91.8222 44.0552C92.1944 43.6471 92.3805 43.0982 92.3805 42.4082V39.3146H92.9225ZM99.4513 44.7562C99.314 44.8898 99.1423 44.9918 98.9364 45.0622C98.7304 45.1327 98.5154 45.168 98.2913 45.168C97.7999 45.168 97.4205 45.0289 97.1531 44.7507C96.8857 44.4725 96.752 44.0848 96.752 43.5878V39.7931H95.7113V39.3146H96.752V38.046H97.294V39.3146H99.0935V39.7931H97.294V43.5321C97.294 43.9105 97.3825 44.198 97.5596 44.3946C97.7367 44.5912 97.9986 44.6895 98.3455 44.6895C98.6997 44.6895 98.9924 44.5819 99.2236 44.3667L99.4513 44.7562ZM102.901 40.5832C103.075 40.1604 103.346 39.8358 103.714 39.6095C104.083 39.3832 104.531 39.2701 105.059 39.2701V39.8154L104.929 39.8043C104.3 39.8043 103.808 40.0064 103.454 40.4107C103.1 40.8151 102.923 41.377 102.923 42.0966V45.1234H102.381V39.3146H102.901V40.5832ZM107.977 39.3146H108.519V45.1234H107.977V39.3146ZM108.248 37.9014C108.126 37.9014 108.021 37.8587 107.934 37.7734C107.847 37.6881 107.804 37.5824 107.804 37.4562C107.804 37.3301 107.847 37.2226 107.934 37.1335C108.021 37.0445 108.126 37 108.248 37C108.371 37 108.476 37.0427 108.563 37.128C108.65 37.2133 108.693 37.319 108.693 37.4451C108.693 37.5712 108.65 37.6788 108.563 37.7678C108.476 37.8569 108.371 37.9014 108.248 37.9014ZM114.994 39.2701C115.702 39.2701 116.262 39.4815 116.674 39.9044C117.086 40.3273 117.292 40.9356 117.292 41.7294V45.1234H116.75V41.7739C116.75 41.1211 116.589 40.624 116.268 40.2828C115.946 39.9415 115.496 39.7709 114.918 39.7709C114.253 39.7709 113.729 39.9749 113.346 40.3829C112.963 40.7909 112.772 41.3399 112.772 42.0299V45.1234H112.23V39.3146H112.75V40.5721C112.945 40.1641 113.236 39.8451 113.623 39.6151C114.009 39.3851 114.466 39.2701 114.994 39.2701ZM123.171 45.168C122.636 45.168 122.153 45.0418 121.723 44.7896C121.293 44.5374 120.955 44.1868 120.71 43.738C120.464 43.2892 120.341 42.7829 120.341 42.219C120.341 41.6552 120.464 41.1489 120.71 40.7001C120.955 40.2512 121.293 39.9007 121.723 39.6485C122.153 39.3962 122.636 39.2701 123.171 39.2701C123.705 39.2701 124.188 39.3962 124.618 39.6485C125.048 39.9007 125.386 40.2512 125.631 40.7001C125.877 41.1489 126 41.6552 126 42.219C126 42.7829 125.877 43.2892 125.631 43.738C125.386 44.1868 125.048 44.5374 124.618 44.7896C124.188 45.0418 123.705 45.168 123.171 45.168ZM123.171 44.6672C123.604 44.6672 123.993 44.5633 124.336 44.3556C124.679 44.1479 124.95 43.8586 125.149 43.4876C125.348 43.1167 125.447 42.6938 125.447 42.219C125.447 41.7442 125.348 41.3214 125.149 40.9504C124.95 40.5795 124.679 40.2902 124.336 40.0825C123.993 39.8747 123.604 39.7709 123.171 39.7709C122.737 39.7709 122.349 39.8747 122.005 40.0825C121.662 40.2902 121.391 40.5795 121.192 40.9504C120.993 41.3214 120.894 41.7442 120.894 42.219C120.894 42.6938 120.993 43.1167 121.192 43.4876C121.391 43.8586 121.662 44.1479 122.005 44.3556C122.349 44.5633 122.737 44.6672 123.171 44.6672ZM89.795 57.8857C89.2457 57.8857 88.7543 57.7596 88.3207 57.5073C87.887 57.2551 87.5474 56.9046 87.3017 56.4557C87.0559 56.0069 86.9331 55.5006 86.9331 54.9368C86.9331 54.3655 87.0559 53.8555 87.3017 53.4067C87.5474 52.9578 87.887 52.6091 88.3207 52.3606C88.7543 52.1121 89.2457 51.9878 89.795 51.9878C90.2503 51.9878 90.6641 52.0787 91.0362 52.2605C91.4084 52.4422 91.7102 52.7074 91.9414 53.0561L91.5403 53.3566C91.338 53.0673 91.0868 52.8503 90.7869 52.7056C90.487 52.5609 90.1564 52.4886 89.795 52.4886C89.3541 52.4886 88.9585 52.5906 88.6079 52.7946C88.2574 52.9986 87.9828 53.2861 87.7841 53.657C87.5853 54.028 87.4859 54.4545 87.4859 54.9368C87.4859 55.419 87.5853 55.8455 87.7841 56.2165C87.9828 56.5874 88.2574 56.8749 88.6079 57.0789C88.9585 57.2829 89.3541 57.3849 89.795 57.3849C90.1564 57.3849 90.487 57.3126 90.7869 57.1679C91.0868 57.0233 91.338 56.8063 91.5403 56.5169L91.9414 56.8174C91.7102 57.1661 91.4084 57.4313 91.0362 57.613C90.6641 57.7948 90.2503 57.8857 89.795 57.8857ZM96.8983 51.9878C97.5994 51.9878 98.1378 52.1714 98.5136 52.5387C98.8894 52.9059 99.0773 53.4456 99.0773 54.1578V57.8412H98.5569V56.8063C98.3763 57.1475 98.1125 57.4127 97.7656 57.6019C97.4187 57.7911 97.0031 57.8857 96.5189 57.8857C95.8901 57.8857 95.3933 57.7336 95.0283 57.4294C94.6633 57.1253 94.4809 56.7247 94.4809 56.2276C94.4809 55.7454 94.6489 55.3541 94.9849 55.0536C95.321 54.7531 95.8576 54.6029 96.5948 54.6029H98.5353V54.1355C98.5353 53.594 98.3925 53.1822 98.1071 52.9003C97.8216 52.6184 97.4042 52.4775 96.855 52.4775C96.4791 52.4775 96.1196 52.5442 95.7763 52.6778C95.433 52.8113 95.1421 52.9894 94.9036 53.2119L94.6326 52.8113C94.9145 52.5517 95.2542 52.3495 95.6516 52.2048C96.0491 52.0602 96.4647 51.9878 96.8983 51.9878ZM96.5948 57.4294C97.0645 57.4294 97.4638 57.3182 97.7927 57.0956C98.1215 56.873 98.369 56.5503 98.5353 56.1275V55.0369H96.6056C96.0491 55.0369 95.6462 55.1408 95.3969 55.3485C95.1476 55.5562 95.0229 55.8418 95.0229 56.2053C95.0229 56.5837 95.1602 56.8823 95.4348 57.1012C95.7095 57.32 96.0961 57.4294 96.5948 57.4294ZM105.574 51.9878C106.101 51.9878 106.578 52.114 107.005 52.3662C107.431 52.6184 107.765 52.9671 108.007 53.4122C108.249 53.8573 108.37 54.3655 108.37 54.9368C108.37 55.508 108.249 56.018 108.007 56.4669C107.765 56.9157 107.431 57.2644 107.005 57.5129C106.578 57.7614 106.101 57.8857 105.574 57.8857C105.075 57.8857 104.623 57.7651 104.218 57.524C103.814 57.2829 103.499 56.9472 103.275 56.5169V60H102.733V52.0323H103.254V53.4011C103.478 52.956 103.794 52.6091 104.202 52.3606C104.611 52.1121 105.068 51.9878 105.574 51.9878ZM105.541 57.3849C105.975 57.3849 106.365 57.2811 106.712 57.0733C107.059 56.8656 107.332 56.5763 107.53 56.2054C107.729 55.8344 107.828 55.4116 107.828 54.9368C107.828 54.462 107.729 54.0391 107.53 53.6682C107.332 53.2972 107.059 53.0079 106.712 52.8002C106.365 52.5925 105.975 52.4886 105.541 52.4886C105.107 52.4886 104.719 52.5925 104.376 52.8002C104.032 53.0079 103.761 53.2972 103.563 53.6682C103.364 54.0391 103.264 54.462 103.264 54.9368C103.264 55.4116 103.364 55.8344 103.563 56.2054C103.761 56.5763 104.032 56.8656 104.376 57.0733C104.719 57.2811 105.107 57.3849 105.541 57.3849Z" fill="white"/>
    <path fill-rule="evenodd" clip-rule="evenodd" d="M77.1354 8.74389C76.5083 8.74389 75.9074 8.64648 75.3326 8.45165C74.7577 8.25682 74.3135 7.99965 74 7.68013L74.3497 7.01382C74.6552 7.30996 75.0612 7.54959 75.5677 7.73273C76.0742 7.91587 76.5968 8.00744 77.1354 8.00744C77.8911 8.00744 78.4579 7.87301 78.8358 7.60414C79.2136 7.33528 79.4026 6.98654 79.4026 6.55792C79.4026 6.2306 79.3001 5.96954 79.0951 5.77471C78.8901 5.57988 78.6388 5.42986 78.3414 5.32465C78.0439 5.21945 77.6299 5.1045 77.0992 4.97981C76.4641 4.82395 75.9576 4.67393 75.5798 4.52976C75.2019 4.38558 74.8783 4.16543 74.609 3.86929C74.3397 3.57315 74.205 3.17181 74.205 2.66525C74.205 2.25221 74.3176 1.8762 74.5427 1.53719C74.7678 1.19819 75.1135 0.927383 75.5798 0.724761C76.0461 0.522139 76.6249 0.420829 77.3163 0.420829C77.7987 0.420829 78.271 0.485122 78.7333 0.613709C79.1956 0.742296 79.5955 0.919588 79.9332 1.14559L79.6317 1.83528C79.278 1.60928 78.9001 1.43978 78.4981 1.32678C78.0961 1.21378 77.7022 1.15728 77.3163 1.15728C76.5767 1.15728 76.0199 1.29561 75.6461 1.57226C75.2723 1.84892 75.0853 2.20545 75.0853 2.64187C75.0853 2.96918 75.1878 3.2322 75.3929 3.43092C75.5979 3.62965 75.8551 3.78161 76.1646 3.88682C76.4742 3.99203 76.8902 4.10698 77.4128 4.23167C78.0318 4.37974 78.5323 4.52586 78.9142 4.67003C79.296 4.81421 79.6196 5.03241 79.8849 5.32465C80.1503 5.6169 80.2829 6.0124 80.2829 6.51116C80.2829 6.9242 80.1683 7.30021 79.9392 7.63921C79.7101 7.97822 79.3584 8.24708 78.884 8.4458C78.4097 8.64453 77.8268 8.74389 77.1354 8.74389ZM89.3425 2.52497V8.67375H88.5224V7.55154C88.2973 7.92561 87.9878 8.2159 87.5939 8.42242C87.1999 8.62894 86.7497 8.7322 86.2432 8.7322C85.4151 8.7322 84.7619 8.50815 84.2836 8.06004C83.8052 7.61194 83.566 6.95537 83.566 6.09033V2.52497H84.4223V6.0085C84.4223 6.65533 84.5871 7.1463 84.9167 7.4814C85.2463 7.81651 85.7166 7.98406 86.3276 7.98406C86.9949 7.98406 87.5215 7.78729 87.9074 7.39373C88.2933 7.00018 88.4862 6.45271 88.4862 5.75133V2.52497H89.3425ZM96.5931 2.47821C97.1881 2.47821 97.7267 2.60875 98.2091 2.86982C98.6914 3.13089 99.0693 3.49911 99.3426 3.9745C99.616 4.44988 99.7527 4.9915 99.7527 5.59936C99.7527 6.21502 99.616 6.76054 99.3426 7.23592C99.0693 7.7113 98.6935 8.07952 98.2151 8.3406C97.7367 8.60167 97.1961 8.7322 96.5931 8.7322C96.0786 8.7322 95.6143 8.62894 95.2003 8.42242C94.7862 8.2159 94.4466 7.91392 94.1813 7.51647V10.9416H93.325V2.52497H94.1451V3.7407C94.4023 3.33546 94.742 3.02373 95.1641 2.80553C95.5862 2.58732 96.0625 2.47821 96.5931 2.47821ZM96.5328 7.99575C96.975 7.99575 97.377 7.89639 97.7388 7.69766C98.1005 7.49894 98.3839 7.21644 98.5889 6.85016C98.7939 6.48388 98.8964 6.06695 98.8964 5.59936C98.8964 5.13177 98.7939 4.71679 98.5889 4.35441C98.3839 3.99203 98.1005 3.70953 97.7388 3.50691C97.377 3.30429 96.975 3.20298 96.5328 3.20298C96.0826 3.20298 95.6786 3.30429 95.3209 3.50691C94.9631 3.70953 94.6817 3.99203 94.4767 4.35441C94.2717 4.71679 94.1692 5.13177 94.1692 5.59936C94.1692 6.06695 94.2717 6.48388 94.4767 6.85016C94.6817 7.21644 94.9631 7.49894 95.3209 7.69766C95.6786 7.89639 96.0826 7.99575 96.5328 7.99575ZM106.352 2.47821C106.947 2.47821 107.486 2.60875 107.968 2.86982C108.45 3.13089 108.828 3.49911 109.102 3.9745C109.375 4.44988 109.512 4.9915 109.512 5.59936C109.512 6.21502 109.375 6.76054 109.102 7.23592C108.828 7.7113 108.452 8.07952 107.974 8.3406C107.496 8.60167 106.955 8.7322 106.352 8.7322C105.838 8.7322 105.373 8.62894 104.959 8.42242C104.545 8.2159 104.206 7.91392 103.94 7.51647V10.9416H103.084V2.52497H103.904V3.7407C104.161 3.33546 104.501 3.02373 104.923 2.80553C105.345 2.58732 105.822 2.47821 106.352 2.47821ZM106.292 7.99575C106.734 7.99575 107.136 7.89639 107.498 7.69766C107.86 7.49894 108.143 7.21644 108.348 6.85016C108.553 6.48388 108.655 6.06695 108.655 5.59936C108.655 5.13177 108.553 4.71679 108.348 4.35441C108.143 3.99203 107.86 3.70953 107.498 3.50691C107.136 3.30429 106.734 3.20298 106.292 3.20298C105.842 3.20298 105.438 3.30429 105.08 3.50691C104.722 3.70953 104.441 3.99203 104.236 4.35441C104.031 4.71679 103.928 5.13177 103.928 5.59936C103.928 6.06695 104.031 6.48388 104.236 6.85016C104.441 7.21644 104.722 7.49894 105.08 7.69766C105.438 7.89639 105.842 7.99575 106.292 7.99575ZM112.843 0H113.699V8.67375H112.843V0ZM123 2.52497L119.828 9.4102C119.571 9.9869 119.274 10.396 118.936 10.6376C118.598 10.8792 118.192 11 117.718 11C117.413 11 117.127 10.9532 116.862 10.8597C116.597 10.7662 116.367 10.6259 116.174 10.4389L116.572 9.81934C116.894 10.1311 117.28 10.2869 117.73 10.2869C118.02 10.2869 118.267 10.209 118.472 10.0531C118.677 9.89727 118.868 9.63231 119.045 9.25824L119.322 8.66206L116.488 2.52497H117.38L119.768 7.75027L122.156 2.52497H123Z" fill="#00F5FF"/>
    <path fill-rule="evenodd" clip-rule="evenodd" d="M235.409 196L233.094 192.58L230.803 196H229L232.168 191.41L229.171 187H230.962L233.142 190.201L235.299 187H237.017L234.032 191.346L237.236 196H235.409ZM238.963 189.301H244.58V190.587H238.963V189.301ZM238.963 192.413H244.58V193.699H238.963V192.413ZM251.022 192.824V196H249.438V192.85L246.088 187H247.781L250.279 191.384L252.801 187H254.36L251.022 192.824ZM255.369 191.757H258.719V193.094H255.369V191.757ZM268 194.586V196H260.726V194.881L265.746 188.414H260.812V187H267.842V188.119L262.822 194.586H268Z" fill="#00F5FF"/>
    <path fill-rule="evenodd" clip-rule="evenodd" d="M401 105L420 124L401 143L382 124L401 105Z" fill="#0009FF"/>
    <path fill-rule="evenodd" clip-rule="evenodd" d="M235.804 22.046H236.277V28.0615H240.013V28.4846H235.804V22.046ZM244.772 22.046C245.588 22.046 246.227 22.2376 246.691 22.6209C247.155 23.0041 247.386 23.5361 247.386 24.2167C247.386 24.8912 247.155 25.4201 246.691 25.8034C246.227 26.1866 245.588 26.3782 244.772 26.3782H242.918V28.4846H242.445V22.046H244.772ZM244.772 25.9551C245.464 25.9551 245.993 25.8049 246.357 25.5044C246.722 25.204 246.904 24.7747 246.904 24.2167C246.904 23.6587 246.722 23.2279 246.357 22.9244C245.993 22.6209 245.464 22.4691 244.772 22.4691H242.918V25.9551H244.772ZM251.913 28.5214C251.456 28.5214 251.043 28.4171 250.675 28.2086C250.307 28.0002 250.019 27.7104 249.808 27.3394C249.598 26.9685 249.493 26.5499 249.493 26.0839C249.493 25.6179 249.598 25.1994 249.808 24.8284C250.019 24.4574 250.307 24.1677 250.675 23.9592C251.043 23.7507 251.456 23.6464 251.913 23.6464C252.37 23.6464 252.783 23.7507 253.151 23.9592C253.518 24.1677 253.807 24.4574 254.017 24.8284C254.228 25.1994 254.333 25.6179 254.333 26.0839C254.333 26.5499 254.228 26.9685 254.017 27.3394C253.807 27.7104 253.518 28.0002 253.151 28.2086C252.783 28.4171 252.37 28.5214 251.913 28.5214ZM251.913 28.1075C252.284 28.1075 252.616 28.0216 252.91 27.8499C253.203 27.6782 253.435 27.4391 253.605 27.1325C253.775 26.8259 253.86 26.4764 253.86 26.0839C253.86 25.6915 253.775 25.3419 253.605 25.0353C253.435 24.7287 253.203 24.4896 252.91 24.3179C252.616 24.1462 252.284 24.0604 251.913 24.0604C251.542 24.0604 251.21 24.1462 250.916 24.3179C250.623 24.4896 250.391 24.7287 250.221 25.0353C250.051 25.3419 249.966 25.6915 249.966 26.0839C249.966 26.4764 250.051 26.8259 250.221 27.1325C250.391 27.4391 250.623 27.6782 250.916 27.8499C251.21 28.0216 251.542 28.1075 251.913 28.1075ZM258.841 28.5306C258.365 28.5306 257.912 28.4493 257.483 28.2868C257.053 28.1243 256.718 27.9143 256.477 27.6568L256.69 27.3072C256.919 27.5464 257.226 27.7411 257.612 27.8913C257.999 28.0416 258.405 28.1167 258.831 28.1167C259.45 28.1167 259.916 28.0002 260.231 27.7671C260.547 27.5341 260.704 27.2306 260.704 26.8565C260.704 26.5683 260.621 26.3384 260.454 26.1667C260.287 25.995 260.08 25.8632 259.833 25.7712C259.586 25.6792 259.252 25.5842 258.831 25.486C258.356 25.3695 257.974 25.2561 257.687 25.1457C257.399 25.0353 257.155 24.8652 256.954 24.6352C256.753 24.4053 256.653 24.0971 256.653 23.7108C256.653 23.3981 256.736 23.1114 256.903 22.8508C257.07 22.5902 257.325 22.3833 257.668 22.2299C258.011 22.0766 258.439 22 258.952 22C259.31 22 259.663 22.0521 260.009 22.1564C260.355 22.2606 260.655 22.4016 260.908 22.5795L260.732 22.9566C260.472 22.7788 260.187 22.6439 259.874 22.5519C259.562 22.4599 259.255 22.4139 258.952 22.4139C258.352 22.4139 257.898 22.5335 257.589 22.7726C257.28 23.0118 257.126 23.3214 257.126 23.7016C257.126 23.9898 257.209 24.2198 257.376 24.3915C257.543 24.5632 257.75 24.695 257.997 24.787C258.244 24.879 258.581 24.9771 259.008 25.0813C259.484 25.1978 259.864 25.3113 260.148 25.4217C260.432 25.532 260.675 25.6991 260.876 25.9229C261.077 26.1468 261.177 26.4488 261.177 26.8289C261.177 27.1417 261.092 27.4268 260.922 27.6844C260.752 27.9419 260.491 28.1473 260.139 28.3006C259.786 28.4539 259.354 28.5306 258.841 28.5306ZM236.429 34.3774C236.88 34.3774 237.288 34.4817 237.653 34.6902C238.017 34.8987 238.303 35.1869 238.51 35.5548C238.717 35.9227 238.821 36.3427 238.821 36.8149C238.821 37.2871 238.717 37.7086 238.51 38.0796C238.303 38.4506 238.017 38.7388 237.653 38.9442C237.288 39.1497 236.88 39.2524 236.429 39.2524C236.003 39.2524 235.616 39.1527 235.27 38.9534C234.924 38.7542 234.655 38.4767 234.464 38.121V41H234V34.4142H234.445V35.5456C234.637 35.1777 234.907 34.891 235.256 34.6856C235.605 34.4802 235.996 34.3774 236.429 34.3774ZM236.401 38.8385C236.772 38.8385 237.106 38.7526 237.402 38.5809C237.699 38.4092 237.932 38.1701 238.102 37.8635C238.272 37.5569 238.357 37.2074 238.357 36.8149C238.357 36.4225 238.272 36.0729 238.102 35.7663C237.932 35.4597 237.699 35.2206 237.402 35.0489C237.106 34.8772 236.772 34.7914 236.401 34.7914C236.03 34.7914 235.698 34.8772 235.405 35.0489C235.111 35.2206 234.879 35.4597 234.709 35.7663C234.539 36.0729 234.454 36.4225 234.454 36.8149C234.454 37.2074 234.539 37.5569 234.709 37.8635C234.879 38.1701 235.111 38.4092 235.405 38.5809C235.698 38.7526 236.03 38.8385 236.401 38.8385ZM241.92 35.4628C242.068 35.1133 242.3 34.845 242.615 34.658C242.93 34.471 243.314 34.3774 243.765 34.3774V34.8281L243.654 34.8189C243.116 34.8189 242.696 34.986 242.393 35.3202C242.09 35.6544 241.938 36.1189 241.938 36.7137V39.2156H241.475V34.4142H241.92V35.4628ZM248.106 39.2524C247.649 39.2524 247.236 39.1481 246.868 38.9396C246.501 38.7312 246.212 38.4414 246.001 38.0704C245.791 37.6994 245.686 37.2809 245.686 36.8149C245.686 36.3489 245.791 35.9304 246.001 35.5594C246.212 35.1884 246.501 34.8987 246.868 34.6902C247.236 34.4817 247.649 34.3774 248.106 34.3774C248.563 34.3774 248.976 34.4817 249.344 34.6902C249.711 34.8987 250 35.1884 250.211 35.5594C250.421 35.9304 250.526 36.3489 250.526 36.8149C250.526 37.2809 250.421 37.6994 250.211 38.0704C250 38.4414 249.711 38.7312 249.344 38.9396C248.976 39.1481 248.563 39.2524 248.106 39.2524ZM248.106 38.8385C248.477 38.8385 248.809 38.7526 249.103 38.5809C249.396 38.4092 249.628 38.1701 249.798 37.8635C249.968 37.5569 250.053 37.2074 250.053 36.8149C250.053 36.4225 249.968 36.0729 249.798 35.7663C249.628 35.4597 249.396 35.2206 249.103 35.0489C248.809 34.8772 248.477 34.7914 248.106 34.7914C247.735 34.7914 247.403 34.8772 247.109 35.0489C246.816 35.2206 246.584 35.4597 246.414 35.7663C246.244 36.0729 246.159 36.4225 246.159 36.8149C246.159 37.2074 246.244 37.5569 246.414 37.8635C246.584 38.1701 246.816 38.4092 247.109 38.5809C247.403 38.7526 247.735 38.8385 248.106 38.8385ZM254.635 32.7494C254.029 32.7494 253.727 33.0713 253.727 33.7152V34.4142H255.275V34.8097H253.736V39.2156H253.272V34.8097H252.382V34.4142H253.272V33.6784C253.272 33.2737 253.39 32.9518 253.625 32.7126C253.859 32.4735 254.19 32.3539 254.617 32.3539C254.802 32.3539 254.98 32.3799 255.15 32.4321C255.32 32.4842 255.46 32.5624 255.572 32.6666L255.386 33.0161C255.188 32.8383 254.938 32.7494 254.635 32.7494ZM256.962 34.4142H257.426V39.2156H256.962V34.4142ZM257.194 33.2461C257.089 33.2461 256.999 33.2108 256.925 33.1403C256.851 33.0698 256.814 32.9824 256.814 32.8782C256.814 32.7739 256.851 32.685 256.925 32.6114C256.999 32.5378 257.089 32.501 257.194 32.501C257.299 32.501 257.389 32.5363 257.463 32.6068C257.537 32.6773 257.574 32.7647 257.574 32.869C257.574 32.9732 257.537 33.0621 257.463 33.1357C257.389 33.2093 257.299 33.2461 257.194 33.2461ZM263 38.9121C262.883 39.0224 262.736 39.1067 262.56 39.165C262.383 39.2233 262.2 39.2524 262.008 39.2524C261.588 39.2524 261.263 39.1374 261.035 38.9075C260.806 38.6775 260.691 38.3571 260.691 37.9463V34.8097H259.801V34.4142H260.691V33.3657H261.155V34.4142H262.694V34.8097H261.155V37.9003C261.155 38.213 261.231 38.4506 261.382 38.6131C261.534 38.7756 261.758 38.8569 262.054 38.8569C262.357 38.8569 262.608 38.768 262.805 38.5901L263 38.9121Z" fill="white"/>
    <path fill-rule="evenodd" clip-rule="evenodd" d="M237.662 267.264C238.462 267.264 239.09 267.448 239.545 267.814C240 268.181 240.228 268.69 240.228 269.342C240.228 269.988 240 270.494 239.545 270.861C239.09 271.227 238.462 271.411 237.662 271.411H235.841V273.427H235.377V267.264H237.662ZM237.662 271.006C238.341 271.006 238.86 270.862 239.218 270.574C239.576 270.287 239.755 269.876 239.755 269.342C239.755 268.808 239.576 268.395 239.218 268.105C238.86 267.814 238.341 267.669 237.662 267.669H235.841V271.006H237.662ZM243.133 269.835C243.279 269.5 243.507 269.244 243.816 269.065C244.125 268.886 244.502 268.796 244.944 268.796V269.227L244.835 269.219C244.307 269.219 243.895 269.379 243.598 269.698C243.3 270.018 243.152 270.463 243.152 271.032V273.427H242.697V268.831H243.133V269.835ZM247.395 268.831H247.85V273.427H247.395V268.831ZM247.622 267.713C247.519 267.713 247.431 267.679 247.358 267.612C247.286 267.544 247.249 267.461 247.249 267.361C247.249 267.261 247.286 267.176 247.358 267.106C247.431 267.035 247.519 267 247.622 267C247.725 267 247.813 267.034 247.886 267.101C247.959 267.169 247.995 267.252 247.995 267.352C247.995 267.452 247.959 267.537 247.886 267.607C247.813 267.678 247.725 267.713 247.622 267.713ZM252.848 273.462C252.387 273.462 251.975 273.362 251.611 273.163C251.247 272.963 250.962 272.686 250.755 272.331C250.549 271.976 250.446 271.575 250.446 271.129C250.446 270.677 250.549 270.274 250.755 269.919C250.962 269.563 251.247 269.288 251.611 269.091C251.975 268.894 252.387 268.796 252.848 268.796C253.231 268.796 253.578 268.868 253.89 269.012C254.203 269.156 254.456 269.365 254.65 269.641L254.314 269.879C254.144 269.65 253.933 269.478 253.681 269.364C253.429 269.249 253.152 269.192 252.848 269.192C252.478 269.192 252.146 269.273 251.852 269.434C251.558 269.596 251.327 269.823 251.16 270.117C250.993 270.41 250.91 270.748 250.91 271.129C250.91 271.511 250.993 271.848 251.16 272.142C251.327 272.435 251.558 272.663 251.852 272.824C252.146 272.985 252.478 273.066 252.848 273.066C253.152 273.066 253.429 273.009 253.681 272.894C253.933 272.78 254.144 272.608 254.314 272.379L254.65 272.617C254.456 272.893 254.203 273.103 253.89 273.247C253.578 273.39 253.231 273.462 252.848 273.462ZM261.141 271.235H257.055C257.067 271.593 257.161 271.911 257.337 272.19C257.513 272.469 257.751 272.685 258.052 272.837C258.352 272.99 258.69 273.066 259.066 273.066C259.376 273.066 259.663 273.012 259.926 272.903C260.19 272.795 260.41 272.635 260.586 272.423L260.85 272.714C260.644 272.955 260.385 273.139 260.072 273.269C259.76 273.398 259.421 273.462 259.057 273.462C258.584 273.462 258.162 273.362 257.792 273.163C257.422 272.963 257.133 272.687 256.923 272.335C256.714 271.983 256.609 271.581 256.609 271.129C256.609 270.683 256.708 270.282 256.905 269.927C257.102 269.572 257.374 269.295 257.72 269.095C258.065 268.896 258.454 268.796 258.884 268.796C259.315 268.796 259.702 268.894 260.045 269.091C260.388 269.288 260.658 269.562 260.855 269.914C261.052 270.266 261.151 270.665 261.151 271.112L261.141 271.235ZM258.884 269.183C258.551 269.183 258.25 269.255 257.983 269.399C257.717 269.543 257.503 269.745 257.342 270.007C257.181 270.268 257.089 270.563 257.064 270.891H260.705C260.686 270.563 260.595 270.269 260.432 270.011C260.268 269.753 260.052 269.55 259.785 269.404C259.518 269.257 259.218 269.183 258.884 269.183ZM231.375 283C230.926 283 230.521 282.9 230.16 282.701C229.799 282.501 229.516 282.224 229.309 281.869C229.103 281.514 229 281.113 229 280.667C229 280.221 229.103 279.82 229.309 279.465C229.516 279.11 229.799 278.833 230.16 278.633C230.521 278.434 230.926 278.334 231.375 278.334C231.824 278.334 232.229 278.434 232.59 278.633C232.951 278.833 233.235 279.11 233.441 279.465C233.647 279.82 233.751 280.221 233.751 280.667C233.751 281.113 233.647 281.514 233.441 281.869C233.235 282.224 232.951 282.501 232.59 282.701C232.229 282.9 231.824 283 231.375 283ZM231.375 282.604C231.739 282.604 232.065 282.522 232.354 282.357C232.642 282.193 232.869 281.964 233.036 281.671C233.203 281.377 233.286 281.043 233.286 280.667C233.286 280.291 233.203 279.957 233.036 279.663C232.869 279.37 232.642 279.141 232.354 278.977C232.065 278.812 231.739 278.73 231.375 278.73C231.011 278.73 230.685 278.812 230.397 278.977C230.109 279.141 229.881 279.37 229.714 279.663C229.548 279.957 229.464 280.291 229.464 280.667C229.464 281.043 229.548 281.377 229.714 281.671C229.881 281.964 230.109 282.193 230.397 282.357C230.685 282.522 231.011 282.604 231.375 282.604ZM236.792 279.373C236.938 279.038 237.166 278.781 237.475 278.602C237.784 278.423 238.161 278.334 238.604 278.334V278.765L238.494 278.756C237.966 278.756 237.554 278.916 237.257 279.236C236.959 279.556 236.811 280.001 236.811 280.57V282.965H236.356V278.369H236.792V279.373ZM242.656 278.334C243.244 278.334 243.696 278.479 244.012 278.77C244.327 279.06 244.485 279.487 244.485 280.051V282.965H244.048V282.146C243.896 282.416 243.675 282.626 243.384 282.775C243.092 282.925 242.744 283 242.337 283C241.809 283 241.392 282.88 241.086 282.639C240.779 282.398 240.626 282.081 240.626 281.688C240.626 281.307 240.767 280.997 241.049 280.759C241.331 280.522 241.782 280.403 242.401 280.403H244.03V280.033C244.03 279.605 243.91 279.279 243.67 279.056C243.431 278.833 243.08 278.721 242.619 278.721C242.304 278.721 242.002 278.774 241.714 278.88C241.425 278.985 241.181 279.126 240.981 279.302L240.754 278.985C240.99 278.78 241.275 278.62 241.609 278.506C241.943 278.391 242.292 278.334 242.656 278.334ZM242.401 282.639C242.795 282.639 243.13 282.551 243.406 282.375C243.682 282.199 243.89 281.944 244.03 281.609V280.746H242.41C241.943 280.746 241.604 280.828 241.395 280.993C241.186 281.157 241.081 281.383 241.081 281.671C241.081 281.97 241.196 282.206 241.427 282.379C241.658 282.552 241.982 282.639 242.401 282.639ZM249.447 283C248.986 283 248.573 282.9 248.209 282.701C247.845 282.501 247.56 282.224 247.354 281.869C247.148 281.514 247.044 281.113 247.044 280.667C247.044 280.215 247.148 279.811 247.354 279.456C247.56 279.101 247.845 278.825 248.209 278.629C248.573 278.432 248.986 278.334 249.447 278.334C249.829 278.334 250.177 278.406 250.489 278.55C250.802 278.693 251.055 278.903 251.249 279.179L250.912 279.417C250.742 279.188 250.532 279.016 250.28 278.902C250.028 278.787 249.75 278.73 249.447 278.73C249.077 278.73 248.745 278.811 248.45 278.972C248.156 279.134 247.926 279.361 247.759 279.654C247.592 279.948 247.509 280.285 247.509 280.667C247.509 281.048 247.592 281.386 247.759 281.679C247.926 281.973 248.156 282.2 248.45 282.362C248.745 282.523 249.077 282.604 249.447 282.604C249.75 282.604 250.028 282.547 250.28 282.432C250.532 282.318 250.742 282.146 250.912 281.917L251.249 282.155C251.055 282.431 250.802 282.64 250.489 282.784C250.177 282.928 249.829 283 249.447 283ZM253.727 276.432H254.182V282.965H253.727V276.432ZM261.31 280.773H257.224C257.236 281.131 257.33 281.449 257.506 281.728C257.682 282.007 257.92 282.222 258.22 282.375C258.52 282.528 258.859 282.604 259.235 282.604C259.544 282.604 259.831 282.55 260.095 282.441C260.359 282.332 260.579 282.172 260.755 281.961L261.019 282.252C260.812 282.492 260.553 282.677 260.24 282.806C259.928 282.935 259.59 283 259.226 283C258.752 283 258.331 282.9 257.961 282.701C257.591 282.501 257.301 282.225 257.092 281.873C256.882 281.521 256.778 281.119 256.778 280.667C256.778 280.221 256.876 279.82 257.073 279.465C257.271 279.11 257.542 278.833 257.888 278.633C258.234 278.434 258.622 278.334 259.053 278.334C259.484 278.334 259.87 278.432 260.213 278.629C260.556 278.825 260.826 279.1 261.023 279.452C261.22 279.804 261.319 280.203 261.319 280.649L261.31 280.773ZM259.053 278.721C258.719 278.721 258.419 278.793 258.152 278.937C257.885 279.081 257.671 279.283 257.51 279.544C257.349 279.806 257.257 280.101 257.233 280.429H260.873C260.855 280.101 260.764 279.807 260.6 279.549C260.436 279.291 260.221 279.088 259.954 278.941C259.687 278.795 259.387 278.721 259.053 278.721ZM265.125 283C264.743 283 264.379 282.944 264.033 282.833C263.687 282.721 263.417 282.58 263.223 282.41L263.433 282.058C263.627 282.216 263.877 282.348 264.183 282.454C264.49 282.56 264.81 282.613 265.143 282.613C265.623 282.613 265.976 282.536 266.204 282.384C266.431 282.231 266.545 282.02 266.545 281.75C266.545 281.556 266.483 281.404 266.358 281.292C266.234 281.18 266.081 281.098 265.899 281.045C265.717 280.993 265.465 280.937 265.143 280.878C264.767 280.814 264.464 280.743 264.233 280.667C264.003 280.591 263.806 280.467 263.642 280.297C263.478 280.127 263.396 279.892 263.396 279.593C263.396 279.229 263.552 278.928 263.865 278.69C264.177 278.453 264.622 278.334 265.198 278.334C265.501 278.334 265.802 278.375 266.099 278.457C266.396 278.539 266.639 278.648 266.827 278.783L266.618 279.135C266.424 279 266.202 278.897 265.953 278.827C265.705 278.756 265.45 278.721 265.189 278.721C264.746 278.721 264.412 278.8 264.188 278.959C263.963 279.117 263.851 279.326 263.851 279.584C263.851 279.789 263.915 279.949 264.042 280.064C264.17 280.178 264.326 280.263 264.511 280.319C264.696 280.375 264.955 280.435 265.289 280.5C265.659 280.564 265.958 280.633 266.185 280.707C266.413 280.78 266.606 280.899 266.763 281.063C266.921 281.227 267 281.453 267 281.741C267 282.123 266.836 282.428 266.509 282.657C266.181 282.886 265.72 283 265.125 283Z" fill="white"/>
    <path fill-rule="evenodd" clip-rule="evenodd" d="M372.466 183.071C373.003 183.17 373.412 183.38 373.695 183.701C373.978 184.021 374.119 184.438 374.119 184.951C374.119 185.585 373.886 186.073 373.421 186.415C372.956 186.756 372.265 186.927 371.349 186.927H368V179.449H371.135C371.951 179.449 372.586 179.614 373.04 179.946C373.495 180.277 373.722 180.749 373.722 181.361C373.722 181.788 373.609 182.148 373.384 182.44C373.158 182.732 372.852 182.942 372.466 183.071ZM368.547 179.919V182.9H371.113C371.772 182.9 372.278 182.773 372.632 182.52C372.987 182.267 373.164 181.895 373.164 181.404C373.164 180.92 372.987 180.551 372.632 180.298C372.278 180.045 371.772 179.919 371.113 179.919H368.547ZM371.349 186.457C372.079 186.457 372.632 186.331 373.008 186.078C373.384 185.825 373.572 185.435 373.572 184.908C373.572 184.381 373.384 183.993 373.008 183.744C372.632 183.494 372.079 183.37 371.349 183.37H368.547V186.457H371.349ZM379.5 186.97C378.97 186.97 378.493 186.849 378.067 186.607C377.641 186.365 377.307 186.028 377.063 185.597C376.82 185.166 376.698 184.68 376.698 184.139C376.698 183.598 376.82 183.111 377.063 182.681C377.307 182.25 377.641 181.913 378.067 181.671C378.493 181.429 378.97 181.308 379.5 181.308C380.03 181.308 380.507 181.429 380.933 181.671C381.359 181.913 381.694 182.25 381.937 182.681C382.18 183.111 382.302 183.598 382.302 184.139C382.302 184.68 382.18 185.166 381.937 185.597C381.694 186.028 381.359 186.365 380.933 186.607C380.507 186.849 380.03 186.97 379.5 186.97ZM379.5 186.489C379.929 186.489 380.314 186.39 380.654 186.19C380.994 185.991 381.262 185.713 381.459 185.357C381.656 185.001 381.754 184.595 381.754 184.139C381.754 183.683 381.656 183.277 381.459 182.921C381.262 182.565 380.994 182.287 380.654 182.088C380.314 181.888 379.929 181.788 379.5 181.788C379.071 181.788 378.686 181.888 378.346 182.088C378.006 182.287 377.738 182.565 377.541 182.921C377.344 183.277 377.246 183.683 377.246 184.139C377.246 184.595 377.344 185.001 377.541 185.357C377.738 185.713 378.006 185.991 378.346 186.19C378.686 186.39 379.071 186.489 379.5 186.489ZM388.112 181.308C388.814 181.308 389.368 181.511 389.776 181.917C390.184 182.323 390.388 182.907 390.388 183.669V186.927H389.851V183.712C389.851 183.085 389.692 182.608 389.374 182.28C389.055 181.952 388.61 181.788 388.037 181.788C387.379 181.788 386.86 181.984 386.481 182.376C386.101 182.768 385.912 183.295 385.912 183.957V186.927H385.375V181.35H385.89V182.558C386.083 182.166 386.372 181.86 386.754 181.639C387.137 181.418 387.59 181.308 388.112 181.308ZM399.001 179V186.927H398.475V185.613C398.253 186.048 397.941 186.382 397.541 186.618C397.14 186.853 396.685 186.97 396.177 186.97C395.655 186.97 395.182 186.849 394.76 186.607C394.338 186.365 394.007 186.03 393.767 185.603C393.527 185.175 393.408 184.687 393.408 184.139C393.408 183.59 393.527 183.101 393.767 182.67C394.007 182.239 394.338 181.904 394.76 181.666C395.182 181.427 395.655 181.308 396.177 181.308C396.678 181.308 397.127 181.425 397.524 181.66C397.922 181.895 398.235 182.223 398.464 182.643V179H399.001ZM396.209 186.489C396.639 186.489 397.024 186.39 397.363 186.19C397.703 185.991 397.972 185.713 398.169 185.357C398.365 185.001 398.464 184.595 398.464 184.139C398.464 183.683 398.365 183.277 398.169 182.921C397.972 182.565 397.703 182.287 397.363 182.088C397.024 181.888 396.639 181.788 396.209 181.788C395.78 181.788 395.395 181.888 395.055 182.088C394.715 182.287 394.447 182.565 394.25 182.921C394.053 183.277 393.955 183.683 393.955 184.139C393.955 184.595 394.053 185.001 394.25 185.357C394.447 185.713 394.715 185.991 395.055 186.19C395.395 186.39 395.78 186.489 396.209 186.489ZM404.092 186.97C403.641 186.97 403.211 186.902 402.804 186.767C402.396 186.632 402.077 186.461 401.848 186.254L402.095 185.827C402.324 186.019 402.619 186.179 402.981 186.308C403.342 186.436 403.72 186.5 404.113 186.5C404.679 186.5 405.095 186.407 405.364 186.222C405.632 186.037 405.766 185.781 405.766 185.453C405.766 185.218 405.693 185.033 405.546 184.897C405.4 184.762 405.219 184.662 405.004 184.598C404.79 184.534 404.493 184.467 404.113 184.395C403.669 184.317 403.312 184.231 403.04 184.139C402.768 184.046 402.535 183.897 402.342 183.69C402.149 183.484 402.052 183.199 402.052 182.835C402.052 182.394 402.236 182.029 402.605 181.74C402.973 181.452 403.498 181.308 404.178 181.308C404.535 181.308 404.89 181.358 405.24 181.457C405.591 181.557 405.877 181.689 406.099 181.853L405.852 182.28C405.623 182.116 405.362 181.991 405.069 181.906C404.775 181.821 404.475 181.778 404.167 181.778C403.644 181.778 403.251 181.874 402.986 182.066C402.721 182.259 402.589 182.511 402.589 182.825C402.589 183.074 402.664 183.268 402.814 183.407C402.965 183.546 403.149 183.649 403.367 183.717C403.585 183.785 403.891 183.858 404.285 183.936C404.722 184.014 405.074 184.098 405.342 184.187C405.611 184.276 405.838 184.42 406.024 184.62C406.21 184.819 406.303 185.093 406.303 185.442C406.303 185.905 406.11 186.276 405.723 186.553C405.337 186.831 404.793 186.97 404.092 186.97ZM415.605 186.97C415.061 186.97 414.575 186.849 414.145 186.607C413.716 186.365 413.379 186.028 413.136 185.597C412.893 185.166 412.771 184.68 412.771 184.139C412.771 183.59 412.893 183.101 413.136 182.67C413.379 182.239 413.716 181.904 414.145 181.666C414.575 181.427 415.061 181.308 415.605 181.308C416.056 181.308 416.466 181.395 416.834 181.569C417.203 181.744 417.502 181.999 417.731 182.333L417.334 182.622C417.133 182.344 416.885 182.136 416.588 181.997C416.29 181.858 415.963 181.788 415.605 181.788C415.169 181.788 414.777 181.886 414.43 182.082C414.083 182.278 413.811 182.554 413.614 182.91C413.417 183.266 413.319 183.676 413.319 184.139C413.319 184.602 413.417 185.011 413.614 185.368C413.811 185.724 414.083 186 414.43 186.196C414.777 186.391 415.169 186.489 415.605 186.489C415.963 186.489 416.29 186.42 416.588 186.281C416.885 186.142 417.133 185.934 417.334 185.656L417.731 185.944C417.502 186.279 417.203 186.534 416.834 186.708C416.466 186.883 416.056 186.97 415.605 186.97ZM422.639 181.308C423.334 181.308 423.867 181.484 424.239 181.837C424.611 182.189 424.797 182.707 424.797 183.391V186.927H424.282V185.934C424.103 186.261 423.842 186.516 423.498 186.698C423.155 186.879 422.743 186.97 422.264 186.97C421.641 186.97 421.149 186.824 420.788 186.532C420.426 186.24 420.246 185.855 420.246 185.378C420.246 184.915 420.412 184.54 420.745 184.251C421.078 183.963 421.609 183.818 422.339 183.818H424.26V183.37C424.26 182.85 424.119 182.454 423.836 182.184C423.554 181.913 423.14 181.778 422.597 181.778C422.224 181.778 421.868 181.842 421.528 181.97C421.188 182.098 420.9 182.269 420.664 182.483L420.396 182.098C420.675 181.849 421.011 181.655 421.405 181.516C421.799 181.377 422.21 181.308 422.639 181.308ZM422.339 186.532C422.804 186.532 423.199 186.425 423.525 186.212C423.851 185.998 424.096 185.688 424.26 185.282V184.235H422.35C421.799 184.235 421.4 184.335 421.153 184.534C420.906 184.734 420.782 185.008 420.782 185.357C420.782 185.72 420.918 186.007 421.19 186.217C421.462 186.427 421.845 186.532 422.339 186.532ZM431.23 181.308C431.753 181.308 432.225 181.429 432.647 181.671C433.07 181.913 433.401 182.248 433.64 182.675C433.88 183.103 434 183.59 434 184.139C434 184.687 433.88 185.177 433.64 185.608C433.401 186.039 433.07 186.374 432.647 186.612C432.225 186.851 431.753 186.97 431.23 186.97C430.736 186.97 430.289 186.854 429.888 186.623C429.488 186.391 429.176 186.069 428.954 185.656V189H428.418V181.35H428.933V182.665C429.155 182.237 429.468 181.904 429.872 181.666C430.277 181.427 430.729 181.308 431.23 181.308ZM431.198 186.489C431.628 186.489 432.014 186.39 432.358 186.19C432.701 185.991 432.971 185.713 433.168 185.357C433.365 185.001 433.463 184.595 433.463 184.139C433.463 183.683 433.365 183.277 433.168 182.921C432.971 182.565 432.701 182.287 432.358 182.088C432.014 181.888 431.628 181.788 431.198 181.788C430.769 181.788 430.384 181.888 430.044 182.088C429.704 182.287 429.436 182.565 429.239 182.921C429.042 183.277 428.944 183.683 428.944 184.139C428.944 184.595 429.042 185.001 429.239 185.357C429.436 185.713 429.704 185.991 430.044 186.19C430.384 186.39 430.769 186.489 431.198 186.489Z" fill="white"/>
    <path fill-rule="evenodd" clip-rule="evenodd" d="M402.545 91.3714V95H399.455V91.3286L396 85H399.259L401.131 88.4571L403.016 85H406L402.545 91.3714Z" fill="#00F5FF"/>
    <path fill-rule="evenodd" clip-rule="evenodd" d="M406 254.386V257H397V254.929L401.479 249.614H397.14V247H405.776V249.071L401.297 254.386H406Z" fill="#00F5FF"/>
    <path fill-rule="evenodd" clip-rule="evenodd" d="M402.008 234.05L383.95 216.008C383.95 216.008 386.112 213.645 390.963 212.503C395.814 211.361 399.467 213.647 402.714 216.008C405.961 218.369 408.423 219.576 412.257 219.363C416.09 219.15 418.563 217.457 419.956 215.793C421.35 214.13 402.008 234.05 402.008 234.05Z" fill="#00F5FF"/>
    <path fill-rule="evenodd" clip-rule="evenodd" d="M421 216L402 197L383 216L402 235L421 216ZM419.1 216L402 198.9L384.9 216L402 233.1L419.1 216Z" fill="#00F5FF"/>
    <path fill-rule="evenodd" clip-rule="evenodd" d="M394.4 225.5V205.55H395.76L409.163 222.907V205.55H410.55V225.5L409.86 226.146L395.787 207.773V227.4L394.4 225.5Z" fill="#00F5FF"/>
    <path fill-rule="evenodd" clip-rule="evenodd" d="M394.4 213.15V225.485L395.787 227.4V213.276C395.337 213.203 394.875 213.16 394.4 213.15ZM406.184 218.982C405.213 218.455 404.235 217.786 403.171 216.986C402.971 216.836 402.77 216.687 402.567 216.538L409.86 226.135L410.55 225.485V220.345C410.07 220.301 409.609 220.229 409.163 220.129V222.87L406.184 218.982Z" fill="black"/>
    <g opacity="0.425563">
        <path fill-rule="evenodd" clip-rule="evenodd" d="M92.0504 239.521L62.5667 222.359C59.1883 220.349 59.1883 217.102 62.5667 215.092L92.0504 197.931C95.4288 195.921 101.111 195.921 104.489 197.931L133.973 215.092C137.351 217.102 137.351 220.349 133.973 222.359L104.489 239.521C101.111 241.531 95.5823 241.531 92.0504 239.521Z" fill="url(#paint4_linear)"/>
    </g>
    <path fill-rule="evenodd" clip-rule="evenodd" d="M92.0504 222.623L62.5667 205.377C59.1883 203.357 59.1883 200.094 62.5667 198.074L92.0504 180.828C95.4288 178.808 101.111 178.808 104.489 180.828L133.973 198.074C137.351 200.094 137.351 203.357 133.973 205.377L104.642 222.623C101.111 224.643 95.5823 224.643 92.0504 222.623Z" fill="url(#paint5_linear)"/>
    <g opacity="0.328911">
        <path fill-rule="evenodd" clip-rule="evenodd" d="M92.0504 207.349L62.5667 190.103C59.1883 188.083 59.1883 184.82 62.5667 182.8L92.0504 165.554C95.4288 163.534 101.111 163.534 104.489 165.554L133.973 182.8C137.351 184.82 137.351 188.083 133.973 190.103L104.642 207.349C101.111 209.369 95.5823 209.369 92.0504 207.349Z" fill="url(#paint6_linear)"/>
    </g>
    <g opacity="0.425563">
        <path fill-rule="evenodd" clip-rule="evenodd" d="M246.817 87.3419L232.267 78.9178C230.599 77.9312 230.599 76.3374 232.267 75.3508L246.817 66.9267C248.484 65.9401 251.288 65.9401 252.956 66.9267L267.506 75.3508C269.173 76.3374 269.173 77.9312 267.506 78.9178L252.956 87.3419C251.288 88.3285 248.56 88.3285 246.817 87.3419Z" fill="url(#paint7_linear)"/>
    </g>
    <path fill-rule="evenodd" clip-rule="evenodd" d="M246.817 78.9051L232.267 70.4395C230.599 69.448 230.599 67.8464 232.267 66.855L246.817 58.3894C248.484 57.3979 251.288 57.3979 252.956 58.3894L267.506 66.855C269.173 67.8464 269.173 69.448 267.506 70.4395L253.031 78.9051C251.288 79.8966 248.56 79.8966 246.817 78.9051Z" fill="url(#paint8_linear)"/>
    <g opacity="0.43138">
        <path fill-rule="evenodd" clip-rule="evenodd" d="M246.817 71.2784L232.267 62.8128C230.599 61.8213 230.599 60.2197 232.267 59.2282L246.817 50.7626C248.484 49.7712 251.288 49.7712 252.956 50.7626L267.506 59.2282C269.173 60.2197 269.173 61.8213 267.506 62.8128L253.031 71.2784C251.288 72.2698 248.56 72.2698 246.817 71.2784Z" fill="url(#paint9_linear)"/>
    </g>
    <g opacity="0.425563">
        <path fill-rule="evenodd" clip-rule="evenodd" d="M245.817 259.342L231.267 250.918C229.599 249.931 229.599 248.337 231.267 247.351L245.817 238.927C247.484 237.94 250.288 237.94 251.956 238.927L266.506 247.351C268.173 248.337 268.173 249.931 266.506 250.918L251.956 259.342C250.288 260.328 247.56 260.328 245.817 259.342Z" fill="url(#paint10_linear)"/>
    </g>
    <path fill-rule="evenodd" clip-rule="evenodd" d="M245.817 250.905L231.267 242.439C229.599 241.448 229.599 239.846 231.267 238.855L245.817 230.389C247.484 229.398 250.288 229.398 251.956 230.389L266.506 238.855C268.173 239.846 268.173 241.448 266.506 242.439L252.031 250.905C250.288 251.897 247.56 251.897 245.817 250.905Z" fill="url(#paint11_linear)"/>
    <g opacity="0.43138">
        <path fill-rule="evenodd" clip-rule="evenodd" d="M245.817 243.278L231.267 234.813C229.599 233.821 229.599 232.22 231.267 231.228L245.817 222.763C247.484 221.771 250.288 221.771 251.956 222.763L266.506 231.228C268.173 232.22 268.173 233.821 266.506 234.813L252.031 243.278C250.288 244.27 247.56 244.27 245.817 243.278Z" fill="url(#paint12_linear)"/>
    </g>
    <path fill-rule="evenodd" clip-rule="evenodd" d="M98.5 107L136 144.5L98.5 182L61 144.5L98.5 107Z" fill="url(#paint13_linear)"/>
    <path fill-rule="evenodd" clip-rule="evenodd" d="M88.1379 154.027V131.862H89.7986L106.168 151.146V131.862H107.862V154.027L107.019 154.744L89.8325 134.332V156.138L88.1379 154.027Z" fill="#00F5FF"/>
    <path fill-rule="evenodd" clip-rule="evenodd" d="M120 144L98 122L76 144L98 166L120 144ZM117.8 144L98 124.2L78.2 144L98 163.8L117.8 144Z" fill="#00F5FF"/>
    <path d="M77.5172 143.87C77.5172 143.87 80.0213 141.126 85.6382 139.8C91.2551 138.474 95.485 141.128 99.2449 143.87C103.005 146.611 105.856 148.013 110.295 147.765C114.734 147.518 117.628 145.124 119.241 143.192" stroke="#00F5FF"/>
    <path opacity="0.107631" fill-rule="evenodd" clip-rule="evenodd" d="M248.5 107L286 144.5L248.5 182L211 144.5L248.5 107Z" fill="url(#paint14_linear)"/>
    <path fill-rule="evenodd" clip-rule="evenodd" d="M238.138 154.027V131.862H239.799L256.168 151.146V131.862H257.862V154.027L257.019 154.744L239.832 134.332V156.138L238.138 154.027Z" fill="#00F5FF"/>
    <path fill-rule="evenodd" clip-rule="evenodd" d="M270 144L248 122L226 144L248 166L270 144ZM267.8 144L248 124.2L228.2 144L248 163.8L267.8 144Z" fill="#00F5FF"/>
    <path d="M227.517 143.87C227.517 143.87 230.021 141.126 235.638 139.8C241.255 138.474 245.485 141.128 249.245 143.87C253.005 146.611 255.856 148.013 260.295 147.765C264.734 147.518 267.628 145.124 269.241 143.192" stroke="#00F5FF"/>
    <path d="M182 144.5L187 147.387V141.613L182 144.5ZM212 145H212.5V144H212V145ZM186.5 145H212V144H186.5V145Z" fill="#4A4AA3"/>
    <path d="M316 144.5L311 147.387V141.613L316 144.5ZM286 145H285.5V144H286V145ZM311.5 145H286V144H311.5V145Z" fill="#4A4AA3"/>
    <path fill-rule="evenodd" clip-rule="evenodd" d="M368.476 10C367.628 10 366.864 9.79501 366.183 9.38503C365.502 8.97504 364.968 8.40687 364.581 7.68048C364.194 6.9541 364 6.14082 364 5.24064C364 4.34046 364.194 3.52719 364.581 2.8008C364.968 2.07442 365.504 1.50624 366.189 1.09626C366.874 0.686272 367.641 0.481283 368.489 0.481283C369.125 0.481283 369.712 0.597147 370.25 0.828877C370.788 1.06061 371.245 1.39928 371.62 1.84492L371.045 2.47326C370.376 1.73351 369.532 1.36364 368.513 1.36364C367.836 1.36364 367.221 1.53298 366.666 1.87166C366.112 2.21034 365.678 2.67379 365.364 3.26203C365.05 3.85027 364.893 4.5098 364.893 5.24064C364.893 5.97148 365.05 6.63101 365.364 7.21925C365.678 7.80749 366.112 8.27094 366.666 8.60963C367.221 8.94831 367.836 9.11765 368.513 9.11765C369.541 9.11765 370.384 8.74332 371.045 7.99465L371.62 8.62299C371.245 9.06863 370.786 9.40954 370.244 9.64572C369.702 9.88191 369.112 10 368.476 10ZM377.322 9.98663C376.703 9.98663 376.144 9.83289 375.647 9.5254C375.149 9.21791 374.758 8.79234 374.473 8.24866C374.187 7.70499 374.045 7.09002 374.045 6.40374C374.045 5.71747 374.187 5.1025 374.473 4.55882C374.758 4.01515 375.149 3.5918 375.647 3.28877C376.144 2.98574 376.703 2.83422 377.322 2.83422C377.942 2.83422 378.501 2.98574 378.998 3.28877C379.495 3.5918 379.885 4.01515 380.166 4.55882C380.447 5.1025 380.588 5.71747 380.588 6.40374C380.588 7.09002 380.447 7.70499 380.166 8.24866C379.885 8.79234 379.495 9.21791 378.998 9.5254C378.501 9.83289 377.942 9.98663 377.322 9.98663ZM377.322 9.14438C377.779 9.14438 378.189 9.03075 378.552 8.80348C378.914 8.5762 379.198 8.25312 379.402 7.83422C379.605 7.41533 379.707 6.93851 379.707 6.40374C379.707 5.86898 379.605 5.39216 379.402 4.97326C379.198 4.55437 378.914 4.23128 378.552 4.00401C378.189 3.77674 377.779 3.6631 377.322 3.6631C376.866 3.6631 376.456 3.77674 376.093 4.00401C375.73 4.23128 375.445 4.55437 375.237 4.97326C375.029 5.39216 374.925 5.86898 374.925 6.40374C374.925 6.93851 375.029 7.41533 375.237 7.83422C375.445 8.25312 375.73 8.5762 376.093 8.80348C376.456 9.03075 376.866 9.14438 377.322 9.14438ZM383.967 0H384.835V9.91979H383.967V0ZM388.862 0H389.731V9.91979H388.862V0ZM396.008 2.83422C396.848 2.83422 397.492 3.06372 397.941 3.52273C398.389 3.98173 398.613 4.66131 398.613 5.5615V9.91979H397.782V8.82353C397.586 9.18895 397.298 9.47415 396.919 9.67914C396.54 9.88414 396.09 9.98663 395.568 9.98663C394.85 9.98663 394.279 9.79947 393.855 9.42513C393.431 9.0508 393.219 8.55615 393.219 7.94118C393.219 7.34403 393.417 6.86275 393.813 6.49733C394.208 6.13191 394.838 5.9492 395.702 5.9492H397.745V5.52139C397.745 4.91533 397.59 4.4541 397.28 4.1377C396.97 3.8213 396.518 3.6631 395.922 3.6631C395.515 3.6631 395.123 3.73663 394.748 3.88369C394.373 4.03075 394.051 4.23351 393.782 4.49198L393.391 3.78342C393.717 3.48039 394.108 3.24644 394.565 3.08155C395.021 2.91667 395.502 2.83422 396.008 2.83422ZM395.702 9.23797C396.192 9.23797 396.611 9.11542 396.962 8.87032C397.313 8.62522 397.574 8.27095 397.745 7.80749V6.65775H395.727C394.626 6.65775 394.076 7.07664 394.076 7.91444C394.076 8.32442 394.218 8.6475 394.504 8.88369C394.789 9.11988 395.189 9.23797 395.702 9.23797ZM405.967 9.49198C405.804 9.65241 405.602 9.77496 405.362 9.85963C405.121 9.9443 404.87 9.98663 404.609 9.98663C404.006 9.98663 403.541 9.80838 403.215 9.45187C402.889 9.09536 402.726 8.5918 402.726 7.94118V3.68984H401.576V2.8877H402.726V1.35027H403.594V2.8877H405.551V3.68984H403.594V7.8877C403.594 8.3066 403.69 8.62522 403.882 8.84358C404.073 9.06194 404.348 9.17112 404.707 9.17112C404.887 9.17112 405.06 9.13993 405.227 9.07754C405.394 9.01515 405.539 8.92603 405.661 8.81016L405.967 9.49198ZM414.519 6.69786H409.138C409.187 7.4287 409.444 8.01916 409.908 8.46925C410.373 8.91934 410.96 9.14439 411.67 9.14439C412.069 9.14439 412.436 9.0664 412.77 8.91043C413.105 8.75446 413.394 8.52496 413.639 8.22193L414.128 8.8369C413.843 9.21123 413.486 9.49643 413.058 9.69251C412.63 9.88859 412.159 9.98663 411.645 9.98663C410.985 9.98663 410.4 9.83289 409.89 9.5254C409.38 9.21791 408.983 8.79234 408.698 8.24866C408.412 7.70499 408.269 7.09002 408.269 6.40374C408.269 5.71747 408.406 5.1025 408.679 4.55882C408.952 4.01515 409.327 3.5918 409.804 3.28877C410.281 2.98574 410.818 2.83422 411.413 2.83422C412.008 2.83422 412.542 2.98574 413.015 3.28877C413.488 3.5918 413.859 4.01292 414.128 4.55214C414.397 5.09136 414.532 5.70855 414.532 6.40374L414.519 6.69786ZM411.413 3.64973C410.793 3.64973 410.273 3.86586 409.853 4.29813C409.433 4.73039 409.195 5.29411 409.138 5.9893H413.7C413.643 5.29411 413.404 4.73039 412.984 4.29813C412.564 3.86586 412.041 3.64973 411.413 3.64973ZM418.742 4.26471C418.946 3.79233 419.25 3.43583 419.653 3.19519C420.057 2.95454 420.556 2.83422 421.152 2.83422V3.75668L420.944 3.74332C420.267 3.74332 419.737 3.97059 419.354 4.42513C418.97 4.87968 418.779 5.51693 418.779 6.3369V9.91979H417.91V2.8877H418.742V4.26471ZM426.561 2.83422C427.4 2.83422 428.045 3.06372 428.493 3.52273C428.942 3.98173 429.166 4.66131 429.166 5.5615V9.91979H428.334V8.82353C428.138 9.18895 427.851 9.47415 427.472 9.67914C427.093 9.88414 426.642 9.98663 426.12 9.98663C425.403 9.98663 424.832 9.79947 424.408 9.42513C423.984 9.0508 423.772 8.55615 423.772 7.94118C423.772 7.34403 423.97 6.86275 424.365 6.49733C424.761 6.13191 425.391 5.9492 426.255 5.9492H428.297V5.52139C428.297 4.91533 428.142 4.4541 427.833 4.1377C427.523 3.8213 427.07 3.6631 426.475 3.6631C426.067 3.6631 425.676 3.73663 425.301 3.88369C424.926 4.03075 424.604 4.23351 424.335 4.49198L423.943 3.78342C424.269 3.48039 424.661 3.24644 425.117 3.08155C425.574 2.91667 426.055 2.83422 426.561 2.83422ZM426.255 9.23797C426.744 9.23797 427.164 9.11542 427.515 8.87032C427.865 8.62522 428.126 8.27095 428.297 7.80749V6.65775H426.279C425.179 6.65775 424.628 7.07664 424.628 7.91444C424.628 8.32442 424.771 8.6475 425.056 8.88369C425.342 9.11988 425.741 9.23797 426.255 9.23797ZM433.132 0H434V9.91979H433.132V0Z" fill="#00F5FF"/>
    <path fill-rule="evenodd" clip-rule="evenodd" d="M391.925 39L389.555 46H389.015L386.845 39.72L384.665 46H384.125L381.745 39H382.285L384.415 45.3L386.605 39H387.095L389.275 45.31L391.425 39H391.925ZM398.215 44.03H394.155L393.265 46H392.715L395.935 39H396.445L399.665 46H399.115L398.215 44.03ZM398.025 43.6L396.185 39.56L394.355 43.6H398.025ZM406.865 39L403.745 46H403.235L400.115 39H400.675L403.505 45.34L406.335 39H406.865ZM413.525 45.54V46H408.695V39H413.375V39.46H409.205V42.22H412.935V42.67H409.205V45.54H413.525ZM417.925 46.05C417.412 46.05 416.923 45.9616 416.46 45.785C415.997 45.6083 415.635 45.38 415.375 45.1L415.605 44.72C415.852 44.98 416.183 45.1916 416.6 45.355C417.017 45.5183 417.455 45.6 417.915 45.6C418.582 45.6 419.085 45.4733 419.425 45.22C419.765 44.9666 419.935 44.6366 419.935 44.23C419.935 43.9166 419.845 43.6666 419.665 43.48C419.485 43.2933 419.262 43.15 418.995 43.05C418.728 42.95 418.368 42.8466 417.915 42.74C417.402 42.6133 416.99 42.49 416.68 42.37C416.37 42.25 416.107 42.065 415.89 41.815C415.673 41.5649 415.565 41.23 415.565 40.81C415.565 40.4699 415.655 40.1583 415.835 39.875C416.015 39.5916 416.29 39.3666 416.66 39.2C417.03 39.0333 417.492 38.95 418.045 38.95C418.432 38.95 418.812 39.0066 419.185 39.12C419.558 39.2333 419.882 39.3866 420.155 39.58L419.965 39.99C419.685 39.7966 419.377 39.65 419.04 39.55C418.703 39.45 418.372 39.4 418.045 39.4C417.398 39.4 416.908 39.5299 416.575 39.79C416.242 40.05 416.075 40.3866 416.075 40.8C416.075 41.1133 416.165 41.3633 416.345 41.55C416.525 41.7366 416.748 41.88 417.015 41.98C417.282 42.08 417.645 42.1866 418.105 42.3C418.618 42.4266 419.028 42.55 419.335 42.67C419.642 42.79 419.903 42.9716 420.12 43.215C420.337 43.4583 420.445 43.7866 420.445 44.2C420.445 44.54 420.353 44.8499 420.17 45.13C419.987 45.41 419.705 45.6333 419.325 45.8C418.945 45.9666 418.478 46.05 417.925 46.05ZM394.865 58.04C394.358 58.04 393.905 57.9266 393.505 57.7C393.105 57.4733 392.792 57.1583 392.565 56.755C392.338 56.3516 392.225 55.8966 392.225 55.39C392.225 54.8766 392.338 54.4183 392.565 54.015C392.792 53.6116 393.105 53.2983 393.505 53.075C393.905 52.8516 394.358 52.74 394.865 52.74C395.285 52.74 395.667 52.8216 396.01 52.985C396.353 53.1483 396.632 53.3866 396.845 53.7L396.475 53.97C396.288 53.7099 396.057 53.515 395.78 53.385C395.503 53.255 395.198 53.19 394.865 53.19C394.458 53.19 394.093 53.2816 393.77 53.465C393.447 53.6483 393.193 53.9066 393.01 54.24C392.827 54.5733 392.735 54.9566 392.735 55.39C392.735 55.8233 392.827 56.2066 393.01 56.54C393.193 56.8733 393.447 57.1316 393.77 57.315C394.093 57.4983 394.458 57.59 394.865 57.59C395.198 57.59 395.503 57.525 395.78 57.395C396.057 57.265 396.288 57.07 396.475 56.81L396.845 57.08C396.632 57.3933 396.353 57.6316 396.01 57.795C395.667 57.9583 395.285 58.04 394.865 58.04ZM400.805 52.74C401.452 52.74 401.948 52.9049 402.295 53.235C402.642 53.565 402.815 54.0499 402.815 54.69V58H402.335V57.07C402.168 57.3766 401.925 57.615 401.605 57.785C401.285 57.955 400.902 58.04 400.455 58.04C399.875 58.04 399.417 57.9033 399.08 57.63C398.743 57.3566 398.575 56.9966 398.575 56.55C398.575 56.1166 398.73 55.765 399.04 55.495C399.35 55.2249 399.845 55.09 400.525 55.09H402.315V54.67C402.315 54.1833 402.183 53.8133 401.92 53.56C401.657 53.3066 401.272 53.18 400.765 53.18C400.418 53.18 400.087 53.24 399.77 53.36C399.453 53.48 399.185 53.64 398.965 53.84L398.715 53.48C398.975 53.2466 399.288 53.065 399.655 52.935C400.022 52.805 400.405 52.74 400.805 52.74ZM400.525 57.63C400.958 57.63 401.327 57.53 401.63 57.33C401.933 57.13 402.162 56.84 402.315 56.46V55.48H400.535C400.022 55.48 399.65 55.5733 399.42 55.76C399.19 55.9466 399.075 56.2033 399.075 56.53C399.075 56.87 399.202 57.1383 399.455 57.335C399.708 57.5316 400.065 57.63 400.525 57.63ZM408.195 52.74C408.682 52.74 409.122 52.8533 409.515 53.08C409.908 53.3066 410.217 53.6199 410.44 54.02C410.663 54.42 410.775 54.8766 410.775 55.39C410.775 55.9033 410.663 56.3616 410.44 56.765C410.217 57.1683 409.908 57.4816 409.515 57.705C409.122 57.9283 408.682 58.04 408.195 58.04C407.735 58.04 407.318 57.9316 406.945 57.715C406.572 57.4983 406.282 57.1966 406.075 56.81V59.94H405.575V52.78H406.055V54.01C406.262 53.6099 406.553 53.2983 406.93 53.075C407.307 52.8516 407.728 52.74 408.195 52.74ZM408.165 57.59C408.565 57.59 408.925 57.4966 409.245 57.31C409.565 57.1233 409.817 56.8633 410 56.53C410.183 56.1966 410.275 55.8166 410.275 55.39C410.275 54.9633 410.183 54.5833 410 54.25C409.817 53.9166 409.565 53.6566 409.245 53.47C408.925 53.2833 408.565 53.19 408.165 53.19C407.765 53.19 407.407 53.2833 407.09 53.47C406.773 53.6566 406.523 53.9166 406.34 54.25C406.157 54.5833 406.065 54.9633 406.065 55.39C406.065 55.8166 406.157 56.1966 406.34 56.53C406.523 56.8633 406.773 57.1233 407.09 57.31C407.407 57.4966 407.765 57.59 408.165 57.59Z" fill="white"/>
    <defs>
        <linearGradient id="paint0_linear" x1="-152.757" y1="143.122" x2="-91.6741" y2="356.417" gradientUnits="userSpaceOnUse">
            <stop stop-color="#17183A"/>
            <stop offset="1" stop-color="#171839"/>
        </linearGradient>
        <linearGradient id="paint1_linear" x1="-159.042" y1="167.263" x2="-95.146" y2="392.071" gradientUnits="userSpaceOnUse">
            <stop stop-color="#DBDBDB"/>
            <stop offset="0.509212" stop-color="#33346A"/>
            <stop offset="1" stop-color="#0F4143"/>
        </linearGradient>
        <linearGradient id="paint2_linear" x1="143.958" y1="167.263" x2="207.854" y2="392.071" gradientUnits="userSpaceOnUse">
            <stop stop-color="#DBDBDB"/>
            <stop offset="0.509212" stop-color="#33346A"/>
            <stop offset="1" stop-color="#0F4143"/>
        </linearGradient>
        <linearGradient id="paint3_linear" x1="144.532" y1="227.939" x2="158.933" y2="337.919" gradientUnits="userSpaceOnUse">
            <stop stop-color="#DBDBDB"/>
            <stop offset="0.509212" stop-color="#33346A"/>
            <stop offset="1" stop-color="#0F4143"/>
        </linearGradient>
        <linearGradient id="paint4_linear" x1="109.685" y1="252.555" x2="139.978" y2="197.261" gradientUnits="userSpaceOnUse">
            <stop stop-color="#6121A1"/>
            <stop offset="1" stop-color="#00AEFF"/>
        </linearGradient>
        <linearGradient id="paint5_linear" x1="109.685" y1="235.721" x2="140.208" y2="180.281" gradientUnits="userSpaceOnUse">
            <stop stop-color="#6121A1"/>
            <stop offset="1" stop-color="#00AEFF"/>
        </linearGradient>
        <linearGradient id="paint6_linear" x1="109.685" y1="220.447" x2="140.208" y2="165.007" gradientUnits="userSpaceOnUse">
            <stop stop-color="#6121A1"/>
            <stop offset="1" stop-color="#00AEFF"/>
        </linearGradient>
        <linearGradient id="paint7_linear" x1="255.52" y1="93.7396" x2="270.347" y2="66.5307" gradientUnits="userSpaceOnUse">
            <stop stop-color="#6121A1"/>
            <stop offset="1" stop-color="#00AEFF"/>
        </linearGradient>
        <linearGradient id="paint8_linear" x1="255.52" y1="85.3343" x2="270.459" y2="58.0531" gradientUnits="userSpaceOnUse">
            <stop stop-color="#6121A1"/>
            <stop offset="1" stop-color="#00AEFF"/>
        </linearGradient>
        <linearGradient id="paint9_linear" x1="255.52" y1="77.7076" x2="270.459" y2="50.4264" gradientUnits="userSpaceOnUse">
            <stop stop-color="#6121A1"/>
            <stop offset="1" stop-color="#00AEFF"/>
        </linearGradient>
        <linearGradient id="paint10_linear" x1="254.52" y1="265.74" x2="269.347" y2="238.531" gradientUnits="userSpaceOnUse">
            <stop stop-color="#6121A1"/>
            <stop offset="1" stop-color="#00AEFF"/>
        </linearGradient>
        <linearGradient id="paint11_linear" x1="254.52" y1="257.334" x2="269.459" y2="230.053" gradientUnits="userSpaceOnUse">
            <stop stop-color="#6121A1"/>
            <stop offset="1" stop-color="#00AEFF"/>
        </linearGradient>
        <linearGradient id="paint12_linear" x1="254.52" y1="249.708" x2="269.459" y2="222.426" gradientUnits="userSpaceOnUse">
            <stop stop-color="#6121A1"/>
            <stop offset="1" stop-color="#00AEFF"/>
        </linearGradient>
        <linearGradient id="paint13_linear" x1="109.695" y1="201.38" x2="170.016" y2="137.16" gradientUnits="userSpaceOnUse">
            <stop stop-color="#6121A1"/>
            <stop offset="1" stop-color="#00AEFF"/>
        </linearGradient>
        <linearGradient id="paint14_linear" x1="198.11" y1="141.707" x2="222.744" y2="193.219" gradientUnits="userSpaceOnUse">
            <stop stop-color="#DBDBDB"/>
            <stop offset="0.509212" stop-color="#33346A"/>
            <stop offset="1" stop-color="#0F4143"/>
        </linearGradient>
    </defs>
</svg>
