<svg width="594" height="268" viewBox="0 0 594 268" fill="none" xmlns="http://www.w3.org/2000/svg">
<path fill-rule="evenodd" clip-rule="evenodd" d="M496.961 143.01C496.961 143.01 503.797 206.792 465.652 199.791C427.507 192.791 368.033 200.569 343.666 210.681C319.3 220.793 315.909 239.461 280.598 245.683C245.287 251.906 172.947 278.352 155.043 263.574C137.138 248.795 124.118 224.215 101.484 210.681C78.8494 197.147 29.709 192.031 11.8042 176.465C-6.10062 160.9 1.68408 128.358 1.68408 121.121C1.68408 113.883 49.1707 65.2445 61.6263 60.219C74.0818 55.1935 168.088 71.3517 177.913 60.219C187.738 49.0863 255.356 34.0462 260.398 34.0462C265.439 34.0462 427.367 32.7822 434.833 43.4834C442.298 54.1847 496.961 143.01 496.961 143.01Z" fill="url(#paint0_linear)"/>
<path fill-rule="evenodd" clip-rule="evenodd" d="M97.0389 124.99C97.0389 124.99 90.2029 61.2082 128.348 68.2087C166.493 75.2092 225.967 67.4309 250.334 57.3191C274.7 47.2072 278.091 28.5393 313.402 22.3166C348.713 16.0939 421.053 -10.3524 438.957 4.42645C456.862 19.2053 469.882 43.7848 492.516 57.3191C515.151 70.8533 564.291 75.9688 582.196 91.5346C600.101 107.1 592.316 139.642 592.316 146.879C592.316 154.117 544.829 202.755 532.374 207.781C519.918 212.807 425.912 196.648 416.087 207.781C406.262 218.914 338.644 233.954 333.602 233.954C328.561 233.954 166.633 235.218 159.167 224.517C151.702 213.815 97.0389 124.99 97.0389 124.99Z" fill="url(#paint1_linear)"/>
<defs>
<linearGradient id="paint0_linear" x1="877.439" y1="350.515" x2="856.467" y2="-21.3634" gradientUnits="userSpaceOnUse">
<stop stop-color="#2D2F70"/>
<stop offset="0.534569" stop-color="#212352"/>
<stop offset="1" stop-color="#171839"/>
</linearGradient>
<linearGradient id="paint1_linear" x1="-283.439" y1="-82.5147" x2="-262.467" y2="289.363" gradientUnits="userSpaceOnUse">
<stop stop-color="#2D2F70"/>
<stop offset="0.534569" stop-color="#212352"/>
<stop offset="1" stop-color="#171839"/>
</linearGradient>
</defs>
</svg>
