<svg width="539" height="248" viewBox="0 0 539 248" fill="none" xmlns="http://www.w3.org/2000/svg">
    <path fill-rule="evenodd" clip-rule="evenodd" d="M488.978 140.854C488.978 140.854 495.704 78.1619 458.172 85.0427C420.639 91.9236 362.121 84.2782 338.146 74.3392C314.17 64.4003 310.834 46.0514 276.091 39.9351C241.347 33.8188 170.169 7.8246 152.552 22.3508C134.935 36.877 122.125 61.0363 99.8536 74.3392C77.5827 87.6422 29.2318 92.6702 11.6146 107.97C-6.00262 123.27 1.65704 155.255 1.65704 162.368C1.65704 169.482 48.3808 217.29 60.6363 222.229C72.8917 227.169 165.388 211.287 175.055 222.229C184.722 233.172 251.254 247.955 256.214 247.955C261.175 247.955 420.502 249.197 427.847 238.679C435.193 228.16 488.978 140.854 488.978 140.854Z" fill="url(#paint0_linear)"/>
    <path fill-rule="evenodd" clip-rule="evenodd" d="M50.0222 107.146C50.0222 107.146 43.2961 169.838 80.8283 162.957C118.361 156.076 176.879 163.722 200.854 173.661C224.83 183.6 228.166 201.949 262.909 208.065C297.653 214.181 368.831 240.175 386.448 225.649C404.065 211.123 416.875 186.964 439.146 173.661C461.417 160.358 509.768 155.33 527.385 140.03C545.003 124.73 537.343 92.7454 537.343 85.6316C537.343 78.5178 490.619 30.7104 478.364 25.7708C466.108 20.8312 373.612 36.7132 363.945 25.7708C354.278 14.8284 287.746 0.0453644 282.786 0.0453644C277.825 0.0453644 118.498 -1.19701 111.153 9.32133C103.807 19.8397 50.0222 107.146 50.0222 107.146Z" fill="url(#paint1_linear)"/>
    <path fill-rule="evenodd" clip-rule="evenodd" d="M478.184 129.854C478.184 129.854 483.552 67.1619 453.602 74.0427C423.653 80.9236 376.958 73.2782 357.826 63.3392C338.695 53.4003 336.033 35.0514 308.309 28.9351C280.585 22.8188 223.788 -3.1754 209.73 11.3508C195.672 25.877 185.45 50.0363 167.679 63.3392C149.908 76.6422 111.326 81.6702 97.2679 96.9699C83.2101 112.27 89.3222 144.255 89.3222 151.368C89.3222 158.482 126.606 206.29 136.385 211.229C146.165 216.169 219.973 200.287 227.687 211.229C235.401 222.172 288.49 236.955 292.449 236.955C296.407 236.955 423.543 238.197 429.405 227.679C435.266 217.16 478.184 129.854 478.184 129.854Z" fill="url(#paint2_linear)"/>
    <g clip-path="url(#clip0)">
        <path d="M324.576 174H255.774C250.37 173.999 245.352 171.201 242.509 166.604C239.668 162.007 239.409 156.266 241.825 151.432L276.222 82.627C278.863 77.3402 284.265 74 290.175 74C296.085 74 301.487 77.3402 304.128 82.627L338.526 151.432C340.941 156.266 340.682 162.007 337.841 166.604C334.999 171.201 329.98 173.999 324.576 174Z" fill="#FE783E"/>
        <path d="M290.175 98.9946C291.898 98.9946 293.295 100.391 293.295 102.114V139.547C293.295 141.269 291.898 142.666 290.175 142.666C288.453 142.666 287.056 141.269 287.056 139.547V102.114C287.056 100.391 288.453 98.9946 290.175 98.9946Z" fill="white"/>
        <path d="M287.056 148.905H293.295V155.143H287.056V148.905Z" fill="white"/>
    </g>
    <defs>
        <linearGradient id="paint0_linear" x1="863.344" y1="-63.1042" x2="842.752" y2="302.419" gradientUnits="userSpaceOnUse">
            <stop stop-color="#2D2F70"/>
            <stop offset="0.534569" stop-color="#212352"/>
            <stop offset="1" stop-color="#171839"/>
        </linearGradient>
        <linearGradient id="paint1_linear" x1="-324.344" y1="311.104" x2="-303.752" y2="-54.4195" gradientUnits="userSpaceOnUse">
            <stop stop-color="#2D2F70"/>
            <stop offset="0.534569" stop-color="#212352"/>
            <stop offset="1" stop-color="#171839"/>
        </linearGradient>
        <linearGradient id="paint2_linear" x1="776.913" y1="-74.1042" x2="751.153" y2="290.761" gradientUnits="userSpaceOnUse">
            <stop stop-color="#2D2F70"/>
            <stop offset="0.534569" stop-color="#212352"/>
            <stop offset="1" stop-color="#171839"/>
        </linearGradient>
        <clipPath id="clip0">
            <rect width="100" height="100" fill="white" transform="translate(240 74)"/>
        </clipPath>
    </defs>
</svg>
