<svg width="258" height="85" viewBox="0 0 258 85" fill="none" xmlns="http://www.w3.org/2000/svg">
<path d="M215.498 83.8648L256.86 42.5024L215.498 1.14002L174.135 42.5024L215.498 83.8648Z" stroke="url(#paint0_linear)" stroke-width="0.5"/>
<path d="M193.502 81.0382L232.043 42.4978L193.502 3.95731L154.962 42.4978L193.502 81.0382Z" stroke="url(#paint1_linear)" stroke-width="0.5"/>
<path d="M172.471 79.6109L209.552 42.5294L172.471 5.4479L135.389 42.5294L172.471 79.6109Z" stroke="url(#paint2_linear)" stroke-width="0.5"/>
<path d="M151.5 78.2089L187.209 42.5L151.5 6.7911L115.791 42.5L151.5 78.2089Z" stroke="url(#paint3_linear)" stroke-width="0.5"/>
<path d="M129.5 75.3805L162.381 42.5L129.5 9.61953L96.6197 42.5L129.5 75.3805Z" stroke="url(#paint4_linear)" stroke-width="0.5"/>
<path d="M107.5 72.552L137.552 42.5L107.5 12.4479L77.4481 42.5L107.5 72.552Z" stroke="url(#paint5_linear)" stroke-width="0.5"/>
<path d="M85.5001 69.7236L112.724 42.5L85.5001 15.2764L58.2765 42.5L85.5001 69.7236Z" stroke="url(#paint6_linear)" stroke-width="0.5"/>
<path d="M63.5001 66.8952L87.8953 42.5L63.5001 18.1048L39.1049 42.5L63.5001 66.8952Z" stroke="url(#paint7_linear)" stroke-width="0.5"/>
<path d="M41.5001 64.0668L63.0669 42.5L41.5001 20.9333L19.9334 42.5L41.5001 64.0668Z" stroke="url(#paint8_linear)" stroke-width="0.5"/>
<path d="M19.5001 61.2384L38.2385 42.5L19.5001 23.7617L0.761793 42.5L19.5001 61.2384Z" stroke="url(#paint9_linear)" stroke-width="0.5"/>
<defs>
<linearGradient id="paint0_linear" x1="190.087" y1="4.63799" x2="259.358" y2="6.80666" gradientUnits="userSpaceOnUse">
<stop stop-color="#6121A1"/>
<stop offset="1" stop-color="#00AEFF"/>
</linearGradient>
<linearGradient id="paint1_linear" x1="169.811" y1="7.19473" x2="234.396" y2="9.21671" gradientUnits="userSpaceOnUse">
<stop stop-color="#6121A1"/>
<stop offset="1" stop-color="#00AEFF"/>
</linearGradient>
<linearGradient id="paint2_linear" x1="149.668" y1="8.55063" x2="211.83" y2="10.4968" gradientUnits="userSpaceOnUse">
<stop stop-color="#6121A1"/>
<stop offset="1" stop-color="#00AEFF"/>
</linearGradient>
<linearGradient id="paint3_linear" x1="129.533" y1="9.7671" x2="189.416" y2="11.6419" gradientUnits="userSpaceOnUse">
<stop stop-color="#6121A1"/>
<stop offset="1" stop-color="#00AEFF"/>
</linearGradient>
<linearGradient id="paint4_linear" x1="109.256" y1="12.3344" x2="164.443" y2="14.0621" gradientUnits="userSpaceOnUse">
<stop stop-color="#6121A1"/>
<stop offset="1" stop-color="#00AEFF"/>
</linearGradient>
<linearGradient id="paint5_linear" x1="88.979" y1="14.9017" x2="139.469" y2="16.4824" gradientUnits="userSpaceOnUse">
<stop stop-color="#6121A1"/>
<stop offset="1" stop-color="#00AEFF"/>
</linearGradient>
<linearGradient id="paint6_linear" x1="68.7019" y1="17.4689" x2="114.495" y2="18.9026" gradientUnits="userSpaceOnUse">
<stop stop-color="#6121A1"/>
<stop offset="1" stop-color="#00AEFF"/>
</linearGradient>
<linearGradient id="paint7_linear" x1="48.4248" y1="20.0362" x2="89.5212" y2="21.3228" gradientUnits="userSpaceOnUse">
<stop stop-color="#6121A1"/>
<stop offset="1" stop-color="#00AEFF"/>
</linearGradient>
<linearGradient id="paint8_linear" x1="28.1477" y1="22.6036" x2="64.5473" y2="23.7431" gradientUnits="userSpaceOnUse">
<stop stop-color="#6121A1"/>
<stop offset="1" stop-color="#00AEFF"/>
</linearGradient>
<linearGradient id="paint9_linear" x1="7.87061" y1="25.1709" x2="39.5735" y2="26.1634" gradientUnits="userSpaceOnUse">
<stop stop-color="#6121A1"/>
<stop offset="1" stop-color="#00AEFF"/>
</linearGradient>
</defs>
</svg>
