<svg width="136" height="22" viewBox="0 0 136 22" fill="none" xmlns="http://www.w3.org/2000/svg">
<path fill-rule="evenodd" clip-rule="evenodd" d="M135.846 6.94628L132.854 9.89257L129.862 6.94628L132.854 4L135.846 6.94628Z" fill="#0055FF"/>
<path fill-rule="evenodd" clip-rule="evenodd" d="M90.5906 7.11226H92.2634L92.3728 7.25837L89.6941 15.1362L89.5077 15.2923H87.8026L87.6162 15.1367L85.6918 9.5002H85.6476L83.735 15.1362L83.5486 15.2923H81.865L81.6787 15.1362L79 7.25837L79.1094 7.11179H80.8146L80.9901 7.25837L82.7066 12.7908L82.7179 12.8008L82.7502 12.8216L84.6639 7.25837L84.8389 7.11273H86.5883L86.7634 7.25837L88.6878 12.8523H88.699L90.4155 7.2579L90.5906 7.11226ZM109.507 7.11226H111.191L111.301 7.25837L107.911 15.1362L107.714 15.2923H106.161L105.964 15.1362L102.608 7.25837L102.717 7.11273H104.434L104.62 7.25837L106.948 13.0911L106.97 13.0807L109.321 7.2579L109.507 7.11226Z" fill="black"/>
<path fill-rule="evenodd" clip-rule="evenodd" d="M120.036 11.4928L119.873 11.638L113.53 11.6172C113.596 12.3128 113.859 12.8003 114.318 13.2055C114.779 13.6235 115.39 13.854 116.024 13.8491C117.019 13.8491 117.62 13.4959 118.013 12.7488L118.233 12.5927H119.807L119.927 12.7488C119.698 13.6827 119.031 14.3678 118.396 14.783C117.762 15.2086 116.975 15.4162 116.056 15.4162C114.788 15.4162 113.738 15.0114 112.94 14.2123C112.142 13.4131 111.738 12.3955 111.738 11.1812C111.738 10.0393 112.12 9.03255 112.896 8.20221C113.673 7.37186 114.679 6.94629 115.882 6.94629C117.128 6.94629 118.145 7.34065 118.899 8.10905C119.654 8.87698 120.036 9.97732 120.036 11.254V11.4928ZM115.881 8.50342C114.766 8.50342 113.913 9.21933 113.64 10.1849H118.145C117.97 9.49974 117.357 8.50342 115.881 8.50342ZM99.8738 7.11226L99.7095 7.26831V8.07784L99.6766 8.10905C99.4579 7.83905 99.1626 7.60025 98.813 7.40307C98.7303 7.35925 98.6464 7.31763 98.5614 7.27824C98.0911 7.06072 97.5555 6.95669 96.9759 6.95669C95.8935 6.95669 94.9421 7.37186 94.155 8.1814C93.3678 8.99094 92.974 10.0085 92.974 11.202C92.974 12.3955 93.3678 13.4131 94.155 14.2227C94.9421 15.0322 95.8935 15.4474 96.9759 15.4474C97.5555 15.4474 98.0803 15.3433 98.5501 15.1258C98.5701 15.1164 98.5907 15.1069 98.6115 15.0974C98.6823 15.0648 98.7563 15.0308 98.8238 14.9906C99.1626 14.7934 99.4471 14.5754 99.6658 14.3158C99.6712 14.3106 99.6822 14.3132 99.6933 14.3158C99.7043 14.3184 99.7153 14.321 99.7207 14.3158V15.1566L99.8845 15.3126H101.317L101.481 15.1566V7.25838L101.317 7.10233H99.8738V7.11226ZM97.2274 13.8798C97.9273 13.8798 98.5069 13.6415 98.9881 13.1535C99.3049 12.8419 99.5236 12.4475 99.633 11.9596V10.3816C99.5128 9.91491 99.3049 9.53047 98.9881 9.20893C98.4957 8.72141 97.9165 8.48261 97.2274 8.48261C96.5384 8.48261 96.0465 8.73181 95.5546 9.21933C95.0735 9.71772 94.8219 10.3717 94.8219 11.1812C94.8219 12.0012 95.0627 12.6551 95.5546 13.1431C96.0465 13.6415 96.5497 13.8798 97.2274 13.8798Z" fill="black"/>
<path fill-rule="evenodd" clip-rule="evenodd" d="M124.225 10.2057C123.513 10.0497 123.153 9.8525 123.153 9.37538C123.153 8.86658 123.666 8.44101 124.771 8.44101C125.854 8.44101 126.455 8.89779 126.455 9.30256L126.641 9.4586H128.215L128.336 9.31296C128.336 8.24383 127.362 6.9671 124.815 6.9671C122.158 6.9671 121.327 8.45141 121.327 9.40612C121.327 10.2052 121.633 11.15 123.666 11.5964L125.416 11.97C126.302 12.1572 126.674 12.4476 126.674 12.9355C126.674 13.3819 126.203 13.9215 124.979 13.9215C123.842 13.9215 123.153 13.4027 123.12 12.7904L122.923 12.6343H121.316L121.196 12.7904C121.338 14.1603 122.409 15.4474 124.968 15.4474C127.865 15.4474 128.456 13.7659 128.456 12.8835C128.456 11.7004 127.745 10.932 125.941 10.5585C125.941 10.5585 125 10.3717 124.225 10.2057Z" fill="black"/>
<path d="M4.512 6.6C5.584 6.6 6.424 6.856 7.032 7.368C7.64 7.88 7.944 8.584 7.944 9.48C7.944 10.376 7.64 11.08 7.032 11.592C6.424 12.096 5.584 12.348 4.512 12.348H2.256V15H1.368V6.6H4.512ZM4.488 11.568C5.32 11.568 5.956 11.388 6.396 11.028C6.836 10.66 7.056 10.144 7.056 9.48C7.056 8.8 6.836 8.28 6.396 7.92C5.956 7.552 5.32 7.368 4.488 7.368H2.256V11.568H4.488ZM12.2289 15.06C11.6209 15.06 11.0729 14.924 10.5849 14.652C10.0969 14.372 9.71294 13.988 9.43294 13.5C9.15294 13.012 9.01294 12.46 9.01294 11.844C9.01294 11.228 9.15294 10.676 9.43294 10.188C9.71294 9.7 10.0969 9.32 10.5849 9.048C11.0729 8.776 11.6209 8.64 12.2289 8.64C12.8369 8.64 13.3849 8.776 13.8729 9.048C14.3609 9.32 14.7409 9.7 15.0129 10.188C15.2929 10.676 15.4329 11.228 15.4329 11.844C15.4329 12.46 15.2929 13.012 15.0129 13.5C14.7409 13.988 14.3609 14.372 13.8729 14.652C13.3849 14.924 12.8369 15.06 12.2289 15.06ZM12.2289 14.304C12.6769 14.304 13.0769 14.204 13.4289 14.004C13.7889 13.796 14.0689 13.504 14.2689 13.128C14.4689 12.752 14.5689 12.324 14.5689 11.844C14.5689 11.364 14.4689 10.936 14.2689 10.56C14.0689 10.184 13.7889 9.896 13.4289 9.696C13.0769 9.488 12.6769 9.384 12.2289 9.384C11.7809 9.384 11.3769 9.488 11.0169 9.696C10.6649 9.896 10.3849 10.184 10.1769 10.56C9.97694 10.936 9.87694 11.364 9.87694 11.844C9.87694 12.324 9.97694 12.752 10.1769 13.128C10.3849 13.504 10.6649 13.796 11.0169 14.004C11.3769 14.204 11.7809 14.304 12.2289 14.304ZM26.2606 8.688L23.8726 15H23.0686L21.0766 9.828L19.0846 15H18.2806L15.9046 8.688H16.7206L18.7006 14.052L20.7286 8.688H21.4606L23.4766 14.052L25.4806 8.688H26.2606ZM32.8637 12.108H27.5837C27.6317 12.764 27.8837 13.296 28.3397 13.704C28.7957 14.104 29.3717 14.304 30.0677 14.304C30.4597 14.304 30.8197 14.236 31.1477 14.1C31.4757 13.956 31.7597 13.748 31.9997 13.476L32.4797 14.028C32.1997 14.364 31.8477 14.62 31.4237 14.796C31.0077 14.972 30.5477 15.06 30.0437 15.06C29.3957 15.06 28.8197 14.924 28.3157 14.652C27.8197 14.372 27.4317 13.988 27.1517 13.5C26.8717 13.012 26.7317 12.46 26.7317 11.844C26.7317 11.228 26.8637 10.676 27.1277 10.188C27.3997 9.7 27.7677 9.32 28.2317 9.048C28.7037 8.776 29.2317 8.64 29.8157 8.64C30.3997 8.64 30.9237 8.776 31.3877 9.048C31.8517 9.32 32.2157 9.7 32.4797 10.188C32.7437 10.668 32.8757 11.22 32.8757 11.844L32.8637 12.108ZM29.8157 9.372C29.2077 9.372 28.6957 9.568 28.2797 9.96C27.8717 10.344 27.6397 10.848 27.5837 11.472H32.0597C32.0037 10.848 31.7677 10.344 31.3517 9.96C30.9437 9.568 30.4317 9.372 29.8157 9.372ZM35.4259 9.924C35.6259 9.5 35.9219 9.18 36.3139 8.964C36.7139 8.748 37.2059 8.64 37.7899 8.64V9.468L37.5859 9.456C36.9219 9.456 36.4019 9.66 36.0259 10.068C35.6499 10.476 35.4619 11.048 35.4619 11.784V15H34.6099V8.688H35.4259V9.924ZM44.7699 12.108H39.4899C39.5379 12.764 39.7899 13.296 40.2459 13.704C40.7019 14.104 41.2779 14.304 41.9739 14.304C42.3659 14.304 42.7259 14.236 43.0539 14.1C43.3819 13.956 43.6659 13.748 43.9059 13.476L44.3859 14.028C44.1059 14.364 43.7539 14.62 43.3299 14.796C42.9139 14.972 42.4539 15.06 41.9499 15.06C41.3019 15.06 40.7259 14.924 40.2219 14.652C39.7259 14.372 39.3379 13.988 39.0579 13.5C38.7779 13.012 38.6379 12.46 38.6379 11.844C38.6379 11.228 38.7699 10.676 39.0339 10.188C39.3059 9.7 39.6739 9.32 40.1379 9.048C40.6099 8.776 41.1379 8.64 41.7219 8.64C42.3059 8.64 42.8299 8.776 43.2939 9.048C43.7579 9.32 44.1219 9.7 44.3859 10.188C44.6499 10.668 44.7819 11.22 44.7819 11.844L44.7699 12.108ZM41.7219 9.372C41.1139 9.372 40.6019 9.568 40.1859 9.96C39.7779 10.344 39.5459 10.848 39.4899 11.472H43.9659C43.9099 10.848 43.6739 10.344 43.2579 9.96C42.8499 9.568 42.3379 9.372 41.7219 9.372ZM52.2761 6.096V15H51.4601V13.752C51.2041 14.176 50.8641 14.5 50.4401 14.724C50.0241 14.948 49.5521 15.06 49.0241 15.06C48.4321 15.06 47.8961 14.924 47.4161 14.652C46.9361 14.38 46.5601 14 46.2881 13.512C46.0161 13.024 45.8801 12.468 45.8801 11.844C45.8801 11.22 46.0161 10.664 46.2881 10.176C46.5601 9.688 46.9361 9.312 47.4161 9.048C47.8961 8.776 48.4321 8.64 49.0241 8.64C49.5361 8.64 49.9961 8.748 50.4041 8.964C50.8201 9.172 51.1601 9.48 51.4241 9.888V6.096H52.2761ZM49.0961 14.304C49.5361 14.304 49.9321 14.204 50.2841 14.004C50.6441 13.796 50.9241 13.504 51.1241 13.128C51.3321 12.752 51.4361 12.324 51.4361 11.844C51.4361 11.364 51.3321 10.936 51.1241 10.56C50.9241 10.184 50.6441 9.896 50.2841 9.696C49.9321 9.488 49.5361 9.384 49.0961 9.384C48.6481 9.384 48.2441 9.488 47.8841 9.696C47.5321 9.896 47.2521 10.184 47.0441 10.56C46.8441 10.936 46.7441 11.364 46.7441 11.844C46.7441 12.324 46.8441 12.752 47.0441 13.128C47.2521 13.504 47.5321 13.796 47.8841 14.004C48.2441 14.204 48.6481 14.304 49.0961 14.304ZM61.0416 8.64C61.6336 8.64 62.1696 8.776 62.6496 9.048C63.1296 9.312 63.5056 9.688 63.7776 10.176C64.0496 10.664 64.1856 11.22 64.1856 11.844C64.1856 12.468 64.0496 13.024 63.7776 13.512C63.5056 14 63.1296 14.38 62.6496 14.652C62.1696 14.924 61.6336 15.06 61.0416 15.06C60.5136 15.06 60.0376 14.948 59.6136 14.724C59.1976 14.5 58.8616 14.176 58.6056 13.752V15H57.7896V6.096H58.6416V9.888C58.9056 9.48 59.2416 9.172 59.6496 8.964C60.0656 8.748 60.5296 8.64 61.0416 8.64ZM60.9816 14.304C61.4216 14.304 61.8216 14.204 62.1816 14.004C62.5416 13.796 62.8216 13.504 63.0216 13.128C63.2296 12.752 63.3336 12.324 63.3336 11.844C63.3336 11.364 63.2296 10.936 63.0216 10.56C62.8216 10.184 62.5416 9.896 62.1816 9.696C61.8216 9.488 61.4216 9.384 60.9816 9.384C60.5336 9.384 60.1296 9.488 59.7696 9.696C59.4176 9.896 59.1376 10.184 58.9296 10.56C58.7296 10.936 58.6296 11.364 58.6296 11.844C58.6296 12.324 58.7296 12.752 58.9296 13.128C59.1376 13.504 59.4176 13.796 59.7696 14.004C60.1296 14.204 60.5336 14.304 60.9816 14.304ZM71.0506 8.688L67.8946 15.756C67.6386 16.348 67.3426 16.768 67.0066 17.016C66.6706 17.264 66.2666 17.388 65.7946 17.388C65.4906 17.388 65.2066 17.34 64.9426 17.244C64.6786 17.148 64.4506 17.004 64.2586 16.812L64.6546 16.176C64.9746 16.496 65.3586 16.656 65.8066 16.656C66.0946 16.656 66.3386 16.576 66.5386 16.416C66.7466 16.256 66.9386 15.984 67.1146 15.6L67.3906 14.988L64.5706 8.688H65.4586L67.8346 14.052L70.2106 8.688H71.0506Z" fill="black"/>
</svg>
