<?xml version="1.0" encoding="UTF-8"?>
<svg width="108px" height="11px" viewBox="0 0 108 11" version="1.1" xmlns="http://www.w3.org/2000/svg" xmlns:xlink="http://www.w3.org/1999/xlink">
    <!-- Generator: Sketch 60 (88103) - https://sketch.com -->
    <title>Logo_built</title>
    <desc>Created with Sketch.</desc>
    <g id="Page-1" stroke="none" stroke-width="1" fill="none" fill-rule="evenodd">
        <g id="Neutrino_lp_5" transform="translate(-674.000000, -921.000000)">
            <g id="Logo_built" transform="translate(673.000000, 920.000000)">
                <g id="Group-5-Copy" transform="translate(57.000000, 1.000000)">
                    <g id="waves">
                        <polygon id="Path" fill="#0055FF" points="51.8594595 2.68783784 49.1297885 5.37567568 46.400569 2.68783784 49.1297885 0"></polygon>
                        <g id="Group" transform="translate(0.000000, 2.687838)" fill="#000000">
                            <path d="M12.099955,0.151414865 L10.5738708,0.151414865 L10.4141487,0.28428033 L8.8482459,5.38795345 L8.83795568,5.38795345 L7.08235489,0.284711712 L6.9226328,0.151846246 L5.32675409,0.151846246 L5.167032,0.284711712 L3.42127403,5.35991366 L3.39174557,5.34093288 L3.38145535,5.33187387 L1.8155525,0.284711712 L1.65538301,0.150983483 L0.0997703815,0.150983483 L0,0.284711712 L2.44370325,7.47152553 L2.61371556,7.61388138 L4.14964255,7.61388138 L4.31965486,7.47152553 L6.06451803,2.32989084 L6.10478411,2.32989084 L7.8603849,7.47195691 L8.03039721,7.61388138 L9.58600984,7.61388138 L9.75602215,7.47152553 L12.1997254,0.284711712 L12.099955,0.151414865 Z M29.366942,0.151414865 L27.8305676,0.151414865 L27.6610027,0.28428033 L25.5166106,5.59631066 L25.4964776,5.60580105 L23.3722185,0.284711712 L23.2026536,0.151846246 L21.6367508,0.151846246 L21.5369804,0.284711712 L24.5989916,7.47152553 L24.7788467,7.61388138 L26.1953177,7.61388138 L26.3747254,7.47152553 L29.4671598,0.284711712 L29.366942,0.151414865 Z" id="Shape" fill-rule="nonzero"></path>
                            <path d="M37.2872786,4.28016607 L37.4367105,4.14773198 L37.4367105,3.92988438 C37.4367105,2.76515465 37.0877379,1.76133018 36.399188,1.06076682 C35.711533,0.359772072 34.7831763,0 33.6463308,0 C32.5488566,0 31.6312376,0.388243243 30.9230021,1.14574895 C30.2147666,1.90325465 29.8657939,2.82166562 29.8657939,3.86345165 C29.8657939,4.97123904 30.2348996,5.89957177 30.9628207,6.62860631 C31.6911893,7.35764084 32.648627,7.7269033 33.8056055,7.7269033 C34.6435872,7.7269033 35.3621129,7.53752688 35.9406022,7.14928363 C36.5190914,6.77053078 37.1275566,6.14545916 37.3369401,5.29348093 L37.2273269,5.15112508 L35.7911703,5.15112508 L35.5911822,5.29348093 C35.2323667,5.97506351 34.6838533,6.29730541 33.7760771,6.29730541 C33.1982607,6.301782 32.6408507,6.09152856 32.2195696,5.71019535 C31.8008025,5.3405015 31.561443,4.8957473 31.5014913,4.26118529 L37.2872786,4.28016607 L37.2872786,4.28016607 Z M31.6012617,2.95453108 C31.8509114,2.0736503 32.6289414,1.42053889 33.6458834,1.42053889 C34.9925599,1.42053889 35.5518109,2.32945946 35.7110856,2.95453108 L31.6012617,2.95453108 L31.6012617,2.95453108 Z M19.0427208,0.151414865 L18.8928416,0.293770721 L18.8928416,1.03229565 L18.8628657,1.06076682 C18.663325,0.814448048 18.3939897,0.59660045 18.0749929,0.416714414 C17.9995798,0.376740087 17.9230455,0.338764294 17.8454763,0.30282973 C17.4164189,0.104394294 16.9278572,0.00949039039 16.3990294,0.00949039039 C15.4116158,0.00949039039 14.5436583,0.388243243 13.82558,1.12676817 C13.1075016,1.86529309 12.7482388,2.79362583 12.7482388,3.88243243 C12.7482388,4.97123904 13.1075016,5.89957177 13.82558,6.6380967 C14.5436583,7.37662162 15.4116158,7.75537447 16.3990294,7.75537447 C16.9278572,7.75537447 17.4065761,7.66047057 17.8351861,7.46203514 C17.9157182,7.42407357 18.0051984,7.38611201 18.0848357,7.33866006 C18.3939897,7.15877402 18.6534821,6.95990721 18.8530229,6.72307883 C18.8628657,6.71358844 18.893289,6.73256922 18.9031318,6.72307883 L18.9031318,7.49007492 L19.0525637,7.63243078 L20.358974,7.63243078 L20.5088533,7.49007492 L20.5088533,0.284711712 L20.3594214,0.142355856 L19.0427208,0.142355856 L19.0427208,0.151846246 L19.0427208,0.151414865 Z M18.234715,5.66274339 C17.7958148,6.10792898 17.266987,6.3253452 16.6285461,6.3253452 C16.0102381,6.3253452 15.5512049,6.10792898 15.1024619,5.653253 C14.6537189,5.20806742 14.4340451,4.61146697 14.4340451,3.86345165 C14.4340451,3.12492673 14.6635617,2.52832628 15.1024619,2.0736503 C15.5512049,1.6288961 15.9999479,1.40155811 16.6285461,1.40155811 C17.2571442,1.40155811 17.7855246,1.61940571 18.234715,2.06415991 C18.5237359,2.35749925 18.7134338,2.70821231 18.823047,3.13398574 L18.823047,4.57350541 C18.7232767,5.01869099 18.5237359,5.37846306 18.234715,5.66274339 L18.234715,5.66274339 Z" id="Shape" fill-rule="nonzero"></path>
                            <path d="M41.2575135,2.97351186 C40.6087823,2.83115601 40.2794953,2.65126997 40.2794953,2.21600616 C40.2794953,1.75183979 40.7483713,1.36359655 41.755918,1.36359655 C42.743779,1.36359655 43.2922924,1.78031096 43.2922924,2.14957342 L43.4618573,2.29192928 L44.8980139,2.29192928 L45.0080745,2.15906381 C45.0080745,1.18371051 44.1199839,0.0189807808 41.7957366,0.0189807808 C39.3721664,0.0189807808 38.6138221,1.37308694 38.6138221,2.24404595 C38.6138221,2.97308048 38.8930002,3.83498048 40.7483713,4.2422045 L42.3446974,4.5829958 C43.1527033,4.75382282 43.4918331,5.01869099 43.4918331,5.46387658 C43.4918331,5.8711006 43.0627758,6.36330676 41.9456159,6.36330676 C40.9080934,6.36330676 40.2794953,5.89008138 40.2499668,5.33144249 L40.0701117,5.18908664 L38.6039792,5.18908664 L38.494366,5.33144249 C38.6241123,6.58115435 39.6012357,7.75537447 41.9357731,7.75537447 C44.5790171,7.75537447 45.1176877,6.22138228 45.1176877,5.41642462 C45.1176877,4.33710841 44.4689565,3.63611366 42.8234163,3.29532237 C42.8234163,3.29532237 41.9653016,3.12492673 41.2575135,2.97351186 Z" id="Path"></path>
                        </g>
                    </g>
                </g>
                <path d="M5.668,11 C6.79466667,11 7.64616667,10.7898333 8.2225,10.3695 C8.79883333,9.94916667 9.087,9.349 9.087,8.569 C9.087,7.96233333 8.9245,7.46616667 8.5995,7.0805 C8.2745,6.69483333 7.813,6.437 7.215,6.307 C7.64833333,6.13366667 7.9885,5.8715 8.2355,5.5205 C8.4825,5.1695 8.606,4.74266667 8.606,4.24 C8.606,3.49466667 8.3265,2.91833333 7.7675,2.511 C7.2085,2.10366667 6.422,1.9 5.408,1.9 L5.408,1.9 L1.482,1.9 L1.482,11 L5.668,11 Z M5.343,5.995 L2.444,5.995 L2.444,2.693 L5.343,2.693 C6.07966667,2.693 6.64733333,2.83383333 7.046,3.1155 C7.44466667,3.39716667 7.644,3.80666667 7.644,4.344 C7.644,4.88133333 7.44466667,5.29083333 7.046,5.5725 C6.64733333,5.85416667 6.07966667,5.995 5.343,5.995 L5.343,5.995 Z M5.655,10.207 L2.444,10.207 L2.444,6.788 L5.655,6.788 C7.30166667,6.788 8.125,7.35566667 8.125,8.491 C8.125,9.08033333 7.917,9.51366667 7.501,9.791 C7.085,10.0683333 6.46966667,10.207 5.655,10.207 L5.655,10.207 Z M13.91,11.065 C14.456,11.065 14.9413333,10.9501667 15.366,10.7205 C15.7906667,10.4908333 16.1243333,10.168 16.367,9.752 L16.367,9.752 L16.367,11 L17.251,11 L17.251,4.162 L16.328,4.162 L16.328,7.75 C16.328,8.53 16.12,9.13883333 15.704,9.5765 C15.288,10.0141667 14.7203333,10.233 14.001,10.233 C13.3423333,10.233 12.8353333,10.0466667 12.48,9.674 C12.1246667,9.30133333 11.947,8.75533333 11.947,8.036 L11.947,8.036 L11.947,4.162 L11.024,4.162 L11.024,8.127 C11.024,9.089 11.2818333,9.81916667 11.7975,10.3175 C12.3131667,10.8158333 13.0173333,11.065 13.91,11.065 Z M20.306,2.667 C20.4966667,2.667 20.657,2.602 20.787,2.472 C20.917,2.342 20.982,2.18166667 20.982,1.991 C20.982,1.81766667 20.917,1.66816667 20.787,1.5425 C20.657,1.41683333 20.4966667,1.354 20.306,1.354 C20.1153333,1.354 19.955,1.419 19.825,1.549 C19.695,1.679 19.63,1.83066667 19.63,2.004 C19.63,2.186 19.695,2.342 19.825,2.472 C19.955,2.602 20.1153333,2.667 20.306,2.667 Z M20.761,11 L20.761,4.162 L19.838,4.162 L19.838,11 L20.761,11 Z M24.258,11 L24.258,1.354 L23.335,1.354 L23.335,11 L24.258,11 Z M28.99,11.065 C29.2673333,11.065 29.5338333,11.0238333 29.7895,10.9415 C30.0451667,10.8591667 30.2596667,10.74 30.433,10.584 L30.433,10.584 L30.108,9.921 C29.978,10.0336667 29.8241667,10.1203333 29.6465,10.181 C29.4688333,10.2416667 29.2846667,10.272 29.094,10.272 C28.7126667,10.272 28.4201667,10.1658333 28.2165,9.9535 C28.0128333,9.74116667 27.911,9.43133333 27.911,9.024 L27.911,9.024 L27.911,4.942 L29.991,4.942 L29.991,4.162 L27.911,4.162 L27.911,2.667 L26.988,2.667 L26.988,4.162 L25.766,4.162 L25.766,4.942 L26.988,4.942 L26.988,9.076 C26.988,9.70866667 27.1613333,10.1983333 27.508,10.545 C27.8546667,10.8916667 28.3486667,11.065 28.99,11.065 Z M38.311,11.065 C38.9696667,11.065 39.5633333,10.9155 40.092,10.6165 C40.6206667,10.3175 41.0345,9.90366667 41.3335,9.375 C41.6325,8.84633333 41.782,8.24833333 41.782,7.581 C41.782,6.91366667 41.6325,6.31566667 41.3335,5.787 C41.0345,5.25833333 40.6206667,4.84666667 40.092,4.552 C39.5633333,4.25733333 38.9696667,4.11 38.311,4.11 C37.6523333,4.11 37.0586667,4.25733333 36.53,4.552 C36.0013333,4.84666667 35.5853333,5.25833333 35.282,5.787 C34.9786667,6.31566667 34.827,6.91366667 34.827,7.581 C34.827,8.24833333 34.9786667,8.84633333 35.282,9.375 C35.5853333,9.90366667 36.0013333,10.3175 36.53,10.6165 C37.0586667,10.9155 37.6523333,11.065 38.311,11.065 Z M38.311,10.246 C37.8256667,10.246 37.3901667,10.1355 37.0045,9.9145 C36.6188333,9.6935 36.3155,9.37933333 36.0945,8.972 C35.8735,8.56466667 35.763,8.101 35.763,7.581 C35.763,7.061 35.8735,6.59733333 36.0945,6.19 C36.3155,5.78266667 36.6188333,5.4685 37.0045,5.2475 C37.3901667,5.0265 37.8256667,4.916 38.311,4.916 C38.7963333,4.916 39.2318333,5.0265 39.6175,5.2475 C40.0031667,5.4685 40.3043333,5.78266667 40.521,6.19 C40.7376667,6.59733333 40.846,7.061 40.846,7.581 C40.846,8.101 40.7376667,8.56466667 40.521,8.972 C40.3043333,9.37933333 40.0031667,9.6935 39.6175,9.9145 C39.2318333,10.1355 38.7963333,10.246 38.311,10.246 Z M44.59,11 L44.59,7.412 C44.59,6.64066667 44.8045,6.03616667 45.2335,5.5985 C45.6625,5.16083333 46.2453333,4.942 46.982,4.942 C47.6406667,4.942 48.1476667,5.12833333 48.503,5.501 C48.8583333,5.87366667 49.036,6.41533333 49.036,7.126 L49.036,7.126 L49.036,11 L49.959,11 L49.959,7.035 C49.959,6.08166667 49.7055,5.35583333 49.1985,4.8575 C48.6915,4.35916667 48.009,4.11 47.151,4.11 C46.5616667,4.11 46.0438333,4.22483333 45.5975,4.4545 C45.1511667,4.68416667 44.8023333,5.007 44.551,5.423 L44.551,5.423 L44.551,4.162 L43.667,4.162 L43.667,11 L44.59,11 Z" id="Builton" fill="#000000" fill-rule="nonzero"></path>
            </g>
        </g>
    </g>
</svg>