<svg width="32" height="32" viewBox="0 0 32 32" fill="none" xmlns="http://www.w3.org/2000/svg">
    <path fill-rule="evenodd" clip-rule="evenodd" d="M32 16L16 0L0 16L16 32L32 16ZM30.4 16L16 1.6L1.6 16L16 30.4L30.4 16Z" fill="#00F5FF"/>
    <path d="M1 16.179C1 16.179 2.80044 14.2063 6.83902 13.253C10.8776 12.2998 13.919 14.2077 16.6224 16.179C19.3258 18.1504 21.3757 19.1578 24.5674 18.9799C27.7591 18.802 29.8397 17.081 31 15.692" stroke="#00F5FF"/>
    <path fill-rule="evenodd" clip-rule="evenodd" d="M16.827 23V25.2149H15.6668V23H12.5027V9.3594H15.6668V6.74377H16.827V9.39456C17.7785 9.39456 18.5637 9.53752 19.1824 9.82346C19.5902 10.0063 19.9207 10.3461 20.1738 10.843C20.4129 11.3117 20.5324 11.7992 20.5324 12.3055C20.5324 13.4211 20.1293 14.3352 19.3231 15.0477C19.0231 15.3149 18.6481 15.575 18.1981 15.8281C19.1871 16.0907 19.9606 16.611 20.5184 17.3891C20.8559 17.8672 21.0246 18.4906 21.0246 19.2594C21.0246 19.9391 20.8676 20.5637 20.5535 21.1332C20.2395 21.7028 19.8082 22.1446 19.2598 22.4586C18.6551 22.8196 17.8442 23 16.827 23ZM16.827 15.1883C17.0848 15.1555 17.4035 15.0336 17.7832 14.8227C18.0879 14.6492 18.3527 14.3258 18.5777 13.8524C18.7934 13.4024 18.9012 12.9805 18.9012 12.5867C18.9012 12.0664 18.7043 11.6305 18.3106 11.2789C18.0621 11.0071 17.5676 10.8336 16.827 10.7586V15.1883ZM15.6668 10.7446H14.1481V15.2797H15.6668V10.7446ZM16.827 16.7071V21.6289C17.2207 21.6289 17.5863 21.5727 17.9238 21.4602C18.2332 21.3477 18.4957 21.186 18.7113 20.975C19.1192 20.5485 19.3231 20.0235 19.3231 19.4C19.3231 18.9172 19.2012 18.4719 18.9574 18.0641C18.7277 17.6844 18.3645 17.368 17.8676 17.1149C17.4973 16.9227 17.1504 16.7867 16.827 16.7071ZM14.1481 16.6438V21.6289H15.6668V16.6438H14.1481Z" fill="#00F5FF"/>
</svg>
