<svg width="16" height="13" viewBox="0 0 16 13" fill="none" xmlns="http://www.w3.org/2000/svg">
    <path fill-rule="evenodd" clip-rule="evenodd" d="M9.17941 9.78651C8.85239 9.94974 8.43359 10.0397 8.00014 10.0397C7.56669 10.0397 7.14789 9.94978 6.82087 9.78651L1.48189 7.12156C1.48189 7.12156 1 6.88116 1 7.42575C1 8.04418 1 9.89948 1 9.89948C1 9.92422 1 10.0484 1 10.0869C1 11.4887 4.13402 13 8 13C11.866 13 15 11.4888 15 10.0869C15 10.0484 15 9.92422 15 9.89948C15 9.89948 15 7.93167 15 7.27572C15 6.83858 14.6574 7.05218 14.6574 7.05218L9.17941 9.78651Z" fill="white"/>
    <path fill-rule="evenodd" clip-rule="evenodd" d="M15.7321 4.49734C16.0893 4.27852 16.0893 3.92043 15.7321 3.70157L8.64951 0.164115C8.29227 -0.054705 7.70769 -0.054705 7.35045 0.164115L0.26793 3.70157C-0.08931 3.92039 -0.08931 4.27848 0.26793 4.49734L7.35045 8.83589C7.70769 9.0547 8.29227 9.0547 8.64951 8.83589" fill="white"/>
</svg>
