<svg width="6" height="10" viewBox="0 0 6 10" fill="none" xmlns="http://www.w3.org/2000/svg">
    <path fill-rule="evenodd" clip-rule="evenodd" d="M6 2.39521C6 2.65868 5.96715 2.89022 5.90144 3.08982C5.83573 3.28942 5.74333 3.47305 5.62423 3.64072C5.50513 3.80838 5.3614 3.96607 5.19302 4.11377C5.02464 4.26148 4.83368 4.41517 4.62012 4.57485C4.48871 4.67864 4.37988 4.77046 4.29363 4.8503C4.20739 4.93014 4.13963 5.01198 4.09035 5.09581C4.04107 5.17964 4.00616 5.26746 3.98563 5.35928C3.96509 5.4511 3.95483 5.56088 3.95483 5.68862V6H2.03285V5.54491C2.03285 5.33732 2.05339 5.1517 2.09446 4.98802C2.13552 4.82435 2.19712 4.67465 2.27926 4.53892C2.3614 4.40319 2.46201 4.27146 2.58111 4.14371C2.70021 4.01597 2.84189 3.88423 3.00616 3.7485L3.41273 3.37725C3.55236 3.25748 3.67146 3.13174 3.77002 3C3.86858 2.86826 3.91786 2.71058 3.91786 2.52695C3.91786 2.27146 3.83778 2.06786 3.67762 1.91617C3.51745 1.76447 3.29774 1.68862 3.01848 1.68862C2.67351 1.68862 2.41479 1.80239 2.2423 2.02994C2.06981 2.25749 1.97536 2.51497 1.95893 2.8024L0 2.5988C0.0492816 2.16766 0.162217 1.78842 0.338809 1.46108C0.515401 1.13373 0.743325 0.862277 1.02259 0.646707C1.30185 0.431137 1.61807 0.269462 1.97125 0.161677C2.32444 0.0538917 2.69815 0 3.0924 0C3.46201 0 3.82135 0.0459077 4.17043 0.137725C4.51951 0.229541 4.82957 0.373253 5.10062 0.568862C5.37166 0.764472 5.58932 1.01397 5.75359 1.31737C5.91787 1.62076 6 1.98004 6 2.39521ZM4.28571 8.27891C4.28571 8.64173 4.16264 8.94784 3.91648 9.19728C3.67033 9.44671 3.36703 9.57143 3.00659 9.57143C2.83077 9.57143 2.66593 9.53968 2.51209 9.47619C2.35824 9.4127 2.22198 9.322 2.1033 9.20408C1.98461 9.08617 1.89011 8.95011 1.81978 8.79592C1.74945 8.64172 1.71429 8.47392 1.71429 8.29252C1.71429 8.12018 1.74725 7.95465 1.81319 7.79592C1.87912 7.63719 1.97143 7.49887 2.09011 7.38095C2.20879 7.26304 2.34725 7.17007 2.50549 7.10204C2.66374 7.03401 2.83077 7 3.00659 7C3.18242 7 3.34725 7.03401 3.5011 7.10204C3.65495 7.17007 3.79121 7.26077 3.90989 7.37415C4.02857 7.48753 4.12088 7.62358 4.18681 7.78231C4.25275 7.94104 4.28571 8.10658 4.28571 8.27891Z" fill="white"/>
</svg>
