<svg width="11" height="11" viewBox="0 0 11 11" fill="none" xmlns="http://www.w3.org/2000/svg">
    <path fill-rule="evenodd" clip-rule="evenodd" d="M1.22775 1.22771C2.86462 -0.409157 5.52875 -0.409157 7.16562 1.22771C8.62366 2.6861 8.77979 4.956 7.64111 6.59217C7.80398 6.62659 7.95975 6.70571 8.08572 6.83133L10.4695 9.21584C10.8166 9.56181 10.8166 10.1232 10.4695 10.4702C10.1239 10.8169 9.56256 10.8169 9.21517 10.4702L6.83137 8.08639C6.70469 7.95971 6.62591 7.80429 6.5915 7.64142C4.95569 8.77939 2.68543 8.62326 1.22775 7.16594C-0.408763 5.52871 -0.408763 2.86494 1.22775 1.22771ZM1.98037 6.41333C3.20208 7.63539 5.19095 7.63539 6.41301 6.41333C7.63508 5.19126 7.63508 3.20275 6.41301 1.98068C5.19095 0.758972 3.20208 0.758972 1.98037 1.98068C0.759011 3.20275 0.759011 5.19126 1.98037 6.41333Z" fill="#6D6F91"/>
</svg>
