<svg viewBox="0 0 88 85" fill="none" xmlns="http://www.w3.org/2000/svg">
    <path d="M44 77.5C37.5683 77.5 31.5161 75.8812 26.2273 73.0293L25.99 73.4694C19.448 69.9417 14.0583 64.552 10.5306 58.01L10.9707 57.7727C8.11878 52.4839 6.5 46.4317 6.5 40C6.5 33.5683 8.11878 27.5161 10.9707 22.2273L10.5306 21.99C14.0583 15.448 19.448 10.0583 25.99 6.53064L26.2273 6.97073C31.5161 4.11878 37.5683 2.5 44 2.5C50.4317 2.5 56.4839 4.11878 61.7727 6.97074L62.01 6.53064C68.552 10.0583 73.9417 15.448 77.4694 21.99L77.0293 22.2273C79.8812 27.5161 81.5 33.5683 81.5 40C81.5 46.4317 79.8812 52.4839 77.0293 57.7727L77.4694 58.01C73.9417 64.552 68.552 69.9417 62.01 73.4694L61.7727 73.0293C56.4839 75.8812 50.4317 77.5 44 77.5Z" fill="#17183A" stroke="#494991" stroke-dasharray="66 39"/>
    <path d="M25.9584 60.7546C22.3986 57.6601 19.8279 53.8525 18.2729 49.7297L17.8051 49.9062C15.8724 44.782 15.4807 39.1793 16.6814 33.836L17.1692 33.9456C18.1353 29.6465 20.151 25.5183 23.2455 21.9584C26.34 18.3986 30.1476 15.828 34.2704 14.273L34.0939 13.8052C39.2181 11.8725 44.8208 11.4807 50.1641 12.6814L50.0545 13.1693C54.3535 14.1353 58.4818 16.151 62.0416 19.2455C65.6015 22.3401 68.1721 26.1476 69.7271 30.2704L70.1949 30.094C72.1276 35.2182 72.5194 40.8208 71.3187 46.1641L70.8308 46.0545C69.8648 50.3536 67.849 54.4818 64.7545 58.0417C61.66 61.6015 57.8524 64.1722 53.7297 65.7271L53.9061 66.195C48.7819 68.1276 43.1793 68.5194 37.8359 67.3187L37.9456 66.8309C33.6465 65.8648 29.5182 63.8491 25.9584 60.7546Z" fill="#17183A" stroke="#494991" stroke-dasharray="66 39"/>
    <path d="M82 33.5C80.6534 33.5 79.421 33.0167 78.4648 32.2135L78.1432 32.5964C77.8758 32.3718 77.6282 32.1242 77.4036 31.8568L77.7865 31.5352C76.9833 30.579 76.5 29.3466 76.5 28C76.5 26.6534 76.9833 25.421 77.7865 24.4648L77.4036 24.1432C77.6282 23.8758 77.8758 23.6282 78.1432 23.4036L78.4648 23.7865C79.421 22.9833 80.6534 22.5 82 22.5C83.3466 22.5 84.579 22.9833 85.5352 23.7865L85.8568 23.4036C86.1242 23.6282 86.3718 23.8758 86.5964 24.1432L86.2135 24.4648C87.0167 25.421 87.5 26.6534 87.5 28C87.5 29.3466 87.0167 30.579 86.2135 31.5352L86.5964 31.8568C86.3718 32.1242 86.1242 32.3718 85.8568 32.5964L85.5352 32.2135C84.579 33.0167 83.3466 33.5 82 33.5Z" fill="#17183A" stroke="#9D47D0" stroke-dasharray="8 1"/>
    <path d="M6 32.5C4.65341 32.5 3.42099 32.0167 2.46481 31.2135L2.14322 31.5964C1.87578 31.3718 1.62823 31.1242 1.40359 30.8568L1.78645 30.5352C0.983294 29.579 0.5 28.3466 0.5 27C0.5 25.6534 0.983294 24.421 1.78645 23.4648L1.40359 23.1432C1.62823 22.8758 1.87579 22.6282 2.14323 22.4036L2.46481 22.7865C3.42099 21.9833 4.65341 21.5 6 21.5C7.34659 21.5 8.57901 21.9833 9.53519 22.7865L9.85678 22.4036C10.1242 22.6282 10.3718 22.8758 10.5964 23.1432L10.2135 23.4648C11.0167 24.421 11.5 25.6534 11.5 27C11.5 28.3466 11.0167 29.579 10.2135 30.5352L10.5964 30.8568C10.3718 31.1242 10.1242 31.3718 9.85678 31.5964L9.53519 31.2135C8.57901 32.0167 7.34659 32.5 6 32.5Z" fill="#17183A" stroke="#47D0AD" stroke-dasharray="8 1"/>
    <path d="M43 73.5C44.3466 73.5 45.579 73.9833 46.5352 74.7865L46.8568 74.4036C47.1242 74.6282 47.3718 74.8758 47.5964 75.1432L47.2135 75.4648C48.0167 76.421 48.5 77.6534 48.5 79C48.5 80.3466 48.0167 81.579 47.2135 82.5352L47.5964 82.8568C47.3718 83.1242 47.1242 83.3718 46.8568 83.5964L46.5352 83.2135C45.579 84.0167 44.3466 84.5 43 84.5C41.6534 84.5 40.421 84.0167 39.4648 83.2135L39.1432 83.5964C38.8758 83.3718 38.6282 83.1242 38.4036 82.8568L38.7865 82.5352C37.9833 81.579 37.5 80.3466 37.5 79C37.5 77.6534 37.9833 76.421 38.7865 75.4648L38.4036 75.1432C38.6282 74.8758 38.8758 74.6282 39.1432 74.4036L39.4648 74.7865C40.421 73.9833 41.6534 73.5 43 73.5Z" fill="#17183A" stroke="#D0BE47" stroke-dasharray="8 1"/>
    <path fill-rule="evenodd" clip-rule="evenodd" d="M44 59C54.4934 59 63 50.4934 63 40C63 29.5066 54.4934 21 44 21C33.5066 21 25 29.5066 25 40C25 50.4934 33.5066 59 44 59Z" fill="#26274F"/>
    <path fill-rule="evenodd" clip-rule="evenodd" d="M47.2631 33.3477L46.2055 34.3936L47.9186 36.0805H40.0312C39.2085 36.0805 38.5416 36.7401 38.5416 37.5537V39.7635H40.0312V37.5537H47.9186L46.213 39.2405L47.2631 40.2791L50.2423 37.3327C50.5311 37.0454 50.5311 36.5814 50.2423 36.2941L47.2631 33.3477Z" fill="white"/>
    <path fill-rule="evenodd" clip-rule="evenodd" d="M48.9687 43.4466H41.0814L42.7869 41.7598L41.7368 40.7212L38.7576 43.6676C38.4688 43.9549 38.4688 44.4189 38.7576 44.7062L41.7368 47.6527L42.7869 46.614L41.0814 44.9199H48.9687C49.7914 44.9199 50.4583 44.2603 50.4583 43.4466V41.2368H48.9687V43.4466Z" fill="white"/>
</svg>
