<?xml version="1.0" encoding="UTF-8"?>
<svg width="36px" height="36px" viewBox="0 0 36 36" version="1.1" xmlns="http://www.w3.org/2000/svg" xmlns:xlink="http://www.w3.org/1999/xlink">
    <!-- Generator: Sketch 60 (88103) - https://sketch.com -->
    <title>Neutrino_icon_dark</title>
    <desc>Created with Sketch.</desc>
    <g id="Page-2" stroke="none" stroke-width="1" fill="none" fill-rule="evenodd">
        <g id="Neutrino_dashboard----Copy" transform="translate(-197.000000, -118.000000)">
            <g id="Neutrino_icon_dark" transform="translate(197.000000, 118.000000)">
                <path d="M18,0 L36,18 L18,36 L0,18 L18,0 Z M18,1.8 L1.8,18 L18,34.2 L34.2,18 L18,1.8 Z" id="Combined-Shape" fill="#0009FF"></path>
                <path d="M1.125,18.2014059 C2.47532849,16.7218659 4.66496239,15.6246189 7.6939017,14.9096649 C12.2373107,13.8372339 15.658874,15.9836659 18.7001838,18.2014059 C21.7414935,20.4191459 24.0476167,21.5524937 27.6382936,21.3523676 C31.2289705,21.1522415 33.5696166,19.2160764 34.875,17.6534759" id="Path-3" stroke="#0009FF"></path>
                <path d="M23.5918125,21.504375 C23.5918125,22.7171311 23.1271921,23.7448083 22.1979375,24.5874375 C21.2686829,25.4300667 19.9063215,25.8986245 18.1108125,25.993125 L18.1108125,28.71 L16.9295625,28.71 L16.9295625,26.01675 C15.7798068,25.9537497 14.6970051,25.7293144 13.681125,25.3434375 C12.6652449,24.9575606 11.8659404,24.465378 11.2831875,23.866875 L11.9683125,22.52025 C12.5195653,23.0557527 13.2401206,23.5046232 14.13,23.866875 C15.0198794,24.2291268 15.9530576,24.4417497 16.9295625,24.50475 L16.9295625,18.291375 C15.8428071,18.0236237 14.9371911,17.736189 14.2126875,17.4290625 C13.4881839,17.121936 12.8857524,16.6730655 12.405375,16.0824375 C11.9249976,15.4918095 11.6848125,14.7082549 11.6848125,13.73175 C11.6848125,12.5189939 12.1258081,11.4991916 13.0078125,10.6723125 C13.8898169,9.84543337 15.1970538,9.36112571 16.9295625,9.219375 L16.9295625,6.5025 L18.1108125,6.5025 L18.1108125,9.19575 C19.008567,9.22725016 19.8787458,9.3729362 20.721375,9.6328125 C21.5640042,9.8926888 22.2924344,10.2352479 22.9066875,10.6605 L22.3160625,12.054375 C21.6703093,11.644873 20.9851911,11.3220012 20.2606875,11.08575 C19.5361839,10.8494988 18.819566,10.7156252 18.1108125,10.684125 L18.1108125,16.94475 C19.2763183,17.2282514 20.2291838,17.515686 20.9694375,17.8070625 C21.7096912,18.098439 22.33181,18.543372 22.8358125,19.141875 C23.339815,19.740378 23.5918125,20.5278701 23.5918125,21.504375 Z M13.4094375,13.6845 C13.4094375,14.5035041 13.712622,15.1256229 14.319,15.550875 C14.925378,15.9761271 15.7955568,16.3383735 16.9295625,16.637625 L16.9295625,10.731375 C15.7640567,10.8258755 14.886003,11.1448098 14.295375,11.6881875 C13.704747,12.2315652 13.4094375,12.8969961 13.4094375,13.6845 Z M18.1108125,24.50475 C19.3550687,24.4102495 20.2921843,24.1031276 20.9221875,23.583375 C21.5521907,23.0636224 21.8671875,22.402129 21.8671875,21.598875 C21.8671875,20.7483707 21.5443157,20.1105021 20.8985625,19.68525 C20.2528093,19.2599979 19.3235686,18.8977515 18.1108125,18.5985 L18.1108125,24.50475 Z" id="$" fill="#0009FF"></path>
            </g>
        </g>
    </g>
</svg>