<svg width="18" height="18" viewBox="0 0 18 18" fill="none" xmlns="http://www.w3.org/2000/svg">
    <path fill-rule="evenodd" clip-rule="evenodd" d="M9.00396 17.55L0.450073 9.00376C0.450073 9.00376 1.47441 7.88446 3.77211 7.34358C6.06982 6.80271 7.80018 7.88525 9.33824 9.00376C10.8763 10.1223 12.0426 10.6939 13.8584 10.5929C15.6743 10.492 16.8455 9.69027 17.5057 8.90218C18.1659 8.11409 9.00396 17.55 9.00396 17.55Z" fill="#00F5FF"/>
    <path fill-rule="evenodd" clip-rule="evenodd" d="M18 9L9 0L0 9L9 18L18 9ZM17.1001 8.99991L9.0001 0.899909L0.900103 8.99991L9.0001 17.0999L17.1001 8.99991Z" fill="#00F5FF"/>
    <path fill-rule="evenodd" clip-rule="evenodd" d="M5.40015 13.5V4.04999H6.04422L12.3929 12.2715V4.04999H13.0501V13.5L12.7231 13.8057L6.05736 5.10299V14.4L5.40015 13.5Z" fill="#00F5FF"/>
    <path fill-rule="evenodd" clip-rule="evenodd" d="M5.3999 7.65021V15.4402L6.1731 16.6499V7.73015C5.92188 7.68397 5.66434 7.65637 5.3999 7.65021ZM11.9673 11.334C11.4259 11.0011 10.8809 10.5787 10.2877 10.0732C10.1767 9.97867 10.0648 9.88427 9.95195 9.7906L14.0151 15.8512L14.3999 15.4402V12.1942C14.1322 12.1669 13.8757 12.1214 13.6267 12.058V13.789L11.9673 11.334Z" fill="black"/>
</svg>
