<svg width="18" height="18" viewBox="0 0 18 18" fill="none" xmlns="http://www.w3.org/2000/svg">
    <path fill-rule="evenodd" clip-rule="evenodd" d="M4.96558 13.1018V4.03436H5.64492L12.3413 11.9231V4.03436H13.0345V13.1018L12.6896 13.3952L5.65879 5.04474V13.9654L4.96558 13.1018Z" fill="#00F5FF"/>
    <path fill-rule="evenodd" clip-rule="evenodd" d="M18 9L9 0L0 9L9 18L18 9ZM17.1001 8.99991L9.0001 0.899909L0.900103 8.99991L9.0001 17.0999L17.1001 8.99991Z" fill="#00F5FF"/>
    <path d="M0.620483 8.94664C0.620483 8.94664 1.64487 7.82423 3.94269 7.28185C6.2405 6.73947 7.97095 7.82502 9.50908 8.94664C11.0472 10.0683 12.2135 10.6414 14.0295 10.5402C15.8455 10.439 17.0293 9.4598 17.6894 8.66952" stroke="#00F5FF"/>
</svg>
