<svg viewBox="0 0 174 24" fill="none" xmlns="http://www.w3.org/2000/svg">
<path fill-rule="evenodd" clip-rule="evenodd" d="M104.4 5.41098L98.9048 10.822L93.4105 5.41098L98.9048 0L104.4 5.41098Z" fill="#0055FF"/>
<path fill-rule="evenodd" clip-rule="evenodd" d="M21.2866 5.71577H24.3588L24.5597 5.98412L19.6402 20.4521L19.2979 20.7387H16.1663L15.824 20.453L12.2897 10.1013H12.2087L8.69604 20.4521L8.35378 20.7387H5.26176L4.9195 20.4521L0 5.98412L0.200851 5.7149H3.33251L3.65495 5.98412L6.80732 16.1447L6.82804 16.163L6.88748 16.2012L10.4019 5.98412L10.7235 5.71664H13.9362L14.2577 5.98412L17.792 16.2576H17.8127L20.9651 5.98325L21.2866 5.71577ZM56.0266 5.71577H59.1196L59.3213 5.98412L53.0958 20.4521L52.7347 20.7387H49.8831L49.521 20.4521L43.3568 5.98412L43.5577 5.71664H46.71L47.0514 5.98412L51.3278 16.6962L51.3683 16.6771L55.6853 5.98325L56.0266 5.71577Z" fill="white"/>
<path fill-rule="evenodd" clip-rule="evenodd" d="M75.3651 13.7609L75.0643 14.0275L63.4167 13.9893C63.5374 15.2667 64.0193 16.1621 64.8623 16.9063C65.7104 17.674 66.8325 18.0973 67.9958 18.0883C69.8232 18.0883 70.9275 17.4395 71.6498 16.0674L72.0524 15.7809H74.9436L75.1642 16.0674C74.7427 17.7826 73.5178 19.0409 72.3532 19.8034C71.1887 20.585 69.7422 20.9662 68.0552 20.9662C65.726 20.9662 63.7986 20.2229 62.3323 18.7552C60.8669 17.2876 60.1238 15.4187 60.1238 13.1886C60.1238 11.0913 60.8264 9.24246 62.2521 7.71749C63.6779 6.19254 65.5252 5.41095 67.7346 5.41095C70.0232 5.41095 71.8921 6.13522 73.2764 7.54641C74.6626 8.95674 75.3651 10.9776 75.3651 13.3223V13.7609ZM67.7337 8.27068C65.6864 8.27068 64.1201 9.58548 63.6176 11.3588H71.8912C71.5705 10.1005 70.4447 8.27068 67.7337 8.27068ZM38.3355 5.71577L38.0338 6.00235V7.4891L37.9735 7.54641C37.5718 7.05054 37.0296 6.61199 36.3874 6.24985C36.2356 6.16938 36.0815 6.09293 35.9253 6.02059C35.0616 5.62111 34.078 5.43006 33.0134 5.43006C31.0256 5.43006 29.2783 6.19254 27.8327 7.67928C26.3872 9.16603 25.6639 11.0349 25.6639 13.2268C25.6639 15.4187 26.3872 17.2876 27.8327 18.7743C29.2783 20.2611 31.0256 21.0236 33.0134 21.0236C34.078 21.0236 35.0418 20.8325 35.9046 20.433C35.9414 20.4157 35.9791 20.3983 36.0173 20.3808C36.1475 20.3209 36.2832 20.2585 36.4072 20.1846C37.0296 19.8225 37.552 19.4222 37.9537 18.9454C37.9636 18.9359 37.9838 18.9406 38.0041 18.9454C38.0244 18.9502 38.0446 18.955 38.0545 18.9454V20.4895L38.3554 20.776H40.9853L41.2871 20.4895V5.98411L40.9862 5.69753H38.3355V5.71577ZM33.4755 18.1447C34.7608 18.1447 35.8254 17.707 36.7089 16.8108C37.2908 16.2385 37.6925 15.5142 37.8933 14.618V11.7201C37.6726 10.8629 37.2908 10.1569 36.7089 9.56638C35.8046 8.67103 34.7409 8.23247 33.4755 8.23247C32.21 8.23247 31.3067 8.69013 30.4033 9.58548C29.5197 10.5008 29.0577 11.7018 29.0577 13.1886C29.0577 14.6944 29.4999 15.8955 30.4033 16.7917C31.3067 17.707 32.2307 18.1447 33.4755 18.1447Z" fill="white"/>
<path fill-rule="evenodd" clip-rule="evenodd" d="M86.2092 12.0449C86.2092 12.0449 84.4817 11.7018 83.0568 11.397C81.7509 11.1104 81.088 10.7483 81.088 9.87206C81.088 8.93763 82.0319 8.15605 84.0602 8.15605C86.0489 8.15605 87.1531 8.99495 87.1531 9.73832L87.4945 10.0249H90.3857L90.6072 9.75743C90.6072 7.79391 88.8194 5.44916 84.1404 5.44916C79.2614 5.44916 77.7347 8.17515 77.7347 9.92851C77.7347 11.3962 78.2968 13.1313 82.0319 13.9511L85.2455 14.6371C86.8721 14.981 87.5548 15.5142 87.5548 16.4105C87.5548 17.2303 86.6911 18.2211 84.4421 18.2211C82.3534 18.2211 81.088 17.2685 81.0285 16.1439L80.6664 15.8573H77.7149L77.4943 16.1439C77.7555 18.6597 79.7225 21.0235 84.4223 21.0235C89.7435 21.0235 90.8279 17.9354 90.8279 16.3149C90.8279 14.1421 89.5219 12.7309 86.2092 12.0449Z" fill="white"/>
<path fill-rule="evenodd" clip-rule="evenodd" d="M114.374 13.2028L111.306 16.3003V19.8402H110.31V6.37292H111.306V15.0305L119.844 6.37292H121.055L115.038 12.4909L121.465 19.8402H120.254L114.374 13.2028ZM131.39 15.0497H122.618C122.644 15.8321 122.846 16.5279 123.224 17.1372C123.601 17.7464 124.113 18.2177 124.757 18.5512C125.402 18.8847 126.128 19.0514 126.936 19.0514C127.6 19.0514 128.215 18.9328 128.782 18.6955C129.349 18.4582 129.821 18.1087 130.198 17.647L130.765 18.2819C130.322 18.8078 129.765 19.2118 129.095 19.4939C128.424 19.7761 127.698 19.9172 126.916 19.9172C125.9 19.9172 124.995 19.6992 124.201 19.2631C123.406 18.827 122.784 18.2242 122.335 17.4546C121.885 16.685 121.661 15.8065 121.661 14.8189C121.661 13.8441 121.872 12.9687 122.296 12.1927C122.719 11.4168 123.302 10.8107 124.044 10.3746C124.787 9.93856 125.62 9.72052 126.545 9.72052C127.47 9.72052 128.3 9.93535 129.036 10.365C129.772 10.7947 130.351 11.3943 130.775 12.1639C131.198 12.9334 131.41 13.8056 131.41 14.7804L131.39 15.0497ZM126.545 10.567C125.829 10.567 125.184 10.7241 124.611 11.0384C124.038 11.3526 123.579 11.7951 123.233 12.3659C122.888 12.9366 122.69 13.5811 122.638 14.2994H130.452C130.413 13.5811 130.218 12.9398 129.866 12.3755C129.515 11.8112 129.052 11.3687 128.479 11.048C127.906 10.7274 127.261 10.567 126.545 10.567ZM142.565 15.0497H133.793C133.819 15.8321 134.021 16.5279 134.399 17.1372C134.777 17.7464 135.288 18.2177 135.932 18.5512C136.577 18.8847 137.303 19.0514 138.111 19.0514C138.775 19.0514 139.39 18.9328 139.957 18.6955C140.524 18.4582 140.996 18.1087 141.373 17.647L141.94 18.2819C141.497 18.8078 140.94 19.2118 140.27 19.4939C139.599 19.7761 138.873 19.9172 138.091 19.9172C137.075 19.9172 136.17 19.6992 135.376 19.2631C134.581 18.827 133.959 18.2242 133.51 17.4546C133.061 16.685 132.836 15.8065 132.836 14.8189C132.836 13.8441 133.048 12.9687 133.471 12.1927C133.894 11.4168 134.477 10.8107 135.219 10.3746C135.962 9.93856 136.795 9.72052 137.72 9.72052C138.645 9.72052 139.475 9.93535 140.211 10.365C140.947 10.7947 141.526 11.3943 141.95 12.1639C142.373 12.9334 142.585 13.8056 142.585 14.7804L142.565 15.0497ZM137.72 10.567C137.004 10.567 136.359 10.7241 135.786 11.0384C135.213 11.3526 134.754 11.7951 134.409 12.3659C134.063 12.9366 133.865 13.5811 133.813 14.2994H141.627C141.588 13.5811 141.393 12.9398 141.041 12.3755C140.69 11.8112 140.227 11.3687 139.654 11.048C139.081 10.7274 138.436 10.567 137.72 10.567ZM150.243 9.72052C151.194 9.72052 152.054 9.93856 152.822 10.3746C153.59 10.8107 154.193 11.4135 154.629 12.1831C155.066 12.9527 155.284 13.8312 155.284 14.8189C155.284 15.8065 155.066 16.6882 154.629 17.4642C154.193 18.2402 153.59 18.843 152.822 19.2727C152.054 19.7024 151.194 19.9172 150.243 19.9172C149.344 19.9172 148.53 19.7088 147.801 19.2919C147.072 18.8751 146.505 18.2947 146.101 17.5508V23.5726H145.125V9.79747H146.062V12.1639C146.466 11.3943 147.036 10.7947 147.772 10.365C148.508 9.93535 149.331 9.72052 150.243 9.72052ZM150.185 19.0514C150.966 19.0514 151.669 18.8719 152.295 18.5127C152.92 18.1536 153.411 17.6534 153.77 17.0121C154.128 16.3708 154.307 15.6397 154.307 14.8189C154.307 13.998 154.128 13.2669 153.77 12.6256C153.411 11.9843 152.92 11.4841 152.295 11.125C151.669 10.7658 150.966 10.5863 150.185 10.5863C149.403 10.5863 148.703 10.7658 148.084 11.125C147.466 11.4841 146.977 11.9843 146.619 12.6256C146.261 13.2669 146.082 13.998 146.082 14.8189C146.082 15.6397 146.261 16.3708 146.619 17.0121C146.977 17.6534 147.466 18.1536 148.084 18.5127C148.703 18.8719 149.403 19.0514 150.185 19.0514ZM166.439 15.0497H157.667C157.693 15.8321 157.895 16.5279 158.273 17.1372C158.651 17.7464 159.162 18.2177 159.806 18.5512C160.451 18.8847 161.177 19.0514 161.985 19.0514C162.649 19.0514 163.264 18.9328 163.831 18.6955C164.398 18.4582 164.87 18.1087 165.247 17.647L165.814 18.2819C165.371 18.8078 164.814 19.2118 164.144 19.4939C163.473 19.7761 162.747 19.9172 161.965 19.9172C160.949 19.9172 160.044 19.6992 159.25 19.2631C158.455 18.827 157.833 18.2242 157.384 17.4546C156.935 16.685 156.71 15.8065 156.71 14.8189C156.71 13.8441 156.922 12.9687 157.345 12.1927C157.768 11.4168 158.351 10.8107 159.093 10.3746C159.836 9.93856 160.669 9.72052 161.594 9.72052C162.519 9.72052 163.349 9.93535 164.085 10.365C164.821 10.7947 165.401 11.3943 165.824 12.1639C166.247 12.9334 166.459 13.8056 166.459 14.7804L166.439 15.0497ZM161.594 10.567C160.878 10.567 160.233 10.7241 159.66 11.0384C159.087 11.3526 158.628 11.7951 158.283 12.3659C157.937 12.9366 157.739 13.5811 157.687 14.2994H165.501C165.462 13.5811 165.267 12.9398 164.915 12.3755C164.564 11.8112 164.101 11.3687 163.528 11.048C162.955 10.7274 162.31 10.567 161.594 10.567ZM169.936 11.9907C170.249 11.2596 170.737 10.6985 171.402 10.3073C172.066 9.91611 172.873 9.72052 173.824 9.72052V10.6632L173.59 10.644C172.457 10.644 171.571 10.9935 170.933 11.6925C170.294 12.3915 169.975 13.3631 169.975 14.6072V19.8402H168.999V9.79747H169.936V11.9907Z" fill="white"/>
</svg>
