<svg viewBox="0 0 105 24" fill="none" xmlns="http://www.w3.org/2000/svg">
<path fill-rule="evenodd" clip-rule="evenodd" d="M104.4 5.41098L98.9048 10.822L93.4105 5.41098L98.9048 0L104.4 5.41098Z" fill="#0055FF"/>
<path fill-rule="evenodd" clip-rule="evenodd" d="M21.2866 5.71577H24.3588L24.5597 5.98412L19.6402 20.4521L19.2979 20.7387H16.1663L15.824 20.453L12.2897 10.1013H12.2087L8.69604 20.4521L8.35378 20.7387H5.26176L4.9195 20.4521L0 5.98412L0.200851 5.7149H3.33251L3.65495 5.98412L6.80732 16.1447L6.82804 16.163L6.88748 16.2012L10.4019 5.98412L10.7235 5.71664H13.9362L14.2577 5.98412L17.792 16.2576H17.8127L20.9651 5.98325L21.2866 5.71577ZM56.0266 5.71577H59.1196L59.3213 5.98412L53.0958 20.4521L52.7347 20.7387H49.8831L49.521 20.4521L43.3568 5.98412L43.5577 5.71664H46.71L47.0514 5.98412L51.3278 16.6962L51.3683 16.6771L55.6853 5.98325L56.0266 5.71577Z" fill="white"/>
<path fill-rule="evenodd" clip-rule="evenodd" d="M75.3651 13.7609L75.0643 14.0275L63.4167 13.9893C63.5374 15.2667 64.0193 16.1621 64.8623 16.9063C65.7104 17.674 66.8325 18.0973 67.9958 18.0883C69.8232 18.0883 70.9275 17.4395 71.6498 16.0674L72.0524 15.7809H74.9436L75.1642 16.0674C74.7427 17.7826 73.5178 19.0409 72.3532 19.8034C71.1887 20.585 69.7422 20.9662 68.0552 20.9662C65.726 20.9662 63.7986 20.2229 62.3323 18.7552C60.8669 17.2876 60.1238 15.4187 60.1238 13.1886C60.1238 11.0913 60.8264 9.24246 62.2521 7.71749C63.6779 6.19254 65.5252 5.41095 67.7346 5.41095C70.0232 5.41095 71.8921 6.13522 73.2764 7.54641C74.6626 8.95674 75.3651 10.9776 75.3651 13.3223V13.7609ZM67.7337 8.27068C65.6864 8.27068 64.1201 9.58548 63.6176 11.3588H71.8912C71.5705 10.1005 70.4447 8.27068 67.7337 8.27068ZM38.3355 5.71577L38.0338 6.00235V7.4891L37.9735 7.54641C37.5718 7.05054 37.0296 6.61199 36.3874 6.24985C36.2356 6.16938 36.0815 6.09293 35.9253 6.02059C35.0616 5.62111 34.078 5.43006 33.0134 5.43006C31.0256 5.43006 29.2783 6.19254 27.8327 7.67928C26.3872 9.16603 25.6639 11.0349 25.6639 13.2268C25.6639 15.4187 26.3872 17.2876 27.8327 18.7743C29.2783 20.2611 31.0256 21.0236 33.0134 21.0236C34.078 21.0236 35.0418 20.8325 35.9046 20.433C35.9414 20.4157 35.9791 20.3983 36.0173 20.3808C36.1475 20.3209 36.2832 20.2585 36.4072 20.1846C37.0296 19.8225 37.552 19.4222 37.9537 18.9454C37.9636 18.9359 37.9838 18.9406 38.0041 18.9454C38.0244 18.9502 38.0446 18.955 38.0545 18.9454V20.4895L38.3554 20.776H40.9853L41.2871 20.4895V5.98411L40.9862 5.69753H38.3355V5.71577ZM33.4755 18.1447C34.7608 18.1447 35.8254 17.707 36.7089 16.8108C37.2908 16.2385 37.6925 15.5142 37.8933 14.618V11.7201C37.6726 10.8629 37.2908 10.1569 36.7089 9.56638C35.8046 8.67103 34.7409 8.23247 33.4755 8.23247C32.21 8.23247 31.3067 8.69013 30.4033 9.58548C29.5197 10.5008 29.0577 11.7018 29.0577 13.1886C29.0577 14.6944 29.4999 15.8955 30.4033 16.7917C31.3067 17.707 32.2307 18.1447 33.4755 18.1447Z" fill="white"/>
<path fill-rule="evenodd" clip-rule="evenodd" d="M86.2092 12.0449C86.2092 12.0449 84.4817 11.7018 83.0568 11.397C81.7509 11.1104 81.088 10.7483 81.088 9.87206C81.088 8.93763 82.0319 8.15605 84.0602 8.15605C86.0489 8.15605 87.1531 8.99495 87.1531 9.73832L87.4945 10.0249H90.3857L90.6072 9.75743C90.6072 7.79391 88.8194 5.44916 84.1404 5.44916C79.2614 5.44916 77.7347 8.17515 77.7347 9.92851C77.7347 11.3962 78.2968 13.1313 82.0319 13.9511L85.2455 14.6371C86.8721 14.981 87.5548 15.5142 87.5548 16.4105C87.5548 17.2303 86.6911 18.2211 84.4421 18.2211C82.3534 18.2211 81.088 17.2685 81.0285 16.1439L80.6664 15.8573H77.7149L77.4943 16.1439C77.7555 18.6597 79.7225 21.0235 84.4223 21.0235C89.7435 21.0235 90.8279 17.9354 90.8279 16.3149C90.8279 14.1421 89.5219 12.7309 86.2092 12.0449Z" fill="white"/>
</svg>
