<svg width="156" height="16" viewBox="0 0 156 16" fill="none" xmlns="http://www.w3.org/2000/svg">
<path d="M90.7049 3.55952C91.304 3.55952 91.8844 3.69924 92.4457 3.97928C93.0081 4.25989 93.436 4.6226 93.73 5.06798C93.9733 5.43126 94.1468 5.84637 94.2511 6.31387L94.2976 6.55257C94.3815 6.93972 94.4234 7.55743 94.4234 8.40627H88.2388C88.265 9.25976 88.4676 9.94442 88.8454 10.4602C89.2238 10.9761 89.8089 11.234 90.6025 11.234C91.3424 11.234 91.9333 10.9906 92.3746 10.5033C92.6267 10.2204 92.8055 9.89319 92.9103 9.52117H94.3046C94.2679 9.83031 94.1457 10.175 93.9378 10.5546C93.7306 10.9341 93.4983 11.2445 93.241 11.4855C92.8101 11.9047 92.2774 12.187 91.6423 12.3337C91.2625 12.4219 90.8735 12.4641 90.4837 12.4595C89.434 12.4595 88.5438 12.0782 87.8138 11.3161C87.0843 10.5551 86.7192 9.4874 86.7192 8.11575C86.7192 6.76507 87.0866 5.66763 87.8219 4.82462C88.5572 3.9816 89.5184 3.5601 90.7049 3.5601V3.55952ZM90.6188 4.7926C89.9673 4.7926 89.4212 5.02664 88.9799 5.49589C88.5392 5.96455 88.3051 6.56014 88.2789 7.28322H92.9656C92.9085 6.67017 92.774 6.18055 92.5639 5.81376C92.1755 5.1326 91.5276 4.7926 90.6188 4.7926V4.7926ZM95.3607 3.74756H97.1964L99.1339 6.70918L101.096 3.74756L102.82 3.78715L99.9769 7.84853L102.947 12.1608H101.135L99.039 9.00301L97.0071 12.1608H95.2111L98.1808 7.84853L95.3607 3.74756V3.74756ZM107.484 3.50421C108.434 3.50421 109.208 3.73476 109.804 4.19585C110.4 4.65637 110.759 5.44989 110.879 6.57585H109.5C109.417 6.0577 109.225 5.62688 108.926 5.28339C108.626 4.94048 108.146 4.76873 107.484 4.76873C106.581 4.76873 105.935 5.20887 105.546 6.08856C105.294 6.65911 105.168 7.36356 105.168 8.20192C105.168 9.04493 105.346 9.75462 105.703 10.3304C106.061 10.9068 106.623 11.1944 107.389 11.1944C107.977 11.1944 108.444 11.0151 108.788 10.6564C109.131 10.2978 109.369 9.80644 109.5 9.18349H110.879C110.722 10.299 110.328 11.1146 109.697 11.6304C109.067 12.1463 108.261 12.4048 107.279 12.4048C106.176 12.4048 105.297 12.0025 104.64 11.1985C103.984 10.395 103.656 9.39075 103.656 8.1862C103.656 6.70918 104.016 5.55993 104.735 4.73787C105.454 3.91523 106.371 3.50421 107.484 3.50421V3.50421ZM112.297 0.582184H113.715V4.88691C114.051 4.4625 114.353 4.16441 114.621 3.9915C115.078 3.69284 115.648 3.54321 116.33 3.54321C117.554 3.54321 118.383 3.97054 118.82 4.82404C119.056 5.28979 119.174 5.93661 119.174 6.76448V12.1608H117.717V6.85822C117.717 6.24109 117.638 5.78757 117.481 5.49938C117.223 5.03887 116.74 4.80832 116.031 4.80832C115.443 4.80832 114.91 5.00976 114.432 5.41322C113.954 5.81609 113.715 6.57818 113.715 7.6989V12.1608H112.297V0.582184V0.582184ZM124.578 3.5438C125.571 3.5438 126.377 3.73184 126.996 4.10911C127.611 4.48637 127.918 5.07263 127.918 5.86849V10.7152C127.918 10.862 127.948 10.9801 128.008 11.0686C128.069 11.1577 128.196 11.2025 128.391 11.2025C128.454 11.2025 128.525 11.1985 128.603 11.1909C128.682 11.1827 128.766 11.1711 128.855 11.1554V12.1998L128.616 12.2639C128.529 12.2864 128.44 12.3045 128.351 12.318C128.236 12.3337 128.078 12.3413 127.878 12.3413C127.39 12.3413 127.035 12.1684 126.815 11.8232C126.7 11.6398 126.618 11.3807 126.571 11.0453C126.282 11.4226 125.867 11.7498 125.326 12.0275C124.785 12.3046 124.189 12.4438 123.538 12.4438C122.756 12.4438 122.116 12.2068 121.62 11.7329C121.124 11.259 120.876 10.6658 120.876 9.95373C120.876 9.1736 121.12 8.56812 121.608 8.13904C122.097 7.70938 122.738 7.44507 123.53 7.34551L125.791 7.06257C126.117 7.02065 126.334 6.88442 126.445 6.65445C126.508 6.5287 126.539 6.34763 126.539 6.11243C126.539 5.63037 126.368 5.28106 126.024 5.06332C125.68 4.84616 125.187 4.73729 124.547 4.73729C123.806 4.73729 123.281 4.9364 122.971 5.33462C122.798 5.55469 122.685 5.88188 122.632 6.31678H121.309C121.335 5.27931 121.672 4.55856 122.321 4.15219C122.969 3.7464 123.722 3.5438 124.578 3.5438V3.5438ZM126.5 7.87996C126.327 7.98942 126.104 8.0814 125.83 8.15476C125.557 8.22812 125.289 8.28051 125.027 8.31195L124.168 8.4214C123.653 8.48952 123.267 8.59723 123.01 8.74394C122.575 8.98962 122.356 9.3826 122.356 9.9223C122.356 10.3304 122.506 10.6524 122.805 10.8887C123.105 11.1239 123.46 11.2415 123.869 11.2415C124.368 11.2415 124.851 11.1263 125.319 10.8963C126.106 10.5138 126.5 9.88795 126.5 9.01873V7.87996H126.5ZM130.242 3.74756H131.589V4.94164C131.988 4.44969 132.411 4.0963 132.857 3.88147C133.303 3.66664 133.8 3.55952 134.346 3.55952C135.543 3.55952 136.352 3.97578 136.772 4.80832C137.003 5.26417 137.119 5.91565 137.119 6.76448V12.1608H135.677V6.85822C135.677 6.34531 135.601 5.93137 135.449 5.61757C135.197 5.09359 134.74 4.83161 134.078 4.83161C133.742 4.83161 133.466 4.86596 133.251 4.93407C132.862 5.04935 132.521 5.27931 132.227 5.62513C131.99 5.90284 131.837 6.18986 131.766 6.48561C131.695 6.78137 131.66 7.20404 131.66 7.75421V12.1608H130.242V3.74815V3.74756ZM142.192 3.59852C142.854 3.59852 143.431 3.76095 143.925 4.08582C144.193 4.26863 144.466 4.53585 144.744 4.88691V3.82616H146.052V11.4773C146.052 12.5457 145.894 13.3887 145.579 14.007C144.991 15.1481 143.88 15.7192 142.247 15.7192C141.339 15.7192 140.574 15.516 139.955 15.1102C139.335 14.7044 138.988 14.0698 138.914 13.2053H140.357C140.425 13.5825 140.561 13.8731 140.766 14.0774C141.086 14.3918 141.59 14.549 142.278 14.549C143.365 14.549 144.077 14.1665 144.413 13.4021C144.613 12.9514 144.704 12.1474 144.689 10.9906C144.405 11.4197 144.064 11.7393 143.665 11.9489C143.266 12.1585 142.738 12.2633 142.081 12.2633C141.168 12.2633 140.368 11.9396 139.682 11.2928C138.998 10.6465 138.655 9.57647 138.655 8.08373C138.655 6.67483 139 5.57565 139.691 4.78445C140.381 3.99383 141.215 3.59852 142.192 3.59852V3.59852ZM142.452 4.84733C141.454 4.84733 140.771 5.31366 140.404 6.24575C140.209 6.74353 140.113 7.395 140.113 8.20192C140.113 9.14973 140.305 9.87106 140.691 10.3659C141.077 10.8608 141.595 11.1082 142.247 11.1082C143.266 11.1082 143.982 10.65 144.398 9.73367C144.629 9.21551 144.744 8.61003 144.744 7.91897C144.744 6.87685 144.529 6.10428 144.098 5.60185C143.667 5.09883 143.118 4.84733 142.452 4.84733V4.84733ZM151.7 3.55952C152.298 3.55952 152.879 3.69924 153.441 3.97928C154.003 4.25989 154.43 4.6226 154.724 5.06798C154.968 5.43126 155.141 5.84637 155.246 6.31387L155.292 6.55257C155.376 6.93972 155.418 7.55743 155.418 8.40627H149.234C149.261 9.25976 149.463 9.94442 149.84 10.4602C150.219 10.9761 150.805 11.234 151.598 11.234C152.338 11.234 152.928 10.9906 153.37 10.5033C153.622 10.2204 153.801 9.89319 153.905 9.52117H155.3C155.263 9.83031 155.141 10.175 154.933 10.5546C154.726 10.9341 154.493 11.2445 154.236 11.4855C153.805 11.9047 153.272 12.187 152.637 12.3337C152.258 12.4219 151.869 12.4641 151.479 12.4595C150.429 12.4595 149.539 12.0782 148.809 11.3161C148.079 10.5546 147.714 9.4874 147.714 8.11517C147.714 6.76448 148.081 5.66705 148.816 4.82404C149.552 3.98102 150.513 3.55952 151.7 3.55952V3.55952ZM151.613 4.7926C150.962 4.7926 150.416 5.02664 149.974 5.49589C149.534 5.96455 149.3 6.56014 149.273 7.28322H153.96C153.903 6.67017 153.769 6.18055 153.558 5.81376C153.17 5.1326 152.522 4.7926 151.613 4.7926H151.613Z" fill="black"/>
<path d="M90.7049 3.55952C91.304 3.55952 91.8844 3.69924 92.4457 3.97928C93.0081 4.25989 93.436 4.6226 93.73 5.06798C93.9733 5.43126 94.1468 5.84637 94.2511 6.31387L94.2976 6.55257C94.3815 6.93972 94.4234 7.55743 94.4234 8.40627H88.2388C88.265 9.25976 88.4676 9.94442 88.8454 10.4602C89.2238 10.9761 89.8089 11.234 90.6025 11.234C91.3424 11.234 91.9333 10.9906 92.3746 10.5033C92.6267 10.2204 92.8055 9.89319 92.9103 9.52117H94.3046C94.2679 9.83031 94.1457 10.175 93.9378 10.5546C93.7306 10.9341 93.4983 11.2445 93.241 11.4855C92.8101 11.9047 92.2774 12.187 91.6423 12.3337C91.2625 12.4219 90.8735 12.4641 90.4837 12.4595C89.434 12.4595 88.5438 12.0782 87.8138 11.3161C87.0843 10.5551 86.7192 9.4874 86.7192 8.11575C86.7192 6.76507 87.0866 5.66763 87.8219 4.82462C88.5572 3.9816 89.5184 3.5601 90.7049 3.5601V3.55952ZM90.6188 4.7926C89.9673 4.7926 89.4212 5.02664 88.9799 5.49589C88.5392 5.96455 88.3051 6.56014 88.2789 7.28322H92.9656C92.9085 6.67017 92.774 6.18055 92.5639 5.81376C92.1755 5.1326 91.5276 4.7926 90.6188 4.7926V4.7926ZM95.3607 3.74756H97.1964L99.1339 6.70918L101.096 3.74756L102.82 3.78715L99.9769 7.84853L102.947 12.1608H101.135L99.039 9.00301L97.0071 12.1608H95.2111L98.1808 7.84853L95.3607 3.74756V3.74756ZM107.484 3.50421C108.434 3.50421 109.208 3.73476 109.804 4.19585C110.4 4.65637 110.759 5.44989 110.879 6.57585H109.5C109.417 6.0577 109.225 5.62688 108.926 5.28339C108.626 4.94048 108.146 4.76873 107.484 4.76873C106.581 4.76873 105.935 5.20887 105.546 6.08856C105.294 6.65911 105.168 7.36356 105.168 8.20192C105.168 9.04493 105.346 9.75462 105.703 10.3304C106.061 10.9068 106.623 11.1944 107.389 11.1944C107.977 11.1944 108.444 11.0151 108.788 10.6564C109.131 10.2978 109.369 9.80644 109.5 9.18349H110.879C110.722 10.299 110.328 11.1146 109.697 11.6304C109.067 12.1463 108.261 12.4048 107.279 12.4048C106.176 12.4048 105.297 12.0025 104.64 11.1985C103.984 10.395 103.656 9.39075 103.656 8.1862C103.656 6.70918 104.016 5.55993 104.735 4.73787C105.454 3.91523 106.371 3.50421 107.484 3.50421V3.50421ZM112.297 0.582184H113.715V4.88691C114.051 4.4625 114.353 4.16441 114.621 3.9915C115.078 3.69284 115.648 3.54321 116.33 3.54321C117.554 3.54321 118.383 3.97054 118.82 4.82404C119.056 5.28979 119.174 5.93661 119.174 6.76448V12.1608H117.717V6.85822C117.717 6.24109 117.638 5.78757 117.481 5.49938C117.223 5.03887 116.74 4.80832 116.031 4.80832C115.443 4.80832 114.91 5.00976 114.432 5.41322C113.954 5.81609 113.715 6.57818 113.715 7.6989V12.1608H112.297V0.582184V0.582184ZM124.578 3.5438C125.571 3.5438 126.377 3.73184 126.996 4.10911C127.611 4.48637 127.918 5.07263 127.918 5.86849V10.7152C127.918 10.862 127.948 10.9801 128.008 11.0686C128.069 11.1577 128.196 11.2025 128.391 11.2025C128.454 11.2025 128.525 11.1985 128.603 11.1909C128.682 11.1827 128.766 11.1711 128.855 11.1554V12.1998L128.616 12.2639C128.529 12.2864 128.44 12.3045 128.351 12.318C128.236 12.3337 128.078 12.3413 127.878 12.3413C127.39 12.3413 127.035 12.1684 126.815 11.8232C126.7 11.6398 126.618 11.3807 126.571 11.0453C126.282 11.4226 125.867 11.7498 125.326 12.0275C124.785 12.3046 124.189 12.4438 123.538 12.4438C122.756 12.4438 122.116 12.2068 121.62 11.7329C121.124 11.259 120.876 10.6658 120.876 9.95373C120.876 9.1736 121.12 8.56812 121.608 8.13904C122.097 7.70938 122.738 7.44507 123.53 7.34551L125.791 7.06257C126.117 7.02065 126.334 6.88442 126.445 6.65445C126.508 6.5287 126.539 6.34763 126.539 6.11243C126.539 5.63037 126.368 5.28106 126.024 5.06332C125.68 4.84616 125.187 4.73729 124.547 4.73729C123.806 4.73729 123.281 4.9364 122.971 5.33462C122.798 5.55469 122.685 5.88188 122.632 6.31678H121.309C121.335 5.27931 121.672 4.55856 122.321 4.15219C122.969 3.7464 123.722 3.5438 124.578 3.5438V3.5438ZM126.5 7.87996C126.327 7.98942 126.104 8.0814 125.83 8.15476C125.557 8.22812 125.289 8.28051 125.027 8.31195L124.168 8.4214C123.653 8.48952 123.267 8.59723 123.01 8.74394C122.575 8.98962 122.356 9.3826 122.356 9.9223C122.356 10.3304 122.506 10.6524 122.805 10.8887C123.105 11.1239 123.46 11.2415 123.869 11.2415C124.368 11.2415 124.851 11.1263 125.319 10.8963C126.106 10.5138 126.5 9.88795 126.5 9.01873V7.87996H126.5ZM130.242 3.74756H131.589V4.94164C131.988 4.44969 132.411 4.0963 132.857 3.88147C133.303 3.66664 133.8 3.55952 134.346 3.55952C135.543 3.55952 136.352 3.97578 136.772 4.80832C137.003 5.26417 137.119 5.91565 137.119 6.76448V12.1608H135.677V6.85822C135.677 6.34531 135.601 5.93137 135.449 5.61757C135.197 5.09359 134.74 4.83161 134.078 4.83161C133.742 4.83161 133.466 4.86596 133.251 4.93407C132.862 5.04935 132.521 5.27931 132.227 5.62513C131.99 5.90284 131.837 6.18986 131.766 6.48561C131.695 6.78137 131.66 7.20404 131.66 7.75421V12.1608H130.242V3.74815V3.74756ZM142.192 3.59852C142.854 3.59852 143.431 3.76095 143.925 4.08582C144.193 4.26863 144.466 4.53585 144.744 4.88691V3.82616H146.052V11.4773C146.052 12.5457 145.894 13.3887 145.579 14.007C144.991 15.1481 143.88 15.7192 142.247 15.7192C141.339 15.7192 140.574 15.516 139.955 15.1102C139.335 14.7044 138.988 14.0698 138.914 13.2053H140.357C140.425 13.5825 140.561 13.8731 140.766 14.0774C141.086 14.3918 141.59 14.549 142.278 14.549C143.365 14.549 144.077 14.1665 144.413 13.4021C144.613 12.9514 144.704 12.1474 144.689 10.9906C144.405 11.4197 144.064 11.7393 143.665 11.9489C143.266 12.1585 142.738 12.2633 142.081 12.2633C141.168 12.2633 140.368 11.9396 139.682 11.2928C138.998 10.6465 138.655 9.57647 138.655 8.08373C138.655 6.67483 139 5.57565 139.691 4.78445C140.381 3.99383 141.215 3.59852 142.192 3.59852V3.59852ZM142.452 4.84733C141.454 4.84733 140.771 5.31366 140.404 6.24575C140.209 6.74353 140.113 7.395 140.113 8.20192C140.113 9.14973 140.305 9.87106 140.691 10.3659C141.077 10.8608 141.595 11.1082 142.247 11.1082C143.266 11.1082 143.982 10.65 144.398 9.73367C144.629 9.21551 144.744 8.61003 144.744 7.91897C144.744 6.87685 144.529 6.10428 144.098 5.60185C143.667 5.09883 143.118 4.84733 142.452 4.84733V4.84733ZM151.7 3.55952C152.298 3.55952 152.879 3.69924 153.441 3.97928C154.003 4.25989 154.43 4.6226 154.724 5.06798C154.968 5.43126 155.141 5.84637 155.246 6.31387L155.292 6.55257C155.376 6.93972 155.418 7.55743 155.418 8.40627H149.234C149.261 9.25976 149.463 9.94442 149.84 10.4602C150.219 10.9761 150.805 11.234 151.598 11.234C152.338 11.234 152.928 10.9906 153.37 10.5033C153.622 10.2204 153.801 9.89319 153.905 9.52117H155.3C155.263 9.83031 155.141 10.175 154.933 10.5546C154.726 10.9341 154.493 11.2445 154.236 11.4855C153.805 11.9047 153.272 12.187 152.637 12.3337C152.258 12.4219 151.869 12.4641 151.479 12.4595C150.429 12.4595 149.539 12.0782 148.809 11.3161C148.079 10.5546 147.714 9.4874 147.714 8.11517C147.714 6.76448 148.081 5.66705 148.816 4.82404C149.552 3.98102 150.513 3.55952 151.7 3.55952V3.55952ZM151.613 4.7926C150.962 4.7926 150.416 5.02664 149.974 5.49589C149.534 5.96455 149.3 6.56014 149.273 7.28322H153.96C153.903 6.67017 153.769 6.18055 153.558 5.81376C153.17 5.1326 152.522 4.7926 151.613 4.7926H151.613Z" fill="#262020"/>
<path fill-rule="evenodd" clip-rule="evenodd" d="M77.4041 8.1507L83.8082 14.5548H71L77.4041 8.1507Z" fill="#5A81EA"/>
<path fill-rule="evenodd" clip-rule="evenodd" d="M77.4041 8.1507L83.8082 1.74658H71L77.4041 8.1507Z" fill="#E14B51"/>
<path d="M3.53601 2.59998C4.62401 2.59998 5.48001 2.85998 6.10401 3.37998C6.72801 3.89998 7.04001 4.61598 7.04001 5.52798C7.04001 6.43998 6.72801 7.15598 6.10401 7.67598C5.48001 8.19598 4.62401 8.45598 3.53601 8.45598H1.46001V11H0.26001V2.59998H3.53601ZM3.50001 7.41198C4.26001 7.41198 4.84001 7.25198 5.24001 6.93198C5.64001 6.60398 5.84001 6.13598 5.84001 5.52798C5.84001 4.91998 5.64001 4.45598 5.24001 4.13598C4.84001 3.80798 4.26001 3.64398 3.50001 3.64398H1.46001V7.41198H3.50001Z" fill="black"/>
<path d="M10.8355 11.072C10.2035 11.072 9.63554 10.932 9.13154 10.652C8.62754 10.372 8.23154 9.98798 7.94354 9.49998C7.66354 9.00398 7.52354 8.44398 7.52354 7.81998C7.52354 7.19598 7.66354 6.63998 7.94354 6.15198C8.23154 5.65598 8.62754 5.27198 9.13154 4.99998C9.63554 4.71998 10.2035 4.57998 10.8355 4.57998C11.4675 4.57998 12.0315 4.71998 12.5275 4.99998C13.0315 5.27198 13.4235 5.65598 13.7035 6.15198C13.9915 6.63998 14.1355 7.19598 14.1355 7.81998C14.1355 8.44398 13.9915 9.00398 13.7035 9.49998C13.4235 9.98798 13.0315 10.372 12.5275 10.652C12.0315 10.932 11.4675 11.072 10.8355 11.072ZM10.8355 10.064C11.2435 10.064 11.6075 9.97198 11.9275 9.78798C12.2555 9.59598 12.5115 9.33198 12.6955 8.99598C12.8795 8.65198 12.9715 8.25998 12.9715 7.81998C12.9715 7.37998 12.8795 6.99198 12.6955 6.65598C12.5115 6.31198 12.2555 6.04798 11.9275 5.86398C11.6075 5.67998 11.2435 5.58798 10.8355 5.58798C10.4275 5.58798 10.0595 5.67998 9.73154 5.86398C9.41154 6.04798 9.15554 6.31198 8.96354 6.65598C8.77954 6.99198 8.68754 7.37998 8.68754 7.81998C8.68754 8.25998 8.77954 8.65198 8.96354 8.99598C9.15554 9.33198 9.41154 9.59598 9.73154 9.78798C10.0595 9.97198 10.4275 10.064 10.8355 10.064Z" fill="black"/>
<path d="M24.6769 4.63998L22.3009 11H21.1969L19.3609 6.17598L17.5009 11H16.3969L14.0329 4.63998H15.1249L16.9729 9.70398L18.8929 4.63998H19.8649L21.7489 9.72798L23.6449 4.63998H24.6769Z" fill="black"/>
<path d="M30.9181 7.85598C30.9181 7.94398 30.9101 8.05998 30.8941 8.20398H25.7341C25.8061 8.76398 26.0501 9.21598 26.4661 9.55998C26.8901 9.89598 27.4141 10.064 28.0381 10.064C28.7981 10.064 29.4101 9.80798 29.8741 9.29598L30.5101 10.04C30.2221 10.376 29.8621 10.632 29.4301 10.808C29.0061 10.984 28.5301 11.072 28.0021 11.072C27.3301 11.072 26.7341 10.936 26.2141 10.664C25.6941 10.384 25.2901 9.99598 25.0021 9.49998C24.7221 9.00398 24.5821 8.44398 24.5821 7.81998C24.5821 7.20398 24.7181 6.64798 24.9901 6.15198C25.2701 5.65598 25.6501 5.27198 26.1301 4.99998C26.6181 4.71998 27.1661 4.57998 27.7741 4.57998C28.3821 4.57998 28.9221 4.71998 29.3941 4.99998C29.8741 5.27198 30.2461 5.65598 30.5101 6.15198C30.7821 6.64798 30.9181 7.21598 30.9181 7.85598ZM27.7741 5.55198C27.2221 5.55198 26.7581 5.71998 26.3821 6.05598C26.0141 6.39198 25.7981 6.83198 25.7341 7.37598H29.8141C29.7501 6.83998 29.5301 6.40398 29.1541 6.06798C28.7861 5.72398 28.3261 5.55198 27.7741 5.55198Z" fill="black"/>
<path d="M33.1218 5.70798C33.3218 5.33998 33.6178 5.05998 34.0098 4.86798C34.4018 4.67598 34.8778 4.57998 35.4378 4.57998V5.69598C35.3738 5.68798 35.2858 5.68398 35.1738 5.68398C34.5498 5.68398 34.0578 5.87198 33.6978 6.24798C33.3458 6.61598 33.1698 7.14398 33.1698 7.83198V11H32.0178V4.63998H33.1218V5.70798Z" fill="black"/>
<path d="M42.047 7.85598C42.047 7.94398 42.039 8.05998 42.023 8.20398H36.863C36.935 8.76398 37.179 9.21598 37.595 9.55998C38.019 9.89598 38.543 10.064 39.167 10.064C39.927 10.064 40.539 9.80798 41.003 9.29598L41.639 10.04C41.351 10.376 40.991 10.632 40.559 10.808C40.135 10.984 39.659 11.072 39.131 11.072C38.459 11.072 37.863 10.936 37.343 10.664C36.823 10.384 36.419 9.99598 36.131 9.49998C35.851 9.00398 35.711 8.44398 35.711 7.81998C35.711 7.20398 35.847 6.64798 36.119 6.15198C36.399 5.65598 36.779 5.27198 37.259 4.99998C37.747 4.71998 38.295 4.57998 38.903 4.57998C39.511 4.57998 40.051 4.71998 40.523 4.99998C41.003 5.27198 41.375 5.65598 41.639 6.15198C41.911 6.64798 42.047 7.21598 42.047 7.85598ZM38.903 5.55198C38.351 5.55198 37.887 5.71998 37.511 6.05598C37.143 6.39198 36.927 6.83198 36.863 7.37598H40.943C40.879 6.83998 40.659 6.40398 40.283 6.06798C39.915 5.72398 39.455 5.55198 38.903 5.55198Z" fill="black"/>
<path d="M49.1467 2.09598V11H48.0427V9.99198C47.7867 10.344 47.4627 10.612 47.0707 10.796C46.6787 10.98 46.2467 11.072 45.7747 11.072C45.1587 11.072 44.6067 10.936 44.1187 10.664C43.6307 10.392 43.2467 10.012 42.9667 9.52398C42.6947 9.02798 42.5587 8.45998 42.5587 7.81998C42.5587 7.17998 42.6947 6.61598 42.9667 6.12798C43.2467 5.63998 43.6307 5.25998 44.1187 4.98798C44.6067 4.71598 45.1587 4.57998 45.7747 4.57998C46.2307 4.57998 46.6507 4.66798 47.0347 4.84398C47.4187 5.01198 47.7387 5.26398 47.9947 5.59998V2.09598H49.1467ZM45.8707 10.064C46.2707 10.064 46.6347 9.97198 46.9627 9.78798C47.2907 9.59598 47.5467 9.33198 47.7307 8.99598C47.9147 8.65198 48.0067 8.25998 48.0067 7.81998C48.0067 7.37998 47.9147 6.99198 47.7307 6.65598C47.5467 6.31198 47.2907 6.04798 46.9627 5.86398C46.6347 5.67998 46.2707 5.58798 45.8707 5.58798C45.4627 5.58798 45.0947 5.67998 44.7667 5.86398C44.4467 6.04798 44.1907 6.31198 43.9987 6.65598C43.8147 6.99198 43.7227 7.37998 43.7227 7.81998C43.7227 8.25998 43.8147 8.65198 43.9987 8.99598C44.1907 9.33198 44.4467 9.59598 44.7667 9.78798C45.0947 9.97198 45.4627 10.064 45.8707 10.064Z" fill="black"/>
<path d="M56.921 4.57998C57.537 4.57998 58.089 4.71598 58.577 4.98798C59.065 5.25998 59.445 5.63998 59.717 6.12798C59.997 6.61598 60.137 7.17998 60.137 7.81998C60.137 8.45998 59.997 9.02798 59.717 9.52398C59.445 10.012 59.065 10.392 58.577 10.664C58.089 10.936 57.537 11.072 56.921 11.072C56.449 11.072 56.017 10.98 55.625 10.796C55.233 10.612 54.909 10.344 54.653 9.99198V11H53.549V2.09598H54.701V5.59998C54.957 5.26398 55.277 5.01198 55.661 4.84398C56.045 4.66798 56.465 4.57998 56.921 4.57998ZM56.825 10.064C57.233 10.064 57.597 9.97198 57.917 9.78798C58.245 9.59598 58.501 9.33198 58.685 8.99598C58.877 8.65198 58.973 8.25998 58.973 7.81998C58.973 7.37998 58.877 6.99198 58.685 6.65598C58.501 6.31198 58.245 6.04798 57.917 5.86398C57.597 5.67998 57.233 5.58798 56.825 5.58798C56.425 5.58798 56.061 5.67998 55.733 5.86398C55.405 6.04798 55.149 6.31198 54.965 6.65598C54.781 6.99198 54.689 7.37998 54.689 7.81998C54.689 8.25998 54.781 8.65198 54.965 8.99598C55.149 9.33198 55.405 9.59598 55.733 9.78798C56.061 9.97198 56.425 10.064 56.825 10.064Z" fill="black"/>
<path d="M66.6809 4.63998L63.597 11.636C63.325 12.284 63.0049 12.74 62.6369 13.004C62.2769 13.268 61.8409 13.4 61.3289 13.4C61.0169 13.4 60.713 13.348 60.417 13.244C60.129 13.148 59.8889 13.004 59.6969 12.812L60.1889 11.948C60.5169 12.26 60.8969 12.416 61.3289 12.416C61.6089 12.416 61.8409 12.34 62.0249 12.188C62.2169 12.044 62.389 11.792 62.541 11.432L62.7449 10.988L59.937 4.63998H61.1369L63.357 9.72798L65.5529 4.63998H66.6809Z" fill="black"/>
</svg>
