<svg width="196" height="16" viewBox="0 0 196 16" fill="none" xmlns="http://www.w3.org/2000/svg">
<path d="M130.705 3.55952C131.304 3.55952 131.884 3.69924 132.446 3.97928C133.008 4.25989 133.436 4.6226 133.73 5.06798C133.973 5.43126 134.147 5.84637 134.251 6.31387L134.298 6.55257C134.381 6.93972 134.423 7.55743 134.423 8.40627H128.239C128.265 9.25976 128.468 9.94442 128.845 10.4602C129.224 10.9761 129.809 11.234 130.602 11.234C131.342 11.234 131.933 10.9906 132.375 10.5033C132.627 10.2204 132.805 9.89319 132.91 9.52117H134.305C134.268 9.83031 134.146 10.175 133.938 10.5546C133.731 10.9341 133.498 11.2445 133.241 11.4855C132.81 11.9047 132.277 12.187 131.642 12.3337C131.262 12.4219 130.874 12.4641 130.484 12.4595C129.434 12.4595 128.544 12.0782 127.814 11.3161C127.084 10.5551 126.719 9.4874 126.719 8.11575C126.719 6.76507 127.087 5.66763 127.822 4.82462C128.557 3.9816 129.518 3.5601 130.705 3.5601V3.55952ZM130.619 4.7926C129.967 4.7926 129.421 5.02664 128.98 5.49589C128.539 5.96455 128.305 6.56014 128.279 7.28322H132.966C132.909 6.67017 132.774 6.18055 132.564 5.81376C132.176 5.1326 131.528 4.7926 130.619 4.7926V4.7926ZM135.361 3.74756H137.196L139.134 6.70918L141.096 3.74756L142.82 3.78715L139.977 7.84853L142.947 12.1608H141.135L139.039 9.00301L137.007 12.1608H135.211L138.181 7.84853L135.361 3.74756V3.74756ZM147.484 3.50421C148.434 3.50421 149.208 3.73476 149.804 4.19585C150.4 4.65637 150.759 5.44989 150.879 6.57585H149.5C149.417 6.0577 149.225 5.62688 148.926 5.28339C148.626 4.94048 148.146 4.76873 147.484 4.76873C146.581 4.76873 145.935 5.20887 145.546 6.08856C145.294 6.65911 145.168 7.36356 145.168 8.20192C145.168 9.04493 145.346 9.75462 145.703 10.3304C146.061 10.9068 146.623 11.1944 147.389 11.1944C147.977 11.1944 148.444 11.0151 148.788 10.6564C149.131 10.2978 149.369 9.80644 149.5 9.18349H150.879C150.722 10.299 150.328 11.1146 149.697 11.6304C149.067 12.1463 148.261 12.4048 147.279 12.4048C146.176 12.4048 145.297 12.0025 144.64 11.1985C143.984 10.395 143.656 9.39075 143.656 8.1862C143.656 6.70918 144.016 5.55993 144.735 4.73787C145.454 3.91523 146.371 3.50421 147.484 3.50421V3.50421ZM152.297 0.582184H153.715V4.88691C154.051 4.4625 154.353 4.16441 154.621 3.9915C155.078 3.69284 155.648 3.54321 156.33 3.54321C157.554 3.54321 158.383 3.97054 158.82 4.82404C159.056 5.28979 159.174 5.93661 159.174 6.76448V12.1608H157.717V6.85822C157.717 6.24109 157.638 5.78757 157.481 5.49938C157.223 5.03887 156.74 4.80832 156.031 4.80832C155.443 4.80832 154.91 5.00976 154.432 5.41322C153.954 5.81609 153.715 6.57818 153.715 7.6989V12.1608H152.297V0.582184V0.582184ZM164.578 3.5438C165.571 3.5438 166.377 3.73184 166.996 4.10911C167.611 4.48637 167.918 5.07263 167.918 5.86849V10.7152C167.918 10.862 167.948 10.9801 168.008 11.0686C168.069 11.1577 168.196 11.2025 168.391 11.2025C168.454 11.2025 168.525 11.1985 168.603 11.1909C168.682 11.1827 168.766 11.1711 168.855 11.1554V12.1998L168.616 12.2639C168.529 12.2864 168.44 12.3045 168.351 12.318C168.236 12.3337 168.078 12.3413 167.878 12.3413C167.39 12.3413 167.035 12.1684 166.815 11.8232C166.7 11.6398 166.618 11.3807 166.571 11.0453C166.282 11.4226 165.867 11.7498 165.326 12.0275C164.785 12.3046 164.189 12.4438 163.538 12.4438C162.756 12.4438 162.116 12.2068 161.62 11.7329C161.124 11.259 160.876 10.6658 160.876 9.95373C160.876 9.1736 161.12 8.56812 161.608 8.13904C162.097 7.70938 162.738 7.44507 163.53 7.34551L165.791 7.06257C166.117 7.02065 166.334 6.88442 166.445 6.65445C166.508 6.5287 166.539 6.34763 166.539 6.11243C166.539 5.63037 166.368 5.28106 166.024 5.06332C165.68 4.84616 165.187 4.73729 164.547 4.73729C163.806 4.73729 163.281 4.9364 162.971 5.33462C162.798 5.55469 162.685 5.88188 162.632 6.31678H161.309C161.335 5.27931 161.672 4.55856 162.321 4.15219C162.969 3.7464 163.722 3.5438 164.578 3.5438V3.5438ZM166.5 7.87996C166.327 7.98942 166.104 8.0814 165.83 8.15476C165.557 8.22812 165.289 8.28051 165.027 8.31195L164.168 8.4214C163.653 8.48952 163.267 8.59723 163.01 8.74394C162.575 8.98962 162.356 9.3826 162.356 9.9223C162.356 10.3304 162.506 10.6524 162.805 10.8887C163.105 11.1239 163.46 11.2415 163.869 11.2415C164.368 11.2415 164.851 11.1263 165.319 10.8963C166.106 10.5138 166.5 9.88795 166.5 9.01873V7.87996H166.5ZM170.242 3.74756H171.589V4.94164C171.988 4.44969 172.411 4.0963 172.857 3.88147C173.303 3.66664 173.8 3.55952 174.346 3.55952C175.543 3.55952 176.352 3.97578 176.772 4.80832C177.003 5.26417 177.119 5.91565 177.119 6.76448V12.1608H175.677V6.85822C175.677 6.34531 175.601 5.93137 175.449 5.61757C175.197 5.09359 174.74 4.83161 174.078 4.83161C173.742 4.83161 173.466 4.86596 173.251 4.93407C172.862 5.04935 172.521 5.27931 172.227 5.62513C171.99 5.90284 171.837 6.18986 171.766 6.48561C171.695 6.78137 171.66 7.20404 171.66 7.75421V12.1608H170.242V3.74815V3.74756ZM182.192 3.59852C182.854 3.59852 183.431 3.76095 183.925 4.08582C184.193 4.26863 184.466 4.53585 184.744 4.88691V3.82616H186.052V11.4773C186.052 12.5457 185.894 13.3887 185.579 14.007C184.991 15.1481 183.88 15.7192 182.247 15.7192C181.339 15.7192 180.574 15.516 179.955 15.1102C179.335 14.7044 178.988 14.0698 178.914 13.2053H180.357C180.425 13.5825 180.561 13.8731 180.766 14.0774C181.086 14.3918 181.59 14.549 182.278 14.549C183.365 14.549 184.077 14.1665 184.413 13.4021C184.613 12.9514 184.704 12.1474 184.689 10.9906C184.405 11.4197 184.064 11.7393 183.665 11.9489C183.266 12.1585 182.738 12.2633 182.081 12.2633C181.168 12.2633 180.368 11.9396 179.682 11.2928C178.998 10.6465 178.655 9.57647 178.655 8.08373C178.655 6.67483 179 5.57565 179.691 4.78445C180.381 3.99383 181.215 3.59852 182.192 3.59852V3.59852ZM182.452 4.84733C181.454 4.84733 180.771 5.31366 180.404 6.24575C180.209 6.74353 180.113 7.395 180.113 8.20192C180.113 9.14973 180.305 9.87106 180.691 10.3659C181.077 10.8608 181.595 11.1082 182.247 11.1082C183.266 11.1082 183.982 10.65 184.398 9.73367C184.629 9.21551 184.744 8.61003 184.744 7.91897C184.744 6.87685 184.529 6.10428 184.098 5.60185C183.667 5.09883 183.118 4.84733 182.452 4.84733V4.84733ZM191.7 3.55952C192.298 3.55952 192.879 3.69924 193.441 3.97928C194.003 4.25989 194.43 4.6226 194.724 5.06798C194.968 5.43126 195.141 5.84637 195.246 6.31387L195.292 6.55257C195.376 6.93972 195.418 7.55743 195.418 8.40627H189.234C189.261 9.25976 189.463 9.94442 189.84 10.4602C190.219 10.9761 190.805 11.234 191.598 11.234C192.338 11.234 192.928 10.9906 193.37 10.5033C193.622 10.2204 193.801 9.89319 193.905 9.52117H195.3C195.263 9.83031 195.141 10.175 194.933 10.5546C194.726 10.9341 194.493 11.2445 194.236 11.4855C193.805 11.9047 193.272 12.187 192.637 12.3337C192.258 12.4219 191.869 12.4641 191.479 12.4595C190.429 12.4595 189.539 12.0782 188.809 11.3161C188.079 10.5546 187.714 9.4874 187.714 8.11517C187.714 6.76448 188.081 5.66705 188.816 4.82404C189.552 3.98102 190.513 3.55952 191.7 3.55952V3.55952ZM191.613 4.7926C190.962 4.7926 190.416 5.02664 189.974 5.49589C189.534 5.96455 189.3 6.56014 189.273 7.28322H193.96C193.903 6.67017 193.769 6.18055 193.558 5.81376C193.17 5.1326 192.522 4.7926 191.613 4.7926H191.613Z" fill="black"/>
<path d="M130.705 3.55952C131.304 3.55952 131.884 3.69924 132.446 3.97928C133.008 4.25989 133.436 4.6226 133.73 5.06798C133.973 5.43126 134.147 5.84637 134.251 6.31387L134.298 6.55257C134.381 6.93972 134.423 7.55743 134.423 8.40627H128.239C128.265 9.25976 128.468 9.94442 128.845 10.4602C129.224 10.9761 129.809 11.234 130.602 11.234C131.342 11.234 131.933 10.9906 132.375 10.5033C132.627 10.2204 132.805 9.89319 132.91 9.52117H134.305C134.268 9.83031 134.146 10.175 133.938 10.5546C133.731 10.9341 133.498 11.2445 133.241 11.4855C132.81 11.9047 132.277 12.187 131.642 12.3337C131.262 12.4219 130.874 12.4641 130.484 12.4595C129.434 12.4595 128.544 12.0782 127.814 11.3161C127.084 10.5551 126.719 9.4874 126.719 8.11575C126.719 6.76507 127.087 5.66763 127.822 4.82462C128.557 3.9816 129.518 3.5601 130.705 3.5601V3.55952ZM130.619 4.7926C129.967 4.7926 129.421 5.02664 128.98 5.49589C128.539 5.96455 128.305 6.56014 128.279 7.28322H132.966C132.909 6.67017 132.774 6.18055 132.564 5.81376C132.176 5.1326 131.528 4.7926 130.619 4.7926V4.7926ZM135.361 3.74756H137.196L139.134 6.70918L141.096 3.74756L142.82 3.78715L139.977 7.84853L142.947 12.1608H141.135L139.039 9.00301L137.007 12.1608H135.211L138.181 7.84853L135.361 3.74756V3.74756ZM147.484 3.50421C148.434 3.50421 149.208 3.73476 149.804 4.19585C150.4 4.65637 150.759 5.44989 150.879 6.57585H149.5C149.417 6.0577 149.225 5.62688 148.926 5.28339C148.626 4.94048 148.146 4.76873 147.484 4.76873C146.581 4.76873 145.935 5.20887 145.546 6.08856C145.294 6.65911 145.168 7.36356 145.168 8.20192C145.168 9.04493 145.346 9.75462 145.703 10.3304C146.061 10.9068 146.623 11.1944 147.389 11.1944C147.977 11.1944 148.444 11.0151 148.788 10.6564C149.131 10.2978 149.369 9.80644 149.5 9.18349H150.879C150.722 10.299 150.328 11.1146 149.697 11.6304C149.067 12.1463 148.261 12.4048 147.279 12.4048C146.176 12.4048 145.297 12.0025 144.64 11.1985C143.984 10.395 143.656 9.39075 143.656 8.1862C143.656 6.70918 144.016 5.55993 144.735 4.73787C145.454 3.91523 146.371 3.50421 147.484 3.50421V3.50421ZM152.297 0.582184H153.715V4.88691C154.051 4.4625 154.353 4.16441 154.621 3.9915C155.078 3.69284 155.648 3.54321 156.33 3.54321C157.554 3.54321 158.383 3.97054 158.82 4.82404C159.056 5.28979 159.174 5.93661 159.174 6.76448V12.1608H157.717V6.85822C157.717 6.24109 157.638 5.78757 157.481 5.49938C157.223 5.03887 156.74 4.80832 156.031 4.80832C155.443 4.80832 154.91 5.00976 154.432 5.41322C153.954 5.81609 153.715 6.57818 153.715 7.6989V12.1608H152.297V0.582184V0.582184ZM164.578 3.5438C165.571 3.5438 166.377 3.73184 166.996 4.10911C167.611 4.48637 167.918 5.07263 167.918 5.86849V10.7152C167.918 10.862 167.948 10.9801 168.008 11.0686C168.069 11.1577 168.196 11.2025 168.391 11.2025C168.454 11.2025 168.525 11.1985 168.603 11.1909C168.682 11.1827 168.766 11.1711 168.855 11.1554V12.1998L168.616 12.2639C168.529 12.2864 168.44 12.3045 168.351 12.318C168.236 12.3337 168.078 12.3413 167.878 12.3413C167.39 12.3413 167.035 12.1684 166.815 11.8232C166.7 11.6398 166.618 11.3807 166.571 11.0453C166.282 11.4226 165.867 11.7498 165.326 12.0275C164.785 12.3046 164.189 12.4438 163.538 12.4438C162.756 12.4438 162.116 12.2068 161.62 11.7329C161.124 11.259 160.876 10.6658 160.876 9.95373C160.876 9.1736 161.12 8.56812 161.608 8.13904C162.097 7.70938 162.738 7.44507 163.53 7.34551L165.791 7.06257C166.117 7.02065 166.334 6.88442 166.445 6.65445C166.508 6.5287 166.539 6.34763 166.539 6.11243C166.539 5.63037 166.368 5.28106 166.024 5.06332C165.68 4.84616 165.187 4.73729 164.547 4.73729C163.806 4.73729 163.281 4.9364 162.971 5.33462C162.798 5.55469 162.685 5.88188 162.632 6.31678H161.309C161.335 5.27931 161.672 4.55856 162.321 4.15219C162.969 3.7464 163.722 3.5438 164.578 3.5438V3.5438ZM166.5 7.87996C166.327 7.98942 166.104 8.0814 165.83 8.15476C165.557 8.22812 165.289 8.28051 165.027 8.31195L164.168 8.4214C163.653 8.48952 163.267 8.59723 163.01 8.74394C162.575 8.98962 162.356 9.3826 162.356 9.9223C162.356 10.3304 162.506 10.6524 162.805 10.8887C163.105 11.1239 163.46 11.2415 163.869 11.2415C164.368 11.2415 164.851 11.1263 165.319 10.8963C166.106 10.5138 166.5 9.88795 166.5 9.01873V7.87996H166.5ZM170.242 3.74756H171.589V4.94164C171.988 4.44969 172.411 4.0963 172.857 3.88147C173.303 3.66664 173.8 3.55952 174.346 3.55952C175.543 3.55952 176.352 3.97578 176.772 4.80832C177.003 5.26417 177.119 5.91565 177.119 6.76448V12.1608H175.677V6.85822C175.677 6.34531 175.601 5.93137 175.449 5.61757C175.197 5.09359 174.74 4.83161 174.078 4.83161C173.742 4.83161 173.466 4.86596 173.251 4.93407C172.862 5.04935 172.521 5.27931 172.227 5.62513C171.99 5.90284 171.837 6.18986 171.766 6.48561C171.695 6.78137 171.66 7.20404 171.66 7.75421V12.1608H170.242V3.74815V3.74756ZM182.192 3.59852C182.854 3.59852 183.431 3.76095 183.925 4.08582C184.193 4.26863 184.466 4.53585 184.744 4.88691V3.82616H186.052V11.4773C186.052 12.5457 185.894 13.3887 185.579 14.007C184.991 15.1481 183.88 15.7192 182.247 15.7192C181.339 15.7192 180.574 15.516 179.955 15.1102C179.335 14.7044 178.988 14.0698 178.914 13.2053H180.357C180.425 13.5825 180.561 13.8731 180.766 14.0774C181.086 14.3918 181.59 14.549 182.278 14.549C183.365 14.549 184.077 14.1665 184.413 13.4021C184.613 12.9514 184.704 12.1474 184.689 10.9906C184.405 11.4197 184.064 11.7393 183.665 11.9489C183.266 12.1585 182.738 12.2633 182.081 12.2633C181.168 12.2633 180.368 11.9396 179.682 11.2928C178.998 10.6465 178.655 9.57647 178.655 8.08373C178.655 6.67483 179 5.57565 179.691 4.78445C180.381 3.99383 181.215 3.59852 182.192 3.59852V3.59852ZM182.452 4.84733C181.454 4.84733 180.771 5.31366 180.404 6.24575C180.209 6.74353 180.113 7.395 180.113 8.20192C180.113 9.14973 180.305 9.87106 180.691 10.3659C181.077 10.8608 181.595 11.1082 182.247 11.1082C183.266 11.1082 183.982 10.65 184.398 9.73367C184.629 9.21551 184.744 8.61003 184.744 7.91897C184.744 6.87685 184.529 6.10428 184.098 5.60185C183.667 5.09883 183.118 4.84733 182.452 4.84733V4.84733ZM191.7 3.55952C192.298 3.55952 192.879 3.69924 193.441 3.97928C194.003 4.25989 194.43 4.6226 194.724 5.06798C194.968 5.43126 195.141 5.84637 195.246 6.31387L195.292 6.55257C195.376 6.93972 195.418 7.55743 195.418 8.40627H189.234C189.261 9.25976 189.463 9.94442 189.84 10.4602C190.219 10.9761 190.805 11.234 191.598 11.234C192.338 11.234 192.928 10.9906 193.37 10.5033C193.622 10.2204 193.801 9.89319 193.905 9.52117H195.3C195.263 9.83031 195.141 10.175 194.933 10.5546C194.726 10.9341 194.493 11.2445 194.236 11.4855C193.805 11.9047 193.272 12.187 192.637 12.3337C192.258 12.4219 191.869 12.4641 191.479 12.4595C190.429 12.4595 189.539 12.0782 188.809 11.3161C188.079 10.5546 187.714 9.4874 187.714 8.11517C187.714 6.76448 188.081 5.66705 188.816 4.82404C189.552 3.98102 190.513 3.55952 191.7 3.55952V3.55952ZM191.613 4.7926C190.962 4.7926 190.416 5.02664 189.974 5.49589C189.534 5.96455 189.3 6.56014 189.273 7.28322H193.96C193.903 6.67017 193.769 6.18055 193.558 5.81376C193.17 5.1326 192.522 4.7926 191.613 4.7926H191.613Z" fill="#262020"/>
<path fill-rule="evenodd" clip-rule="evenodd" d="M117.404 8.1507L123.808 14.5548H111L117.404 8.1507Z" fill="#5A81EA"/>
<path fill-rule="evenodd" clip-rule="evenodd" d="M117.404 8.1507L123.808 1.74658H111L117.404 8.1507Z" fill="#E14B51"/>
<path d="M3.53601 3.59998C4.62401 3.59998 5.48001 3.85998 6.10401 4.37998C6.72801 4.89998 7.04001 5.61598 7.04001 6.52798C7.04001 7.43998 6.72801 8.15598 6.10401 8.67598C5.48001 9.19598 4.62401 9.45598 3.53601 9.45598H1.46001V12H0.26001V3.59998H3.53601ZM3.50001 8.41198C4.26001 8.41198 4.84001 8.25198 5.24001 7.93198C5.64001 7.60398 5.84001 7.13598 5.84001 6.52798C5.84001 5.91998 5.64001 5.45598 5.24001 5.13598C4.84001 4.80798 4.26001 4.64398 3.50001 4.64398H1.46001V8.41198H3.50001Z" fill="black"/>
<path d="M10.8355 12.072C10.2035 12.072 9.63554 11.932 9.13154 11.652C8.62754 11.372 8.23154 10.988 7.94354 10.5C7.66354 10.004 7.52354 9.44398 7.52354 8.81998C7.52354 8.19598 7.66354 7.63998 7.94354 7.15198C8.23154 6.65598 8.62754 6.27198 9.13154 5.99998C9.63554 5.71998 10.2035 5.57998 10.8355 5.57998C11.4675 5.57998 12.0315 5.71998 12.5275 5.99998C13.0315 6.27198 13.4235 6.65598 13.7035 7.15198C13.9915 7.63998 14.1355 8.19598 14.1355 8.81998C14.1355 9.44398 13.9915 10.004 13.7035 10.5C13.4235 10.988 13.0315 11.372 12.5275 11.652C12.0315 11.932 11.4675 12.072 10.8355 12.072ZM10.8355 11.064C11.2435 11.064 11.6075 10.972 11.9275 10.788C12.2555 10.596 12.5115 10.332 12.6955 9.99598C12.8795 9.65198 12.9715 9.25998 12.9715 8.81998C12.9715 8.37998 12.8795 7.99198 12.6955 7.65598C12.5115 7.31198 12.2555 7.04798 11.9275 6.86398C11.6075 6.67998 11.2435 6.58798 10.8355 6.58798C10.4275 6.58798 10.0595 6.67998 9.73154 6.86398C9.41154 7.04798 9.15554 7.31198 8.96354 7.65598C8.77954 7.99198 8.68754 8.37998 8.68754 8.81998C8.68754 9.25998 8.77954 9.65198 8.96354 9.99598C9.15554 10.332 9.41154 10.596 9.73154 10.788C10.0595 10.972 10.4275 11.064 10.8355 11.064Z" fill="black"/>
<path d="M24.6769 5.63998L22.3009 12H21.1969L19.3609 7.17598L17.5009 12H16.3969L14.0329 5.63998H15.1249L16.9729 10.704L18.8929 5.63998H19.8649L21.7489 10.728L23.6449 5.63998H24.6769Z" fill="black"/>
<path d="M30.9181 8.85598C30.9181 8.94398 30.9101 9.05998 30.8941 9.20398H25.7341C25.8061 9.76398 26.0501 10.216 26.4661 10.56C26.8901 10.896 27.4141 11.064 28.0381 11.064C28.7981 11.064 29.4101 10.808 29.8741 10.296L30.5101 11.04C30.2221 11.376 29.8621 11.632 29.4301 11.808C29.0061 11.984 28.5301 12.072 28.0021 12.072C27.3301 12.072 26.7341 11.936 26.2141 11.664C25.6941 11.384 25.2901 10.996 25.0021 10.5C24.7221 10.004 24.5821 9.44398 24.5821 8.81998C24.5821 8.20398 24.7181 7.64798 24.9901 7.15198C25.2701 6.65598 25.6501 6.27198 26.1301 5.99998C26.6181 5.71998 27.1661 5.57998 27.7741 5.57998C28.3821 5.57998 28.9221 5.71998 29.3941 5.99998C29.8741 6.27198 30.2461 6.65598 30.5101 7.15198C30.7821 7.64798 30.9181 8.21598 30.9181 8.85598ZM27.7741 6.55198C27.2221 6.55198 26.7581 6.71998 26.3821 7.05598C26.0141 7.39198 25.7981 7.83198 25.7341 8.37598H29.8141C29.7501 7.83998 29.5301 7.40398 29.1541 7.06798C28.7861 6.72398 28.3261 6.55198 27.7741 6.55198Z" fill="black"/>
<path d="M33.1218 6.70798C33.3218 6.33998 33.6178 6.05998 34.0098 5.86798C34.4018 5.67598 34.8778 5.57998 35.4378 5.57998V6.69598C35.3738 6.68798 35.2858 6.68398 35.1738 6.68398C34.5498 6.68398 34.0578 6.87198 33.6978 7.24798C33.3458 7.61598 33.1698 8.14398 33.1698 8.83198V12H32.0178V5.63998H33.1218V6.70798Z" fill="black"/>
<path d="M42.047 8.85598C42.047 8.94398 42.039 9.05998 42.023 9.20398H36.863C36.935 9.76398 37.179 10.216 37.595 10.56C38.019 10.896 38.543 11.064 39.167 11.064C39.927 11.064 40.539 10.808 41.003 10.296L41.639 11.04C41.351 11.376 40.991 11.632 40.559 11.808C40.135 11.984 39.659 12.072 39.131 12.072C38.459 12.072 37.863 11.936 37.343 11.664C36.823 11.384 36.419 10.996 36.131 10.5C35.851 10.004 35.711 9.44398 35.711 8.81998C35.711 8.20398 35.847 7.64798 36.119 7.15198C36.399 6.65598 36.779 6.27198 37.259 5.99998C37.747 5.71998 38.295 5.57998 38.903 5.57998C39.511 5.57998 40.051 5.71998 40.523 5.99998C41.003 6.27198 41.375 6.65598 41.639 7.15198C41.911 7.64798 42.047 8.21598 42.047 8.85598ZM38.903 6.55198C38.351 6.55198 37.887 6.71998 37.511 7.05598C37.143 7.39198 36.927 7.83198 36.863 8.37598H40.943C40.879 7.83998 40.659 7.40398 40.283 7.06798C39.915 6.72398 39.455 6.55198 38.903 6.55198Z" fill="black"/>
<path d="M49.1467 3.09598V12H48.0427V10.992C47.7867 11.344 47.4627 11.612 47.0707 11.796C46.6787 11.98 46.2467 12.072 45.7747 12.072C45.1587 12.072 44.6067 11.936 44.1187 11.664C43.6307 11.392 43.2467 11.012 42.9667 10.524C42.6947 10.028 42.5587 9.45998 42.5587 8.81998C42.5587 8.17998 42.6947 7.61598 42.9667 7.12798C43.2467 6.63998 43.6307 6.25998 44.1187 5.98798C44.6067 5.71598 45.1587 5.57998 45.7747 5.57998C46.2307 5.57998 46.6507 5.66798 47.0347 5.84398C47.4187 6.01198 47.7387 6.26398 47.9947 6.59998V3.09598H49.1467ZM45.8707 11.064C46.2707 11.064 46.6347 10.972 46.9627 10.788C47.2907 10.596 47.5467 10.332 47.7307 9.99598C47.9147 9.65198 48.0067 9.25998 48.0067 8.81998C48.0067 8.37998 47.9147 7.99198 47.7307 7.65598C47.5467 7.31198 47.2907 7.04798 46.9627 6.86398C46.6347 6.67998 46.2707 6.58798 45.8707 6.58798C45.4627 6.58798 45.0947 6.67998 44.7667 6.86398C44.4467 7.04798 44.1907 7.31198 43.9987 7.65598C43.8147 7.99198 43.7227 8.37998 43.7227 8.81998C43.7227 9.25998 43.8147 9.65198 43.9987 9.99598C44.1907 10.332 44.4467 10.596 44.7667 10.788C45.0947 10.972 45.4627 11.064 45.8707 11.064Z" fill="black"/>
<path d="M56.921 5.57998C57.537 5.57998 58.089 5.71598 58.577 5.98798C59.065 6.25998 59.445 6.63998 59.717 7.12798C59.997 7.61598 60.137 8.17998 60.137 8.81998C60.137 9.45998 59.997 10.028 59.717 10.524C59.445 11.012 59.065 11.392 58.577 11.664C58.089 11.936 57.537 12.072 56.921 12.072C56.449 12.072 56.017 11.98 55.625 11.796C55.233 11.612 54.909 11.344 54.653 10.992V12H53.549V3.09598H54.701V6.59998C54.957 6.26398 55.277 6.01198 55.661 5.84398C56.045 5.66798 56.465 5.57998 56.921 5.57998ZM56.825 11.064C57.233 11.064 57.597 10.972 57.917 10.788C58.245 10.596 58.501 10.332 58.685 9.99598C58.877 9.65198 58.973 9.25998 58.973 8.81998C58.973 8.37998 58.877 7.99198 58.685 7.65598C58.501 7.31198 58.245 7.04798 57.917 6.86398C57.597 6.67998 57.233 6.58798 56.825 6.58798C56.425 6.58798 56.061 6.67998 55.733 6.86398C55.405 7.04798 55.149 7.31198 54.965 7.65598C54.781 7.99198 54.689 8.37998 54.689 8.81998C54.689 9.25998 54.781 9.65198 54.965 9.99598C55.149 10.332 55.405 10.596 55.733 10.788C56.061 10.972 56.425 11.064 56.825 11.064Z" fill="black"/>
<path d="M66.6809 5.63998L63.597 12.636C63.325 13.284 63.0049 13.74 62.6369 14.004C62.2769 14.268 61.8409 14.4 61.3289 14.4C61.0169 14.4 60.713 14.348 60.417 14.244C60.129 14.148 59.8889 14.004 59.6969 13.812L60.1889 12.948C60.5169 13.26 60.8969 13.416 61.3289 13.416C61.6089 13.416 61.8409 13.34 62.0249 13.188C62.2169 13.044 62.389 12.792 62.541 12.432L62.7449 11.988L59.937 5.63998H61.1369L63.357 10.728L65.5529 5.63998H66.6809Z" fill="black"/>
<path d="M82.0147 3.59998L79.2067 12H77.9467L75.6547 5.29198L73.3627 12H72.0787L69.2707 3.59998H70.5067L72.7747 10.428L75.1387 3.59998H76.2427L78.5587 10.464L80.8747 3.59998H82.0147Z" fill="black"/>
<path d="M84.6502 5.57998C85.5302 5.57998 86.2022 5.79598 86.6662 6.22798C87.1382 6.65998 87.3742 7.30398 87.3742 8.15998V12H86.2822V11.16C86.0902 11.456 85.8142 11.684 85.4542 11.844C85.1022 11.996 84.6822 12.072 84.1942 12.072C83.4822 12.072 82.9102 11.9 82.4782 11.556C82.0542 11.212 81.8422 10.76 81.8422 10.2C81.8422 9.63998 82.0462 9.19198 82.4542 8.85598C82.8622 8.51198 83.5102 8.33998 84.3982 8.33998H86.2222V8.11198C86.2222 7.61598 86.0782 7.23598 85.7902 6.97198C85.5022 6.70798 85.0782 6.57598 84.5182 6.57598C84.1422 6.57598 83.7742 6.63998 83.4142 6.76798C83.0542 6.88798 82.7502 7.05198 82.5022 7.25998L82.0222 6.39598C82.3502 6.13198 82.7422 5.93198 83.1982 5.79598C83.6542 5.65198 84.1382 5.57998 84.6502 5.57998ZM84.3862 11.184C84.8262 11.184 85.2062 11.088 85.5262 10.896C85.8462 10.696 86.0782 10.416 86.2222 10.056V9.16798H84.4462C83.4702 9.16798 82.9822 9.49598 82.9822 10.152C82.9822 10.472 83.1062 10.724 83.3542 10.908C83.6022 11.092 83.9462 11.184 84.3862 11.184Z" fill="black"/>
<path d="M94.5169 5.63998L91.7329 12H90.5569L87.7729 5.63998H88.9729L91.1569 10.74L93.3889 5.63998H94.5169Z" fill="black"/>
<path d="M100.664 8.85598C100.664 8.94398 100.656 9.05998 100.64 9.20398H95.4802C95.5522 9.76398 95.7962 10.216 96.2122 10.56C96.6362 10.896 97.1602 11.064 97.7842 11.064C98.5442 11.064 99.1562 10.808 99.6202 10.296L100.256 11.04C99.9682 11.376 99.6082 11.632 99.1762 11.808C98.7522 11.984 98.2762 12.072 97.7482 12.072C97.0762 12.072 96.4802 11.936 95.9602 11.664C95.4402 11.384 95.0362 10.996 94.7482 10.5C94.4682 10.004 94.3282 9.44398 94.3282 8.81998C94.3282 8.20398 94.4642 7.64798 94.7362 7.15198C95.0162 6.65598 95.3962 6.27198 95.8762 5.99998C96.3642 5.71998 96.9122 5.57998 97.5202 5.57998C98.1282 5.57998 98.6682 5.71998 99.1402 5.99998C99.6202 6.27198 99.9922 6.65598 100.256 7.15198C100.528 7.64798 100.664 8.21598 100.664 8.85598ZM97.5202 6.55198C96.9682 6.55198 96.5042 6.71998 96.1282 7.05598C95.7602 7.39198 95.5442 7.83198 95.4802 8.37598H99.5602C99.4962 7.83998 99.2762 7.40398 98.9002 7.06798C98.5322 6.72398 98.0722 6.55198 97.5202 6.55198Z" fill="black"/>
<path d="M103.588 12.072C103.068 12.072 102.568 12.004 102.088 11.868C101.608 11.724 101.232 11.544 100.96 11.328L101.44 10.416C101.72 10.616 102.06 10.776 102.46 10.896C102.86 11.016 103.264 11.076 103.672 11.076C104.68 11.076 105.184 10.788 105.184 10.212C105.184 10.02 105.116 9.86798 104.98 9.75598C104.844 9.64398 104.672 9.56398 104.464 9.51598C104.264 9.45998 103.976 9.39998 103.6 9.33598C103.088 9.25598 102.668 9.16398 102.34 9.05998C102.02 8.95598 101.744 8.77998 101.512 8.53198C101.28 8.28398 101.164 7.93598 101.164 7.48798C101.164 6.91198 101.404 6.45198 101.884 6.10798C102.364 5.75598 103.008 5.57998 103.816 5.57998C104.24 5.57998 104.664 5.63198 105.088 5.73598C105.512 5.83998 105.86 5.97998 106.132 6.15598L105.64 7.06798C105.12 6.73198 104.508 6.56398 103.804 6.56398C103.316 6.56398 102.944 6.64398 102.688 6.80398C102.432 6.96398 102.304 7.17598 102.304 7.43998C102.304 7.64798 102.376 7.81198 102.52 7.93198C102.664 8.05198 102.84 8.13998 103.048 8.19598C103.264 8.25198 103.564 8.31598 103.948 8.38798C104.46 8.47598 104.872 8.57198 105.184 8.67598C105.504 8.77198 105.776 8.93998 106 9.17998C106.224 9.41998 106.336 9.75598 106.336 10.188C106.336 10.764 106.088 11.224 105.592 11.568C105.104 11.904 104.436 12.072 103.588 12.072Z" fill="black"/>
</svg>
