<svg width="10" height="18" viewBox="0 0 10 18" fill="none" xmlns="http://www.w3.org/2000/svg">
<path d="M9.62343 0.00368118L7.22488 0C4.5302 0 2.78878 1.70899 2.78878 4.3541V6.36163H0.377148C0.168754 6.36163 0 6.52324 0 6.72257V9.63126C0 9.83059 0.168947 9.99201 0.377148 9.99201H2.78878V17.3316C2.78878 17.5309 2.95753 17.6923 3.16593 17.6923H6.31242C6.52081 17.6923 6.68956 17.5307 6.68956 17.3316V9.99201H9.50932C9.71772 9.99201 9.88647 9.83059 9.88647 9.63126L9.88763 6.72257C9.88763 6.62686 9.84779 6.5352 9.77717 6.46747C9.70656 6.39973 9.61034 6.36163 9.51029 6.36163H6.68956V4.65982C6.68956 3.84186 6.89334 3.42663 8.00727 3.42663L9.62304 3.42607C9.83125 3.42607 10 3.26447 10 3.06532V0.364437C10 0.165469 9.83144 0.0040493 9.62343 0.00368118Z" fill="black"/>
</svg>
