<svg width="20" height="16" viewBox="0 0 20 16" fill="none" xmlns="http://www.w3.org/2000/svg">
<path d="M18.4042 1.86083L20 0.334167V0H14.4717L10.5317 9.80667L6.04917 0H0.2525V0.334167L2.11667 2.57833C2.29833 2.74417 2.39333 2.98667 2.36917 3.23083V12.05C2.42667 12.3675 2.32333 12.6942 2.1 12.925L0 15.47V15.8H5.95417V15.4658L3.85417 12.925C3.62667 12.6933 3.51917 12.3725 3.565 12.05V4.42167L8.79167 15.8042H9.39917L13.8933 4.42167V13.4892C13.8933 13.7283 13.8933 13.7775 13.7367 13.9342L12.12 15.4983V15.8333H19.9633V15.4992L18.405 13.9733C18.2683 13.87 18.1975 13.6967 18.2267 13.5283V2.30583C18.1975 2.13667 18.2675 1.96333 18.4042 1.86083Z" fill="black"/>
</svg>
