<svg width="20" height="17" viewBox="0 0 20 17" fill="none" xmlns="http://www.w3.org/2000/svg">
<path d="M20 1.91237C19.2563 2.23669 18.4638 2.45166 17.6375 2.55604C18.4875 2.05154 19.1362 1.25876 19.4412 0.303195C18.6488 0.772899 17.7738 1.10467 16.8412 1.28982C16.0887 0.493314 15.0162 0 13.8462 0C11.5763 0 9.74875 1.8316 9.74875 4.07698C9.74875 4.40006 9.77625 4.71071 9.84375 5.00645C6.435 4.84118 3.41875 3.2171 1.3925 0.743077C1.03875 1.3532 0.83125 2.05154 0.83125 2.80331C0.83125 4.21491 1.5625 5.46621 2.6525 6.19065C1.99375 6.17823 1.3475 5.98811 0.8 5.68864C0.8 5.70107 0.8 5.71722 0.8 5.73337C0.8 7.71408 2.22125 9.35929 4.085 9.73828C3.75125 9.82899 3.3875 9.87249 3.01 9.87249C2.7475 9.87249 2.4825 9.85757 2.23375 9.8029C2.765 11.417 4.2725 12.6037 6.065 12.6422C4.67 13.727 2.89875 14.3807 0.98125 14.3807C0.645 14.3807 0.3225 14.3657 0 14.3247C1.81625 15.4891 3.96875 16.1538 6.29 16.1538C13.835 16.1538 17.96 9.94083 17.96 4.55538C17.96 4.37521 17.9538 4.20124 17.945 4.02852C18.7587 3.45444 19.4425 2.73746 20 1.91237Z" fill="black"/>
</svg>
