<?xml version="1.0" encoding="UTF-8"?>
<svg width="107px" height="18px" viewBox="0 0 107 18" version="1.1" xmlns="http://www.w3.org/2000/svg" xmlns:xlink="http://www.w3.org/1999/xlink">
    <!-- Generator: Sketch 60 (88103) - https://sketch.com -->
    <title>main_logo</title>
    <desc>Created with Sketch.</desc>
    <defs>
        <path d="M20.4984361,4.56392709 C21.077233,4.56392709 21.6382514,4.69927213 22.1815082,4.96996627 C22.7247649,5.24066041 23.1385477,5.59103962 23.422869,6.02111443 C23.6578693,6.37240242 23.8257246,6.77386914 23.9264384,7.22552362 L23.9712002,7.45553321 C24.0524349,7.82995128 24.0930516,8.42698734 24.0930516,9.24665931 L18.1147186,9.24665931 C18.1401044,10.071391 18.3355723,10.7329373 18.7011283,11.2313181 C19.0666842,11.7296989 19.6327798,11.9788856 20.3994318,11.9788856 C21.1153122,11.9788856 21.6864848,11.7436129 22.1129668,11.2730605 C22.3566707,10.9998365 22.5292918,10.6836097 22.6308351,10.3243708 L23.9788159,10.3243708 C23.9432758,10.6228933 23.8252334,10.9555638 23.6246854,11.3223923 C23.4241373,11.6892208 23.1994761,11.9890038 22.950695,12.2217501 C22.5343673,12.6265264 22.0190427,12.8997463 21.4047057,13.041418 C21.0746899,13.1223733 20.7015238,13.1628503 20.2851962,13.1628503 C19.269763,13.1628503 18.4091962,12.7947624 17.7034702,12.0585755 C16.9977441,11.3223886 16.6448864,10.2914895 16.6448864,8.96584717 C16.6448864,7.66044365 17.0002826,6.60045166 17.7110859,5.78583939 C18.4218891,4.97122712 19.3509966,4.56392709 20.4984361,4.56392709 Z M20.4146632,5.75548132 C19.7850947,5.75548132 19.2570773,5.98189966 18.8305954,6.43474312 C18.4041134,6.88758659 18.1781829,7.46311924 18.1527971,8.16135833 L22.6841451,8.16135833 C22.6282963,7.56937301 22.4988305,7.09629783 22.2957438,6.74211858 C21.9200335,6.08435712 21.293013,5.75548132 20.4146632,5.75548132 Z" id="path-1"></path>
        <path d="M53.2459928,4.54874805 C54.2055771,4.54874805 54.9849104,4.73089465 55.584016,5.09519331 C56.1780444,5.45949196 56.4750542,6.02617026 56.4750542,6.7952452 L56.4750542,11.4779774 C56.4750542,11.6196491 56.5042474,11.7334907 56.5626348,11.8195057 C56.6210223,11.9055207 56.7441417,11.9485275 56.9319968,11.9485275 C56.9929228,11.9485275 57.0614635,11.9447328 57.137621,11.9371432 C57.2137785,11.9295537 57.2950119,11.9181695 57.3813238,11.9029904 L57.3813238,12.9123962 L57.1498058,12.9743268 C57.0462324,12.9998275 56.9609369,13.0171315 56.8939183,13.026239 C56.7822206,13.0414181 56.6299079,13.0490075 56.4369756,13.0490075 C55.9647992,13.0490075 55.6220956,12.8820398 55.4088546,12.5480994 C55.297157,12.3710098 55.2184621,12.1205582 55.1727676,11.7967372 C54.8935235,12.1610358 54.4924334,12.4772625 53.9694853,12.7454268 C53.4465372,13.0135911 52.8702875,13.1476713 52.2407189,13.1476713 C51.4842212,13.1476713 50.8660855,12.9187231 50.3862933,12.4608199 C49.9065012,12.0029168 49.6666087,11.4299139 49.6666087,10.7417942 C49.6666087,9.98789841 49.9026933,9.40351142 50.3748698,8.98861572 C50.8470462,8.57372003 51.4664512,8.31820884 52.2331032,8.22207447 L54.4188122,7.94885184 C54.7335965,7.90837421 54.9442958,7.77682389 55.0509162,7.55419694 C55.1118422,7.43276405 55.1423048,7.2582069 55.1423048,7.03052024 C55.1423048,6.56502751 54.9760301,6.22729737 54.6434757,6.01731967 C54.3109213,5.80734197 53.8349442,5.7023547 53.2155299,5.7023547 C52.4996495,5.7023547 51.9919405,5.89462055 51.6923877,6.27915802 C51.5248413,6.4916645 51.4156838,6.8078923 51.3649122,7.22784769 L50.0854728,7.22784769 C50.1108586,6.22602639 50.4370616,5.52906268 51.0640916,5.13693565 C51.6911216,4.74480863 52.4184147,4.54874805 53.2459928,4.54874805 Z M55.1042262,8.73816165 C54.9366797,8.84441542 54.7209034,8.93295891 54.4568908,9.00379476 C54.1928782,9.07463061 53.9339466,9.12522689 53.6800883,9.15558511 L52.8499758,9.26183835 C52.3524135,9.3276145 51.9792474,9.43133686 51.7304663,9.57300856 C51.3090615,9.81081463 51.0983623,10.1902867 51.0983623,10.7114362 C51.0983623,11.106093 51.2430594,11.4172601 51.5324578,11.6449468 C51.8218563,11.8726335 52.1645598,11.9864751 52.5605788,11.9864751 C53.0429096,11.9864751 53.5100018,11.8751633 53.9618696,11.6525363 C54.7234445,11.283178 55.1042262,10.6785525 55.1042262,9.83864167 L55.1042262,8.73816165 Z" id="path-2"></path>
        <path d="M70.2747222,4.60187468 C70.9144452,4.60187468 71.472925,4.75872313 71.9501786,5.07242475 C72.2091141,5.24951438 72.4731228,5.50755539 72.7422126,5.84655553 L72.7422126,4.82197068 L74.0064206,4.82197068 L74.0064206,12.2141606 C74.0064206,13.2463401 73.8541079,14.0609402 73.5494779,14.6579852 C72.9808353,15.7610006 71.9070308,16.3125 70.3280322,16.3125 C69.4496825,16.3125 68.7109659,16.1164394 68.1118604,15.7243124 C67.5127548,15.3321854 67.1776669,14.7187055 67.1065865,13.8838544 L68.5002616,13.8838544 C68.5662648,14.2481531 68.6982691,14.5289624 68.8962786,14.7262909 C69.2059857,15.0298731 69.6933863,15.1816619 70.3584951,15.1816619 C71.4094684,15.1816619 72.0974141,14.8123091 72.4223527,14.0735924 C72.615285,13.6384579 72.704134,12.861805 72.6889026,11.7436105 C72.4147356,12.1585062 72.0847248,12.4671435 71.6988602,12.6695317 C71.3129956,12.8719198 70.802748,12.9731124 70.1681023,12.9731124 C69.2846754,12.9731124 68.5116885,12.6606803 67.8491183,12.035807 C67.1865482,11.4109336 66.8552681,10.3775046 66.8552681,8.9354891 C66.8552681,7.57442885 67.1890867,6.51190704 67.856734,5.7478918 C68.5243814,4.98387656 69.3303694,4.60187468 70.2747222,4.60187468 Z M70.5260407,5.80860794 C69.5613792,5.80860794 68.9013575,6.2589148 68.5459559,7.15954203 C68.3581007,7.64021387 68.2641746,8.27013752 68.2641746,9.04933186 C68.2641746,9.96513821 68.4507576,10.6621019 68.8239293,11.1402439 C69.197101,11.6183859 69.6984636,11.8574533 70.3280322,11.8574533 C71.3130024,11.8574533 72.0060252,11.4147359 72.4071213,10.5292878 C72.6305166,10.0283771 72.7422126,9.44399011 72.7422126,8.77610924 C72.7422126,7.76922823 72.5340519,7.02293315 72.1177243,6.53720161 C71.7013967,6.05147007 71.1708408,5.80860794 70.5260407,5.80860794 Z" id="path-3"></path>
        <path d="M79.4668853,4.56392709 C80.0456822,4.56392709 80.6067006,4.69927213 81.1499574,4.96996627 C81.6932141,5.24066041 82.1069969,5.59103962 82.3913182,6.02111443 C82.6263185,6.37240242 82.7941738,6.77386914 82.8948876,7.22552362 L82.9396494,7.45553321 C83.0208841,7.82995128 83.0615008,8.42698734 83.0615008,9.24665931 L77.0831678,9.24665931 C77.1085536,10.071391 77.3040215,10.7329373 77.6695775,11.2313181 C78.0351334,11.7296989 78.601229,11.9788856 79.367881,11.9788856 C80.0837614,11.9788856 80.654934,11.7436129 81.081416,11.2730605 C81.3251199,10.9998365 81.497741,10.6836097 81.5992843,10.3243708 L82.9472651,10.3243708 C82.911725,10.6228933 82.7936826,10.9555638 82.5931346,11.3223923 C82.3925865,11.6892208 82.1679253,11.9890038 81.9191442,12.2217501 C81.5028165,12.6265264 80.9874919,12.8997463 80.3731548,13.041418 C80.0431391,13.1223733 79.669973,13.1628503 79.2536454,13.1628503 C78.2382122,13.1628503 77.3776454,12.7947624 76.6719194,12.0585755 C75.9661933,11.3223886 75.6133356,10.2914895 75.6133356,8.96584717 C75.6133356,7.66044365 75.9687318,6.60045166 76.6795351,5.78583939 C77.3903383,4.97122712 78.3194458,4.56392709 79.4668853,4.56392709 Z M79.3831124,5.75548132 C78.7535439,5.75548132 78.2255265,5.98189966 77.7990446,6.43474312 C77.3725626,6.88758659 77.1466321,7.46311924 77.1212463,8.16135833 L77.1212463,8.16135833 L81.6525943,8.16135833 C81.5967454,7.56937301 81.4672797,7.09629783 81.264193,6.74211858 C80.8884827,6.08435712 80.2614621,5.75548132 79.3831124,5.75548132 Z" id="path-4"></path>
    </defs>
    <g id="main_logo" stroke="none" stroke-width="1" fill="none" fill-rule="evenodd">
        <g id="Path-5" fill-rule="nonzero">
            <use fill="#000000" xlink:href="#path-1"></use>
            <use fill="#FFFFFF" xlink:href="#path-1"></use>
        </g>
        <polygon id="Path" fill="#FFFFFF" fill-rule="nonzero" points="24.9993212 4.74607551 26.7737818 4.74607551 28.6472467 7.60732356 30.5435587 4.74607551 32.2113994 4.78402309 29.4621277 8.70780358 32.3332507 12.8744486 30.5816372 12.8744486 28.5558582 9.82346264 26.5910047 12.8744486 24.8546227 12.8744486 27.7257457 8.70780358"></polygon>
        <path d="M36.7199002,4.51080047 C37.6388672,4.51080047 38.3864687,4.73342408 38.962727,5.178678 C39.5389854,5.62393191 39.8854968,6.3904655 40.0022716,7.47830176 L38.6695222,7.47830176 C38.5882875,6.97739111 38.4029737,6.56123674 38.1135753,6.22982615 C37.8241768,5.89841557 37.3596231,5.73271277 36.7199002,5.73271277 C35.8466276,5.73271277 35.2221456,6.15772149 34.8464353,7.00775169 C34.6027314,7.55925937 34.4808812,8.23977929 34.4808812,9.04933186 C34.4808812,9.86394414 34.6535023,10.5495237 34.9987495,11.1060911 C35.3439968,11.6626585 35.8872454,11.940938 36.6285117,11.940938 C37.1971543,11.940938 37.647746,11.7676457 37.9803003,11.421056 C38.3128547,11.0744664 38.542593,10.6001263 38.6695222,9.99802154 L40.0022716,9.99802154 C39.8499566,11.0757384 39.4691749,11.8637754 38.8599149,12.3621562 C38.250655,12.860537 37.4713217,13.1097237 36.5218917,13.1097237 C35.4556869,13.1097237 34.6052743,12.7213972 33.9706286,11.9447327 C33.3359828,11.1680682 33.0186647,10.1978846 33.0186647,9.03415283 C33.0186647,7.60731643 33.3664454,6.49672815 34.0620171,5.7023547 C34.7575888,4.90798124 35.643541,4.51080047 36.7199002,4.51080047 Z" id="Path" fill="#FFFFFF" fill-rule="nonzero"></path>
        <path d="M41.3730995,1.6875 L42.7439275,1.6875 L42.7439275,5.84655553 C43.0688661,5.43671954 43.3607988,5.14832076 43.6197342,4.98135054 C44.0614477,4.69294744 44.6123119,4.54874805 45.2723435,4.54874805 C46.4553232,4.54874805 47.2575033,4.96110771 47.6789081,5.78583939 C47.9073806,6.236153 48.0216151,6.86101702 48.0216151,7.66045018 L48.0216151,12.8744486 L46.6127086,12.8744486 L46.6127086,7.75152439 C46.6127086,7.15447937 46.5365523,6.71682158 46.3842373,6.43853788 C46.1354561,5.99328397 45.6683639,5.77066035 44.9829465,5.77066035 C44.4143039,5.77066035 43.8989793,5.96545602 43.4369572,6.35505319 C42.9749351,6.74465037 42.7439275,7.48082619 42.7439275,8.56360275 L42.7439275,12.8744486 L41.3730995,12.8744486 L41.3730995,1.6875 Z" id="Path" fill="#FFFFFF" fill-rule="nonzero"></path>
        <g id="Path-3" fill-rule="nonzero">
            <use fill="#000000" xlink:href="#path-2"></use>
            <use fill="#FFFFFF" xlink:href="#path-2"></use>
        </g>
        <path d="M58.7216889,4.74607551 L60.0239754,4.74607551 L60.0239754,5.89968215 C60.40984,5.42407001 60.8185458,5.08254515 61.2501049,4.8750973 C61.681664,4.66764946 62.161449,4.56392709 62.6894742,4.56392709 C63.8470681,4.56392709 64.6289399,4.96616749 65.0351132,5.77066035 C65.2585085,6.21085456 65.3702045,6.84077821 65.3702045,7.66045018 L65.3702045,12.8744486 L63.9765294,12.8744486 L63.9765294,7.75152439 C63.9765294,7.25567344 63.9029116,6.85596286 63.7556738,6.55238064 C63.5119698,6.04641029 63.070263,5.79342891 62.4305401,5.79342891 C62.1056014,5.79342891 61.8390542,5.82631648 61.6308904,5.89209263 C61.2551801,6.00340611 60.9251693,6.22602973 60.640848,6.55997016 C60.4123755,6.82813445 60.2638707,7.10514906 60.1953289,7.39102231 C60.1267872,7.67689557 60.0925168,8.0854605 60.0925168,8.61672937 L60.0925168,12.8744486 L58.7216889,12.8744486 L58.7216889,4.74607551 Z" id="Path" fill="#FFFFFF" fill-rule="nonzero"></path>
        <g id="Path-4" fill-rule="nonzero">
            <use fill="#000000" xlink:href="#path-3"></use>
            <use fill="#FFFFFF" xlink:href="#path-3"></use>
        </g>
        <g id="Path-2" fill-rule="nonzero">
            <use fill="#000000" xlink:href="#path-4"></use>
            <use fill="#FFFFFF" xlink:href="#path-4"></use>
        </g>
        <polygon id="Triangle" fill="#5A81EA" points="7.83664773 9 13.9857955 15.1491477 1.6875 15.1491477"></polygon>
        <polygon id="Triangle" fill="#E14B51" transform="translate(7.836648, 5.925426) scale(1, -1) translate(-7.836648, -5.925426) " points="7.83664773 2.85085227 13.9857955 9 1.6875 9"></polygon>
    </g>
</svg>